<svg width="67" height="67" viewBox="0 0 67 67" xmlns="http://www.w3.org/2000/svg"><path d="M31.021 60.571l-.017-.126-.085-.108-.162-.111-.258-.142-.28-.156-.228-.162c-.065-.06-.114-.127-.147-.2-.034-.072-.046-.158-.038-.256.007-.082.034-.188.081-.317l.178-.406.234-.426.249-.373.171-.002.112.017.072.022.032.228c.013.064.047.128.101.192.055.065.136.132.245.204.108.071.262.156.462.256.225.107.389.202.492.286.102.084.15.185.146.305-.018.206-.074.45-.17.73-.096.281-.221.583-.375.908-.154.326-.333.667-.54 1.025-.206.357-.425.714-.657 1.072-.232.358-.475.707-.73 1.048-.254.341-.507.656-.76.947.266-.015.562-.039.887-.072.325-.032.646-.073.965-.122.319-.05.616-.106.891-.169.275-.063.499-.127.671-.191.177-.068.359-.195.546-.38.186-.184.366-.397.539-.638.174-.24.337-.493.491-.759.155-.264.29-.515.405-.75.116-.234.208-.439.277-.612.069-.174.105-.287.11-.339.007-.088-.025-.17-.097-.245-.072-.076-.22-.168-.445-.275l-.323-.151-.259-.165c-.073-.061-.129-.129-.167-.205-.038-.076-.053-.165-.044-.269.009-.114.036-.239.081-.375.045-.137.101-.275.167-.415l.209-.412.21-.365.071-.01.101.001.108.013.077.018c.011.114.033.207.067.277.033.071.083.135.151.193.068.058.156.112.264.162l.402.181c.255.114.447.231.576.347.128.118.186.246.174.385-.014.175-.085.443-.213.802-.129.358-.294.76-.497 1.206-.204.446-.433.91-.691 1.39-.259.48-.521.928-.79 1.342-.268.415-.533.77-.796 1.065-.264.296-.503.484-.717.565-.193.073-.423.142-.688.205-.265.063-.547.121-.844.172-.298.051-.599.097-.904.136-.305.04-.591.072-.858.097-.268.025-.505.042-.713.051-.209.009-.365.009-.469.001l-.205-.064-.179-.093c-.136-.567-.249-1.088-.34-1.561-.091-.472-.162-.909-.211-1.312-.051-.401-.081-.77-.093-1.106-.011-.336-.005-.651.019-.946.02-.238.063-.46.129-.668.067-.207.145-.417.236-.628l.034-.141-.052-.117-.153-.13-.259-.177-.34-.219-.264-.205c-.072-.068-.128-.14-.166-.216-.037-.076-.053-.161-.045-.253.007-.083.038-.185.095-.304.057-.121.127-.247.211-.381l.27-.399.282-.351.067-.006.109.013.106.024.072.029.03.21.107.164.247.184.453.268c.427.248.632.467.616.659-.007.082-.039.179-.098.292l-.214.384-.184.335-.189.402-.158.447c-.046.155-.076.315-.09.48-.019.232-.01.485.028.759.037.273.089.556.156.847.067.29.143.583.228.876l.25.847c.189-.213.38-.444.572-.693.192-.25.376-.505.554-.766.177-.261.343-.52.497-.777.153-.258.289-.504.407-.735.117-.232.213-.446.287-.639.073-.195.114-.354.125-.478zm7.959-3.245c.119.119.228.206.331.26.102.055.208.085.318.092.11.006.228-.008.356-.042l.444-.146 2.189-.827c.311-.117.61-.192.895-.227.286-.035.552-.015.797.062.246.076.465.214.658.411.193.198.354.469.485.815l.144.445.114.383.183.518c.164.435.351.853.562 1.256.211.401.422.791.632 1.168l.31.542c.099.166.167.298.204.397l.052.226-.042.202-.17.558-.139.547c-.134.068-.269.118-.408.155l-.183-.397-.247-.562-.252-.602-.206-.523c-.175-.463-.314-.84-.418-1.131l-.255-.732-.166-.517-.159-.49c-.152-.432-.384-.72-.698-.864-.313-.144-.733-.117-1.255.08l-2.582.975-.521.176c-.17.05-.328.074-.472.072-.144-.002-.274-.04-.389-.111-.114-.073-.204-.196-.269-.368l-.05-.221-.047-.372-.038-.481-.018-.542.143-.113.167-.072zm-18.129-2.377c.002.142.02.259.054.353.035.094.092.178.173.252.082.074.189.147.321.218l.486.24.493.245c.142.074.259.153.353.237.093.084.159.174.198.271.039.097.05.21.032.339-.043.308-.184.741-.426 1.294-.241.554-.595 1.224-1.059 2.009-.19-.068-.357-.154-.5-.258l.216-.536.18-.51.132-.442.07-.333-.006-.217-.09-.173-.187-.16-.295-.166-.552-.277c-.162-.082-.296-.167-.402-.252-.106-.085-.183-.177-.23-.276-.046-.098-.061-.214-.042-.347.012-.088.043-.198.093-.33l.178-.411.223-.418.226-.355.172-.02.189.023zm-7.007-4.687l-.514-.458c-.308-.265-.417-.257-.755-.002l-4.934 3.734.315.417c.678.896 1.096.803 2.185.342l.235.311-1.597 1.208-3.949-5.218 1.598-1.209.235.311c-.74.922-.943 1.3-.265 2.196l.316.417 4.935-3.733c.337-.256.364-.369.204-.727l-.292-.593.356-.264c.834 1.487 2.277 2.998 2.277 2.998l-.35.27zm40.918-2.786c-.432.637-.432.886-.025 1.204l4.292 3.575c.453.378.52.348 1.104-.281l.298.249-2.207 2.649-.299-.249c.556-.737.573-.811.12-1.188l-4.109-3.403c-.376-.314-.612-.395-.822-.266-.207.146-.423.386-.686.703-.798.957-.615 1.495.12 2.542l-.256.308s-1.103-1.007-1.743-1.599c2.059-1.966 3.846-4.534 3.846-4.534l.367.29zm3.939-7.378c.861-.348 1.927-.295 3.11.162 1.184.456 2.009 1.131 2.414 1.967.419.83.426 1.835-.022 2.997-.452 1.174-1.127 1.904-1.999 2.248-.862.347-1.923.284-3.106-.172-1.184-.456-2.013-1.122-2.418-1.958-.416-.84-.427-1.834.025-3.007.449-1.163 1.128-1.904 1.996-2.237zm-52.884 3.343l2.585-.848c.563-.176.575-.25.362-1.081l.394-.147s.432 1.456 1.253 3.088c-.17.06-.373.185-.373.185-.357-.654-.541-.796-1.104-.62l-5.358 1.75c-.563.176-.534.324-.322 1.155l-.371.116-1.079-3.243.372-.117c.298.805.35.859.912.683l2.262-.775-.985-3.176-2.278.683c-.563.176-.588.252-.375 1.083l-.372.116-.931-3.257.372-.116c.297.805.336.861.899.685l5.292-1.588c.563-.176.713-.417.626-1.17l.403-.073c.236 1.639.74 3.271.74 3.271l-.399.12c-.298-.804-.349-.858-.912-.682l-2.595.795.982 3.163zm53.897 2.26c1.41.519 3.425.986 4.053-.645.628-1.63-1.179-2.636-2.572-3.197-1.462-.54-3.425-.987-4.053.644-.628 1.63 1.126 2.617 2.572 3.198zm-9.913-.081h-6.238c-3.302 0-5.361-1.998-6.41-4.827-.916-2.473-2.171-5.484-2.753-7.068l-.002-.294c.327-.087 2.474-.566 4.894-.222 3.05.432 4.535 2.78 6.049 6.751.895 2.38 2.162 4.157 4.46 4.157v1.503zm-13.207-26.097c4.863 0 8.424 2.657 8.424 6.732 0 4.032-2.809 5.86-4.636 6.228-1.121-4.748-3.398-10.276-6.369-10.276-1.614 0-2.252 2.091-2.235 4.542l-.464.001c-.497-1.491-1.689-4.35-3.672-4.958-1.556-.432-2.493.636-3.713.965v.231c2.054.786 3.045 2.48 3.126 5.114.213 6.98 2.022 13.334 8.529 16.056v1.461h-16.236v-1.509c2.066-.137 2.686-1.313 2.686-3.195v-16.063c0-2.005-.536-3.679-2.686-3.827v-1.502h17.246zm22.919 11.59c.695-.617 1.716-.924 2.984-.891 1.268.033 2.272.394 2.934 1.045.674.641 1.016 1.585.984 2.83-.033 1.258-.425 2.171-1.131 2.788-.695.616-1.716.912-2.984.879-1.268-.033-2.272-.382-2.934-1.034-.673-.652-1.016-1.585-.983-2.842.032-1.245.424-2.17 1.13-2.775zm2.832 4.938c1.502.016 3.557-.219 3.602-1.966.046-1.746-1.994-2.088-3.495-2.15-1.558-.018-3.556.22-3.602 1.965-.046 1.747 1.938 2.088 3.495 2.151zm-54.949-.964c-.003-.858-.126-.926-.716-.955l-5.579-.274c-.589-.029-.626.036-.712.89l-.389-.019.288-5.857 1.967.097-.02.4c-1.124.212-1.524.415-1.583 1.604l-.045.923c-.016.333.058.404.38.419l2.546.125.06-1.233c.039-.789-.178-.911-.938-1.093l.019-.389 2.49.122-.019.389c-.774.106-.991.207-1.029.996l-.061 1.234 2.412.118c.489.024.727-.053.816-.283.079-.241.106-.563.13-1.063.066-1.334-.375-1.667-1.603-2.073l.02-.389 2.289.267s-.393 2.707-.28 6.063l-.443-.019zm52.827-12.892l-2.566.904c-.559.188-.569.262-.339 1.088l-.39.155s-.464-1.446-1.32-3.06c.169-.064.369-.192.369-.192.371.645.559.783 1.118.595l5.319-1.865c.559-.188.526-.335.295-1.162l.37-.124 1.148 3.22-.369.124c-.315-.798-.368-.851-.927-.663l-2.244.824 1.053 3.154 2.263-.732c.559-.189.583-.265.352-1.092l.369-.123 1.001 3.236-.369.124c-.315-.799-.355-.854-.914-.666l-5.257 1.703c-.559.188-.703.432-.6 1.182l-.401.082c-.271-1.633-.81-3.254-.81-3.254l.396-.129c.315.798.367.851.926.663l2.577-.852-1.05-3.14zm-50.77-.624c.519.279.58.236 1.025-.497l.369.197c-.728 1.266-1.404 3.091-1.404 3.091l-.37-.184c.323-.799.173-.975-.347-1.254l-4.948-2.562c-.519-.278-.554-.209-.998.525l-.343-.184 1.742-3.352c.942-1.755 2.007-1.903 2.958-1.393.892.479 1.151 1.503.787 2.532l.02.011c.802-.883 1.549-.722 2.441-.407 1.475.509 1.943 0 2.058-.191l.343.238-.522.708c-.416.561-.901 1.092-1.827.889-.554-.12-1.219-.364-1.585-.459-.652-.173-1.046.044-1.33.574l-.285.529 2.216 1.189zm18.07 1.514c0 .325-.264.589-.589.589-.325 0-.589-.264-.589-.589 0-.325.264-.589.589-.589.325 0 .589.264.589.589zm-20.382-3.512c.526-.98.198-1.662-.694-2.141-1.059-.569-1.741-.044-2.11.642-.31.578-.244.715.07.883l2.418 1.204.316-.588zm47.963-.212c-.672-.252-1.52-.995-2.039-1.62-.839-1.01-1.246-1.988-1.192-2.916.068-.981.621-1.918 1.597-2.728.959-.796 1.944-1.195 2.936-1.15.974.059 1.974.618 2.919 1.756.462.557 1.034 1.456 1.162 2.131l-1.464 1.216-.249-.3c.613-.812.973-1.806.127-2.825-1.3-1.567-3.309-.362-4.216.391-.993.825-2.554 2.569-1.211 4.187.846 1.019 1.883.823 3.05.346l.249.3-1.669 1.212zm-42.22-1.994c.396-.447.309-.848.097-1.366-.321-.797-.851-1.948-1.313-2.994l-1.542-3.466.869-.815 6.253 3.365c.471.26.738.223 1.186-.086l.318.34c-1.21.861-2.553 2.054-2.553 2.054l-.298-.278.413-.422c.188-.206.08-.368-.175-.51l-1.762-.953-1.664 1.56c.334.664.605 1.279.925 1.833.142.248.248.343.465.169l.48-.415.317.312s-.879.868-1.678 1.938c-.12-.122-.338-.266-.338-.266zm1.045-5.382l-2.746-1.529-.024.023c.154.344 1.165 2.462 1.341 2.846l1.429-1.34zm37.355-3.978c.444-1.195.183-1.967-.455-2.373-.667-.424-1.349-.264-1.743.355-.435.686.044 1.465.499 2.098l.21.291c.656.919 1.073 1.922.386 3.002-.645 1.014-1.858 1.614-3.676.471-.629-.4-1.406-1.106-1.598-1.821l.905-1.693.329.209c-.398 1.33-.155 2.421.615 2.91.704.448 1.409.356 1.875-.376.43-.676.211-1.369-.269-2.044l-.153-.216c-.671-.915-1.27-2.047-.577-3.136.687-1.08 1.936-1.406 3.476-.427.573.365 1.174.932 1.427 1.488l-.932 1.465-.319-.203zm-30.056-3.424c-.785-1.004-1.579-1.188-2.259-.857-.711.345-.933 1.009-.612 1.67.355.73 1.271.731 2.047.675l.359-.025c1.126-.077 2.199.095 2.758 1.246.524 1.081.399 2.428-1.528 3.376-.67.326-1.679.618-2.388.406l-.966-1.659.35-.17c.924 1.036 1.98 1.401 2.8 1.003.751-.365 1.042-1.013.663-1.794-.35-.721-1.055-.898-1.881-.843l-.264.017c-1.131.091-2.409.007-2.973-1.155-.559-1.151-.181-2.385 1.46-3.182.611-.297 1.41-.511 2.016-.435l.758 1.562-.34.165zm6.971-.098l.348 2.698c.067.586.137.612.994.559l.07.414s-1.511.151-3.269.652c-.026-.179-.111-.401-.111-.401.709-.228.884-.383.817-.969l-.714-5.591c-.067-.586-.218-.585-1.074-.532l-.044-.387 3.388-.451.044.387c-.846.141-.908.182-.842.768l.338 2.367 3.304-.371-.244-2.366c-.067-.586-.137-.625-.993-.572l-.044-.387 3.374-.303.044.387c-.847.141-.909.168-.842.754l.567 5.496c.067.587.276.779 1.031.835l-.004.409c-1.653-.076-3.351.113-3.351.113l-.043-.414c.846-.142.909-.182.841-.768l-.294-2.698-3.291.371zm10.543 2.921c-.107.58-.047.625.787.824l-.07.409c-1.816-.427-3.34-.611-3.34-.611l.083-.409c.851.111.923.09 1.029-.49l1.009-5.494c.107-.58.047-.625-.787-.824l.07-.383 3.327.611-.071.383c-.85-.111-.922-.09-1.029.49l-1.008 5.494z" fill="#686879"/></svg>