<svg width="92" height="49" viewBox="0 0 92 49" xmlns="http://www.w3.org/2000/svg"><path d="M89.883 48.069h-.2v-1.294h.495c.31 0 .46.116.46.368 0 .232-.146.334-.338.356l.369.57h-.216l-.348-.563h-.222v.563zm0-.724h.236c.241 0 .322-.073.322-.213 0-.123-.061-.193-.291-.193h-.267v.406zm-.902.075c0-.645.525-1.121 1.138-1.121.614 0 1.137.476 1.137 1.121 0 .649-.523 1.123-1.137 1.123-.613 0-1.138-.474-1.138-1.123zm2.057 0c0-.536-.404-.937-.919-.937-.52 0-.919.401-.919.937 0 .547.399.942.919.942.515 0 .919-.395.919-.942zm-73.078-25.327l-1.473 2.559 14.719.825 2.662-4.591-15.908 1.207zm8.468-14.704l-1.472 2.556 20.888 1.375-1.333-5.07-18.083 1.139zm2.762-4.795l14.622.916-.923-3.464-12.225-.008-1.474 2.556zm-15.463 26.853l-1.476 2.555 15.213-.014 2.122-3.653-15.859 1.112zm46.062-10.963c1.065 0 2.589 1.11 1.758 3.259-.894 2.315-3.805 3.126-5.431 3.126h-3.508l3.684-6.382 3.497-.003zm3.526-12.196l2.962.003c1.275-.003 2.236 1.489 1.52 3.241-.776 1.889-2.898 2.82-4.936 2.831l-3.059.019 3.513-6.094zm-17.356 5.032l9.7.628-.374.645-33.093 2.149-1.473 2.556 30.745 1.939-.371.644-17.114.998 1.296 4.855 12.025.735-.375.647-11.088.781 1.042 4.096 21.171-.009c5.097 0 14.261-3.373 15.325-10.451.601-3.991-2.876-5.532-4.27-5.697 6.574-1.853 8.816-6.274 9.293-8.031 1.584-5.798-2.496-7.77-8.009-7.77l-17.933.003-2.26 3.927 9.668.675-.364.651-10.452.67-3.089 5.359zm36.249 33.833c.087.54.863 1.706 2.287 1.706.886 0 1.541-.374 1.915-1.06h2.095c-.478 1.496-2.065 2.887-4.01 2.887-2.469 0-4.385-1.976-4.385-4.4 0-2.349 1.812-4.507 4.369-4.507 2.635 0 4.295 2.278 4.295 4.373 0 .39-.06.733-.119 1.001h-6.447zm-.061-1.6h4.592c-.224-1.332-1.255-1.945-2.244-1.945-.73 0-1.974.404-2.348 1.945zm-4.589 2.154c-.524.839-1.18 1.152-1.84 1.152-1.498 0-2.499-1.182-2.499-2.602 0-1.707 1.198-2.603 2.408-2.603 1.229 0 1.69.791 1.931 1.209h2.247c-.855-2.56-3.131-3.039-4.178-3.039-2.288 0-4.398 1.859-4.398 4.401 0 2.755 2.288 4.459 4.415 4.459 1.945 0 3.486-1.121 4.161-2.977h-2.247zm-14.447 2.709h1.988v-3.951c0-.703 0-1.57.36-2.081.359-.551 1.004-.73 1.362-.73 1.677 0 1.677 1.974 1.677 2.661v4.101h1.991v-4.489c0-.644 0-2.035-.767-2.948-.686-.839-1.777-1.155-2.497-1.155-1.259 0-1.944.693-2.274 1.003v-.717h-1.84v8.306zm-1.06-.002h-1.825v-1.028c-.63.744-1.856 1.3-2.904 1.3-2.14 0-4.039-1.706-4.039-4.475 0-2.546 1.853-4.387 4.162-4.387 1.687 0 2.691 1.214 2.75 1.337h.031v-1.051h1.825v8.304zm-1.886-4.171c0-1.723-1.242-2.589-2.423-2.589-1.631 0-2.469 1.406-2.469 2.646 0 1.407 1.046 2.559 2.469 2.559 1.377 0 2.423-1.075 2.423-2.616zm-9.471 4.174h1.992v-11.075h-1.992v11.075zm-1.056-.003h-1.828v-1.028c-.628.744-1.855 1.3-2.903 1.3-2.139 0-4.038-1.706-4.038-4.475 0-2.546 1.855-4.387 4.16-4.387 1.688 0 2.691 1.214 2.753 1.337h.028v-1.051h1.828v8.304zm-1.885-4.171c0-1.723-1.245-2.589-2.426-2.589-1.63 0-2.468 1.406-2.468 2.646 0 1.407 1.046 2.559 2.468 2.559 1.376 0 2.426-1.075 2.426-2.616zm-16.158-6.901h1.989v3.519c.686-.69 1.661-1.037 2.59-1.037 2.53 0 4.175 2.204 4.175 4.401 0 1.663-1.095 4.459-4.13 4.459-1.602 0-2.306-.717-2.8-1.271v1.003h-1.824v-11.074zm1.867 6.81c0 1.841 1.333 2.707 2.501 2.707 1.302 0 2.394-1.003 2.394-2.616 0-1.618-1.164-2.589-2.424-2.589-1.525 0-2.471 1.289-2.471 2.498zm-14.365 4.264h1.225l1.573-5.387h.027l1.557 5.387h1.228l3.036-8.306h-2.124l-1.528 5.072h-.029l-1.347-5.072h-1.586l-1.362 5.072h-.03l-1.51-5.072h-2.124l2.994 8.306zm-9.123-3.263c.091.54.869 1.706 2.291 1.706.879 0 1.541-.374 1.912-1.06h2.097c-.48 1.496-2.067 2.887-4.009 2.887-2.472 0-4.386-1.976-4.386-4.4 0-2.349 1.81-4.507 4.369-4.507 2.632 0 4.296 2.278 4.296 4.373 0 .39-.064.733-.121 1.001h-6.449zm-.059-1.6h4.591c-.224-1.332-1.255-1.945-2.241-1.945-.734 0-1.979.404-2.35 1.945zm-9.915 4.863v-8.306h1.84v.717c.329-.31 1.017-1.003 2.274-1.003.717 0 1.811.316 2.497 1.155.765.913.765 2.304.765 2.948v4.489h-1.989v-4.101c0-.687 0-2.661-1.675-2.661-.363 0-1.005.179-1.364.73-.36.511-.36 1.378-.36 2.081v3.951h-1.988z" fill="#686879"/></svg>