<svg width="50" height="63" viewBox="0 0 50 63" xmlns="http://www.w3.org/2000/svg"><path d="M41.439 53.491h1.634l3.83 5.893v-5.893h1.706v8.956h-1.641l-3.825-5.876v5.876h-1.704v-8.956zm-5.73 1.443c-.829 0-1.528.289-2.093.866-.564.576-.846 1.308-.846 2.197 0 .989.356 1.773 1.067 2.35.551.45 1.184.675 1.901.675.807 0 1.497-.293 2.064-.876.569-.586.855-1.305.855-2.162 0-.852-.288-1.574-.859-2.165-.574-.589-1.271-.885-2.089-.885zm.014-1.667c1.269 0 2.357.457 3.271 1.375.908.917 1.368 2.035 1.368 3.355 0 1.305-.451 2.412-1.35 3.317-.899.905-1.993 1.357-3.274 1.357-1.343 0-2.462-.465-3.35-1.393-.891-.93-1.336-2.034-1.336-3.312 0-.856.208-1.644.621-2.362.417-.718.984-1.287 1.709-1.707.726-.42 1.508-.63 2.341-.63zm-5.107 1.798l-1.194 1.137c-.809-.858-1.723-1.286-2.736-1.286-.854 0-1.574.293-2.161.878-.585.584-.878 1.305-.878 2.162 0 .597.13 1.129.388 1.592.26.463.627.826 1.1 1.089.474.264 1.002.397 1.582.397.495 0 .948-.093 1.357-.278.409-.183.86-.521 1.348-1.007l1.16 1.206c-.664.645-1.289 1.093-1.878 1.341-.587.252-1.26.375-2.014.375-1.393 0-2.531-.441-3.418-1.323-.887-.883-1.328-2.014-1.328-3.394 0-.892.201-1.686.605-2.381.4-.693.98-1.253 1.734-1.673.752-.423 1.563-.633 2.432-.633.736 0 1.447.156 2.133.466.682.313 1.273.758 1.768 1.332zm-12.823.801l-1.201 3.075h2.393l-1.192-3.075zm-.876-2.375h1.731l3.443 8.956h-1.772l-.7-1.845h-3.653l-.731 1.845h-1.768l3.45-8.956zm-9.191 0h4.887v1.669h-3.196v1.619h3.196v1.638h-3.196v2.355h3.196v1.675h-4.887v-8.956zm-4.998 5.035v2.295h.424c.709 0 1.185-.089 1.433-.268.246-.179.369-.438.369-.779 0-.386-.145-.689-.434-.914-.287-.222-.768-.334-1.44-.334h-.352zm0-3.409v1.887h.37c.417 0 .725-.088.927-.262.202-.174.301-.411.301-.713 0-.28-.097-.502-.284-.666-.193-.165-.484-.246-.876-.246h-.438zm-1.709 7.33v-8.956h1.41c.818 0 1.412.054 1.793.16.535.142.962.405 1.278.79.32.386.478.84.478 1.364 0 .341-.072.65-.219.928-.142.278-.377.539-.702.783.544.255.942.574 1.194.958.251.384.378.837.378 1.361 0 .503-.131.962-.389 1.375-.262.415-.596.724-1.009.93-.409.205-.973.307-1.698.307h-2.514zm-1.019-62.396v8.159l10.548 2.892v-.648l2.632-1.772c-.11-.115-.176-.269-.176-.44 0-.357.287-.646.646-.646.356 0 .643.289.643.646 0 .171-.068.325-.178.44l2.637 1.772v1.499h32.88v-11.902h-49.632zm17.732 14.686s-1.576-1.24-4.123-1.24c-2.548 0-3.93 1.24-3.93 1.24l-.066.629c.928-.345 2.229-.611 4.037-.611 1.881 0 3.213.289 4.149.656l-.067-.674zm-4.082.708c-4.599 0-5.586 1.786-5.586 1.786v2.558s1.7-1.787 5.586-1.787c3.881 0 5.581 1.787 5.581 1.787v-2.558s-.985-1.786-5.581-1.786zm3.099-2.246l32.883 9.591v26.893h-28.37l-3.011-29.797c-.698-.465-2.176-1.195-4.601-1.195-2.319 0-3.768.662-4.5 1.127l-3.111 29.865h-6.039v-37.389h10.548v1.433l.309-.131v-1.302h2.793l2.79.815v.487l.309.123v-.52zm-3.099-1.246l-2.793-.765v-.167s.867-.985 2.793-.985c1.921 0 2.79.985 2.79.985v.932h-2.79z" fill="#686879"/></svg>