
<svg width="58px" height="61px" viewBox="0 0 58 61" xmlns="http://www.w3.org/2000/svg"><g stroke="none" stroke-width="1" fill="none" fill-rule="evenodd"><g transform="translate(-685.000000, -56.000000)" fill="#686879"><path d="M685,116.09135 L742.188,116.09135 L742.188,56.63035 L685,56.63035 L685,116.09135 Z M685.472,115.61935 L741.716,115.61935 L741.716,57.10235 L685.472,57.10235 L685.472,115.61935 Z M686.238,114.81035 L740.935,114.81035 L740.935,57.90135 L686.238,57.90135 L686.238,114.81035 Z M734.7175,107.96695 L734.7175,101.97295 L733.8485,101.97295 L733.8485,105.85695 L730.0625,101.88695 L729.9925,101.88695 L729.9925,107.87995 L730.8605,107.87995 L730.8605,103.99695 L734.6475,107.96695 L734.7175,107.96695 Z M699.0762,104.92685 C699.0762,103.18085 700.4312,101.89485 702.1252,101.89485 C703.8182,101.89485 705.1732,103.18085 705.1732,104.92685 C705.1732,106.67285 703.8182,107.95885 702.1252,107.95885 C700.4312,107.95885 699.0762,106.67285 699.0762,104.92685 Z M720.8418,104.92685 C720.8418,103.18085 722.1958,101.89485 723.8898,101.89485 C725.5838,101.89485 726.9388,103.18085 726.9388,104.92685 C726.9388,106.67285 725.5838,107.95885 723.8898,107.95885 C722.1958,107.95885 720.8418,106.67285 720.8418,104.92685 Z M708.4169,106.32505 C708.6869,106.84605 709.1469,107.12305 709.7549,107.12305 C710.3799,107.12305 710.7969,106.82905 710.7969,106.35105 C710.7969,105.79505 710.3799,105.60405 709.8589,105.37005 L709.4509,105.18705 C708.5819,104.80505 707.9919,104.35305 707.9919,103.43305 C707.9919,102.52905 708.6599,101.89505 709.6329,101.89505 C710.3889,101.89505 710.9449,102.19905 711.3179,102.82505 L710.6149,103.28505 C710.3889,102.90305 710.0929,102.71205 709.6509,102.71205 C709.1729,102.71205 708.8949,102.99005 708.8949,103.39805 C708.8949,103.86705 709.1819,104.04905 709.8239,104.33605 L710.2319,104.51805 C711.1269,104.91805 711.7179,105.32605 711.7179,106.32505 C711.7179,107.41105 710.8839,107.95805 709.7639,107.95805 C708.7649,107.95805 708.0349,107.47205 707.6349,106.71605 L708.4169,106.32505 Z M694.4443,107.87975 C695.7994,107.87965 696.4333,107.09865 696.4333,106.09975 C696.4333,105.33475 695.9993,104.80475 695.3043,104.60475 C695.7383,104.38775 696.0163,104.00675 696.0163,103.48475 C696.0163,102.64175 695.4693,101.97375 694.2883,101.97375 L692.1943,101.97375 L692.1943,107.87975 L694.4443,107.87975 Z M718.5743,102.79875 L718.5743,101.97375 L714.1353,101.97375 L714.1353,102.79875 L715.8903,102.79875 L715.8903,107.87975 L716.8193,107.87975 L716.8193,102.79875 L718.5743,102.79875 Z M704.2092,104.92685 C704.2092,103.67585 703.3492,102.73685 702.1252,102.73685 C700.9002,102.73685 700.0402,103.67585 700.0402,104.92685 C700.0402,106.17685 700.9002,107.11585 702.1252,107.11585 C703.3492,107.11585 704.2092,106.17685 704.2092,104.92685 Z M725.9748,104.92685 C725.9748,103.67585 725.1148,102.73685 723.8898,102.73685 C722.6658,102.73685 721.8058,103.67585 721.8058,104.92685 C721.8058,106.17685 722.6658,107.11585 723.8898,107.11585 C725.1148,107.11585 725.9748,106.17685 725.9748,104.92685 Z M694.3493,105.03975 C695.1573,105.03985 695.4863,105.45575 695.4863,106.06475 C695.4863,106.67275 695.2083,107.08075 694.3923,107.08075 L693.1153,107.08075 L693.1153,105.03975 L694.3493,105.03975 Z M694.2363,102.77175 C694.8873,102.77185 695.0953,103.05975 695.0953,103.51075 C695.0953,103.99675 694.8793,104.29275 694.2363,104.29275 L693.1153,104.29275 L693.1153,102.77175 L694.2363,102.77175 Z M726.7949,89.52685 C728.2009,88.56385 729.0599,88.35485 730.7769,88.35485 C733.6919,88.35485 736.1389,90.07285 736.1389,93.11885 C736.1389,96.81385 732.8589,98.37585 729.5279,98.37585 C724.3999,98.37585 722.0059,95.48685 722.0059,90.80185 C722.0059,85.46585 724.4789,81.84885 730.1529,81.84885 C732.2089,81.84885 735.4879,82.88985 735.4879,85.15285 C735.4879,86.76685 734.5509,87.41785 732.9109,87.41785 C731.7919,87.41785 730.8809,86.66285 730.8809,85.70085 C730.8809,84.89385 731.1929,84.52985 731.8969,84.16485 C731.4539,83.87885 731.0369,83.77485 730.5689,83.77485 C727.8879,83.77485 726.7949,85.70085 726.7949,88.09485 L726.7949,89.52685 Z M708.7865,97.98575 C708.8906,97.23065 709.4376,96.91775 710.2705,96.91775 C711.1295,96.91775 711.9625,97.28275 712.8995,97.64775 C713.8365,98.01075 714.8515,98.37575 716.0485,98.37575 C719.0675,98.37575 720.6035,96.78775 720.6035,93.79375 L720.6035,92.51975 L718.3905,92.51975 C718.3905,93.40375 718.2865,94.62675 717.0895,94.62675 C716.2825,94.62675 715.6585,94.44575 715.0075,94.31575 C714.3565,94.18475 713.7065,94.02875 712.8475,94.02875 C711.5195,94.02875 710.5825,94.26375 709.5155,95.01775 L709.4635,94.96575 C711.8325,91.27075 720.0565,93.24875 720.0565,87.00175 C720.0565,83.27975 716.6995,81.84875 713.4715,81.84875 C710.2705,81.84875 706.5225,83.27975 706.5225,87.02775 C706.5225,88.61475 707.6155,89.73475 709.1775,89.73475 C711.2595,89.73475 711.6495,88.48575 711.6495,87.65275 C711.6495,86.76675 710.9215,85.80375 709.9325,85.80375 C709.6195,85.80375 709.2295,85.85675 708.9175,86.01275 C709.2555,84.63275 710.8175,83.92975 712.0925,83.92975 C713.7835,83.92975 715.2675,84.86775 715.2675,86.71575 C715.2675,90.98375 706.5225,90.38475 706.5225,96.89175 L706.5225,97.98575 L708.7865,97.98575 Z M704.5706,85.77745 C704.5706,87.47045 703.3216,88.25045 701.8896,88.74545 C703.9986,89.57845 705.4036,90.85445 705.4036,93.27445 C705.4036,97.25645 701.8376,98.37545 698.0906,98.37545 C695.2526,98.37545 691.0366,97.77645 691.0366,94.08145 C691.0366,91.99945 692.1556,90.87945 694.0556,90.20345 C692.7546,89.55145 691.6096,88.38145 691.6096,86.84545 C691.6096,82.83745 695.0186,81.84845 698.4026,81.84845 C700.9276,81.84845 704.5706,82.62945 704.5706,85.77745 Z M696.0596,91.27045 C695.0446,91.63445 694.1596,92.78045 694.1596,93.63845 C694.1596,95.90345 696.2946,96.44945 698.1686,96.44945 C699.5476,96.44945 701.3696,95.98145 701.3696,94.31545 C701.3696,93.56045 700.9276,93.03945 699.0536,92.36345 L696.0596,91.27045 Z M727.0809,93.37885 C727.0809,95.38185 727.8879,96.29385 729.2159,96.29385 C730.5429,96.29385 731.3499,95.38185 731.3499,93.37885 C731.3499,91.37385 730.5429,90.43785 729.2159,90.43785 C727.8879,90.43785 727.0809,91.37385 727.0809,93.37885 Z M700.4846,87.47045 C701.1356,87.07945 701.4476,86.58545 701.4476,85.77745 C701.4476,84.16445 699.7036,83.77445 698.4026,83.77445 C697.2046,83.77445 695.6436,84.06145 695.6436,85.54445 C695.6436,86.11645 695.9816,86.55945 696.6066,86.76745 L699.8076,87.88645 L700.4846,87.47045 Z"></path></g></g>
</svg>
