<svg width="53" height="57" viewBox="0 0 53 57" xmlns="http://www.w3.org/2000/svg"><path d="M45.61 55.925c.48-.027.67-.066.745-.428.101-.466.131-4.61.141-5.333-.392-.356-.554-.425-1.028-.464v-.376h2.135c.595.831.726 1.019 1.774 2.294l1.983 2.415v-3.127c-.01-1.108-.04-1.167-1.168-1.206v-.376h2.799v.376c-.776.009-.846.168-.856 1.306l-.101 5.392h-.422l-.635-.782c-.321-.396-.644-.791-.967-1.178l-2.81-3.405v3.623c0 1.128.08 1.167 1.169 1.277v.375h-6.016v-.375c.484-.03.857-.069.857-.455 0-.138-.041-.288-.081-.417l-.213-.713h-2.508l-.219.604c-.05.148-.091.288-.091.435 0 .495.534.525.966.545v.375h-2.931v-.375c.746-.03.988-.178 1.26-.911l1.924-5.184-.111-.169c.826-.267 1.058-.386 1.41-.644.141.475.162.535.323 1.029l1.571 4.75c.274.816.405 1.036 1.102 1.121zm-19.147-25.218l-10.78-14.558v10.588h4.312v10.456h-19.942v-10.456h4.042v-16.28h-4.042v-10.456h15.665l10.797 14.691 10.821-14.691h15.664v10.456h-4.042v16.28h4.042v10.456h-19.941v-10.456h4.311v-10.588l-10.907 14.558zm15.253 19.994l-1.045 2.894h2.043l-.998-2.894zm-22.073 4.053c-.316.504-1.072 1.741-3.033 1.741-2.143 0-3.531-1.552-3.531-3.591 0-1.889 1.177-3.75 3.579-3.75 1.263 0 1.933.525 2.344.841l.488-.435.038 2.117-.316.06c-.124-.406-.306-.732-.764-1.227-.22-.228-.747-.683-1.493-.683-1.282 0-2.297 1.028-2.297 2.839 0 1.534.833 2.979 2.479 2.979 1.244 0 1.71-.682 2.084-1.205l.423.314zm.525 1.553v-.375c.805-.069.816-.238.816-.911l.01-.742v-2.929c0-.454 0-.909-.03-1.127-.04-.416-.242-.475-.796-.524v-.376h3.044v.376c-.594.059-.816.078-.887.464-.05.228-.06.742-.06 1.158v.965c.614.029 1.042.048 1.636.048.605 0 1.082-.02 1.687-.048v-1.174c-.01-1.275-.021-1.326-.988-1.414v-.376h3.085v.376c-.827.098-.827.108-.827 1.433v2.949c0 .276.01 1.158.04 1.364.05.367.263.436.787.486v.375h-3.085v-.375c.716-.08.906-.099.967-.584.021-.198.021-.465.021-.97v-1.281c-.564-.02-1.033-.048-1.617-.048-.614 0-1.093.019-1.707.048v1.281c.009 1.455.03 1.455.947 1.554v.375h-3.044zm8.106 0v-.375c.696-.09.837-.168.847-.901v-3.72c-.009-1.454-.009-1.494-.847-1.612v-.376h2.956v.376c-.836.078-.836.118-.836 1.612v2.819c0 .247.01 1.029.031 1.237.05.425.252.525.805.564v.375h-2.956zm-18.245 0v-.375c.695-.09.836-.168.845-.901v-3.72c-.009-1.454-.009-1.494-.845-1.612v-.376h2.953v.376c-.836.078-.836.118-.836 1.612v2.819c0 .247.01 1.029.03 1.237.05.425.252.525.806.564v.375h-2.953zm-3.81 0v-.375c.897-.059.897-.099.907-1.395v-3.512l-2.488 5.372h-.624l-2.283-5.444-.054 4.107c0 .684.081.813.836.871v.375h-2.468v-.375c.574-.03.795-.109.835-.584.021-.189.051-.772.061-1.158l.101-2.929c.01-.227.01-.564.01-.811 0-.692-.141-.741-.776-.751v-.376h2.236l2.215 5.302 2.438-5.302h2.165v.416c-.845.048-.856.138-.845 1.226v2.879c0 .475.01 1.068.04 1.425.04.515.242.614.805.663v.375h-3.112zm39.391-.383l-.142.007v.375h.208v-.375l-.066-.007zm-7.162-2.705v.375c-.643.04-.643.219-.661 1.544v.525c-.553.336-1.342.821-2.737.821-2.448 0-3.617-1.82-3.617-3.65 0-2.236 1.541-3.691 3.473-3.691 1.214 0 1.913.445 2.492.791l.372-.416.055 2.187-.29.049c-.144-.416-.363-.895-.897-1.42-.236-.228-.689-.519-1.406-.519-1.242 0-2.275 1.028-2.275 3.038 0 1.602.807 2.977 2.194 2.977.788 0 1.196-.545 1.233-.584.127-.188.156-.356.144-.663-.032-.89-.153-.909-.942-.99v-.375h2.864zm10.75-8.407c0 1.596-1.107 2.434-2.353 2.434-1.366 0-2.435-.968-2.435-2.44 0-1.262.86-2.401 2.372-2.394 1.423.007 2.416 1.001 2.416 2.401zm-2.348 2.008c.266-.007.641-.137.931-.57.333-.501.401-.961.382-1.562-.02-.596-.188-1.108-.534-1.47-.151-.159-.449-.392-.841-.38-.392 0-.682.242-.829.405-.334.372-.486.89-.486 1.485 0 .602.082 1.059.429 1.55.304.425.682.542.947.542zm2.577.053c.485-.045.546-.092.558-.595l.013-.791.001-1.622c0-.184-.006-.694-.04-.837-.046-.216-.193-.235-.532-.268v-.249h3.448l.074 1.131h-.234c-.123-.723-.419-.719-1.338-.719-.3 0-.393.006-.559.026l-.001 1.599h.619c.573 0 .713-.049.74-.547h.227v1.523h-.227c-.034-.516-.313-.565-.839-.565h-.519l-.003 1.318c.013.503.073.55.559.595v.256h-1.946v-.256zm-38.478.223v-.248c.459-.06.553-.111.559-.595v-2.46c-.006-.962-.006-.987-.559-1.066v-.248h1.953v.248c-.553.053-.553.08-.553 1.066v1.863c0 .164.007.682.021.819.033.281.167.345.532.372v.248h-1.953zm19.497 0v-.248c.459-.06.553-.111.559-.595v-2.46c-.006-.962-.006-.987-.559-1.066v-.248h1.951v.248c-.552.053-.552.08-.552 1.066v1.863c0 .164.006.682.02.819.033.281.167.345.532.372v.248h-1.951zm-24.976 0v-.248c.386-.02.532-.027.586-.288.066-.307.087-3.047.093-3.526-.26-.235-.366-.281-.679-.307v-.248h1.411c.393.55.48.673 1.172 1.517l1.312 1.596v-2.067c-.007-.732-.027-.772-.773-.798v-.248h1.852v.248c-.513.006-.559.111-.565.863l-.067 3.565h-.28l-.419-.517-.64-.778-1.857-2.25v2.394c0 .746.052.772.771.844v.248h-1.917zm21.329-1.439l.239-.025c.261.751.694 1.156 1.401 1.156.501 0 .94-.208.94-.706 0-.523-.514-.731-.74-.824l-.574-.202c-.386-.137-1.113-.431-1.113-1.328 0-.863.694-1.347 1.501-1.347.313 0 .68.065 1.079.313l.286-.202.154 1.374-.233.045c-.08-.301-.141-.44-.326-.684-.227-.288-.547-.421-.92-.421-.5 0-.794.235-.794.6 0 .55.554.733 1.08.903.267.084.486.157.68.268.373.217.679.622.679 1.178 0 .797-.665 1.458-1.658 1.458-.641 0-1.034-.248-1.22-.366l-.391-.281-.068-.909zm7.25 1.439v-.196c.434-.006.553-.164.553-.53v-3.402h-.586c-.532 0-.886-.02-.925.804h-.247l.04-1.295h4.274l.041 1.295h-.247c-.039-.824-.392-.804-.925-.804h-.586v3.402c0 .366.119.524.552.53l.001.196h-1.945zm-31.931-4.618v.248c-.626.047-.626.066-.633 1.047v1.086c0 .562.011 1.045.313 1.479.241.343.65.388.856.388.672 0 1.042-.343 1.202-.886.133-.432.14-1.243.14-1.779 0-.17 0-.72-.007-.869-.027-.419-.246-.432-.665-.465v-.248h1.791v.248c-.44-.006-.532.092-.559.55-.007.111-.061 1.393-.067 1.589-.013.353-.033.7-.113 1.033-.319 1.243-1.551 1.308-1.877 1.308-.26 0-.792-.038-1.232-.326-.699-.465-.705-1.158-.705-1.903v-1.047c-.007-.497-.007-.719-.021-.836-.039-.288-.185-.347-.539-.367v-.248h2.117zm15.93 0v.248c-.452.066-.513.19-.899 1.105l-1.432 3.356h-.252l-1.285-3.407c-.319-.878-.359-.982-.832-1.054v-.248h2.231v.248c-.38.013-.626.026-.626.294 0 .131.033.242.16.629l.819 2.347.959-2.426c.06-.164.14-.372.14-.49 0-.334-.333-.347-.626-.354v-.248h1.645zm20.843 4.618v-.248c.366-.039.506-.053.599-.144.106-.104.106-.222.112-.726v-.81l-1.251-1.904c-.339-.497-.346-.51-.799-.536v-.255h2.451v.255c-.493.013-.713.026-.713.249 0 .124.086.268.206.464l.72 1.157.664-1.15c.12-.229.187-.366.187-.471 0-.223-.194-.229-.52-.249v-.255h1.838v.255c-.473.013-.613.151-1.152 1.014l-.733 1.203v.962c0 .837.007.902.705.941v.248h-2.316zm-17.06 0h-3.582v-.255c.486-.046.546-.092.559-.596l.013-.791v-1.623c0-.184-.007-.693-.04-.837-.046-.216-.193-.235-.532-.268v-.249h3.349l.027 1.099h-.213c-.106-.628-.393-.687-1.192-.687h-.58v1.626h.513c.606 0 .692-.135.739-.547h.227v1.524h-.227c0-.517-.166-.566-.745-.566h-.507v1.292c0 .3.127.464.753.464.679 0 1.151.039 1.311-.785h.228c-.041.313-.101.864-.101 1.197zm1.94-1.47c.007 1.059.007 1.202.573 1.215v.256h-1.963v-.256c.507-.039.559-.117.566-.615l.006-.594v-1.671c0-.556-.006-.752-.027-.902-.033-.255-.159-.301-.546-.333v-.25l2.13.009c1.159 0 1.525.542 1.525 1.183 0 .444-.28 1.023-.926 1.22l.832 1.422c.3.542.459.668.839.72v.157l-.307.013c-.885 0-1.251-.301-1.624-1.079l-.259-.543c-.279-.582-.373-.546-.819-.553l-.001.6zm.001-1.005c.127.026.306.045.44.045.534.002.938-.41.958-.78.029-.536-.246-1-1.111-1l-.286.027v1.708z" fill="#686879"/></svg>