<?xml version="1.0" encoding="UTF-8"?>
<svg width="65px" height="65px" viewBox="0 0 65 65" xmlns="http://www.w3.org/2000/svg"><g stroke="none" stroke-width="1" fill="none" fill-rule="evenodd"><g transform="translate(-526.000000, -54.000000)" fill="#686879">
<path d="M558.242,118.60235 C576.049,118.60235 590.485,104.16735 590.485,86.36035 C590.485,68.55335 576.049,54.11935 558.242,54.11935 C540.436,54.11935 526,68.55335 526,86.36035 C526,104.16735 540.436,118.60235 558.242,118.60235 Z M558.242,118.09135 C540.719,118.09135 526.512,103.88635 526.512,86.36035 C526.512,68.83635 540.719,54.62935 558.242,54.62935 C575.767,54.62935 589.974,68.83635 589.974,86.36035 C589.974,103.88635 575.767,118.09135 558.242,118.09135 Z M561.7711,110.61425 C561.7861,110.58325 561.7931,110.56225 561.7921,110.55025 C561.7901,110.50625 561.7631,110.48925 561.7081,110.49925 C561.3851,110.59425 561.0771,110.66725 560.7871,110.71225 C560.4971,110.75925 560.1881,110.78925 559.8591,110.80725 C559.6251,110.82225 559.3751,110.82025 559.1061,110.80425 C558.8411,110.78625 558.6491,110.76525 558.5321,110.74225 L558.4591,111.20325 C558.4521,111.26425 558.4491,111.30825 558.4511,111.33125 C558.4561,111.44125 558.5121,111.49925 558.6151,111.50425 C558.7201,111.51225 558.8901,111.50925 559.1251,111.49625 C559.4141,111.48025 559.7471,111.44325 560.1211,111.38725 C560.4961,111.33025 560.8381,111.26625 561.1451,111.19325 C560.7311,111.93325 560.3821,112.74725 560.0951,113.64125 C559.8091,114.53325 559.5631,115.48025 559.3531,116.48125 L559.8581,116.67425 C559.9071,116.69025 559.9431,116.69625 559.9651,116.69625 C560.0251,116.69325 560.0701,116.53125 560.0951,116.21225 C560.1231,115.89425 560.2101,115.36225 560.3571,114.61725 C560.5061,113.87225 560.7031,113.13625 560.9451,112.41025 C561.1881,111.68125 561.4621,111.08225 561.7711,110.61425 Z M557.8501,114.95825 C557.8881,114.52125 557.8181,114.17725 557.6411,113.92925 C557.4651,113.68125 557.2091,113.46825 556.8721,113.29325 C557.1451,113.19525 557.3721,113.05225 557.5611,112.86225 C557.7491,112.67325 557.8571,112.41325 557.8851,112.07825 C557.9201,111.66725 557.8051,111.31225 557.5421,111.01825 C557.2801,110.72525 556.9461,110.56025 556.5371,110.52525 C556.1021,110.48925 555.7021,110.59725 555.3401,110.84825 C554.9751,111.09825 554.7761,111.45025 554.7361,111.90625 C554.7071,112.26925 554.7571,112.56025 554.8891,112.78125 C555.0221,112.99825 555.2191,113.18325 555.4801,113.33525 C555.1311,113.42625 554.8571,113.59625 554.6531,113.84425 C554.4481,114.09025 554.3291,114.40425 554.2981,114.78925 C554.2551,115.28925 554.3731,115.70225 554.6501,116.02825 C554.9261,116.35625 555.2831,116.53825 555.7171,116.57425 C556.2671,116.62025 556.7481,116.49225 557.1631,116.18925 C557.5771,115.88825 557.8061,115.47725 557.8501,114.95825 Z M557.2711,115.14225 C557.2381,115.53225 557.0891,115.83025 556.8241,116.04025 C556.5571,116.24725 556.2801,116.34025 555.9911,116.31425 C555.6071,116.28325 555.3211,116.10525 555.1341,115.78025 C554.9481,115.45925 554.8721,115.10625 554.9051,114.72225 C554.9301,114.41025 555.0121,114.14525 555.1521,113.92625 C555.2901,113.70725 555.4681,113.54925 555.6841,113.44925 C555.8721,113.54725 556.1621,113.68725 556.5501,113.87425 C557.0771,114.16925 557.3171,114.59125 557.2711,115.14225 Z M554.0177,116.24565 L554.0697,115.96965 L553.5687,115.87365 C553.4027,115.84165 553.2947,115.78965 553.2477,115.71065 C553.2017,115.63565 553.1947,115.51265 553.2267,115.34265 L553.7797,112.42165 L554.2277,110.16865 C553.9587,110.17165 553.6837,110.16865 553.4027,110.15965 C553.1217,110.14765 552.8647,110.12165 552.6327,110.07865 L552.5807,110.35465 L552.9917,110.43065 C553.1577,110.46465 553.2627,110.51765 553.3107,110.59765 C553.3577,110.67265 553.3647,110.79565 553.3317,110.96265 L552.4417,115.66065 L551.5337,115.48965 L551.4817,115.76665 L554.0177,116.24565 Z M566.1681,113.55625 C566.0661,113.04225 565.8441,112.62925 565.4991,112.31725 C565.1551,112.00625 564.7861,111.88825 564.3911,111.96425 C564.2081,112.00025 564.0221,112.08625 563.8311,112.22725 C563.6401,112.36325 563.4281,112.56625 563.1951,112.83325 C563.1951,112.11025 563.3601,111.50425 563.6921,111.01325 C564.0251,110.52525 564.5461,110.21225 565.2561,110.07425 L565.2061,109.81825 L564.9631,109.86525 C564.1991,110.01325 563.5671,110.46925 563.0631,111.23325 C562.5601,111.99825 562.4231,112.97325 562.6531,114.16025 C562.7681,114.74625 563.0121,115.25325 563.3881,115.67725 C563.7641,116.10225 564.2411,116.25925 564.8211,116.14525 C565.3001,116.05125 565.6781,115.76925 565.9521,115.29225 C566.2291,114.81625 566.2991,114.23825 566.1681,113.55625 Z M565.6021,114.02925 C565.6941,114.50925 565.6931,114.90525 565.5951,115.21825 C565.4961,115.52725 565.2751,115.71725 564.9391,115.78025 C564.5831,115.85225 564.2551,115.71025 563.9531,115.36525 C563.6511,115.01625 563.4401,114.52725 563.3161,113.89425 C563.2681,113.64925 563.2391,113.43325 563.2231,113.24425 C563.5411,112.83525 563.8571,112.60025 564.1731,112.53825 C564.4751,112.48025 564.7591,112.56925 565.0291,112.80525 C565.2971,113.04025 565.4881,113.44725 565.6021,114.02925 Z M557.3561,112.12725 C557.3351,112.36325 557.2631,112.58025 557.1341,112.77225 C557.0061,112.96725 556.8431,113.10125 556.6451,113.17525 C556.1491,112.93825 555.7971,112.73425 555.5941,112.56525 C555.3861,112.39525 555.2991,112.12625 555.3311,111.75725 C555.3601,111.41625 555.4801,111.16525 555.6901,110.99625 C555.9021,110.82925 556.1211,110.75325 556.3511,110.77225 C556.6721,110.79825 556.9271,110.93525 557.1171,111.17925 C557.3081,111.42525 557.3881,111.74025 557.3561,112.12725 Z M573.4272,112.40165 L573.5892,112.63065 L574.8742,111.72265 L574.7102,111.49265 L574.5052,111.63765 C574.3672,111.73365 574.2542,111.77165 574.1662,111.75265 C574.0782,111.73165 573.9872,111.65265 573.8862,111.51265 L571.7262,108.46265 L577.0902,110.14765 L578.0322,109.48365 L577.8702,109.25465 L577.6632,109.40065 C577.5242,109.49765 577.4142,109.53665 577.3252,109.51565 C577.2372,109.49465 577.1442,109.41665 577.0472,109.27665 L574.2812,105.37565 L574.7422,105.04765 L574.5782,104.81865 L573.2132,105.78465 L573.3762,106.01365 L573.6662,105.80965 C573.8032,105.71265 573.9142,105.67465 574.0032,105.69665 C574.0902,105.71465 574.1842,105.79565 574.2812,105.93465 L576.6292,109.25065 L570.8082,107.42265 C570.7522,107.40665 570.7122,107.40665 570.6912,107.42265 C570.6472,107.45265 570.6442,107.49565 570.6822,107.55065 L573.8882,112.07365 L573.4272,112.40165 Z M549.2058,112.57035 C549.5498,112.57035 549.8268,112.29335 549.8268,111.94935 C549.8268,111.60835 549.5498,111.33035 549.2058,111.33035 C548.8638,111.33035 548.5858,111.60835 548.5858,111.94935 C548.5858,112.29335 548.8638,112.57035 549.2058,112.57035 Z M543.1853,105.86855 L543.0383,106.10855 L543.2043,106.21055 C543.3183,106.28255 543.3913,106.36355 543.4203,106.45755 C543.4493,106.55055 543.4373,106.69655 543.3923,106.89955 L542.3353,111.67555 C542.3053,111.78655 542.2843,111.85055 542.2763,111.86755 C542.2393,111.92355 542.1783,111.95755 542.0913,111.96455 C542.0033,111.97355 541.9473,111.99555 541.9263,112.03155 C541.8733,112.11555 541.8943,112.16855 541.9823,112.18655 L542.4863,112.28555 L547.1563,108.63955 L547.5233,108.86555 L547.6693,108.62355 L546.2363,107.74555 L546.0893,107.98455 L546.5473,108.26555 C546.6713,108.34155 546.7093,108.42255 546.6563,108.50655 C546.6373,108.53755 546.5953,108.58055 546.5323,108.63655 L545.2323,109.71155 L543.7073,108.77455 L544.1143,106.93755 C544.1413,106.84255 544.1893,106.81855 544.2653,106.86555 L544.6313,107.08655 L544.7773,106.84655 L543.1853,105.86855 Z M569.1545,112.15695 C569.4955,112.15695 569.7745,111.87995 569.7745,111.53595 C569.7745,111.19495 569.4955,110.91795 569.1545,110.91795 C568.8125,110.91795 568.5335,111.19495 568.5335,111.53595 C568.5335,111.87995 568.8125,112.15695 569.1545,112.15695 Z M543.6303,109.11855 L544.9593,109.93555 L543.1473,111.34955 L543.6303,109.11855 Z M538.4653,101.17155 L538.2643,101.36655 L538.4393,101.54755 C538.5573,101.66755 538.6123,101.77255 538.6053,101.86255 C538.5973,101.95255 538.5343,102.05455 538.4113,102.17455 L534.9803,105.50655 L534.5913,105.10555 L534.3893,105.30155 L535.2103,106.14655 L539.7353,104.37555 L537.8433,108.85955 L538.7993,109.84055 L539.0003,109.64355 L538.8243,109.46355 C538.7073,109.34255 538.6503,109.23555 538.6593,109.14655 C538.6653,109.05755 538.7293,108.95255 538.8533,108.83255 L542.2813,105.50055 L542.6743,105.90655 L542.8753,105.70855 L541.6813,104.48055 L541.4803,104.67555 L541.7063,104.90755 C541.8203,105.02855 541.8763,105.13355 541.8693,105.22255 C541.8633,105.31155 541.7973,105.41455 541.6753,105.53455 L538.8973,108.23555 L540.7863,103.75455 C540.7993,103.71655 540.7983,103.69055 540.7783,103.66955 C540.7553,103.64655 540.7263,103.64055 540.6883,103.65555 L536.0113,105.48755 L539.2293,102.36055 L539.5833,102.72355 L539.7863,102.52755 L538.4653,101.17155 Z M558.2418,109.39185 C570.9618,109.39185 581.2728,99.07985 581.2728,86.36085 C581.2728,73.64085 570.9618,63.32885 558.2418,63.32885 C545.5238,63.32885 535.2138,73.64085 535.2138,86.36085 C535.2138,99.07985 545.5238,109.39185 558.2418,109.39185 Z M558.2438,108.88185 C564.1588,108.88985 569.2098,106.91085 573.5438,102.88585 C582.6708,94.43385 583.2168,80.18685 574.7668,71.05785 C566.3168,61.93285 552.0678,61.38685 542.9408,69.83685 C533.8148,78.28685 533.2688,92.53585 541.7208,101.66085 C546.1508,106.44885 551.7208,108.88185 558.2408,108.88185 L558.2438,108.88185 Z M577.1992,106.38465 C578.0132,107.09665 578.7622,107.40765 579.4502,107.31965 C580.1372,107.23565 580.6952,106.94665 581.1242,106.45665 C581.6792,105.82165 581.8992,105.11165 581.7802,104.33165 C581.6602,103.55065 581.2792,102.87865 580.6332,102.31565 C579.8222,101.60565 579.0712,101.29365 578.3852,101.37965 C577.6972,101.46565 577.1382,101.75265 576.7112,102.24265 C576.1542,102.87965 575.9372,103.58865 576.0572,104.36965 C576.1762,105.15065 576.5562,105.82165 577.1992,106.38465 Z M577.4232,105.65865 C576.8132,105.12465 576.4712,104.58265 576.4002,104.03765 C576.3262,103.49065 576.4622,103.01965 576.8102,102.62165 C577.1892,102.18865 577.6982,101.99065 578.3402,102.02565 C578.9782,102.06365 579.6682,102.40465 580.4072,103.05065 C581.0172,103.58265 581.3582,104.12465 581.4302,104.67165 C581.5032,105.21865 581.3662,105.69065 581.0192,106.08565 C580.6412,106.51965 580.1312,106.71765 579.4912,106.68165 C578.8512,106.64365 578.1622,106.30265 577.4232,105.65865 Z M535.4203,97.46455 C535.3833,97.47455 535.3573,97.49455 535.3453,97.52855 C535.3333,97.56155 535.3343,97.58955 535.3473,97.61255 C535.3573,97.63055 535.3793,97.64755 535.4073,97.66055 C535.7643,97.74555 536.0253,97.86855 536.1933,98.03155 C536.3603,98.19455 536.6213,98.57355 536.9733,99.16855 L537.0853,99.35755 C537.1723,99.50355 537.2003,99.61955 537.1733,99.70355 C537.1463,99.78955 537.0583,99.87555 536.9113,99.96155 L534.9433,101.12955 L534.1443,99.78055 C534.0673,99.64955 534.0293,99.54755 534.0313,99.47455 C534.0343,99.40155 534.0793,99.33755 534.1663,99.28555 L534.4443,99.12055 L534.3183,98.90655 L532.9993,99.68755 L533.1253,99.90355 L533.3953,99.74255 C533.5563,99.64655 533.7073,99.71955 533.8473,99.95555 L534.6473,101.30355 L532.8973,102.34055 L532.6633,101.95055 C532.2463,101.24755 532.0043,100.78655 531.9333,100.56455 C531.8633,100.34655 531.8693,100.19255 531.9523,100.10755 C532.0353,100.01955 532.0663,99.95855 532.0423,99.92055 C532.0223,99.88255 531.9863,99.87255 531.9393,99.88755 L531.2073,100.18955 L533.2983,103.71655 L533.5413,103.57355 L533.4133,103.35655 C533.3273,103.21255 533.2963,103.09655 533.3253,103.01155 C533.3523,102.92555 533.4393,102.83955 533.5863,102.75055 L537.7003,100.31255 L537.9873,100.79855 L538.2313,100.65555 L536.2123,97.25055 L535.4203,97.46455 Z M578.6092,100.01965 L578.8502,100.16865 L578.9822,99.95165 C579.0702,99.80865 579.1582,99.72865 579.2472,99.71365 C579.3362,99.69765 579.4532,99.73465 579.5992,99.82365 L583.6722,102.32865 L583.3782,102.80865 L583.6162,102.95565 L584.6412,101.29165 L584.4012,101.14465 L584.2682,101.35965 C584.1792,101.50265 584.0922,101.58265 584.0032,101.59765 C583.9142,101.61465 583.7962,101.57665 583.6512,101.48765 L579.5762,98.98465 L579.8712,98.50365 L579.6332,98.35565 L578.6092,100.01965 Z M584.4102,100.06065 L585.2982,100.16565 L586.9402,96.34065 L586.2512,95.77065 C586.1902,95.72765 586.1442,95.73765 586.1172,95.80165 C586.1042,95.83165 586.1472,95.92065 586.2482,96.07065 C586.3452,96.21865 586.3932,96.37265 586.3892,96.52865 C586.3852,96.68765 586.2752,97.01565 586.0612,97.51865 L585.9412,97.79565 L581.1832,95.75465 L581.4072,95.23565 L581.1472,95.12465 L580.3762,96.92065 L580.6362,97.02965 L580.7362,96.79865 C580.8022,96.64365 580.8772,96.55065 580.9632,96.52265 C581.0482,96.49565 581.1702,96.51365 581.3282,96.58165 L585.6632,98.44265 L585.5452,98.71665 C585.3342,99.20965 585.1712,99.51365 585.0542,99.62965 C584.9402,99.74465 584.7952,99.81765 584.6212,99.85065 C584.4482,99.88165 584.3542,99.91165 584.3412,99.94165 C584.3152,100.00665 584.3362,100.04565 584.4102,100.06065 Z M575.0484,73.64175 L575.0484,98.53275 L569.3504,98.53275 C568.2134,98.54475 567.2494,98.47475 566.1274,98.29375 C565.2264,98.15675 564.4664,98.02575 563.5714,97.85375 C562.8174,97.73975 562.1594,97.76875 561.4184,97.95175 L558.8194,99.14075 L558.8194,97.72275 L560.9244,96.75875 C561.0514,96.70975 561.1604,96.67875 561.2944,96.65375 L561.3004,96.65375 C562.1624,96.47475 562.9234,96.45175 563.7944,96.58275 C564.6824,96.75275 565.4334,96.88275 566.3254,97.01975 C567.3774,97.18275 568.2784,97.25175 569.3424,97.24475 L573.7574,97.24475 L573.7574,73.64175 L575.0484,73.64175 Z M546.863,98.53255 L541.167,98.53255 L541.165,73.64155 L542.455,73.64155 L542.455,97.24455 L546.874,97.24455 C548.377,97.25455 549.648,97.12455 551.12,96.81255 L552.384,96.58855 C553.181,96.47055 554.686,96.52055 555.311,96.76855 L557.385,97.71955 L557.385,99.13655 L554.837,97.97055 C554.658,97.91755 554.5,97.88555 554.315,97.86855 C553.704,97.79855 553.184,97.79855 552.575,97.86255 L551.369,98.07855 C549.811,98.41655 548.459,98.55355 546.863,98.53255 Z M534.2963,92.11955 L534.0313,92.21255 L534.0733,92.33455 C534.1243,92.47755 534.1393,92.59355 534.1153,92.68155 C534.0953,92.76955 534.0243,92.89755 533.9013,93.06655 L532.4523,95.10755 C532.2103,94.70955 531.9393,94.43355 531.6433,94.27855 C531.3473,94.12155 530.9993,94.11555 530.6023,94.25655 C530.1473,94.41355 529.8343,94.69655 529.6623,95.10055 C529.4883,95.50455 529.5123,96.01855 529.7303,96.64355 L530.4193,98.60555 L530.6843,98.51255 L530.6013,98.27355 C530.5453,98.11555 530.5403,97.99655 530.5833,97.91755 C530.6263,97.83955 530.7293,97.77055 530.8913,97.71555 L535.4023,96.13555 L535.5893,96.66755 L535.8543,96.57355 L535.1853,94.65755 L534.9193,94.74855 L535.0293,95.06355 C535.0853,95.22355 535.0893,95.34055 535.0453,95.41855 C535.0033,95.49855 534.9003,95.56555 534.7383,95.62055 L532.9643,96.24455 L532.7953,95.76055 L534.5063,93.46555 C534.5913,93.35555 534.6373,93.27855 534.6473,93.23155 C534.6563,93.18555 534.6433,93.10755 534.6043,92.99955 L534.2963,92.11955 Z M573.4629,72.38225 L573.4629,96.94925 L569.3429,96.94925 C568.2979,96.95225 567.4099,96.88625 566.3719,96.72825 L563.8459,96.29125 C562.9359,96.16425 562.1339,96.18625 561.2409,96.36425 L560.8109,96.48825 C560.8109,96.48825 558.2129,97.67725 558.1069,97.72625 C557.9999,97.67725 555.4269,96.49925 555.4269,96.49925 C554.7179,96.20725 553.1009,96.18425 552.3409,96.29625 L551.0649,96.52325 C549.6089,96.82325 548.3569,96.95125 546.8739,96.94925 L542.7499,96.94925 L542.7499,72.38225 L543.7729,72.38225 L543.7729,95.92525 L546.8739,95.92525 C548.2949,95.91925 549.4899,95.79825 550.8709,95.51925 L552.1899,95.28425 C553.2249,95.12625 554.9709,95.19625 555.8159,95.55025 L558.1069,96.60025 L560.4049,95.54925 C560.3999,95.55125 561.0389,95.36325 561.0389,95.36325 C562.0809,95.16325 562.9719,95.13925 564.0169,95.28325 C564.0109,95.28225 566.5249,95.71625 566.5249,95.71625 C567.5049,95.86325 568.3459,95.92525 569.3399,95.92525 L572.4409,95.92525 L572.4409,72.38225 L573.4629,72.38225 Z M530.8943,94.91755 C531.2683,94.78655 531.6013,94.81655 531.8943,95.00255 C532.1843,95.19255 532.4033,95.48955 532.5453,95.89855 C532.5793,95.99655 532.6013,96.07855 532.6113,96.14255 C532.6213,96.20855 532.6293,96.28055 532.6303,96.36155 L530.2663,97.18955 L530.1913,96.98155 C529.9773,96.36755 529.9543,95.90055 530.1183,95.58155 C530.2843,95.26155 530.5423,95.04055 530.8943,94.91755 Z M560.284,95.27745 C560.523,95.18345 560.732,95.12145 560.984,95.07445 C562.053,94.87345 562.983,94.84745 564.058,94.99045 C564.94,95.15145 565.685,95.27945 566.569,95.42545 C567.537,95.56545 568.361,95.62545 569.34,95.63245 L572.146,95.63245 L572.146,71.23545 C571.145,71.34645 570.296,71.43145 569.293,71.51745 C568.834,71.54145 568.442,71.53045 567.985,71.48345 C567.483,71.38245 567.06,71.28845 566.564,71.15945 L565.812,70.97945 C563.946,70.51245 562.21,70.48345 560.479,71.18345 C559.981,71.38645 559.575,71.58145 559.106,71.84545 C558.694,72.06945 558.512,72.19745 558.106,72.51845 C557.706,72.19945 557.516,72.06745 557.104,71.84545 C556.723,71.63145 556.394,71.46745 555.994,71.29445 C553.864,70.35245 551.94,70.55945 549.817,71.11945 C549.26,71.26245 548.786,71.37045 548.223,71.48345 C547.767,71.53045 547.378,71.54145 546.919,71.51745 C545.914,71.43145 545.069,71.34645 544.066,71.23545 L544.066,95.63245 L546.874,95.63245 C548.269,95.61745 549.446,95.49845 550.815,95.22945 L552.142,94.99345 C553.218,94.82745 555.028,94.89545 555.93,95.27945 L557.188,95.85645 L558.106,96.27645 L560.284,95.27745 Z M581.3602,94.89865 L581.6322,94.96765 L581.6812,94.77965 C581.7142,94.64865 581.7712,94.55665 581.8512,94.50065 C581.9312,94.44565 582.0762,94.40965 582.2792,94.39465 L587.1562,93.97465 C587.2712,93.97165 587.3382,93.97165 587.3562,93.97465 C587.4222,93.99365 587.4712,94.04065 587.5042,94.12165 C587.5382,94.20365 587.5762,94.25065 587.6182,94.25865 C587.7122,94.28365 587.7562,94.25065 587.7482,94.15865 L587.6922,93.64965 L582.8182,90.28265 L582.9212,89.86565 L582.6482,89.79565 L582.2372,91.42465 L582.5102,91.49365 L582.6422,90.97465 C582.6762,90.83365 582.7422,90.77565 582.8392,90.79865 C582.8742,90.80765 582.9292,90.83365 582.9992,90.87765 L584.4162,91.79665 L583.9762,93.53265 L582.1022,93.69365 C582.0032,93.69665 581.9652,93.65565 581.9852,93.57165 L582.0902,93.15665 L581.8162,93.08865 L581.3602,94.89865 Z M570.856,94.34145 L570.856,72.66745 C570.856,72.66745 569.991,72.75945 569.381,72.80445 C568.942,72.83645 568.075,72.81145 567.779,72.75745 C566.891,72.59745 565.305,72.14645 564.577,72.04045 C562.701,71.76345 561.472,72.00845 559.724,72.97645 C559.541,73.07745 559.318,73.20445 559.127,73.35545 L558.819,73.60045 L558.819,94.53145 L559.486,94.22745 C559.588,94.18045 559.677,94.13345 559.774,94.09445 C561.002,93.57145 563.067,93.54045 564.257,93.71645 C564.323,93.72745 564.388,93.73745 564.452,93.74945 C566.134,94.03645 567.079,94.30245 569.351,94.34145 L570.856,94.34145 Z M546.86,94.34145 C549.133,94.30245 550.077,94.03645 551.76,93.74945 C551.824,93.73745 551.89,93.72745 551.955,93.71645 C553.144,93.54045 555.212,93.57145 556.438,94.09445 C556.535,94.13345 556.626,94.18045 556.726,94.22745 L557.395,94.53145 L557.395,73.60045 L557.087,73.35545 C556.897,73.20445 556.671,73.07745 556.488,72.97645 C554.739,72.00845 553.511,71.76345 551.634,72.04045 C550.907,72.14645 549.321,72.59745 548.436,72.75745 C548.137,72.81145 547.27,72.83645 546.831,72.80445 C546.22,72.75945 545.356,72.66745 545.356,72.66745 L545.356,94.34145 L546.86,94.34145 Z M584.3292,93.50065 L584.7112,91.99065 L586.6022,93.29665 L584.3292,93.50065 Z M533.9743,89.88855 L533.6973,89.93955 L533.7423,90.18755 C533.7743,90.35355 533.7623,90.47355 533.7073,90.54455 C533.6523,90.61455 533.5403,90.66555 533.3733,90.69655 L528.6703,91.57355 L528.5673,91.01655 L528.2903,91.06955 L528.6493,92.98955 L528.9263,92.93855 L528.8793,92.69055 C528.8493,92.52355 528.8603,92.40555 528.9163,92.33455 C528.9713,92.26255 529.0833,92.21255 529.2493,92.18055 L533.9523,91.30555 L534.0563,91.85955 L534.3323,91.80955 L533.9743,89.88855 Z M582.5652,89.48465 L582.8472,89.50965 L582.8682,89.25765 C582.8842,89.08965 582.9272,88.97965 582.9992,88.92565 C583.0732,88.87165 583.1932,88.85165 583.3632,88.86865 L588.1262,89.28765 L588.0772,89.85165 L588.3582,89.87365 L588.5292,87.92965 L588.2492,87.90365 L588.2262,88.15665 C588.2112,88.32265 588.1692,88.43565 588.0962,88.48965 C588.0232,88.54165 587.9022,88.56065 587.7322,88.54665 L582.9692,88.12665 L583.0182,87.56465 L582.7372,87.53765 L582.5652,89.48465 Z M533.3053,84.81455 L532.4913,84.83755 C532.4453,84.83955 532.4203,84.86855 532.4213,84.92055 C532.4233,84.96455 532.5043,84.99655 532.6663,85.01555 C532.8283,85.03455 533.0043,85.19855 533.1933,85.50455 C533.3823,85.81055 533.4823,86.20655 533.4993,86.69455 C533.5183,87.36555 533.2773,87.89155 532.7763,88.26855 C532.2743,88.64655 531.6583,88.84555 530.9263,88.86855 C530.0713,88.89455 529.3943,88.67755 528.8833,88.22155 C528.3783,87.76455 528.1143,87.20355 528.0953,86.53855 C528.0893,86.33155 528.1073,86.13255 528.1513,85.93955 C528.1923,85.74655 528.2463,85.59755 528.3113,85.49455 C528.3753,85.39355 528.4653,85.32855 528.5793,85.29955 C528.6943,85.27155 528.7513,85.23855 528.7493,85.19355 C528.7493,85.15155 528.7283,85.12755 528.6843,85.12355 L527.9963,85.07855 C527.9273,85.25455 527.8723,85.47855 527.8303,85.75355 C527.7903,86.02755 527.7743,86.28455 527.7803,86.52355 C527.8083,87.46555 528.1403,88.21555 528.7773,88.77555 C529.4133,89.33755 530.1843,89.60355 531.0943,89.57655 C531.9553,89.55055 532.6423,89.31055 533.1563,88.85355 C533.6693,88.39555 533.9143,87.74055 533.8893,86.88455 C533.8793,86.53455 533.8113,86.14855 533.6833,85.72955 C533.5533,85.31155 533.4273,85.00555 533.3053,84.81455 Z M583.2192,86.98565 L584.0322,86.93065 C584.0802,86.92865 584.1022,86.89965 584.0992,86.84565 C584.0962,86.80365 584.0142,86.77465 583.8512,86.76065 C583.6892,86.74565 583.5072,86.59065 583.3082,86.29165 C583.1082,85.99165 582.9912,85.60065 582.9592,85.11365 C582.9142,84.44465 583.1352,83.90965 583.6212,83.51365 C584.1092,83.11665 584.7172,82.89665 585.4472,82.84665 C586.3002,82.78965 586.9882,82.97965 587.5112,83.41665 C588.0352,83.85365 588.3212,84.40465 588.3642,85.06965 C588.3792,85.27565 588.3672,85.47565 588.3312,85.67065 C588.2962,85.86665 588.2482,86.01565 588.1862,86.12065 C588.1262,86.22465 588.0382,86.29165 587.9262,86.32465 C587.8102,86.35565 587.7552,86.39465 587.7582,86.43865 C587.7612,86.48165 587.7832,86.50365 587.8262,86.50665 L588.5152,86.52465 C588.5782,86.34765 588.6252,86.12065 588.6562,85.84465 C588.6872,85.56865 588.6932,85.31165 588.6792,85.07465 C588.6162,84.13365 588.2562,83.39465 587.5992,82.85965 C586.9432,82.32265 586.1602,82.08465 585.2542,82.14565 C584.3962,82.20265 583.7192,82.46965 583.2202,82.94365 C582.7232,83.41965 582.5032,84.08465 582.5592,84.93865 C582.5842,85.28865 582.6662,85.67065 582.8102,86.08365 C582.9552,86.49765 583.0912,86.79965 583.2192,86.98565 Z M534.6273,79.32055 L534.3493,79.26755 L534.3133,79.46055 C534.2893,79.59355 534.2383,79.69055 534.1603,79.74955 C534.0853,79.80955 533.9453,79.85355 533.7393,79.88255 L528.9013,80.61155 C528.7863,80.62355 528.7203,80.62955 528.7003,80.62355 C528.6353,80.61155 528.5833,80.56855 528.5443,80.48755 C528.5053,80.40955 528.4653,80.36655 528.4223,80.35855 C528.3263,80.34055 528.2843,80.37855 528.2993,80.46755 L528.3873,80.97155 L533.4683,84.02155 L533.3893,84.44455 L533.6663,84.49555 L533.9723,82.84255 L533.6973,82.78955 L533.5983,83.31755 C533.5733,83.46155 533.5113,83.52455 533.4133,83.50755 C533.3763,83.49855 533.3213,83.47755 533.2483,83.43655 L531.7773,82.60955 L532.1023,80.85155 L533.9643,80.57055 C534.0613,80.56255 534.1023,80.59855 534.0863,80.68455 L534.0093,81.10455 L534.2863,81.15655 L534.6273,79.32055 Z M531.7523,80.90355 L531.4683,82.43655 L529.4973,81.25355 L531.7523,80.90355 Z M585.3062,81.06965 C586.3412,80.76365 587.0062,80.29665 587.3012,79.66965 C587.5962,79.04265 587.6512,78.41765 587.4672,77.79565 C587.2282,76.98365 586.7462,76.42065 586.0212,76.10165 C585.2972,75.78665 584.5272,75.74765 583.7082,75.99065 C582.6722,76.29665 582.0052,76.76365 581.7132,77.39065 C581.4162,78.01665 581.3612,78.64165 581.5452,79.26465 C581.7862,80.07565 582.2682,80.64065 582.9902,80.95765 C583.7142,81.27565 584.4852,81.31165 585.3062,81.06965 Z M584.8112,80.49265 C584.0322,80.72265 583.3942,80.72165 582.8942,80.48965 C582.3922,80.25965 582.0672,79.88865 581.9182,79.38465 C581.7532,78.83365 581.8602,78.29665 582.2332,77.77465 C582.6082,77.25565 583.2652,76.85565 584.2052,76.57665 C584.9822,76.34665 585.6222,76.34665 586.1222,76.57965 C586.6242,76.81065 586.9492,77.17865 587.0962,77.68365 C587.2602,78.23565 587.1542,78.77265 586.7822,79.29365 C586.4072,79.81565 585.7502,80.21365 584.8112,80.49265 Z M531.7884,71.91245 L531.5294,71.79845 L530.9004,73.24145 L531.1594,73.35245 L531.2604,73.12245 C531.3284,72.96745 531.4044,72.87545 531.4884,72.84845 C531.5764,72.82045 531.6974,72.84245 531.8534,72.90945 L535.2774,74.40545 L529.8134,75.73445 L529.3514,76.78845 L529.6094,76.90045 L529.7124,76.66845 C529.7794,76.51545 529.8564,76.42445 529.9404,76.39645 C530.0264,76.36745 530.1474,76.38745 530.3034,76.45745 L534.6864,78.36845 L534.4614,78.88545 L534.7194,78.99945 L535.3884,77.46345 L535.1314,77.35245 L534.9884,77.67945 C534.9204,77.83045 534.8444,77.92245 534.7604,77.95045 C534.6734,77.97745 534.5544,77.95545 534.3964,77.88845 L530.6744,76.26545 L536.6024,74.82245 C536.6594,74.80645 536.6924,74.78445 536.7024,74.76045 C536.7254,74.71145 536.7044,74.67345 536.6434,74.64745 L531.5614,72.42845 L531.7884,71.91245 Z M582.2512,75.64465 C582.5582,75.48065 582.7742,75.27965 582.8962,75.04065 C583.0182,74.80165 583.0702,74.52465 583.0482,74.21265 L582.9502,72.76765 C582.9332,72.58165 582.9692,72.40865 583.0582,72.25165 C583.1492,72.09665 583.2782,71.97065 583.4502,71.87965 C583.7202,71.73665 583.9942,71.70965 584.2762,71.79865 C584.5532,71.88665 584.7812,72.09165 584.9542,72.41665 C585.0992,72.69565 585.1682,72.91765 585.1592,73.08265 C585.1502,73.25065 585.0912,73.38765 584.9832,73.49665 C584.8772,73.60665 584.8322,73.67865 584.8532,73.71765 C584.8782,73.76465 584.9092,73.78065 584.9472,73.75965 L585.6122,73.40765 C585.5592,73.14865 585.5052,72.93565 585.4502,72.76465 C585.3952,72.59465 585.3162,72.41065 585.2132,72.21565 C584.9402,71.69965 584.5772,71.40165 584.1262,71.32465 C583.6752,71.24765 583.2712,71.30265 582.9152,71.49265 C582.6462,71.63565 582.4482,71.82365 582.3222,72.05765 C582.1972,72.29165 582.1442,72.54765 582.1622,72.83265 L582.2472,74.08965 C582.2682,74.39965 582.2212,74.64665 582.1122,74.83365 C582.0042,75.01665 581.8612,75.15665 581.6832,75.25165 C581.3762,75.41365 581.0582,75.43665 580.7272,75.32065 C580.3972,75.20365 580.1282,74.95065 579.9212,74.55765 C579.7752,74.27965 579.7082,74.01565 579.7222,73.76765 C579.7352,73.51865 579.7972,73.31665 579.9082,73.15965 C580.0202,73.00265 580.0642,72.90665 580.0432,72.86565 C580.0292,72.83765 580.0072,72.82065 579.9792,72.81465 C579.9522,72.80765 579.9232,72.81465 579.8922,72.83665 L579.2142,73.36165 C579.2462,73.63065 579.2872,73.85065 579.3362,74.02265 C579.3832,74.19165 579.4762,74.40765 579.6132,74.66465 C579.9212,75.25065 580.3072,75.62965 580.7712,75.79965 C581.2342,75.97365 581.7292,75.92065 582.2512,75.64465 Z M580.1944,71.88945 C580.4714,71.67845 580.6514,71.44645 580.7314,71.18945 C580.8134,70.93245 580.8194,70.65145 580.7474,70.34545 L580.4154,68.93845 C580.3694,68.75445 580.3764,68.57945 580.4404,68.41045 C580.5014,68.24145 580.6104,68.09745 580.7664,67.97945 C581.0074,67.79645 581.2754,67.72445 581.5654,67.76645 C581.8574,67.80745 582.1124,67.97345 582.3354,68.26545 C582.5244,68.51745 582.6284,68.72345 582.6474,68.89045 C582.6664,69.05545 582.6314,69.20245 582.5424,69.32745 C582.4534,69.45345 582.4214,69.53145 582.4494,69.56545 C582.4814,69.60945 582.5144,69.61745 582.5474,69.59145 L583.1474,69.13845 C583.0524,68.89045 582.9644,68.68745 582.8834,68.52845 C582.8004,68.37045 582.6934,68.20045 582.5584,68.02645 C582.2064,67.55945 581.8004,67.32645 581.3424,67.32345 C580.8854,67.32045 580.4934,67.44345 580.1734,67.68545 C579.9314,67.86845 579.7654,68.08745 579.6804,68.33745 C579.5964,68.58845 579.5864,68.85245 579.6484,69.12845 L579.9384,70.35845 C580.0074,70.65845 580.0024,70.90945 579.9254,71.11045 C579.8484,71.31245 579.7304,71.47545 579.5694,71.59445 C579.2934,71.80445 578.9824,71.88045 578.6374,71.81945 C578.2934,71.75645 577.9864,71.54845 577.7184,71.19545 C577.5274,70.94645 577.4204,70.69645 577.3924,70.44845 C577.3654,70.20045 577.3944,69.99145 577.4804,69.81945 C577.5624,69.64545 577.5904,69.54145 577.5654,69.50745 C577.5454,69.48445 577.5204,69.46745 577.4924,69.46445 C577.4644,69.46345 577.4374,69.47445 577.4114,69.50145 L576.8254,70.12845 C576.9004,70.39245 576.9784,70.60345 577.0544,70.76245 C577.1284,70.92345 577.2554,71.11945 577.4314,71.35245 C577.8304,71.88045 578.2724,72.19045 578.7574,72.28545 C579.2434,72.37945 579.7224,72.24745 580.1944,71.88945 Z M536.3954,70.26365 C536.7374,70.26365 537.0144,69.98465 537.0144,69.64565 C537.0144,69.30265 536.7374,69.02565 536.3954,69.02565 C536.0544,69.02565 535.7754,69.30265 535.7754,69.64565 C535.7754,69.98465 536.0544,70.26365 536.3954,70.26365 Z M576.5584,69.87445 L576.7474,69.66245 L576.6024,69.53345 C576.5014,69.44245 576.4464,69.34945 576.4344,69.25345 C576.4224,69.15545 576.4584,69.01445 576.5404,68.82145 L578.4384,64.31345 C578.4884,64.21045 578.5184,64.15145 578.5334,64.13645 C578.5774,64.08445 578.6424,64.06345 578.7314,64.07245 C578.8174,64.08145 578.8764,64.06845 578.9054,64.03745 C578.9714,63.96445 578.9624,63.90945 578.8764,63.87445 L578.3994,63.68745 L573.1504,66.43445 L572.8294,66.14845 L572.6414,66.35745 L573.8934,67.48045 L574.0824,67.27045 L573.6834,66.91245 C573.5734,66.81645 573.5524,66.73045 573.6184,66.65545 C573.6424,66.62945 573.6914,66.59345 573.7624,66.54945 L575.2364,65.72545 L576.5674,66.92145 L575.8374,68.65545 C575.7944,68.74645 575.7404,68.76045 575.6754,68.69945 L575.3564,68.41545 L575.1694,68.62645 L576.5584,69.87445 Z M542.5444,66.26845 C542.5224,66.23045 542.4884,66.21645 542.4424,66.23145 C542.3974,66.24445 542.3754,66.27045 542.3814,66.30745 C542.4264,66.64445 542.3734,66.93245 542.2214,67.17545 C542.0684,67.41645 541.7244,67.78845 541.1854,68.29045 L541.1084,68.36445 C540.9854,68.47645 540.8794,68.52845 540.7904,68.52145 C540.7004,68.51245 540.5984,68.44645 540.4814,68.32045 L537.2644,64.86645 L537.6794,64.48245 L537.4874,64.27445 L536.0574,65.60745 L536.2484,65.81345 L536.4354,65.64145 C536.5574,65.52445 536.6634,65.47345 536.7544,65.48045 C536.8414,65.48945 536.9444,65.55645 537.0624,65.68045 L540.3214,69.18045 L539.9084,69.56545 L540.1014,69.77045 L542.9964,67.07545 L542.5444,66.26845 Z M545.0444,65.69045 L544.8834,65.46045 L544.6754,65.60445 C544.5364,65.70245 544.4244,65.73945 544.3374,65.71845 C544.2494,65.69645 544.1574,65.61645 544.0584,65.47645 L541.3274,61.55145 L541.7924,61.22745 L541.6304,60.99745 L540.0274,62.11345 L540.1884,62.34345 L540.3934,62.19945 C540.5344,62.10545 540.6464,62.06545 540.7334,62.08745 C540.8214,62.10745 540.9144,62.18845 541.0104,62.32945 L543.7434,66.25345 L543.2804,66.57745 L543.4404,66.80745 L545.0444,65.69045 Z M576.7034,66.59545 L575.5434,65.55445 L577.5804,64.48845 L576.7034,66.59545 Z M548.2424,61.98645 C548.0584,61.62245 547.8064,61.37945 547.4844,61.26045 C547.1634,61.14145 546.7874,61.12245 546.3554,61.20445 C546.5724,60.94445 546.7144,60.69245 546.7874,60.44345 C546.8584,60.19545 546.8284,59.93445 546.6914,59.66145 C546.5194,59.31745 546.2654,59.10145 545.9314,59.01245 C545.5994,58.92445 545.2424,58.97345 544.8604,59.16645 L542.7464,60.22745 L542.8734,60.47845 L543.0994,60.36445 C543.2494,60.29145 543.3674,60.26745 543.4524,60.30345 C543.5354,60.33545 543.6144,60.42845 543.6914,60.57945 L545.8374,64.85445 L545.3344,65.10745 L545.4604,65.35845 L547.0074,64.58345 C547.6234,64.27445 548.0474,63.89545 548.2844,63.44845 C548.5204,63.00245 548.5074,62.51645 548.2424,61.98645 Z M547.6434,62.44745 C547.8444,62.84545 547.8734,63.20645 547.7304,63.52745 C547.5894,63.84845 547.2944,64.12245 546.8504,64.34345 C546.7014,64.42145 546.5834,64.44145 546.5014,64.40845 C546.4174,64.37445 546.3374,64.28245 546.2604,64.12845 L545.1594,61.93545 L545.2614,61.88445 C545.8474,61.59145 546.3434,61.51545 546.7484,61.65845 C547.1514,61.80145 547.4514,62.06445 547.6434,62.44745 Z M570.0264,58.64545 L570.1154,58.37845 L568.6524,57.88645 L568.5594,58.15245 L568.8774,58.25945 C569.0394,58.31145 569.0974,58.40345 569.0544,58.53145 C569.0234,58.62345 568.9504,58.72845 568.8324,58.84545 L567.2214,60.41645 L566.7494,57.54245 L567.3344,57.73745 L567.4234,57.47045 L565.6064,56.86045 L565.5164,57.12845 L565.6784,57.18045 C565.7914,57.21945 565.8664,57.26245 565.9054,57.31145 C565.9414,57.35845 565.9754,57.45945 566.0044,57.60945 L566.5804,60.63545 L565.8614,62.77245 L565.3264,62.59145 L565.2364,62.85945 L567.0894,63.48345 L567.1774,63.21545 L566.9374,63.13545 C566.7804,63.08145 566.6814,63.01445 566.6474,62.93045 C566.6114,62.84845 566.6194,62.72545 566.6754,62.56245 L567.2564,60.83345 L569.6344,58.51445 L570.0264,58.64545 Z M553.7674,62.14245 L553.6894,61.87145 L553.5644,61.90645 C553.4184,61.94845 553.3034,61.95945 553.2174,61.93245 C553.1304,61.90645 553.0044,61.82645 552.8424,61.69645 L550.8824,60.14145 C551.2934,59.91845 551.5824,59.66445 551.7524,59.37745 C551.9244,59.08845 551.9494,58.74345 551.8314,58.33845 C551.6974,57.87445 551.4324,57.54845 551.0384,57.35545 C550.6434,57.16045 550.1284,57.15745 549.4944,57.34045 L547.4974,57.92445 L547.5754,58.19345 L547.8184,58.12245 C547.9794,58.07545 548.0974,58.07745 548.1754,58.12545 C548.2524,58.17145 548.3134,58.27845 548.3624,58.44345 L549.6984,63.03245 L549.1574,63.19045 L549.2384,63.46045 L551.1874,62.89545 L551.1084,62.62245 L550.7884,62.71745 C550.6274,62.76145 550.5084,62.76145 550.4334,62.71445 C550.3574,62.66745 550.2944,62.56145 550.2474,62.39645 L549.7204,60.59145 L550.2114,60.44845 L552.4124,62.27945 C552.5164,62.36845 552.5934,62.42145 552.6384,62.43245 C552.6834,62.44445 552.7624,62.43445 552.8704,62.40245 L553.7674,62.14245 Z M572.6517,63.25335 C572.9937,63.25335 573.2697,62.97635 573.2697,62.63535 C573.2697,62.29435 572.9937,62.01635 572.6517,62.01635 C572.3107,62.01635 572.0317,62.29435 572.0317,62.63535 C572.0317,62.97635 572.3107,63.25335 572.6517,63.25335 Z M564.4854,62.53645 L564.5284,62.25645 L564.3994,62.23745 C564.2504,62.21245 564.1414,62.17145 564.0724,62.11245 C564.0064,62.05145 563.9284,61.92645 563.8354,61.73945 L562.7214,59.49845 C563.1884,59.47245 563.5604,59.36445 563.8354,59.17745 C564.1124,58.98845 564.2844,58.68545 564.3484,58.27145 C564.4234,57.79545 564.3224,57.38445 564.0484,57.04345 C563.7714,56.69945 563.3084,56.47645 562.6544,56.37345 L560.5994,56.05245 L560.5564,56.33045 L560.8064,56.37045 C560.9724,56.39645 561.0804,56.44645 561.1304,56.52345 C561.1784,56.59745 561.1894,56.72045 561.1624,56.88945 L560.4214,61.61345 L559.8644,61.52745 L559.8224,61.80445 L561.8284,62.11945 L561.8724,61.84245 L561.5424,61.78945 C561.3774,61.76345 561.2694,61.71445 561.2204,61.63745 C561.1744,61.56145 561.1624,61.43845 561.1894,61.26945 L561.4794,59.41345 L561.9854,59.49245 L563.1994,62.08445 C563.2564,62.20945 563.3034,62.28845 563.3384,62.31945 C563.3744,62.34945 563.4494,62.37245 563.5614,62.39045 L564.4854,62.53645 Z M559.3914,61.74345 L559.3744,61.46345 L559.1794,61.47545 C559.0444,61.48145 558.9394,61.45645 558.8614,61.39645 C558.7844,61.33845 558.7084,61.20945 558.6324,61.01845 L556.7584,56.49845 C556.7184,56.39045 556.6994,56.32645 556.6984,56.30945 C556.6924,56.23945 556.7244,56.17745 556.7934,56.12245 C556.8584,56.06445 556.8924,56.01545 556.8894,55.97245 C556.8834,55.87445 556.8384,55.84245 556.7524,55.87745 L556.2864,56.08545 L554.5504,61.75045 L554.1204,61.77845 L554.1354,62.05845 L555.8154,61.95945 L555.7974,61.67745 L555.2624,61.70845 C555.1174,61.71745 555.0424,61.67345 555.0354,61.57245 C555.0334,61.53645 555.0424,61.47845 555.0614,61.39645 L555.5104,59.76945 L557.2974,59.66145 L558.0184,61.40245 C558.0494,61.49345 558.0234,61.54145 557.9364,61.54745 L557.5104,61.57445 L557.5264,61.85445 L559.3914,61.74345 Z M546.1094,60.07445 C546.3234,60.50045 546.2944,60.90345 546.0254,61.28545 C545.7974,61.35245 545.6274,61.41045 545.5124,61.45745 C545.3974,61.50745 545.2364,61.58345 545.0324,61.68445 L544.1404,59.90645 C544.1824,59.85645 544.2304,59.81445 544.2864,59.78145 C544.3414,59.74645 544.4134,59.70645 544.5004,59.66145 C544.8394,59.49245 545.1534,59.43745 545.4394,59.49845 C545.7244,59.56145 545.9494,59.75245 546.1094,60.07445 Z M551.1534,58.59445 C551.2644,58.97645 551.2194,59.30545 551.0144,59.58745 C550.8124,59.86845 550.5034,60.06945 550.0864,60.19245 C549.9884,60.22145 549.9054,60.23945 549.8384,60.24445 C549.7724,60.25245 549.7014,60.25345 549.6214,60.25245 L548.9214,57.84545 L549.1314,57.78445 C549.7554,57.60345 550.2234,57.60345 550.5324,57.78545 C550.8434,57.96745 551.0514,58.23845 551.1534,58.59445 Z M557.1624,59.33645 L555.6054,59.42845 L556.2794,57.23345 L557.1624,59.33645 Z M563.6254,58.21445 C563.5644,58.60645 563.3814,58.88645 563.0794,59.05545 C562.7754,59.22145 562.4084,59.27245 561.9794,59.20545 C561.8794,59.19045 561.7974,59.17245 561.7364,59.14845 C561.6734,59.12645 561.6044,59.09945 561.5354,59.06245 L561.9234,56.58745 L562.1384,56.62045 C562.7814,56.72145 563.2044,56.92145 563.4074,57.21845 C563.6114,57.51445 563.6834,57.84745 563.6254,58.21445 Z"></path></g></g>
</svg>