<svg width="122px" height="26px" viewBox="0 0 122 26" xmlns="http://www.w3.org/2000/svg"><g stroke="none" stroke-width="1" fill="none" fill-rule="evenodd"><g transform="translate(-17.000000, -185.000000)" fill="#686879"><path d="M93.6484375,191.958008 L92.8930664,190.028076 L90.4609375,190.028076 L89.7138672,191.958008 L89,191.958008 L91.3989258,185.865234 L91.9924316,185.865234 L94.3789062,191.958008 L93.6484375,191.958008 Z M92.6730957,189.393066 L91.9675293,187.512939 C91.8762202,187.274983 91.7821457,186.983075 91.6853027,186.637207 C91.62443,186.902833 91.5372727,187.194741 91.4238281,187.512939 L90.7099609,189.393066 L92.6730957,189.393066 Z M97.1845703,187.326172 C97.386557,187.326172 97.5677889,187.342773 97.7282715,187.375977 L97.6328125,188.015137 C97.4446605,187.973633 97.2786466,187.952881 97.1347656,187.952881 C96.7667625,187.952881 96.4520277,188.102293 96.1905518,188.401123 C95.9290758,188.699953 95.7983398,189.072101 95.7983398,189.517578 L95.7983398,191.958008 L95.109375,191.958008 L95.109375,187.40918 L95.6779785,187.40918 L95.7568359,188.251709 L95.7900391,188.251709 C95.9588225,187.955646 96.1621896,187.727377 96.4001465,187.566895 C96.6381034,187.406412 96.8995754,187.326172 97.1845703,187.326172 Z M100.396973,192.041016 C99.7384407,192.041016 99.2286395,191.83834 98.8675537,191.432983 C98.5064679,191.027627 98.3259277,190.454187 98.3259277,189.712646 C98.3259277,188.951738 98.5092348,188.363772 98.8758545,187.94873 C99.2424742,187.533689 99.7647264,187.326172 100.442627,187.326172 C100.661215,187.326172 100.8798,187.349691 101.098389,187.396729 C101.316977,187.443767 101.488525,187.499104 101.613037,187.562744 L101.401367,188.147949 C101.249185,188.087077 101.083171,188.036581 100.90332,187.99646 C100.723469,187.956339 100.564372,187.936279 100.426025,187.936279 C99.5018671,187.936279 99.0397949,188.525629 99.0397949,189.704346 C99.0397949,190.263268 99.1525461,190.692137 99.3780518,190.990967 C99.6035574,191.289796 99.9376605,191.439209 100.380371,191.439209 C100.759442,191.439209 101.148191,191.357585 101.546631,191.194336 L101.546631,191.804443 C101.242267,191.962159 100.859052,192.041016 100.396973,192.041016 Z M105.738525,191.958008 L105.738525,189.015381 C105.738525,188.644611 105.654135,188.367921 105.485352,188.185303 C105.316568,188.002685 105.052329,187.911377 104.692627,187.911377 C104.213946,187.911377 103.864625,188.041421 103.644653,188.301514 C103.424682,188.561606 103.314697,188.987709 103.314697,189.579834 L103.314697,191.958008 L102.625732,191.958008 L102.625732,185.5 L103.314697,185.5 L103.314697,187.454834 C103.314697,187.690024 103.30363,187.88509 103.281494,188.040039 L103.322998,188.040039 C103.458578,187.821451 103.651569,187.649211 103.901978,187.523315 C104.152386,187.39742 104.438068,187.334473 104.759033,187.334473 C105.315188,187.334473 105.732298,187.466592 106.010376,187.730835 C106.288454,187.995078 106.42749,188.414955 106.42749,188.990479 L106.42749,191.958008 L105.738525,191.958008 Z M108.531738,191.958008 L107.842773,191.958008 L107.842773,187.40918 L108.531738,187.40918 L108.531738,191.958008 Z M107.784668,186.176514 C107.784668,186.018798 107.823405,185.90328 107.900879,185.829956 C107.978353,185.756632 108.075195,185.719971 108.191406,185.719971 C108.302084,185.719971 108.397542,185.757324 108.477783,185.832031 C108.558024,185.906739 108.598145,186.021565 108.598145,186.176514 C108.598145,186.331462 108.558024,186.44698 108.477783,186.523071 C108.397542,186.599162 108.302084,186.637207 108.191406,186.637207 C108.075195,186.637207 107.978353,186.599162 107.900879,186.523071 C107.823405,186.44698 107.784668,186.331462 107.784668,186.176514 Z M111.461914,191.472412 C111.583659,191.472412 111.701253,191.46342 111.814697,191.445435 C111.928142,191.427449 112.018066,191.408773 112.084473,191.389404 L112.084473,191.916504 C112.009765,191.952474 111.899781,191.982218 111.754517,192.005737 C111.609252,192.029256 111.478516,192.041016 111.362305,192.041016 C110.482417,192.041016 110.04248,191.57756 110.04248,190.650635 L110.04248,187.94458 L109.390869,187.94458 L109.390869,187.612549 L110.04248,187.326172 L110.333008,186.35498 L110.731445,186.35498 L110.731445,187.40918 L112.05127,187.40918 L112.05127,187.94458 L110.731445,187.94458 L110.731445,190.621582 C110.731445,190.895509 110.796467,191.105794 110.926514,191.252441 C111.05656,191.399089 111.235025,191.472412 111.461914,191.472412 Z M114.915039,192.041016 C114.242672,192.041016 113.712119,191.836265 113.323364,191.426758 C112.934609,191.017251 112.740234,190.448653 112.740234,189.720947 C112.740234,188.987708 112.920775,188.405276 113.28186,187.973633 C113.642946,187.54199 114.127845,187.326172 114.736572,187.326172 C115.306562,187.326172 115.757567,187.513629 116.0896,187.88855 C116.421633,188.26347 116.587646,188.758054 116.587646,189.372314 L116.587646,189.808105 L113.454102,189.808105 C113.467936,190.342125 113.602823,190.747476 113.858765,191.02417 C114.114707,191.300864 114.475095,191.439209 114.939941,191.439209 C115.42969,191.439209 115.913897,191.336834 116.392578,191.13208 L116.392578,191.746338 C116.149087,191.851482 115.918743,191.92688 115.701538,191.972534 C115.484333,192.018189 115.22217,192.041016 114.915039,192.041016 Z M114.728271,187.903076 C114.363035,187.903076 114.071819,188.022053 113.854614,188.26001 C113.637409,188.497967 113.50944,188.827228 113.470703,189.247803 L115.848877,189.247803 C115.848877,188.813393 115.752035,188.480673 115.55835,188.249634 C115.364664,188.018594 115.087974,187.903076 114.728271,187.903076 Z M119.580078,192.041016 C118.921546,192.041016 118.411745,191.83834 118.050659,191.432983 C117.689573,191.027627 117.509033,190.454187 117.509033,189.712646 C117.509033,188.951738 117.69234,188.363772 118.05896,187.94873 C118.42558,187.533689 118.947832,187.326172 119.625732,187.326172 C119.844321,187.326172 120.062906,187.349691 120.281494,187.396729 C120.500082,187.443767 120.67163,187.499104 120.796143,187.562744 L120.584473,188.147949 C120.432291,188.087077 120.266277,188.036581 120.086426,187.99646 C119.906575,187.956339 119.747478,187.936279 119.609131,187.936279 C118.684973,187.936279 118.2229,188.525629 118.2229,189.704346 C118.2229,190.263268 118.335652,190.692137 118.561157,190.990967 C118.786663,191.289796 119.120766,191.439209 119.563477,191.439209 C119.942547,191.439209 120.331297,191.357585 120.729736,191.194336 L120.729736,191.804443 C120.425373,191.962159 120.042157,192.041016 119.580078,192.041016 Z M123.278076,191.472412 C123.399822,191.472412 123.517415,191.46342 123.630859,191.445435 C123.744304,191.427449 123.834228,191.408773 123.900635,191.389404 L123.900635,191.916504 C123.825927,191.952474 123.715943,191.982218 123.570679,192.005737 C123.425414,192.029256 123.294678,192.041016 123.178467,192.041016 C122.29858,192.041016 121.858643,191.57756 121.858643,190.650635 L121.858643,187.94458 L121.207031,187.94458 L121.207031,187.612549 L121.858643,187.326172 L122.14917,186.35498 L122.547607,186.35498 L122.547607,187.40918 L123.867432,187.40918 L123.867432,187.94458 L122.547607,187.94458 L122.547607,190.621582 C122.547607,190.895509 122.61263,191.105794 122.742676,191.252441 C122.872722,191.399089 123.051187,191.472412 123.278076,191.472412 Z M125.457031,187.40918 L125.457031,190.360107 C125.457031,190.730878 125.541422,191.007567 125.710205,191.190186 C125.878988,191.372804 126.143227,191.464111 126.50293,191.464111 C126.978844,191.464111 127.326781,191.334067 127.546753,191.073975 C127.766725,190.813882 127.876709,190.389163 127.876709,189.799805 L127.876709,187.40918 L128.565674,187.40918 L128.565674,191.958008 L127.99707,191.958008 L127.897461,191.3479 L127.860107,191.3479 C127.718993,191.572023 127.523235,191.74357 127.272827,191.862549 C127.022419,191.981527 126.736737,192.041016 126.415771,192.041016 C125.862383,192.041016 125.44804,191.909588 125.172729,191.646729 C124.897419,191.383869 124.759766,190.9633 124.759766,190.38501 L124.759766,187.40918 L125.457031,187.40918 Z M132.101807,187.326172 C132.303793,187.326172 132.485025,187.342773 132.645508,187.375977 L132.550049,188.015137 C132.361897,187.973633 132.195883,187.952881 132.052002,187.952881 C131.683999,187.952881 131.369264,188.102293 131.107788,188.401123 C130.846312,188.699953 130.715576,189.072101 130.715576,189.517578 L130.715576,191.958008 L130.026611,191.958008 L130.026611,187.40918 L130.595215,187.40918 L130.674072,188.251709 L130.707275,188.251709 C130.876059,187.955646 131.079426,187.727377 131.317383,187.566895 C131.55534,187.406412 131.816812,187.326172 132.101807,187.326172 Z M136.293701,191.958008 L136.156738,191.310547 L136.123535,191.310547 C135.896646,191.595542 135.670452,191.788533 135.444946,191.889526 C135.219441,191.99052 134.937909,192.041016 134.600342,192.041016 C134.14933,192.041016 133.795859,191.924806 133.539917,191.692383 C133.283975,191.45996 133.156006,191.129315 133.156006,190.700439 C133.156006,189.781815 133.890618,189.300375 135.359863,189.256104 L136.131836,189.231201 L136.131836,188.948975 C136.131836,188.592039 136.055054,188.328492 135.901489,188.158325 C135.747924,187.988158 135.502362,187.903076 135.164795,187.903076 C134.785724,187.903076 134.356855,188.019286 133.878174,188.251709 L133.666504,187.724609 C133.890626,187.602864 134.136188,187.507406 134.403198,187.438232 C134.670208,187.369059 134.937906,187.334473 135.206299,187.334473 C135.748619,187.334473 136.150511,187.454833 136.411987,187.695557 C136.673463,187.936281 136.804199,188.322263 136.804199,188.853516 L136.804199,191.958008 L136.293701,191.958008 Z M134.737305,191.472412 C135.166181,191.472412 135.503051,191.354819 135.747925,191.119629 C135.992799,190.884439 136.115234,190.555178 136.115234,190.131836 L136.115234,189.720947 L135.42627,189.75 C134.878415,189.769369 134.48344,189.854451 134.241333,190.005249 C133.999226,190.156047 133.878174,190.390542 133.878174,190.70874 C133.878174,190.957765 133.953572,191.147298 134.10437,191.277344 C134.255168,191.40739 134.466144,191.472412 134.737305,191.472412 Z M138.912598,191.958008 L138.223633,191.958008 L138.223633,185.5 L138.912598,185.5 L138.912598,191.958008 Z M90.5397949,197.93457 L90.5397949,200.458008 L89.8342285,200.458008 L89.8342285,194.390137 L91.4985352,194.390137 C92.2428423,194.390137 92.7927635,194.532632 93.1483154,194.817627 C93.5038673,195.102622 93.6816406,195.531491 93.6816406,196.104248 C93.6816406,196.906661 93.2749064,197.448973 92.4614258,197.731201 L94.1091309,200.458008 L93.2749023,200.458008 L91.8056641,197.93457 L90.5397949,197.93457 Z M90.5397949,197.328613 L91.5068359,197.328613 C92.0048853,197.328613 92.370116,197.229697 92.6025391,197.03186 C92.8349621,196.834024 92.9511719,196.537274 92.9511719,196.141602 C92.9511719,195.740395 92.8328869,195.451254 92.5963135,195.27417 C92.35974,195.097086 91.9799831,195.008545 91.4570312,195.008545 L90.5397949,195.008545 L90.5397949,197.328613 Z M96.9064941,200.541016 C96.2341275,200.541016 95.7035745,200.336265 95.3148193,199.926758 C94.9260641,199.517251 94.7316895,198.948653 94.7316895,198.220947 C94.7316895,197.487708 94.9122296,196.905276 95.2733154,196.473633 C95.6344012,196.04199 96.1193003,195.826172 96.7280273,195.826172 C97.2980172,195.826172 97.7490218,196.013629 98.0810547,196.38855 C98.4130876,196.76347 98.5791016,197.258054 98.5791016,197.872314 L98.5791016,198.308105 L95.4455566,198.308105 C95.4593913,198.842125 95.5942777,199.247476 95.8502197,199.52417 C96.1061618,199.800864 96.4665504,199.939209 96.9313965,199.939209 C97.421145,199.939209 97.9053524,199.836834 98.3840332,199.63208 L98.3840332,200.246338 C98.1405424,200.351482 97.910198,200.42688 97.6929932,200.472534 C97.4757883,200.518189 97.2136246,200.541016 96.9064941,200.541016 Z M96.7197266,196.403076 C96.3544904,196.403076 96.0632742,196.522053 95.8460693,196.76001 C95.6288645,196.997967 95.5008954,197.327228 95.4621582,197.747803 L97.840332,197.747803 C97.840332,197.313393 97.7434906,196.980673 97.5498047,196.749634 C97.3561188,196.518594 97.0794289,196.403076 96.7197266,196.403076 Z M102.687988,199.217041 C102.687988,199.640383 102.530275,199.966877 102.214844,200.196533 C101.899412,200.426189 101.456709,200.541016 100.886719,200.541016 C100.283526,200.541016 99.8131527,200.445558 99.4755859,200.254639 L99.4755859,199.615479 C99.6941743,199.726156 99.928669,199.813313 100.179077,199.876953 C100.429485,199.940593 100.670897,199.972412 100.90332,199.972412 C101.263023,199.972412 101.539713,199.914999 101.733398,199.800171 C101.927084,199.685343 102.023926,199.510336 102.023926,199.275146 C102.023926,199.098062 101.947144,198.946575 101.793579,198.820679 C101.640014,198.694783 101.340497,198.546062 100.89502,198.374512 C100.471678,198.216796 100.170777,198.079143 99.9923096,197.961548 C99.8138419,197.843953 99.6810307,197.71045 99.5938721,197.561035 C99.5067134,197.41162 99.4631348,197.233155 99.4631348,197.025635 C99.4631348,196.654865 99.6139308,196.362265 99.9155273,196.147827 C100.217124,195.933389 100.630775,195.826172 101.156494,195.826172 C101.646243,195.826172 102.124916,195.92578 102.592529,196.125 L102.347656,196.685303 C101.891111,196.497151 101.47746,196.403076 101.106689,196.403076 C100.78019,196.403076 100.533936,196.454264 100.36792,196.556641 C100.201903,196.659017 100.118896,196.800129 100.118896,196.97998 C100.118896,197.101726 100.150024,197.205485 100.21228,197.29126 C100.274536,197.377035 100.374837,197.458658 100.513184,197.536133 C100.651531,197.613607 100.917153,197.725667 101.310059,197.872314 C101.849612,198.068767 102.214151,198.266601 102.403687,198.46582 C102.593222,198.66504 102.687988,198.915444 102.687988,199.217041 Z M107.734863,198.179443 C107.734863,198.920984 107.548098,199.499957 107.174561,199.916382 C106.801024,200.332806 106.284997,200.541016 105.626465,200.541016 C105.219725,200.541016 104.858644,200.445558 104.543213,200.254639 C104.227782,200.06372 103.984294,199.789797 103.812744,199.432861 C103.641194,199.075926 103.55542,198.658124 103.55542,198.179443 C103.55542,197.437903 103.740802,196.860313 104.111572,196.446655 C104.482342,196.032998 104.996986,195.826172 105.655518,195.826172 C106.291914,195.826172 106.797565,196.03784 107.172485,196.461182 C107.547406,196.884524 107.734863,197.457272 107.734863,198.179443 Z M104.269287,198.179443 C104.269287,198.760501 104.385497,199.203205 104.61792,199.507568 C104.850343,199.811932 105.192055,199.964111 105.643066,199.964111 C106.094078,199.964111 106.436482,199.812624 106.670288,199.509644 C106.904095,199.206664 107.020996,198.763268 107.020996,198.179443 C107.020996,197.601153 106.904095,197.161907 106.670288,196.861694 C106.436482,196.561481 106.091311,196.411377 105.634766,196.411377 C105.183754,196.411377 104.843426,196.559406 104.61377,196.855469 C104.384113,197.151531 104.269287,197.592852 104.269287,198.179443 Z M109.590088,195.90918 L109.590088,198.860107 C109.590088,199.230878 109.674478,199.507567 109.843262,199.690186 C110.012045,199.872804 110.276284,199.964111 110.635986,199.964111 C111.1119,199.964111 111.459838,199.834067 111.67981,199.573975 C111.899781,199.313882 112.009766,198.889163 112.009766,198.299805 L112.009766,195.90918 L112.69873,195.90918 L112.69873,200.458008 L112.130127,200.458008 L112.030518,199.8479 L111.993164,199.8479 C111.85205,200.072023 111.656292,200.24357 111.405884,200.362549 C111.155476,200.481527 110.869793,200.541016 110.548828,200.541016 C109.99544,200.541016 109.581097,200.409588 109.305786,200.146729 C109.030476,199.883869 108.892822,199.4633 108.892822,198.88501 L108.892822,195.90918 L109.590088,195.90918 Z M116.234863,195.826172 C116.43685,195.826172 116.618082,195.842773 116.778564,195.875977 L116.683105,196.515137 C116.494953,196.473633 116.32894,196.452881 116.185059,196.452881 C115.817055,196.452881 115.502321,196.602293 115.240845,196.901123 C114.979369,197.199953 114.848633,197.572101 114.848633,198.017578 L114.848633,200.458008 L114.159668,200.458008 L114.159668,195.90918 L114.728271,195.90918 L114.807129,196.751709 L114.840332,196.751709 C115.009115,196.455646 115.212483,196.227377 115.450439,196.066895 C115.688396,195.906412 115.949868,195.826172 116.234863,195.826172 Z M119.447266,200.541016 C118.788734,200.541016 118.278932,200.33834 117.917847,199.932983 C117.556761,199.527627 117.376221,198.954187 117.376221,198.212646 C117.376221,197.451738 117.559528,196.863772 117.926147,196.44873 C118.292767,196.033689 118.815019,195.826172 119.49292,195.826172 C119.711508,195.826172 119.930093,195.849691 120.148682,195.896729 C120.36727,195.943767 120.538818,195.999104 120.66333,196.062744 L120.45166,196.647949 C120.299478,196.587077 120.133464,196.536581 119.953613,196.49646 C119.773762,196.456339 119.614665,196.436279 119.476318,196.436279 C118.55216,196.436279 118.090088,197.025629 118.090088,198.204346 C118.090088,198.763268 118.202839,199.192137 118.428345,199.490967 C118.65385,199.789796 118.987954,199.939209 119.430664,199.939209 C119.809735,199.939209 120.198484,199.857585 120.596924,199.694336 L120.596924,200.304443 C120.29256,200.462159 119.909345,200.541016 119.447266,200.541016 Z M123.597656,200.541016 C122.92529,200.541016 122.394737,200.336265 122.005981,199.926758 C121.617226,199.517251 121.422852,198.948653 121.422852,198.220947 C121.422852,197.487708 121.603392,196.905276 121.964478,196.473633 C122.325563,196.04199 122.810462,195.826172 123.419189,195.826172 C123.989179,195.826172 124.440184,196.013629 124.772217,196.38855 C125.10425,196.76347 125.270264,197.258054 125.270264,197.872314 L125.270264,198.308105 L122.136719,198.308105 C122.150553,198.842125 122.28544,199.247476 122.541382,199.52417 C122.797324,199.800864 123.157713,199.939209 123.622559,199.939209 C124.112307,199.939209 124.596515,199.836834 125.075195,199.63208 L125.075195,200.246338 C124.831705,200.351482 124.60136,200.42688 124.384155,200.472534 C124.16695,200.518189 123.904787,200.541016 123.597656,200.541016 Z M123.410889,196.403076 C123.045652,196.403076 122.754436,196.522053 122.537231,196.76001 C122.320027,196.997967 122.192057,197.327228 122.15332,197.747803 L124.531494,197.747803 C124.531494,197.313393 124.434653,196.980673 124.240967,196.749634 C124.047281,196.518594 123.770591,196.403076 123.410889,196.403076 Z M129.37915,199.217041 C129.37915,199.640383 129.221437,199.966877 128.906006,200.196533 C128.590575,200.426189 128.147871,200.541016 127.577881,200.541016 C126.974688,200.541016 126.504315,200.445558 126.166748,200.254639 L126.166748,199.615479 C126.385336,199.726156 126.619831,199.813313 126.870239,199.876953 C127.120647,199.940593 127.362059,199.972412 127.594482,199.972412 C127.954185,199.972412 128.230875,199.914999 128.424561,199.800171 C128.618246,199.685343 128.715088,199.510336 128.715088,199.275146 C128.715088,199.098062 128.638306,198.946575 128.484741,198.820679 C128.331176,198.694783 128.031659,198.546062 127.586182,198.374512 C127.16284,198.216796 126.861939,198.079143 126.683472,197.961548 C126.505004,197.843953 126.372193,197.71045 126.285034,197.561035 C126.197876,197.41162 126.154297,197.233155 126.154297,197.025635 C126.154297,196.654865 126.305093,196.362265 126.606689,196.147827 C126.908286,195.933389 127.321937,195.826172 127.847656,195.826172 C128.337405,195.826172 128.816078,195.92578 129.283691,196.125 L129.038818,196.685303 C128.582273,196.497151 128.168622,196.403076 127.797852,196.403076 C127.471353,196.403076 127.225098,196.454264 127.059082,196.556641 C126.893066,196.659017 126.810059,196.800129 126.810059,196.97998 C126.810059,197.101726 126.841186,197.205485 126.903442,197.29126 C126.965699,197.377035 127.065999,197.458658 127.204346,197.536133 C127.342693,197.613607 127.608315,197.725667 128.001221,197.872314 C128.540774,198.068767 128.905313,198.266601 129.094849,198.46582 C129.284384,198.66504 129.37915,198.915444 129.37915,199.217041 Z M92.432373,203.433838 C91.7655403,203.433838 91.2391377,203.655882 90.8531494,204.099976 C90.4671612,204.54407 90.2741699,205.152096 90.2741699,205.924072 C90.2741699,206.718184 90.4602439,207.331744 90.8323975,207.764771 C91.204551,208.197797 91.735104,208.414307 92.4240723,208.414307 C92.8474142,208.414307 93.3302382,208.338217 93.8725586,208.186035 L93.8725586,208.804443 C93.4519836,208.962159 92.9331899,209.041016 92.3161621,209.041016 C91.4224402,209.041016 90.7327905,208.769859 90.2471924,208.227539 C89.7615943,207.685219 89.5187988,206.914637 89.5187988,205.915771 C89.5187988,205.290443 89.6357003,204.742597 89.8695068,204.272217 C90.1033133,203.801837 90.4408751,203.439373 90.8822021,203.184814 C91.3235292,202.930256 91.8430146,202.802979 92.4406738,202.802979 C93.0770702,202.802979 93.633217,202.919188 94.1091309,203.151611 L93.8103027,203.757568 C93.3509905,203.541747 92.8916852,203.433838 92.432373,203.433838 Z M97.8901367,208.958008 L97.7531738,208.310547 L97.7199707,208.310547 C97.4930815,208.595542 97.2668875,208.788533 97.0413818,208.889526 C96.8158762,208.99052 96.5343441,209.041016 96.1967773,209.041016 C95.745766,209.041016 95.3922946,208.924806 95.1363525,208.692383 C94.8804105,208.45996 94.7524414,208.129315 94.7524414,207.700439 C94.7524414,206.781815 95.4870532,206.300375 96.9562988,206.256104 L97.7282715,206.231201 L97.7282715,205.948975 C97.7282715,205.592039 97.65149,205.328492 97.4979248,205.158325 C97.3443596,204.988158 97.0987973,204.903076 96.7612305,204.903076 C96.3821596,204.903076 95.9532902,205.019286 95.4746094,205.251709 L95.2629395,204.724609 C95.4870617,204.602864 95.732624,204.507406 95.9996338,204.438232 C96.2666436,204.369059 96.5343411,204.334473 96.8027344,204.334473 C97.3450548,204.334473 97.7469469,204.454833 98.0084229,204.695557 C98.2698988,204.936281 98.4006348,205.322263 98.4006348,205.853516 L98.4006348,208.958008 L97.8901367,208.958008 Z M96.3337402,208.472412 C96.7626161,208.472412 97.0994861,208.354819 97.3443604,208.119629 C97.5892346,207.884439 97.7116699,207.555178 97.7116699,207.131836 L97.7116699,206.720947 L97.0227051,206.75 C96.4748508,206.769369 96.0798759,206.854451 95.8377686,207.005249 C95.5956612,207.156047 95.4746094,207.390542 95.4746094,207.70874 C95.4746094,207.957765 95.5500074,208.147298 95.7008057,208.277344 C95.8516039,208.40739 96.06258,208.472412 96.3337402,208.472412 Z M105.618164,208.958008 L105.618164,205.998779 C105.618164,205.63631 105.540691,205.364462 105.385742,205.183228 C105.230793,205.001993 104.990073,204.911377 104.663574,204.911377 C104.234698,204.911377 103.917888,205.034504 103.713135,205.280762 C103.508381,205.527019 103.406006,205.906085 103.406006,206.417969 L103.406006,208.958008 L102.717041,208.958008 L102.717041,205.998779 C102.717041,205.63631 102.639568,205.364462 102.484619,205.183228 C102.32967,205.001993 102.087567,204.911377 101.758301,204.911377 C101.326658,204.911377 101.01054,205.04073 100.809937,205.299438 C100.609333,205.558147 100.509033,205.982175 100.509033,206.571533 L100.509033,208.958008 L99.8200684,208.958008 L99.8200684,204.40918 L100.380371,204.40918 L100.492432,205.031738 L100.525635,205.031738 C100.655681,204.810383 100.838988,204.637452 101.075562,204.512939 C101.312135,204.388427 101.577066,204.326172 101.870361,204.326172 C102.581465,204.326172 103.046304,204.583494 103.264893,205.098145 L103.298096,205.098145 C103.433676,204.860188 103.630126,204.672038 103.887451,204.533691 C104.144777,204.395344 104.438068,204.326172 104.767334,204.326172 C105.281985,204.326172 105.667276,204.458291 105.923218,204.722534 C106.17916,204.986777 106.307129,205.409421 106.307129,205.990479 L106.307129,208.958008 L105.618164,208.958008 Z M109.843262,204.334473 C110.440921,204.334473 110.905068,204.538531 111.235718,204.946655 C111.566367,205.354779 111.731689,205.932369 111.731689,206.679443 C111.731689,207.426517 111.564984,208.006875 111.231567,208.420532 C110.898151,208.83419 110.435387,209.041016 109.843262,209.041016 C109.547199,209.041016 109.276735,208.986369 109.03186,208.877075 C108.786986,208.767781 108.581544,208.599692 108.415527,208.372803 L108.365723,208.372803 L108.220459,208.958008 L107.726562,208.958008 L107.726562,202.5 L108.415527,202.5 L108.415527,204.068848 C108.415527,204.420249 108.40446,204.735676 108.382324,205.015137 L108.415527,205.015137 C108.736492,204.561358 109.212399,204.334473 109.843262,204.334473 Z M109.743652,204.911377 C109.273272,204.911377 108.934327,205.046263 108.726807,205.31604 C108.519286,205.585817 108.415527,206.04028 108.415527,206.679443 C108.415527,207.318607 108.522053,207.775837 108.735107,208.051147 C108.948162,208.326458 109.289874,208.464111 109.760254,208.464111 C110.183596,208.464111 110.499022,208.309857 110.706543,208.001343 C110.914064,207.692829 111.017822,207.249433 111.017822,206.671143 C111.017822,206.079017 110.914064,205.637697 110.706543,205.347168 C110.499022,205.056639 110.178062,204.911377 109.743652,204.911377 Z M115.010498,204.326172 C115.212485,204.326172 115.393717,204.342773 115.554199,204.375977 L115.45874,205.015137 C115.270588,204.973633 115.104574,204.952881 114.960693,204.952881 C114.59269,204.952881 114.277955,205.102293 114.016479,205.401123 C113.755004,205.699953 113.624268,206.072101 113.624268,206.517578 L113.624268,208.958008 L112.935303,208.958008 L112.935303,204.40918 L113.503906,204.40918 L113.582764,205.251709 L113.615967,205.251709 C113.78475,204.955646 113.988117,204.727377 114.226074,204.566895 C114.464031,204.406412 114.725503,204.326172 115.010498,204.326172 Z M117.093994,208.958008 L116.405029,208.958008 L116.405029,204.40918 L117.093994,204.40918 L117.093994,208.958008 Z M116.346924,203.176514 C116.346924,203.018798 116.38566,202.90328 116.463135,202.829956 C116.540609,202.756632 116.637451,202.719971 116.753662,202.719971 C116.86434,202.719971 116.959798,202.757324 117.040039,202.832031 C117.12028,202.906739 117.1604,203.021565 117.1604,203.176514 C117.1604,203.331462 117.12028,203.44698 117.040039,203.523071 C116.959798,203.599162 116.86434,203.637207 116.753662,203.637207 C116.637451,203.637207 116.540609,203.599162 116.463135,203.523071 C116.38566,203.44698 116.346924,203.331462 116.346924,203.176514 Z M121.651123,208.3479 L121.61377,208.3479 C121.295571,208.80998 120.819665,209.041016 120.186035,209.041016 C119.591143,209.041016 119.128379,208.837649 118.797729,208.430908 C118.46708,208.024168 118.301758,207.445886 118.301758,206.696045 C118.301758,205.946204 118.467772,205.363772 118.799805,204.94873 C119.131838,204.533689 119.59391,204.326172 120.186035,204.326172 C120.803063,204.326172 121.276203,204.550291 121.605469,204.998535 L121.659424,204.998535 L121.630371,204.670654 L121.61377,204.351074 L121.61377,202.5 L122.302734,202.5 L122.302734,208.958008 L121.742432,208.958008 L121.651123,208.3479 Z M120.273193,208.464111 C120.743573,208.464111 121.084594,208.336142 121.296265,208.0802 C121.507936,207.824258 121.61377,207.411298 121.61377,206.841309 L121.61377,206.696045 C121.61377,206.051348 121.506552,205.591351 121.292114,205.31604 C121.077676,205.040729 120.735273,204.903076 120.264893,204.903076 C119.860919,204.903076 119.551718,205.060098 119.33728,205.374146 C119.122842,205.688193 119.015625,206.131589 119.015625,206.704346 C119.015625,207.285403 119.122151,207.723957 119.335205,208.02002 C119.54826,208.316082 119.860919,208.464111 120.273193,208.464111 Z M127.486572,204.40918 L127.486572,204.844971 L126.644043,204.94458 C126.721517,205.041423 126.79069,205.168009 126.851562,205.324341 C126.912435,205.480673 126.942871,205.657063 126.942871,205.853516 C126.942871,206.298993 126.790692,206.65454 126.486328,206.920166 C126.181965,207.185792 125.764163,207.318604 125.23291,207.318604 C125.09733,207.318604 124.970053,207.307536 124.851074,207.2854 C124.557778,207.440349 124.411133,207.635415 124.411133,207.870605 C124.411133,207.995118 124.46232,208.087117 124.564697,208.146606 C124.667074,208.206096 124.842772,208.23584 125.091797,208.23584 L125.896973,208.23584 C126.389488,208.23584 126.767862,208.339599 127.032104,208.547119 C127.296347,208.75464 127.428467,209.056232 127.428467,209.451904 C127.428467,209.955488 127.226483,210.339395 126.82251,210.603638 C126.418536,210.867881 125.829187,211 125.054443,211 C124.459551,211 124.000937,210.889324 123.678589,210.667969 C123.35624,210.446613 123.195068,210.133954 123.195068,209.72998 C123.195068,209.453286 123.283609,209.21395 123.460693,209.011963 C123.637778,208.809976 123.886799,208.673015 124.207764,208.601074 C124.091552,208.548502 123.994019,208.466879 123.915161,208.356201 C123.836303,208.245524 123.796875,208.116863 123.796875,207.970215 C123.796875,207.804198 123.841145,207.658936 123.929688,207.534424 C124.01823,207.409911 124.157958,207.289551 124.348877,207.17334 C124.113687,207.076497 123.922079,206.911866 123.774048,206.679443 C123.626017,206.44702 123.552002,206.181398 123.552002,205.882568 C123.552002,205.384519 123.701415,205.000612 124.000244,204.730835 C124.299074,204.461058 124.722409,204.326172 125.270264,204.326172 C125.508221,204.326172 125.722655,204.353841 125.913574,204.40918 L127.486572,204.40918 Z M123.859131,209.72168 C123.859131,209.967937 123.96289,210.154703 124.17041,210.281982 C124.377931,210.409262 124.675372,210.4729 125.062744,210.4729 C125.641035,210.4729 126.069212,210.386435 126.34729,210.213501 C126.625368,210.040567 126.764404,209.806072 126.764404,209.51001 C126.764404,209.263752 126.688315,209.092896 126.536133,208.997437 C126.383951,208.901977 126.097577,208.854248 125.677002,208.854248 L124.851074,208.854248 C124.53841,208.854248 124.294923,208.928954 124.120605,209.078369 C123.946288,209.227784 123.859131,209.442219 123.859131,209.72168 Z M124.232666,205.865967 C124.232666,206.184165 124.32259,206.424885 124.502441,206.588135 C124.682293,206.751384 124.932697,206.833008 125.253662,206.833008 C125.926029,206.833008 126.262207,206.506514 126.262207,205.853516 C126.262207,205.170081 125.921878,204.828369 125.241211,204.828369 C124.917479,204.828369 124.668458,204.915526 124.494141,205.089844 C124.319823,205.264161 124.232666,205.522866 124.232666,205.865967 Z M130.342041,209.041016 C129.669674,209.041016 129.139121,208.836265 128.750366,208.426758 C128.361611,208.017251 128.167236,207.448653 128.167236,206.720947 C128.167236,205.987708 128.347777,205.405276 128.708862,204.973633 C129.069948,204.54199 129.554847,204.326172 130.163574,204.326172 C130.733564,204.326172 131.184569,204.513629 131.516602,204.88855 C131.848634,205.26347 132.014648,205.758054 132.014648,206.372314 L132.014648,206.808105 L128.881104,206.808105 C128.894938,207.342125 129.029825,207.747476 129.285767,208.02417 C129.541709,208.300864 129.902097,208.439209 130.366943,208.439209 C130.856692,208.439209 131.340899,208.336834 131.81958,208.13208 L131.81958,208.746338 C131.576089,208.851482 131.345745,208.92688 131.12854,208.972534 C130.911335,209.018189 130.649171,209.041016 130.342041,209.041016 Z M130.155273,204.903076 C130.514976,204.903076 130.791666,205.018594 130.985352,205.249634 C131.179037,205.480673 131.275879,205.813393 131.275879,206.247803 L128.897705,206.247803 C128.936442,205.827228 129.064411,205.497967 129.281616,205.26001 C129.498821,205.022053 129.790037,204.903076 130.155273,204.903076 Z M76.7145694,206.029046 C78.1188712,206.029046 79.3274267,205.793008 80.3403362,205.321132 C81.3532456,204.849256 82.4121599,204.095337 83.5170792,203.059375 L86.1414627,205.752716 C83.5861366,208.584272 80.4841641,210 76.835445,210 C73.1867259,210 70.1596242,208.825923 67.7539392,206.47787 C65.3483545,204.129816 64.145512,201.160245 64.145512,197.569057 C64.145512,193.97787 65.371407,190.985246 67.8229966,188.591088 C70.2746865,186.197029 73.370946,185 77.1116748,185 C80.8525039,185 83.977529,186.381149 86.48675,189.143648 L83.8969452,191.975103 C82.7459209,190.870184 81.658241,190.098926 80.6338053,189.661528 C79.6093696,189.224231 78.4066273,189.005533 77.0253781,189.005533 C74.5852145,189.005533 72.5364433,189.79393 70.8789642,191.370825 C69.2214852,192.947721 68.3927958,194.962013 68.3927958,197.413703 C68.3927958,199.865293 69.2157722,201.914164 70.8617249,203.560117 C72.5076777,205.20607 74.4586259,206.029046 76.7145694,206.029046 Z M42.9772483,209.72377 L38.6264285,209.72377 L38.6408614,204.233452 L26.5552061,204.233452 L21.7064509,209.72377 L17.355631,209.72377 L38.6807523,185.586938 L43.0316724,185.586938 L42.9772483,209.72377 Z M62.6941028,209.72377 L57.5144933,209.72377 L51.7479455,201.609069 L46.4223031,201.609069 L46.4223031,197.914345 L51.4717157,197.914345 C53.7737644,197.914345 55.3391334,197.557531 56.1678228,196.843904 C56.9966125,196.130277 57.4109572,194.985066 57.4109572,193.408171 C57.4109572,191.831275 56.9850862,190.749308 56.1333442,190.16227 C55.2816023,189.575232 53.7622381,189.281762 51.5752518,189.281762 L46.4223031,189.281762 L46.4223031,185.586938 L51.299022,185.586938 C54.9823199,185.586938 57.6181295,186.208556 59.2065511,187.45159 C60.7948725,188.694724 61.5890833,190.685964 61.5890833,193.42541 C61.5890833,197.40789 59.8511208,199.917111 56.3749952,200.953073 L62.6941028,209.72377 Z M38.6502829,200.469571 L38.6693263,190.524797 L29.8795857,200.469571 L38.6502829,200.469571 Z"></path></g></g></svg>
