<?xml version="1.0" encoding="UTF-8"?>
<svg width="92px" height="57px" viewBox="0 0 92 57" xmlns="http://www.w3.org/2000/svg"><g stroke="none" stroke-width="1" fill="none" fill-rule="evenodd"><g transform="translate(-184.000000, -161.000000)" fill="#686879">
<path d="M236.4202,215.2965 L236.4202,215.2845 C236.4202,214.1075 237.3042,213.0775 238.6022,213.0775 C239.9012,213.0775 240.7732,214.0955 240.7732,215.2725 L240.7732,215.2845 C240.7732,216.4615 239.8892,217.4915 238.5902,217.4915 C237.2922,217.4915 236.4202,216.4735 236.4202,215.2965 Z M230.8237,215.2965 L230.8237,215.2845 C230.8237,214.0775 231.7257,213.0775 232.9817,213.0775 C233.7567,213.0775 234.2197,213.3515 234.6467,213.7535 L234.3177,214.1075 C233.9577,213.7665 233.5557,213.5225 232.9757,213.5225 C232.0307,213.5225 231.3237,214.2905 231.3237,215.2725 L231.3237,215.2845 C231.3237,216.2725 232.0367,217.0465 232.9757,217.0465 C233.5617,217.0465 233.9457,216.8205 234.3537,216.4305 L234.6707,216.7415 C234.2257,217.1925 233.7377,217.4915 232.9637,217.4915 C231.7317,217.4915 230.8237,216.5215 230.8237,215.2965 Z M205.3616,215.2965 L205.3616,215.2845 C205.3616,214.0775 206.2636,213.0775 207.5196,213.0775 C208.2946,213.0775 208.7576,213.3515 209.1846,213.7535 L208.8556,214.1075 C208.4956,213.7665 208.0926,213.5225 207.5136,213.5225 C206.5686,213.5225 205.8616,214.2905 205.8616,215.2725 L205.8616,215.2845 C205.8616,216.2725 206.5746,217.0465 207.5136,217.0465 C208.0996,217.0465 208.4836,216.8205 208.8916,216.4305 L209.2086,216.7415 C208.7636,217.1925 208.2756,217.4915 207.5016,217.4915 C206.2696,217.4915 205.3616,216.5215 205.3616,215.2965 Z M211.2018,215.6319 L211.2018,213.1499 L211.6838,213.1499 L211.6838,215.6019 C211.6838,216.5219 212.1708,217.0399 212.9878,217.0399 C213.7748,217.0399 214.2748,216.5649 214.2748,215.6319 L214.2748,213.1499 L214.7568,213.1499 L214.7568,215.5949 C214.7568,216.8389 214.0428,217.4859 212.9758,217.4859 C211.9208,217.4859 211.2018,216.8389 211.2018,215.6319 Z M200.1493,216.7964 L200.4483,216.4424 C200.8933,216.8454 201.3203,217.0464 201.9113,217.0464 C202.4843,217.0464 202.8623,216.7414 202.8623,216.3204 L202.8623,216.3084 C202.8623,215.9124 202.6493,215.6864 201.7533,215.4974 C200.7713,215.2844 200.3203,214.9674 200.3203,214.2664 L200.3203,214.2544 C200.3203,213.5834 200.9113,213.0894 201.7223,213.0894 C202.3443,213.0894 202.7893,213.2664 203.2223,213.6134 L202.9413,213.9854 C202.5453,213.6624 202.1493,213.5224 201.7103,213.5224 C201.1553,213.5224 200.8013,213.8274 200.8013,214.2114 L200.8013,214.2234 C200.8013,214.6254 201.0213,214.8514 201.9603,215.0524 C202.9113,215.2604 203.3503,215.6074 203.3503,216.2594 L203.3503,216.2724 C203.3503,217.0034 202.7403,217.4794 201.8933,217.4794 C201.2163,217.4794 200.6613,217.2534 200.1493,216.7964 Z M257.9946,217.4185 L257.4766,217.4185 L256.9766,216.2905 L254.6536,216.2905 L254.1476,217.4185 L253.6536,217.4185 L255.5986,213.1195 L256.0496,213.1195 L257.9946,217.4185 Z M223.1574,213.5955 L221.7244,213.5955 L221.7244,217.4185 L221.2364,217.4185 L221.2364,213.5955 L219.8034,213.5955 L219.8034,213.1505 L223.1574,213.1505 L223.1574,213.5955 Z M267.6695,217.4184 L267.1815,217.4184 L267.1815,215.7294 L265.4075,213.1504 L265.9925,213.1504 L267.4315,215.2844 L268.8825,213.1504 L269.4435,213.1504 L267.6695,215.7234 L267.6695,217.4184 Z M193.7122,217.4184 L191.8162,217.4184 L191.8162,213.1504 L193.6332,213.1504 C194.1202,213.1504 194.5042,213.2904 194.7482,213.5284 C194.9252,213.7114 195.0232,213.9364 195.0232,214.2114 L195.0232,214.2234 C195.0232,214.7784 194.6812,215.0644 194.3462,215.2114 C194.8522,215.3634 195.2602,215.6564 195.2602,216.2414 L195.2602,216.2534 C195.2602,216.9854 194.6452,217.4184 193.7122,217.4184 Z M249.7585,217.4184 L249.2775,217.4184 L249.2775,213.1504 L250.8745,213.1504 C251.8375,213.1504 252.4715,213.6624 252.4715,214.5044 L252.4715,214.5164 C252.4715,215.4364 251.7035,215.9124 250.7955,215.9124 L249.7585,215.9124 L249.7585,217.4184 Z M260.4019,217.4184 L259.9329,217.4184 L259.9329,213.1504 L260.3839,213.1504 L263.0729,216.5704 L263.0729,213.1504 L263.5419,213.1504 L263.5419,217.4184 L263.1579,217.4184 L260.4019,213.9184 L260.4019,217.4184 Z M243.357,217.4184 L242.888,217.4184 L242.888,213.1504 L243.376,213.1504 L244.93,215.4794 L246.485,213.1504 L246.973,213.1504 L246.973,217.4184 L246.491,217.4184 L246.491,213.9614 L244.937,216.2474 L244.912,216.2474 L243.357,213.9674 L243.357,217.4184 Z M197.4795,217.4179 L197.9615,217.4179 L197.9615,213.1499 L197.4795,213.1499 L197.4795,217.4179 Z M217.1575,217.4179 L217.6395,217.4179 L217.6395,213.1499 L217.1575,213.1499 L217.1575,217.4179 Z M240.2732,215.2965 L240.2732,215.2845 C240.2732,214.3145 239.5662,213.5225 238.5902,213.5225 C237.6152,213.5225 236.9202,214.3025 236.9202,215.2725 L236.9202,215.2845 C236.9202,216.2535 237.6272,217.0465 238.6022,217.0465 C239.5782,217.0465 240.2732,216.2655 240.2732,215.2965 Z M193.6392,215.4794 L192.2912,215.4794 L192.2912,216.9854 L193.7242,216.9854 C194.3702,216.9854 194.7732,216.6984 194.7732,216.2234 L194.7732,216.2114 C194.7732,215.7474 194.3822,215.4794 193.6392,215.4794 Z M256.7876,215.8575 L255.8186,213.6805 L254.8426,215.8575 L256.7876,215.8575 Z M273.1804,215.1772 L273.1804,215.1702 C273.1804,214.9012 273.4084,214.6852 273.6694,214.6852 C273.9264,214.6852 274.1574,214.9012 274.1574,215.1702 L274.1574,215.1772 C274.1574,215.4452 273.9374,215.6622 273.6694,215.6622 C273.4004,215.6622 273.1804,215.4452 273.1804,215.1772 Z M186.7704,215.1772 L186.7704,215.1702 C186.7704,214.9012 186.9974,214.6852 187.2594,214.6852 C187.5164,214.6852 187.7474,214.9012 187.7474,215.1702 L187.7474,215.1772 C187.7474,215.4452 187.5274,215.6622 187.2594,215.6622 C186.9904,215.6622 186.7704,215.4452 186.7704,215.1772 Z M226.6805,215.1772 L226.6805,215.1702 C226.6805,214.9012 226.9075,214.6852 227.1695,214.6852 C227.4265,214.6852 227.6575,214.9012 227.6575,215.1702 L227.6575,215.1772 C227.6575,215.4452 227.4375,215.6622 227.1695,215.6622 C226.9005,215.6622 226.6805,215.4452 226.6805,215.1772 Z M250.8135,215.4734 C251.5205,215.4734 251.9845,215.0954 251.9845,214.5344 L251.9845,214.5224 C251.9845,213.9124 251.5265,213.5954 250.8375,213.5954 L249.7585,213.5954 L249.7585,215.4734 L250.8135,215.4734 Z M193.5902,213.5834 L192.2912,213.5834 L192.2912,215.0524 L193.5532,215.0524 C194.1332,215.0524 194.5352,214.7904 194.5352,214.2904 L194.5352,214.2784 C194.5352,213.8574 194.2002,213.5834 193.5902,213.5834 Z M238.1863,196.3698 L238.3643,196.5968 L244.7653,204.7398 L244.7653,196.3698 L247.2563,196.3698 L247.2563,209.4018 L245.3083,209.4018 L245.1293,209.1748 L238.5423,200.8098 L238.5423,209.4018 L236.0513,209.4018 L236.0513,196.3698 L238.1863,196.3698 Z M268.4754,196.3703 C270.0404,196.3703 271.3844,196.8523 272.2614,197.7283 C272.9634,198.4303 273.3494,199.4083 273.3494,200.4833 L273.3494,200.5173 C273.3494,202.3343 272.3194,203.7073 270.5474,204.3193 L273.6534,208.4503 L274.3684,209.4013 L271.2394,209.4013 L271.0614,209.1623 L267.8044,204.7983 L265.3134,204.7983 L265.3134,209.4013 L262.7894,209.4013 L262.7894,196.3703 L268.4754,196.3703 Z M222.5488,196.3693 C224.1128,196.3693 225.4578,196.8523 226.3358,197.7283 C227.0368,198.4303 227.4228,199.4083 227.4228,200.4833 L227.4228,200.5173 C227.4228,202.3343 226.3928,203.7063 224.6208,204.3193 L227.7268,208.4513 L228.4408,209.4013 L225.3128,209.4013 L225.1348,209.1623 L221.8788,204.7983 L219.3868,204.7983 L219.3868,209.4013 L216.8628,209.4013 L216.8628,196.3693 L222.5488,196.3693 Z M209.0902,196.2863 L209.2482,196.6353 L214.6452,208.5623 L215.0242,209.4013 L212.2792,209.4013 L212.1222,209.0483 L210.8912,206.2703 L205.2162,206.2703 L203.9692,209.0503 L203.8122,209.4013 L201.1372,209.4013 L201.5162,208.5623 L206.9142,196.6353 L207.0722,196.2863 L209.0902,196.2863 Z M230.2315,209.4013 L232.7555,209.4013 L232.7555,196.3693 L230.2315,196.3693 L230.2315,209.4013 Z M189.04,196.3693 L189.216,196.6333 L193.036,202.3583 L196.857,196.6333 L197.033,196.3693 L199.298,196.3693 L199.298,209.4013 L196.774,209.4013 L196.774,201.1433 L193.544,205.8933 L193.368,206.1533 L192.672,206.1533 L192.495,205.8933 L189.266,201.1563 L189.266,209.4013 L186.775,209.4013 L186.775,196.3693 L189.04,196.3693 Z M260.1847,196.3702 L260.1847,198.7772 L252.9597,198.7772 L252.9597,201.6332 L259.4227,201.6332 L259.4227,204.0382 L252.9597,204.0382 L252.9597,206.9952 L260.2687,206.9952 L260.2687,209.4012 L250.4347,209.4012 L250.4347,196.3702 L260.1847,196.3702 Z M228.1098,209.2363 L227.5948,208.5503 L224.3498,204.2333 C226.1848,203.6813 227.2578,202.3303 227.2578,200.5173 L227.2578,200.4833 C227.2578,199.4523 226.8888,198.5153 226.2188,197.8453 C225.3718,197.0003 224.0688,196.5343 222.5488,196.5343 L217.0278,196.5343 L217.0278,209.2363 L219.2218,209.2363 L219.2218,204.6333 L221.9618,204.6333 L225.2668,209.0643 L225.3958,209.2363 L228.1098,209.2363 Z M199.133,209.2363 L199.133,196.5343 L197.121,196.5343 L196.994,196.7253 L193.036,202.6553 L189.079,196.7253 L188.952,196.5343 L186.94,196.5343 L186.94,209.2363 L189.101,209.2363 L189.101,200.6213 L192.631,205.8003 L192.759,205.9883 L193.28,205.9883 L193.408,205.8003 L196.939,200.6073 L196.939,209.2363 L199.133,209.2363 Z M274.0374,209.2363 L273.5214,208.5503 L270.2764,204.2333 C272.1104,203.6823 273.1844,202.3303 273.1844,200.5173 L273.1844,200.4833 C273.1844,199.4523 272.8154,198.5153 272.1444,197.8453 C271.2984,197.0003 269.9954,196.5353 268.4754,196.5353 L262.9544,196.5353 L262.9544,209.2363 L265.1474,209.2363 L265.1474,204.6333 L267.8864,204.6333 L271.1934,209.0643 L271.3224,209.2363 L274.0374,209.2363 Z M214.7682,209.2363 L214.4942,208.6313 L209.0972,196.7033 L208.9832,196.4513 L207.1782,196.4513 L207.0642,196.7033 L201.6662,208.6303 L201.3922,209.2363 L203.7052,209.2363 L203.8192,208.9833 L205.1102,206.1053 L210.9982,206.1053 L212.2732,208.9813 L212.3862,209.2363 L214.7682,209.2363 Z M230.3965,209.2363 L232.5905,209.2363 L232.5905,196.5343 L230.3965,196.5343 L230.3965,209.2363 Z M260.0197,198.6122 L260.0197,196.5352 L250.5997,196.5352 L250.5997,209.2362 L260.1037,209.2362 L260.1037,207.1602 L252.7947,207.1602 L252.7947,203.8742 L259.2577,203.8742 L259.2577,201.7982 L252.7947,201.7982 L252.7947,198.6122 L260.0197,198.6122 Z M238.1063,196.5348 L236.2163,196.5348 L236.2163,209.2358 L238.3773,209.2358 L238.3773,200.3338 L245.2593,209.0728 L245.3883,209.2358 L247.0913,209.2358 L247.0913,196.5348 L244.9303,196.5348 L244.9303,205.2168 L238.2353,196.6988 L238.1063,196.5348 Z M230.8255,208.8079 L232.1615,208.8079 L232.1615,196.9639 L230.8255,196.9639 L230.8255,208.8079 Z M207.4548,196.8799 L208.7068,196.8799 L214.1038,208.8079 L212.6648,208.8079 L211.2778,205.6769 L204.8328,205.6769 L203.4278,208.8079 L202.0568,208.8079 L207.4548,196.8799 Z M251.0291,196.9639 L259.5901,196.9639 L259.5901,198.1829 L252.3661,198.1829 L252.3661,202.2269 L258.8291,202.2269 L258.8291,203.4449 L252.3661,203.4449 L252.3661,207.5889 L259.6751,207.5889 L259.6751,208.8079 L251.0291,208.8079 L251.0291,196.9639 Z M193.0363,203.4275 L197.3513,196.9635 L198.7043,196.9635 L198.7043,208.8075 L197.3683,208.8075 L197.3683,199.2145 L193.0533,205.5595 L192.9853,205.5595 L188.6723,199.2315 L188.6723,208.8075 L187.3683,208.8075 L187.3683,196.9635 L188.7223,196.9635 L193.0363,203.4275 Z M222.549,196.9635 C224.004,196.9635 225.171,197.4045 225.916,198.1485 C226.491,198.7245 226.829,199.5535 226.829,200.4835 L226.829,200.5175 C226.829,202.4795 225.476,203.6305 223.615,203.9685 L227.252,208.8075 L225.611,208.8075 L222.177,204.2045 L218.793,204.2045 L218.793,208.8075 L217.456,208.8075 L217.456,196.9635 L222.549,196.9635 Z M268.4752,196.9642 C269.9302,196.9642 271.0972,197.4042 271.8412,198.1492 C272.4172,198.7242 272.7562,199.5532 272.7562,200.4832 L272.7562,200.5172 C272.7562,202.4802 271.4022,203.6312 269.5412,203.9682 L273.1792,208.8072 L271.5372,208.8072 L268.1022,204.2042 L264.7192,204.2042 L264.7192,208.8072 L263.3832,208.8072 L263.3832,196.9642 L268.4752,196.9642 Z M245.3588,206.4562 L245.3588,196.9642 L246.6628,196.9642 L246.6628,208.8072 L245.5958,208.8072 L237.9488,199.0962 L237.9488,208.8072 L236.6448,208.8072 L236.6448,196.9632 L237.8978,196.9632 L245.3588,206.4562 Z M210.7538,204.4769 L208.0638,198.4359 L205.3568,204.4769 L210.7538,204.4769 Z M210.0935,204.0481 L206.0185,204.0481 L208.0625,199.4871 L210.0935,204.0481 Z M209.8395,203.8831 L208.0615,199.8911 L206.2735,203.8831 L209.8395,203.8831 Z M268.3582,203.0042 C270.1332,203.0042 271.4022,202.0902 271.4022,200.5682 L271.4022,200.5342 C271.4022,199.0782 270.2852,198.1992 268.3732,198.1992 L264.7192,198.1992 L264.7192,203.0042 L268.3582,203.0042 Z M222.447,198.1995 L218.793,198.1995 L218.793,203.0035 L222.431,203.0035 C224.206,203.0035 225.476,202.0905 225.476,200.5675 L225.476,200.5345 C225.476,199.0785 224.359,198.1995 222.447,198.1995 Z M268.3732,198.629 C270.7202,198.629 270.9732,199.961 270.9732,200.534 L270.9732,200.568 C270.9732,201.787 269.9462,202.575 268.3582,202.575 L265.1482,202.575 L265.1482,198.629 L268.3732,198.629 Z M222.4471,198.6288 C224.7941,198.6288 225.0471,199.9618 225.0471,200.5348 L225.0471,200.5678 C225.0471,201.7868 224.0201,202.5748 222.4311,202.5748 L219.2221,202.5748 L219.2221,198.6288 L222.4471,198.6288 Z M268.3732,198.793 L265.3132,198.793 L265.3132,202.41 L268.3582,202.41 C269.5422,202.41 270.8082,201.926 270.8082,200.568 L270.8082,200.534 C270.8082,199.02 269.2832,198.793 268.3732,198.793 Z M222.4471,198.7928 L219.3871,198.7928 L219.3871,202.4098 L222.4311,202.4098 C223.6161,202.4098 224.8821,201.9258 224.8821,200.5678 L224.8821,200.5348 C224.8821,199.0198 223.3561,198.7928 222.4471,198.7928 Z M225.8195,192.0833 C225.0805,192.0833 224.4745,191.5063 224.4745,190.8033 C224.4745,190.1003 225.0805,189.5233 225.8195,189.5233 C226.5625,189.5233 227.1685,190.1003 227.1685,190.8033 C227.1685,191.5063 226.5625,192.0833 225.8195,192.0833 Z M239.9804,192.0151 L239.0604,192.0151 L239.0604,191.9301 C239.3954,191.9301 239.4434,191.8611 239.4434,191.4581 L239.4434,190.1451 C239.4434,189.7411 239.3954,189.6771 239.0604,189.6771 L239.0604,189.5921 L239.6294,189.5921 L241.1804,191.5141 L241.1804,190.1451 C241.1804,189.7411 241.1314,189.6771 240.7964,189.6771 L240.7964,189.5921 L241.7174,189.5921 L241.7174,189.6771 C241.3824,189.6771 241.3294,189.7411 241.3294,190.1451 L241.3294,192.0831 L241.2374,192.0831 L239.5934,190.0521 L239.5934,191.4581 C239.5934,191.8611 239.6454,191.9301 239.9804,191.9301 L239.9804,192.0151 Z M235.786,190.5251 L235.705,190.5251 C235.596,190.0001 235.281,189.6811 234.828,189.6811 C234.182,189.6811 233.948,190.3021 233.948,190.8031 C233.948,191.3041 234.158,191.9101 234.905,191.9101 C235.256,191.9101 235.572,191.7201 235.572,191.3571 C235.572,191.1831 235.471,191.0941 235.192,191.0941 L235.192,191.0131 L236.25,191.0131 L236.25,191.0941 C235.915,191.0941 235.866,191.1631 235.866,191.5671 L235.866,191.8741 C235.418,191.8741 235.236,192.0831 234.816,192.0831 C234.134,192.0831 233.577,191.5061 233.577,190.8031 C233.577,190.1011 234.134,189.5231 234.816,189.5231 C235.099,189.5231 235.362,189.6481 235.567,189.8661 C235.62,189.8261 235.685,189.7371 235.705,189.6361 L235.786,189.6361 L235.786,190.5251 Z M229.3403,192.0152 L228.2503,192.0152 L228.2503,191.9302 C228.5853,191.9302 228.6343,191.8612 228.6343,191.4582 L228.6343,190.1452 C228.6343,189.7412 228.5853,189.6762 228.2503,189.6762 L228.2503,189.5922 L229.3163,189.5922 C229.8773,189.5922 230.1853,189.8992 230.1853,190.2742 C230.1853,190.6252 229.9223,190.9042 229.4663,190.9532 L229.8613,191.4172 C230.1003,191.7002 230.3703,191.9022 230.6133,191.9302 L230.6133,192.0152 L229.9463,192.0152 L229.1473,190.9532 L228.9573,190.9532 L228.9573,191.4582 C228.9573,191.8612 229.0053,191.9302 229.3403,191.9302 L229.3403,192.0152 Z M247.8162,192.0152 L245.7042,192.0152 L245.7042,191.9302 C246.0392,191.9302 246.0882,191.8612 246.0882,191.4572 L246.0882,190.1452 C246.0882,189.7412 246.0392,189.6762 245.7042,189.6762 L245.7042,189.5922 L246.7942,189.5922 L246.7942,189.6762 C246.4592,189.6762 246.4112,189.7412 246.4112,190.1452 L246.4112,191.3972 C246.4112,191.8012 246.4592,191.8652 246.7942,191.8652 L247.2792,191.8652 C247.6472,191.8652 247.6912,191.7722 247.7432,191.5582 L247.7642,191.4782 L247.8482,191.4782 L247.8162,192.0152 Z M221.6324,190.1252 L221.5474,190.1252 L221.5274,190.0442 C221.4704,189.8342 221.4304,189.7412 221.0584,189.7412 L220.4614,189.7412 L220.4614,190.6582 L220.6634,190.6582 C221.0664,190.6582 221.1314,190.6092 221.1314,190.2702 L221.2164,190.2702 L221.2164,191.1952 L221.1314,191.1952 C221.1314,190.8562 221.0664,190.8072 220.6634,190.8072 L220.4614,190.8072 L220.4614,191.3972 C220.4614,191.8012 220.5094,191.8652 220.8444,191.8652 L221.1924,191.8652 C221.5634,191.8652 221.6084,191.7722 221.6604,191.5582 L221.6804,191.4782 L221.7654,191.4782 L221.7334,192.0152 L219.7544,192.0152 L219.7544,191.9302 C220.0894,191.9302 220.1384,191.8612 220.1384,191.4572 L220.1384,190.1452 C220.1384,189.7412 220.0894,189.6762 219.7544,189.6762 L219.7544,189.5922 L221.5964,189.5922 L221.6324,190.1252 Z M243.205,192.0151 L242.26,192.0151 L242.26,191.9301 C242.599,191.9301 242.619,191.8611 242.744,191.5791 L243.633,189.5231 L243.685,189.5231 L244.578,191.5791 C244.703,191.8611 244.723,191.9301 245.058,191.9301 L245.058,192.0151 L243.94,192.0151 L243.94,191.9301 C244.275,191.9301 244.352,191.8451 244.255,191.6231 L244.061,191.1751 L243.084,191.1751 L242.89,191.6231 C242.793,191.8411 242.869,191.9301 243.205,191.9301 L243.205,192.0151 Z M215.1877,190.137 L215.1027,190.137 L215.0827,190.056 C215.0267,189.842 214.9857,189.749 214.6147,189.749 L214.0847,189.749 L214.0847,191.458 C214.0847,191.861 214.1377,191.93 214.4727,191.93 L214.4727,192.015 L213.3787,192.015 L213.3787,191.93 C213.7137,191.93 213.7657,191.861 213.7657,191.458 L213.7657,189.749 L213.2367,189.749 C212.8657,189.749 212.8247,189.842 212.7687,190.056 L212.7487,190.137 L212.6637,190.137 L212.6997,189.592 L215.1517,189.592 L215.1877,190.137 Z M238.1067,192.0149 L237.0167,192.0149 L237.0167,191.9299 C237.3517,191.9299 237.4007,191.8609 237.4007,191.4579 L237.4007,190.1449 C237.4007,189.7409 237.3517,189.6769 237.0167,189.6769 L237.0167,189.5919 L238.1067,189.5919 L238.1067,189.6769 C237.7717,189.6769 237.7237,189.7409 237.7237,190.1449 L237.7237,191.4579 C237.7237,191.8609 237.7717,191.9299 238.1067,191.9299 L238.1067,192.0149 Z M232.4901,192.0149 L231.4001,192.0149 L231.4001,191.9299 C231.7351,191.9299 231.7841,191.8609 231.7841,191.4579 L231.7841,190.1449 C231.7841,189.7409 231.7351,189.6769 231.4001,189.6769 L231.4001,189.5919 L232.4901,189.5919 L232.4901,189.6769 C232.1551,189.6769 232.1071,189.7409 232.1071,190.1449 L232.1071,191.4579 C232.1071,191.8609 232.1551,191.9299 232.4901,191.9299 L232.4901,192.0149 Z M217.1099,192.0147 L216.0189,192.0147 L216.0189,191.9307 C216.3539,191.9307 216.4029,191.8617 216.4029,191.4577 L216.4029,190.1447 C216.4029,189.7407 216.3539,189.6767 216.0189,189.6767 L216.0189,189.5917 L217.1099,189.5917 L217.1099,189.6767 C216.7739,189.6767 216.7259,189.7407 216.7259,190.1447 L216.7259,190.6537 L218.0989,190.6537 L218.0989,190.1447 C218.0989,189.7407 218.0469,189.6767 217.7109,189.6767 L217.7109,189.5917 L218.8059,189.5917 L218.8059,189.6767 C218.4669,189.6767 218.4179,189.7407 218.4179,190.1447 L218.4179,191.4577 C218.4179,191.8617 218.4669,191.9307 218.8059,191.9307 L218.8059,192.0147 L217.7109,192.0147 L217.7109,191.9307 C218.0469,191.9307 218.0989,191.8617 218.0989,191.4577 L218.0989,190.8037 L216.7259,190.8037 L216.7259,191.4577 C216.7259,191.8617 216.7739,191.9307 217.1099,191.9307 L217.1099,192.0147 Z M224.8585,190.8033 C224.8585,191.3043 225.1255,191.9223 225.8195,191.9223 C226.5185,191.9223 226.7845,191.3043 226.7845,190.8033 C226.7845,190.3023 226.5185,189.6803 225.8195,189.6803 C225.1255,189.6803 224.8585,190.3023 224.8585,190.8033 Z M248.8755,191.1519 L275.0395,191.1519 L275.0395,191.0069 L248.8755,191.0069 L248.8755,191.1519 Z M184.7175,191.1519 L211.7805,191.1519 L211.7805,191.0069 L184.7175,191.0069 L184.7175,191.1519 Z M243.568,190.0521 L243.148,191.0251 L243.992,191.0251 L243.568,190.0521 Z M229.3123,189.7412 L228.9573,189.7412 L228.9573,190.8072 L229.3123,190.8072 C229.6633,190.8072 229.8253,190.5692 229.8253,190.2742 C229.8253,189.9832 229.6633,189.7412 229.3123,189.7412 Z M245.225,185.515 L214.598,185.515 L229.911,161 L245.225,185.515 Z M233.758,183.832 C233.559,183.84 233.479,183.885 233.311,183.944 C233.285,183.901 233.217,183.9 233.198,183.851 C233.071,183.944 232.834,184.119 232.732,183.888 C232.586,183.928 232.539,183.977 232.396,184.037 C232.213,183.98 231.779,183.94 231.613,184.112 C231.577,183.743 232.122,183.945 232.415,183.944 C232.544,183.863 232.77,183.707 232.9,183.888 C233.05,183.888 233.092,183.782 233.198,183.739 C233.262,183.749 233.293,183.793 233.328,183.832 C233.464,183.851 233.527,183.654 233.702,183.72 C233.675,183.692 233.688,183.661 233.74,183.664 C233.805,183.697 233.686,183.747 233.758,183.832 Z M226.259,184.037 C226.163,184.028 226.029,184.056 226.035,183.944 C226.206,184.002 226.217,183.888 226.352,183.907 C226.351,183.98 226.261,183.965 226.259,184.037 Z M234.225,183.962 C234.273,183.957 234.305,183.969 234.299,184.019 C234.265,184.056 234.209,184.029 234.225,183.962 Z M230.587,183.944 C230.616,183.913 230.658,183.95 230.699,183.962 C230.699,184.019 230.566,184.017 230.587,183.944 Z M225.83,183.981 C225.836,183.956 225.863,183.951 225.867,183.925 C225.9,183.93 225.91,183.957 225.904,184 C225.865,184.008 225.855,183.987 225.83,183.981 Z M229.729,183.907 C229.746,183.865 229.888,183.813 229.878,183.907 C229.809,183.911 229.786,183.959 229.729,183.907 Z M228.777,183.925 L228.777,183.851 C228.82,183.844 228.849,183.854 228.871,183.869 C228.879,183.927 228.831,183.929 228.777,183.925 Z M230.4,183.907 C230.4,183.855 230.488,183.862 230.513,183.888 C230.513,183.939 230.424,183.932 230.4,183.907 Z M228.143,183.776 C228.023,183.757 227.87,183.859 227.752,183.851 C227.602,183.841 227.526,183.751 227.378,183.776 C227.247,183.799 227.162,183.875 227.042,183.869 C226.973,183.867 226.917,183.819 226.856,183.813 C226.697,183.797 226.615,183.912 226.464,183.925 C226.478,183.593 226.871,183.682 227.117,183.794 C227.28,183.677 227.548,183.625 227.714,183.776 C227.961,183.738 228.285,183.672 228.516,183.776 C228.413,183.976 228.295,183.8 228.143,183.776 Z M229.889,167.488 C229.852,167.539 229.703,167.477 229.664,167.526 C229.647,167.605 229.717,167.597 229.72,167.656 C229.626,167.905 229.79,168.43 229.627,168.664 C229.402,168.986 229.142,169.307 228.9,169.634 C228.119,170.684 227.294,171.778 226.512,172.767 C226.469,172.521 226.614,172.28 226.512,172.095 C226.296,172.141 226.46,172.566 226.344,172.712 C226.259,172.647 226.137,172.619 226.027,172.581 C225.903,172.972 225.991,173.372 225.877,173.756 C225.834,173.904 225.695,174.076 225.598,174.241 C225.254,174.825 224.905,175.417 224.572,175.939 C224.21,176.503 223.86,177.07 223.527,177.637 C222.943,178.476 222.323,179.448 221.699,180.322 C221.582,180.487 221.215,181.107 221.027,181.162 C220.89,181.203 220.737,181.105 220.673,181.219 L220.673,181.237 C220.685,181.238 220.695,181.239 220.692,181.256 C220.794,181.284 220.922,181.286 221.046,181.293 C221.969,181.95 222.949,182.549 223.844,183.233 C223.735,183.254 223.665,183.315 223.546,183.326 C223.456,183.216 223.247,183.227 223.135,183.14 C223.093,183.284 222.84,183.217 222.837,183.401 C222.94,183.447 223.032,183.286 223.135,183.382 C223.138,183.354 223.128,183.314 223.154,183.307 C223.267,183.328 223.269,183.36 223.303,183.437 C223.342,183.405 223.32,183.38 223.34,183.363 C223.411,183.367 223.394,183.46 223.453,183.475 C223.455,183.454 223.449,183.422 223.472,183.419 C223.633,183.543 223.799,183.345 223.956,183.326 C224.044,183.315 224.184,183.387 224.31,183.363 C224.477,183.333 224.591,183.217 224.722,183.233 C224.867,183.251 225.017,183.344 225.113,183.457 C225.123,183.461 225.132,183.462 225.142,183.466 C224.919,183.567 224.483,183.612 224.188,183.497 C224.068,183.556 223.871,183.54 223.834,183.683 C223.82,183.733 223.922,183.67 223.909,183.72 C224.057,183.527 224.265,183.622 224.524,183.645 C224.682,183.888 225.004,183.603 225.159,183.607 C225.156,183.63 225.125,183.651 225.159,183.664 C225.205,183.57 225.297,183.68 225.363,183.683 C225.572,183.695 225.767,183.577 225.942,183.607 C226.129,183.642 226.259,183.554 226.464,183.534 C226.682,183.619 226.98,183.718 227.21,183.626 C227.275,183.6 227.291,183.524 227.359,183.515 C227.424,183.507 227.473,183.559 227.565,183.571 C227.617,183.577 227.677,183.544 227.714,183.552 C227.755,183.56 227.783,183.617 227.826,183.626 C227.959,183.656 228.05,183.62 228.18,183.552 C228.448,183.524 228.795,183.822 229.001,183.571 C229.19,183.61 229.37,183.538 229.528,183.536 C229.512,183.548 229.504,183.568 229.515,183.606 C229.652,183.546 229.726,183.692 229.9,183.704 C229.63,183.747 229.348,183.594 229.15,183.776 C229.115,183.78 229.109,183.755 229.076,183.757 C229.073,183.847 228.982,183.851 228.946,183.907 C229.105,183.97 229.17,183.795 229.337,183.776 C229.511,183.756 229.712,183.889 229.897,183.813 C229.894,183.854 229.912,183.873 229.952,183.869 C229.96,183.797 229.966,183.783 230.027,183.739 C230.005,183.732 229.991,183.714 229.991,183.686 C230.099,183.506 230.292,183.619 230.485,183.606 C230.634,183.596 230.715,183.482 230.82,183.457 C231.049,183.401 231.148,183.563 231.306,183.569 C231.437,183.574 231.569,183.463 231.698,183.457 C231.833,183.45 231.967,183.56 232.108,183.587 C232.309,183.626 232.419,183.542 232.593,183.475 C232.826,183.525 233.076,183.62 233.31,183.627 C233.304,183.652 233.284,183.662 233.292,183.701 C233.334,183.707 233.362,183.697 233.366,183.664 C233.34,183.66 233.335,183.635 233.312,183.627 C233.419,183.63 233.523,183.617 233.62,183.569 C233.698,183.652 233.872,183.583 234.03,183.587 C233.851,183.427 233.565,183.491 233.321,183.569 C233.111,183.373 232.832,183.498 232.612,183.326 C232.749,183.231 232.868,183.384 232.986,183.401 C233.073,183.413 233.172,183.342 233.283,183.345 C233.408,183.349 233.535,183.458 233.62,183.457 C233.719,183.454 233.801,183.363 233.899,183.345 C234.098,183.307 234.306,183.405 234.477,183.326 C234.523,183.39 234.732,183.46 234.757,183.326 C234.383,183.237 233.845,183.238 233.563,183.382 C233.523,183.385 233.555,183.316 233.545,183.289 C233.414,183.292 233.332,183.268 233.34,183.177 C233.244,183.242 233.099,183.259 232.986,183.307 C232.61,183.059 232.272,183.579 231.884,183.326 C232.319,183.329 232.488,182.935 232.986,183.102 C233.208,182.92 233.479,183.079 233.739,183.106 C233.74,183.142 233.754,183.165 233.796,183.16 C233.795,183.138 233.803,183.123 233.811,183.109 C233.899,183.109 233.985,183.088 234.067,183.028 C234.042,183.079 233.97,183.117 233.933,183.165 C233.915,183.172 233.904,183.188 233.908,183.216 C233.9084,183.216 233.9089,183.2162 233.9093,183.2164 L233.9097,183.2166 C233.9101,183.2168 233.9106,183.217 233.911,183.217 C233.911,183.228 233.913,183.24 233.918,183.252 C234.024,183.2 234.175,183.172 234.254,183.14 C234.409,183.075 234.594,183.198 234.775,183.177 C234.939,183.157 235.053,183.127 235.187,183.177 C235.397,183.08 235.665,183.065 235.914,182.971 L235.914,182.841 C235.827,182.873 235.707,182.823 235.633,182.822 C235.592,182.831 235.637,182.925 235.578,182.916 C235.332,182.989 235.178,183.045 234.888,182.916 C234.894,182.891 234.915,182.88 234.906,182.841 C234.698,182.912 234.454,182.763 234.236,182.86 C234.292,182.755 234.419,182.664 234.421,182.562 C234.389,182.55 234.312,182.584 234.309,182.543 C234.562,182.223 234.723,181.811 234.926,181.442 C234.989,181.425 235.035,181.39 235.13,181.404 C235.227,181.291 235.26,181.111 235.317,180.957 C235.112,181.009 234.958,181.017 234.738,181.07 C235.134,180.482 235.53,179.895 235.933,179.316 C236.519,179.23 237.009,179.16 237.593,179.073 C237.597,178.993 237.576,178.94 237.555,178.886 C237.243,178.895 236.945,178.962 236.604,178.998 C235.029,177.176 233.731,174.874 233.21,172.189 C232.878,170.972 232.743,169.678 232.761,168.569 C232.763,168.448 232.72,168.251 232.724,168.104 C232.728,167.968 232.827,167.81 232.705,167.694 C232.335,168.148 231.98,168.508 231.624,168.981 C231.613,168.97 231.578,168.987 231.549,168.999 C231.572,169.001 231.593,169.005 231.586,169.036 C231.493,169.061 231.438,169.257 231.326,169.279 C231.053,169.624 230.654,170.149 230.243,170.491 C230.327,170.398 230.21,170.501 230.206,170.398 C230.203,170.374 230.282,170.342 230.225,170.324 C230.223,170.347 230.218,170.368 230.187,170.361 C230.037,169.47 229.706,168.437 229.963,167.507 C229.949,167.502 229.927,167.506 229.926,167.488 L229.889,167.488 Z M228.666,183.907 C228.582,183.932 228.574,183.832 228.609,183.794 C228.671,183.792 228.699,183.871 228.666,183.907 Z M231.296,183.794 C231.071,184.042 230.622,183.817 230.344,183.776 C230.29,183.779 230.361,183.904 230.307,183.907 C230.216,183.878 230.304,183.762 230.214,183.757 C230.494,183.578 230.802,183.98 231.072,183.757 C231.275,183.797 231.447,183.614 231.595,183.589 C231.589,183.56 231.612,183.557 231.613,183.534 C231.698,183.52 231.639,183.604 231.669,183.607 C231.727,183.634 231.706,183.485 231.743,183.552 C231.805,183.57 231.753,183.628 231.836,183.645 C231.867,183.642 231.806,183.557 231.893,183.571 C231.916,183.595 231.916,183.64 231.893,183.664 C232.02,183.68 232.104,183.581 232.192,183.664 C232.269,183.645 232.427,183.541 232.433,183.701 C232.29,183.676 232.113,183.806 231.911,183.794 C231.858,183.792 231.827,183.748 231.78,183.739 C231.597,183.703 231.477,183.823 231.296,183.794 Z M230.157,183.907 C230.099,183.916 230.108,183.855 230.064,183.851 C230.107,183.819 230.135,183.802 230.101,183.739 C230.162,183.722 230.159,183.768 230.195,183.776 C230.163,183.841 230.179,183.847 230.157,183.907 Z M226.24,183.776 L226.315,183.776 C226.337,183.841 226.211,183.862 226.24,183.776 Z M234.691,183.776 C234.652,183.783 234.642,183.763 234.617,183.757 C234.621,183.724 234.649,183.713 234.691,183.72 L234.691,183.776 Z M232.713,183.701 C232.765,183.703 232.751,183.67 232.788,183.701 C232.803,183.774 232.699,183.774 232.713,183.701 Z M232.639,183.664 C232.637,183.714 232.67,183.701 232.639,183.739 C232.567,183.753 232.567,183.65 232.639,183.664 Z M226.408,183.683 C226.342,183.697 226.325,183.635 226.352,183.607 C226.401,183.602 226.413,183.635 226.408,183.683 Z M230.8199,183.3075 C230.6699,183.3315 230.4979,183.2485 230.3359,183.2525 C230.3169,183.2525 230.2939,183.2535 230.2729,183.2535 C230.2849,183.2715 230.2879,183.2995 230.2889,183.3285 C230.2659,183.3255 230.2559,183.3315 230.2519,183.3465 C230.2109,183.3445 230.2119,183.2995 230.2129,183.2555 C230.1649,183.2555 230.1139,183.2565 230.0609,183.2565 C230.0459,183.2925 229.9999,183.2935 229.9899,183.2555 C229.9709,183.2545 229.9519,183.2545 229.9339,183.2535 C229.9159,183.2945 229.8519,183.2995 229.8429,183.2495 C229.7879,183.2455 229.7339,183.2405 229.6829,183.2325 C229.4069,183.1875 229.2429,183.3885 229.0679,183.3825 C229.0019,183.3795 228.9469,183.3295 228.8809,183.3255 C228.6799,183.3165 228.4539,183.4425 228.2849,183.2705 C228.0899,183.3365 227.8829,183.3915 227.7049,183.4745 C227.6819,183.4735 227.6619,183.4685 227.6389,183.4655 C227.7609,183.5295 227.8749,183.6005 228.0499,183.5525 C228.0999,183.5275 228.1349,183.4885 228.1799,183.4585 C228.3549,183.5035 228.4219,183.3715 228.5159,183.4395 C228.5059,183.5155 228.4709,183.4615 228.4419,183.4975 C228.5579,183.5395 228.6749,183.5415 228.7849,183.5155 C228.7539,183.5125 228.7359,183.4965 228.7399,183.4585 C228.7559,183.4445 228.7819,183.4385 228.8149,183.4395 L228.8149,183.5055 C228.8889,183.4845 228.9589,183.4525 229.0199,183.4025 C229.1869,183.5725 229.5779,183.2865 229.6719,183.4965 C229.7299,183.5165 229.7859,183.5385 229.8329,183.5695 C229.9979,183.4935 230.0789,183.4155 230.2609,183.4375 C230.3179,183.4445 230.3799,183.5095 230.4479,183.5125 C230.5959,183.5205 230.6959,183.3705 230.8399,183.3455 C231.0279,183.3115 231.2279,183.4635 231.4369,183.4375 C231.5629,183.4225 231.6019,183.3345 231.7539,183.3255 C231.6729,183.2445 231.5499,183.2145 231.3629,183.1955 C231.1549,183.1735 231.0479,183.2715 230.8199,183.3075 Z M234.468,183.497 C234.506,183.455 234.52,183.506 234.579,183.497 C234.599,183.574 234.447,183.574 234.468,183.497 Z M234.617,183.497 C234.663,183.494 234.673,183.461 234.71,183.497 C234.728,183.571 234.598,183.571 234.617,183.497 Z M226.6241,183.3929 C226.7421,183.4319 226.8301,183.5619 226.9491,183.5519 C227.0731,183.5419 227.1461,183.4139 227.3131,183.3889 C227.2031,183.3479 227.1021,183.2979 226.9961,183.2519 C226.7851,183.2119 226.7081,183.3049 226.6241,183.3929 Z M225.7917,183.4396 C225.6897,183.5816 225.5067,183.5066 225.3597,183.4616 C225.4807,183.4206 225.5977,183.3366 225.7287,183.3256 C225.9107,183.3116 226.0967,183.3976 226.2847,183.4456 C226.1887,183.4906 226.0917,183.5366 225.9607,183.5146 C225.9147,183.4986 225.9187,183.4316 225.8477,183.4396 L225.7917,183.4396 Z M224.804,183.458 C224.808,183.426 224.836,183.416 224.879,183.422 L224.879,183.478 C224.839,183.485 224.829,183.465 224.804,183.458 Z M228.6469,183.3845 L228.5909,183.3845 C228.5849,183.4265 228.5949,183.4545 228.6279,183.4585 C228.6339,183.4335 228.6539,183.4225 228.6469,183.3845 Z M221.1966,181.3115 C221.5083,181.3559 221.8954,181.2903 222.2208,181.3492 C222.3868,181.3782 222.6098,181.5112 222.7428,181.6102 C223.2528,181.9862 223.6348,182.6412 223.9338,183.1532 C223.9178,183.1432 223.9088,183.1282 223.8898,183.1232 C223.8898,183.1241 223.8894,183.1248 223.889,183.1254 L223.8886,183.126 C223.8882,183.1266 223.8878,183.1273 223.8878,183.1282 C223.0038,182.5982 222.0978,181.9192 221.1948,181.3112 L221.1966,181.3115 Z M223.256,183.03 C223.272,183.015 223.298,183.01 223.33,183.011 C223.335,183.06 223.323,183.09 223.275,183.086 C223.264,183.07 223.254,183.055 223.256,183.03 Z M234.1609,183.0097 C234.5389,182.9637 234.6989,183.1627 234.9809,183.0277 C234.7589,182.9147 234.3349,182.8287 234.1609,183.0097 Z M236.426,182.825 L236.426,182.88 C236.367,182.902 236.38,182.851 236.351,182.843 C236.357,182.818 236.398,182.828 236.426,182.825 Z M235.475,182.843 C235.471,182.81 235.493,182.749 235.437,182.769 C235.431,182.794 235.411,182.804 235.418,182.843 L235.475,182.843 Z M235.698,182.637 L235.698,182.713 C235.65,182.718 235.637,182.687 235.642,182.637 L235.698,182.637 Z M235.94,182.675 C235.869,182.69 235.869,182.586 235.94,182.601 L235.94,182.675 Z M229.3286,180.2669 C229.3286,180.3989 229.2886,180.6939 229.3106,180.8819 C229.7626,180.6959 230.2246,180.5149 230.7466,180.3979 C230.7886,180.4899 230.7426,180.5579 230.7646,180.6579 C230.8856,180.6359 230.9976,180.6039 231.1016,180.5659 C231.2386,180.8149 231.2346,181.1129 231.2696,181.4419 C231.7726,181.4289 232.2456,181.3869 232.7046,181.3299 C232.5296,180.8249 232.4366,180.3349 232.2206,179.8559 C231.2606,179.9899 230.2946,180.1539 229.3286,180.2669 Z M228.0042,180.5657 C228.0002,180.7407 227.9352,180.8567 227.9482,181.0497 C228.2072,180.9437 228.3412,181.2547 228.4892,181.4237 C228.5372,181.1917 228.6592,181.0347 228.9552,181.0497 C228.9392,180.9037 228.9702,180.6407 228.9742,180.4727 C228.6552,180.5077 228.3182,180.5247 228.0042,180.5657 Z M234.8325,179.4643 C233.9985,179.5943 233.1585,179.7193 232.3135,179.8383 C232.4325,180.3653 232.6425,180.8013 232.7615,181.3293 C233.3265,181.2743 234.0315,181.2183 234.6455,181.0503 C234.7025,180.5323 234.8055,180.0123 234.8325,179.4643 Z M227.9484,180.5657 C227.3284,180.6257 226.6224,180.6647 225.9894,180.7517 C226.0114,180.9407 225.9534,181.0507 225.9524,181.2187 C225.9944,181.2587 226.1334,181.2747 226.1954,181.2367 C226.2314,181.2057 226.2004,181.1057 226.2504,181.0877 C226.7474,181.0927 227.3394,181.0407 227.8544,181.0497 C227.9204,180.9237 227.8974,180.7067 227.9484,180.5657 Z M221.4382,180.8258 C221.3542,180.9368 221.2572,181.0328 221.1952,181.1618 C222.3802,181.1968 223.9142,181.2508 224.8892,181.2368 C224.8972,181.0688 224.9872,180.8788 224.9252,180.7518 C223.9252,180.7938 222.4652,180.7768 221.4382,180.8258 Z M225.6536,181.2185 C225.6696,181.1215 225.6776,181.0175 225.6726,180.9015 C225.5326,180.7185 225.2556,180.7405 225.0386,180.7705 C224.9896,180.8955 224.9876,181.0685 224.9816,181.2365 C225.1886,181.2075 225.4476,181.2535 225.6536,181.2185 Z M235.8204,179.3337 C235.4754,179.3727 235.2124,179.4147 234.9064,179.4647 C234.8774,179.9987 234.7444,180.5057 234.7384,180.9567 C235.0894,180.4067 235.4774,179.8927 235.8204,179.3337 Z M225.6724,180.8258 C225.9354,178.2428 226.0804,175.8798 226.3254,173.2148 C226.3244,173.2048 226.3224,173.1928 226.3074,173.1958 C226.1074,173.4268 226.1344,173.7338 226.1014,174.1108 C225.9594,175.7048 225.8394,177.3048 225.6724,178.9608 C225.6244,179.4398 225.5924,180.0178 225.5614,180.4728 C225.5504,180.6198 225.5064,180.7608 225.6724,180.8258 Z M229.4412,178.2151 C229.4452,178.2611 229.4222,178.2361 229.4222,178.2701 C229.4212,178.5901 229.4052,179.1491 229.4412,179.6141 C229.7862,176.7631 230.0322,173.4561 230.2802,170.6981 C230.2792,170.6861 230.2782,170.6741 230.2612,170.6771 C230.1312,170.8921 229.8092,171.1471 229.7392,171.3681 C229.6992,171.4911 229.7102,171.7151 229.7022,171.8901 C229.6132,173.7481 229.5162,175.7651 229.4412,177.5621 C229.4322,177.7721 229.4232,178.0211 229.4412,178.2151 Z M226.9036,173.0841 C226.7666,173.0071 226.6986,172.9691 226.5306,172.9171 C226.5036,172.9211 226.5096,172.9571 226.4936,172.9721 C226.3726,175.2321 226.1826,177.2581 226.1006,179.5761 C226.3706,177.3371 226.6316,175.1951 226.9036,173.0841 Z M229.1796,177.1699 C229.2306,176.4109 229.2726,175.5729 229.3106,174.7629 C229.3826,173.2259 229.5116,171.8639 229.5336,170.1179 C229.5326,170.1069 229.5316,170.0969 229.5146,170.0989 C229.0986,171.4669 229.1426,172.9409 229.0116,174.4459 C228.9676,174.9559 228.8986,175.4669 228.8626,175.9949 C228.8226,176.5909 228.8626,177.2059 228.8626,177.8049 C228.8626,178.3799 228.8926,178.9659 228.9936,179.5019 C229.1096,178.7599 229.1266,177.9439 229.1796,177.1699 Z M226.344,172.8231 C226.232,172.7981 226.173,172.7541 226.045,172.7121 C226.052,173.0071 225.933,173.3671 225.989,173.5881 C226.058,173.2831 226.372,173.2241 226.344,172.8231 Z M229.4412,170.1739 C229.5362,169.7079 229.6332,169.1479 229.6462,168.7189 C228.6332,170.1159 227.6132,171.3879 226.6242,172.8049 C226.7192,172.8579 226.8362,172.8899 226.9402,172.9349 C227.8192,172.0599 228.5922,171.0789 229.4412,170.1739 Z M230.1495,170.6041 C230.0255,170.1131 229.9735,169.5431 229.8325,169.0921 C229.8185,169.5981 229.7615,170.4131 229.7945,170.9581 C229.9015,170.9021 230.0405,170.7181 230.1495,170.6041 Z"></path></g></g>
</svg>