<?xml version="1.0" encoding="UTF-8"?>
<svg width="79px" height="51px" viewBox="0 0 79 51" xmlns="http://www.w3.org/2000/svg"><g stroke="none" stroke-width="1" fill="none" fill-rule="evenodd"><g transform="translate(-351.000000, -164.000000)" fill="#686879"><path d="M353.7523,196.807463 C354.9653,194.324463 356.8283,193.407463 359.0143,193.407463 C363.0613,193.407463 365.9883,196.422463 365.9883,201.062463 C365.9883,205.641463 363.1513,208.950463 359.1313,208.950463 C357.0033,208.950463 355.1443,208.302463 353.9333,206.085463 L353.9023,210.636463 C353.9023,212.053463 354.0853,213.708463 354.7293,214.242463 L352.5963,214.242463 C351.7703,213.539463 351.7703,212.053463 351.7703,210.636463 L351.7733,209.953463 L351.7733,196.453463 C351.7733,195.682463 351.6943,194.366463 351.2133,193.881463 L353.6943,193.526463 C353.6943,194.617463 353.7243,195.713463 353.7243,196.807463 L353.7523,196.807463 Z M407.6278,209.011763 C410.8778,209.011763 413.1848,207.149763 413.8948,203.898763 L412.3568,203.751763 C411.6488,206.113763 409.9338,207.621763 407.7468,207.621763 C404.5558,207.621763 402.6328,205.109763 402.6328,201.091763 C402.6328,197.249763 404.5848,194.709763 407.7158,194.709763 C409.9638,194.709763 411.4988,196.008763 412.1198,198.313763 C412.3568,198.195763 413.5668,197.457763 413.8058,197.338763 C412.8298,194.885763 410.6718,193.378763 407.8048,193.378763 C403.1948,193.378763 400.3008,196.659763 400.3008,201.327763 C400.3008,205.939763 403.2258,209.011763 407.6278,209.011763 Z M418.8197,196.899663 C420.1277,194.462663 421.7747,193.660663 424.0327,193.660663 C428.1017,193.660663 429.5877,195.769663 429.5877,200.315663 L429.5877,204.868663 C429.5877,206.287663 429.5877,208.308663 428.7597,209.011663 L426.6287,209.011663 C426.7217,208.934663 426.8027,208.831663 426.8777,208.711663 C427.4657,207.419663 427.4477,206.266663 427.4477,204.563663 L427.4477,200.405663 C427.4477,196.810663 426.5877,195.085663 423.6747,195.085663 C420.6747,195.085663 418.8777,198.296663 418.8197,200.968663 L418.8197,205.375663 C418.8197,206.794663 418.7757,208.349663 419.1247,208.981663 L416.3587,208.981663 C416.7077,208.349663 416.6787,206.794663 416.6787,205.375663 L416.6657,190.386663 C416.6657,189.617663 416.5867,188.299663 416.1067,187.815663 L418.8197,187.475663 L418.8197,196.899663 Z M370.54,200.914363 C370.6,205.022363 372.431,207.621363 375.653,207.621363 C378.163,207.621363 379.996,206.145363 380.763,203.426363 L382.3,203.632363 C381.327,207.000363 379.021,209.011363 375.445,209.011363 C370.835,209.011363 368.206,205.849363 368.206,201.239363 C368.206,196.571363 371.075,193.379363 375.534,193.379363 C379.583,193.379363 382.094,196.187363 382.33,200.914363 L370.54,200.914363 Z M389.6012,208.981263 C391.8492,208.981263 393.8282,207.978263 395.1582,206.114263 C395.3942,208.064263 395.9842,208.685263 397.7872,208.685263 C398.0822,208.685263 398.4382,208.656263 398.9092,208.598263 L398.9092,207.535263 C397.1382,207.326263 397.1972,204.873263 397.1972,202.776263 C397.1972,198.638263 397.2242,196.423263 396.2202,195.181263 C395.2742,194.029263 393.5032,193.379263 391.1972,193.379263 C388.9522,193.379263 387.1772,193.881263 385.7602,195.036263 C386.2322,195.624263 386.6172,196.156263 387.1192,196.776263 C387.8272,195.418263 389.1582,194.649263 390.9622,194.649263 C393.8572,194.649263 395.0992,195.919263 395.0992,198.461263 C394.5362,199.702263 391.2272,199.792263 388.8622,200.205263 C385.7902,200.855263 384.2812,202.244263 384.2812,204.577263 C384.2812,207.267263 386.3212,208.981263 389.6012,208.981263 Z M392.8222,200.945263 C393.6792,200.855263 394.4782,200.707263 395.0992,200.470263 C395.0692,201.387263 395.0692,202.244263 395.0692,203.276263 C395.0692,205.790263 392.7342,207.679263 389.9572,207.679263 C387.9782,207.679263 386.5872,206.530263 386.5872,204.549263 C386.5872,201.978263 389.3352,201.298263 392.8222,200.945263 Z M358.8363,207.652463 C356.4743,207.652463 353.8433,205.759463 353.8433,201.327463 C353.8433,197.959463 355.6163,194.798463 358.8363,194.798463 C361.8183,194.798463 363.6823,197.516463 363.6823,201.180463 C363.6823,205.138463 361.8813,207.652463 358.8363,207.652463 Z M379.966,199.643363 C379.818,196.600363 378.046,194.709363 375.445,194.709363 C372.932,194.709363 370.984,196.689363 370.6,199.643363 L379.966,199.643363 Z M390.4035,166.422763 L390.4032,166.422363 C392.0792,164.415363 394.8222,163.743363 397.1902,164.637363 C397.7122,164.822363 398.6962,165.122363 398.8962,165.011363 L398.8962,165.012363 C398.8522,165.236363 399.4422,166.080363 399.7802,166.518363 C401.3662,168.496363 401.5732,171.320263 400.1753,173.533263 L400.1754,173.533263 L400.175,173.533863 C402.6018,174.506963 404.0897,176.907863 403.9707,179.436763 C403.9537,179.988763 403.9727,181.019763 404.1407,181.174763 L404.1397,181.174763 C403.9137,181.202763 403.2917,182.023763 402.9807,182.480763 C401.5917,184.593763 398.9817,185.662763 396.4497,185.028763 C396.452,184.986863 396.4545,184.944863 396.4567,184.902663 C396.4544,184.944663 396.4517,184.986463 396.449,185.028463 L396.4497,185.028663 C396.2867,187.651663 394.4577,189.823663 392.0067,190.493663 C391.4757,190.648663 390.5027,190.986663 390.4067,191.192663 C390.3097,190.986663 389.3367,190.648663 388.8057,190.493663 C386.3518,189.822663 384.5208,187.646763 384.3617,185.019863 C381.8268,185.657763 379.2149,184.586763 377.8259,182.472863 C377.5129,182.016863 376.8909,181.194863 376.6659,181.167863 C376.8329,181.011863 376.8529,179.980863 376.8349,179.428863 C376.7179,176.900863 378.2029,174.501863 380.6279,173.526863 C380.6542,173.568363 380.6807,173.609763 380.7075,173.651163 C380.6808,173.609663 380.6545,173.568063 380.6282,173.526563 L380.6279,173.526663 C379.2369,171.313663 379.4459,168.496663 381.0289,166.520663 C381.3669,166.082663 381.9559,165.237663 381.9119,165.013663 L381.9129,165.013663 C382.1129,165.124663 383.0979,164.824663 383.6189,164.638663 C385.9859,163.744663 388.7289,164.415663 390.4029,166.422663 C390.3169,166.527663 390.3166,166.527663 390.4035,166.422763 Z M390.4057,189.216663 C386.3807,186.272663 388.6387,182.490663 389.7737,181.733663 C390.2197,181.413663 390.4057,181.032663 390.4057,181.032663 C390.4057,181.032663 390.5997,181.412663 391.0367,181.733663 C392.1727,182.490663 394.4317,186.272663 390.4057,189.216663 Z M384.3622,185.019563 C384.3542,184.897563 384.3539,184.896663 384.3619,185.019663 L384.3622,185.019563 Z M394.9477,178.852763 C394.7817,178.330763 394.4757,178.035763 394.4757,178.035763 C394.4757,178.035763 394.8967,177.967763 395.3377,177.651763 C396.4107,176.805763 400.7047,175.825763 402.2607,180.563763 C398.2177,183.483763 395.3187,180.166763 394.9477,178.852763 Z M378.5459,180.556863 C380.1009,175.817863 384.3959,176.798863 385.4669,177.643863 C385.9089,177.960863 386.3289,178.027863 386.3289,178.027863 C386.3289,178.027863 386.0249,178.322863 385.8569,178.843863 C385.4879,180.158863 382.5889,183.476863 378.5459,180.556863 Z M390.3718,173.760563 C390.3834,173.765363 390.3951,173.770063 390.4069,173.774663 C390.1309,173.881663 389.8139,173.945663 389.5029,174.033663 C388.8709,174.218663 388.9209,174.655663 388.9209,174.655663 L388.9199,174.656663 L388.9189,174.657663 L388.9179,174.657663 C388.9179,174.657663 388.5169,174.475663 388.1449,175.017663 C387.967,175.285563 387.809,175.566463 387.6221,175.795463 L387.6221,175.795463 C387.5607,175.870463 387.4965,175.939863 387.4275,176.001063 C387.4964,175.940063 387.5606,175.870863 387.6219,175.795863 C387.6399,176.090863 387.6029,176.413863 387.5899,176.736863 C387.5709,177.393863 388.0029,177.481863 388.0029,177.481863 L388.0029,177.483863 L388.0039,177.484863 C388.0039,177.484863 387.7059,177.810863 388.1079,178.331863 C388.3208,178.600763 388.5537,178.854663 388.7157,179.122563 L388.7162,179.122663 L388.7163,179.122863 C388.9921,179.198863 389.2759,179.326763 389.5667,179.434663 C390.1858,179.655363 390.4041,179.274763 390.4047,179.273663 L390.4077,179.273663 C390.4083,179.274763 390.6256,179.655363 391.2457,179.434663 C391.5357,179.327663 391.8187,179.199663 392.0937,179.123663 C392.0538,179.189263 392.0181,179.255563 391.9883,179.323263 C392.0181,179.255763 392.0539,179.189663 392.094,179.124163 C392.2481,179.081463 392.2479,179.080963 392.0937,179.123763 C392.2557,178.858763 392.4867,178.606763 392.6977,178.339763 C393.1007,177.817763 392.8027,177.492763 392.8027,177.492763 L392.8037,177.489763 C392.8037,177.489763 393.2347,177.401763 393.2157,176.742763 C393.2027,176.416763 393.1657,176.089763 393.1847,175.791763 C393.1943,175.803463 393.204,175.815063 393.2137,175.826463 C393.2039,175.814863 393.1941,175.803163 393.1844,175.791263 C393.2034,175.508263 393.2032,175.508363 393.1842,175.791363 C392.9992,175.563363 392.8412,175.283363 392.6642,175.017363 C392.2932,174.474363 391.8902,174.656363 391.8902,174.656363 L391.8902,174.655363 L391.8892,174.654363 C391.8892,174.654363 391.9382,174.217363 391.3062,174.032363 C390.9972,173.944363 390.6812,173.881363 390.4062,173.774363 L390.4063,173.774363 C390.3947,173.769863 390.3832,173.765263 390.3718,173.760563 Z M390.4473,166.475163 C390.5203,166.563763 390.5921,166.652963 390.6597,166.746463 C392.0957,168.721463 392.1657,171.272463 391.0437,173.271463 C390.9386,173.461163 390.7816,173.591463 390.5954,173.689163 C390.7817,173.591763 390.9384,173.461863 391.0442,173.271363 C392.1652,171.272363 392.0962,168.721363 390.6602,166.746363 C390.5926,166.652963 390.5209,166.563663 390.4473,166.475163 Z M380.9856,173.392763 C380.9054,173.419263 380.8262,173.448763 380.7477,173.479363 C380.826,173.448963 380.905,173.419663 380.9856,173.392763 Z M383.0739,166.613663 C388.0619,166.627663 388.4559,171.014663 387.9829,172.295663 C387.8189,172.812663 387.8839,173.234663 387.8839,173.234663 C387.8839,173.234663 387.5099,173.035663 386.9619,173.037663 C385.5969,173.091663 381.5479,171.360663 383.0739,166.613663 Z M397.7362,166.611363 C399.2622,171.358363 395.2122,173.091363 393.8472,173.036363 C393.3002,173.033363 392.9252,173.232363 392.9252,173.232363 C392.9252,173.232363 392.9902,172.811363 392.8262,172.295363 C392.3542,171.014363 392.7472,166.626363 397.7362,166.611363 Z"></path></g></g>
</svg>