<svg width="96" height="38" viewBox="0 0 96 38" xmlns="http://www.w3.org/2000/svg"><path d="M50.819 33.319c.08 2.535-2.167 4.203-4.797 4.203-1.266 0-2.401-.427-3.467-.82-1.099-.426-2.132-.821-3.131-.821-1.866 0-1.9 1.641-2.732 1.641-.999 0-2.334-3.677-2.334-4.53 0-1.183 2.768-1.903 3.532-1.903 3.132 0 5.899 1.64 7.299 1.64.597 0 1.134-.492 1.134-1.117 0-.95 4.43-.288 4.496 1.707zm-34.293-15.853c0-5.283 2.566-10.965 8.363-10.965 5.798 0 8.362 5.682 8.362 10.965 0 7.718-4.53 11.036-8.362 11.036-3.831 0-8.363-3.318-8.363-11.036zm61.767 0c0-5.283 2.568-10.965 8.365-10.965 5.801 0 8.364 5.682 8.364 10.965 0 7.718-4.53 11.036-8.364 11.036-3.829 0-8.365-3.318-8.365-11.036zm-78.293 6.896c0-.391.068-1.344.968-1.344 3.83 0 4.83-1.215 4.83-1.642 0-1.378-5.798-3.71-5.798-12.84 0-1.479-.033-1.542 1.266-1.542h2.734c.433 0 1.165-.099 1.165.593 0 .457-.299 1.476-.299 2.459 0 3.844 3.266 7.455 3.933 7.455 1.332 0 2.232-3.939 2.232-6.471 0-1.64-.367-3.017-.367-3.544 0-.591.834-.492 1.199-.492h2.967c.634.1.532 1.149.532 2.561.3 9.622-7.23 18.947-14.562 18.947-.765 0-.8-.492-.8-1.248v-2.892zm42.082-18.189c4.467 0 7.165 2.593 7.165 6.894 0 3.547-2.398 4.993-2.398 5.781 0 .918 3.798 1.28 3.798 5.122 0 2.692-2.169 4.201-4.797 4.201-1.269 0-2.401-.426-3.467-.819-1.1-.425-2.132-.822-3.133-.822-1.866 0-1.897 1.641-2.731 1.641-1.001 0-2.332-3.676-2.332-4.529 0-1.181 2.765-1.905 3.532-1.905 3.129 0 5.897 1.642 7.296 1.642.601 0 1.134-.494 1.134-1.116 0-.956-2.233-2.068-4.067-2.068-4.964 0-7.163-3.614-7.163-7.03 0-3.546 2.521-5.849 2.226-5.269-.024.05.466-.854 2.873-1.462l.666-.13c.366-.068.833-.131 1.398-.131zm12.623 21.837c-1.631 0-1.764.689-1.764-10.869 0-11.232.535-10.147 1.631-10.147h1.832c1.403 0 1.433.1 1.433.492 0 1.215-.398 2.431-.398 6.008 0 8.277 1.3 13.367 1.3 13.662 0 1.052-1.001.854-1.767.854h-2.267zm13.263 0h-5.896c-1.171 0-1.037-11-1.037-11.757 0-1.542-.134-16.252 1.37-16.252h3.197c.401 0 1.199 0 1.199.722 0 .263-.998 3.546-.998 5.481 0 .527.097 1.051.732 1.051.366 0 .831-.161 1.366-.359.567-.165 1.236-.394 1.933-.394 2.831 0 6.798 2.495 6.798 9.422 0 3.778-.967 6.8-3.4 9.527-.968 1.117-2.734 2.559-5.264 2.559zm-38.847-11.362c0-2.594-.933-6.273-4.231-6.273s-4.231 3.679-4.231 6.273c0 2.628.867 6.371 4.231 6.371 3.365 0 4.231-3.743 4.231-6.371zm61.772 0c0-2.594-.936-6.273-4.235-6.273-3.296 0-4.229 3.679-4.229 6.273 0 2.628.865 6.371 4.229 6.371 3.37 0 4.235-3.743 4.235-6.371zm-18.76-.329c0-5.384-2.366-6.698-3.768-6.698-2.362 0-2.829 1.149-2.829 5.943 0 7.093 1.697 6.962 2.566 6.962 3.263 0 4.031-3.777 4.031-6.207zm-30.051-.329c1.967 0 3.231-1.411 3.231-3.349 0-2.101-1.431-3.347-3.231-3.347-1.798 0-3.232 1.246-3.232 3.347 0 2.104 1.434 3.349 3.232 3.349zm11.228-13.724c0-1.41 1.228-2.265 2.565-2.265 1.335 0 2.56.855 2.56 2.265 0 1.412-1.225 2.165-2.56 2.165-1.337 0-2.565-.753-2.565-2.165z" fill="#686879"/></svg>