<svg width="119" height="31" viewBox="0 0 119 31" xmlns="http://www.w3.org/2000/svg"><path d="M16.879 9.293s-.322-3.789-.366-5.344c-.04-1.472-.056-3.393-.056-3.393s.647-.057 1.068.026c.424.086.848.313.848.313s-.295 2.331-.506 3.817c-.329 2.296-.987 4.581-.987 4.581zm-1.716-.029s-.563-4.115-.649-5.189c-.084-1.075-.224-3.536-.224-3.536s.281-.156.986-.156c.704 0 .93.169.93.169s-.113 1.471-.311 3.479c-.197 2.008-.731 5.232-.731 5.232zm-1.538.029s-.66-2.285-.987-4.581c-.211-1.486-.506-3.817-.506-3.817s.422-.228.846-.313c.421-.084 1.069-.026 1.069-.026s-.017 1.921-.057 3.393c-.042 1.556-.364 5.344-.364 5.344zm-1.564.423s-2.898-2.449-4.023-3.519c-1.065-1.014-2.431-2.36-2.431-2.36 0 .001.419-.5.777-.739.358-.24.816-.381.816-.381s1.434 1.859 2.332 3.061c1.385 1.855 2.528 3.939 2.528 3.939zm-1.067 1.118s-3.423-2.469-4.239-3.167c-.815-.7-2.689-2.301-2.689-2.301s.09-.31.587-.81c.499-.501.777-.539.777-.539s1.007 1.113 2.281 2.673c1.276 1.56 3.282 4.143 3.282 4.143zm-1.233 1.193s-2.077-1.146-3.925-2.539c-1.194-.9-3.094-2.36-3.094-2.36s.187-.441.426-.8c.24-.36.737-.78.737-.78s1.341 1.371 2.349 2.441c1.066 1.128 3.507 4.038 3.507 4.038zm8.507-2.128s1.144-2.084 2.531-3.939c.897-1.199 2.332-3.059 2.332-3.059s.457.139.815.379c.359.241.777.741.777.741s-1.366 1.345-2.431 2.359c-1.125 1.068-4.024 3.519-4.024 3.519zm1.069 1.117s2.008-2.584 3.282-4.144 2.283-2.673 2.283-2.673.279.039.776.54c.499.499.587.808.587.808s-1.872 1.6-2.688 2.301c-.816.699-4.239 3.167-4.239 3.167zm1.235 1.194c-.001 0 2.44-2.91 3.507-4.038 1.006-1.071 2.346-2.442 2.346-2.442s.5.42.738.78c.24.358.427.8.427.8s-1.898 1.459-3.096 2.36c-1.847 1.392-3.923 2.539-3.923 2.539zm-11.361 1.345s-3.774.325-5.324.366c-1.466.04-3.379.057-3.379.057s-.057-.649.028-1.074c.086-.423.311-.849.311-.849s2.322.297 3.802.508c2.287.329 4.563.992 4.563.992zm-.027 1.724s-4.099.566-5.169.65c-1.071.085-3.522.227-3.52.227 0 0-.157-.283-.157-.99 0-.708.169-.934.169-.934s1.465.114 3.465.311c2 .198 5.212.735 5.212.735zm.027 1.545s-2.277.661-4.563.99c-1.48.213-3.802.508-3.802.508s-.225-.424-.311-.848c-.085-.424-.028-1.075-.028-1.075s1.913.019 3.379.058c1.55.044 5.324.367 5.324.367zm11.978 0s3.773-.323 5.322-.367c1.468-.039 3.381-.058 3.381-.058s.055.651-.029 1.075c-.086.425-.31.849-.31.849s-2.322-.295-3.803-.508c-2.288-.326-4.563-.991-4.563-.991zm.028-1.724s4.097-.565 5.168-.65c1.07-.085 3.522-.228 3.522-.228s.155.283.155.99c0 .706-.169.934-.169.934s-1.466-.115-3.464-.313c-2.001-.196-5.212-.734-5.212-.734zm-.028-1.543s2.275-.664 4.563-.992c1.48-.212 3.803-.508 3.803-.508s.224.424.31.849c.084.424.029 1.075.029 1.075s-1.914-.019-3.381-.06c-1.549-.042-5.322-.365-5.322-.365zm-7.564 7.642s.323 3.791.366 5.345c.04 1.475.058 3.396.058 3.396s-.648.056-1.071-.03c-.423-.086-.845-.31-.845-.31s.294-2.332.506-3.817c.327-2.299.986-4.584.986-4.584zm1.717.03s.563 4.114.647 5.188c.085 1.075.226 3.538.226 3.538s-.282.153-.986.153c-.705 0-.929-.168-.929-.168s.112-1.471.309-3.479c.198-2.007.733-5.232.733-5.232zm1.538-.03s.661 2.285.987 4.584c.212 1.486.507 3.817.507 3.817s-.423.224-.846.31c-.422.086-1.069.03-1.069.03s.017-1.922.058-3.396c.042-1.553.364-5.345.364-5.345zm1.278-.713s2.898 2.448 4.023 3.519c1.065 1.012 2.431 2.359 2.431 2.359s-.419.501-.777.739c-.358.238-.816.38-.816.38s-1.434-1.858-2.332-3.06c-1.386-1.855-2.528-3.938-2.528-3.938zm1.067-1.117s3.423 2.469 4.239 3.167c.816.702 2.689 2.299 2.689 2.299s-.089.309-.587.81c-.499.5-.776.542-.776.542s-1.008-1.117-2.283-2.677c-1.275-1.556-3.282-4.141-3.282-4.141zm1.235-1.194s2.076 1.148 3.924 2.54c1.195.899 3.094 2.359 3.094 2.359s-.185.44-.426.801c-.238.359-.737.78-.737.78s-1.34-1.373-2.348-2.444c-1.066-1.126-3.507-4.036-3.507-4.036zm-8.256 2.49s-1.15 2.078-2.542 3.929c-.901 1.198-2.342 3.05-2.342 3.05s-.457-.139-.814-.382c-.359-.243-.774-.741-.774-.742 0 0 1.369-1.341 2.439-2.352 1.129-1.063 4.034-3.503 4.034-3.504zm-1.064-1.118s-2.015 2.575-3.295 4.131c-1.281 1.553-2.292 2.664-2.292 2.664s-.278-.04-.775-.544c-.496-.501-.585-.81-.585-.81s1.88-1.594 2.697-2.292c.819-.694 4.249-3.149 4.249-3.149zm-1.229-1.199s-2.451 2.9-3.519 4.023c-1.014 1.069-2.358 2.433-2.358 2.433s-.496-.422-.734-.782c-.238-.359-.423-.803-.423-.803s1.905-1.452 3.102-2.348c1.854-1.384 3.933-2.523 3.933-2.523zm35.547 5.948h-4.55l-4.577-18.562h4.035l2.881 13.497h.053l3.239-13.497h3.829l-4.911 18.562zm5.783-18.562h12.524v3.085h-4.322v15.477h-3.882v-15.477h-4.32v-3.085zm22.348 18.562h-3.777v-18.562h6.242l2.908 12.624h.053l3.086-12.624h6.039v18.562h-3.777v-14.32h-.053l-3.576 14.32h-3.702l-3.392-14.32h-.052v14.32zm24.964-6.884h-3.703l1.774-8.02h.052l1.878 8.02zm-5.527 6.884l1.052-4.113h5.295l1.031 4.113h4.087l-5.039-18.562h-5.117l-5.143 18.562h3.833zm.126-20.665h2.855v-2.777h-2.855v2.777zm4.549 0h2.855v-2.777h-2.855v2.777zm11.623 10.047l4.55-7.946h4.265l-5.191 8.331 5.191 10.232h-4.369l-4.446-9.512h-.052v9.512h-3.881v-18.564h3.881v7.946h.052z" fill="#686879"/></svg>