<?xml version="1.0" encoding="UTF-8"?>
<svg width="113px" height="25px" viewBox="0 0 113 25" xmlns="http://www.w3.org/2000/svg"><g stroke="none" stroke-width="1" fill="none" fill-rule="evenodd"><g transform="translate(-502.000000, -177.000000)" fill="#686879">
<path d="M567.7602,199.16295 C567.7602,199.73395 567.6112,200.19295 567.3132,200.54295 C567.0152,200.89395 566.6082,201.06895 566.0922,201.06895 C565.5772,201.06895 565.1682,200.89395 564.8692,200.54295 C564.5702,200.19295 564.4202,199.73395 564.4202,199.16295 C564.4202,198.58595 564.5682,198.12195 564.8642,197.77195 C565.1602,197.42195 565.5692,197.24695 566.0922,197.24695 C566.6122,197.24695 567.0242,197.42595 567.3272,197.78295 C567.6152,198.12595 567.7602,198.58595 567.7602,199.16295 Z M595.6856,199.76965 C595.6856,200.19565 595.5526,200.52165 595.2856,200.74965 C595.0326,200.96265 594.6916,201.06865 594.2626,201.06865 C593.8326,201.06865 593.4936,200.96265 593.2446,200.74965 C592.9746,200.52565 592.8386,200.19865 592.8386,199.76965 L592.8386,197.30565 L593.3586,197.30565 L593.3586,199.72065 C593.3586,200.31265 593.6596,200.60865 594.2626,200.60865 C594.8656,200.60865 595.1666,200.31265 595.1666,199.72065 L595.1666,197.30565 L595.6856,197.30565 L595.6856,199.76965 Z M551.9489,197.51725 L551.7539,197.90225 C551.4769,197.76825 551.2089,197.70125 550.9529,197.70125 C550.5529,197.70125 550.2309,197.84425 549.9889,198.12925 C549.7619,198.40025 549.6479,198.73925 549.6479,199.14725 C549.6479,199.55425 549.7639,199.89625 549.9949,200.17025 C550.2439,200.46225 550.5709,200.60825 550.9749,200.60825 C551.2129,200.60825 551.4619,200.55625 551.7219,200.45125 L551.8839,200.85725 C551.5699,200.99825 551.2509,201.06825 550.9259,201.06825 C550.3849,201.06825 549.9419,200.87925 549.5999,200.50025 C549.2679,200.13225 549.1019,199.67525 549.1019,199.13125 C549.1019,198.58225 549.2699,198.13225 549.6079,197.78025 C549.9449,197.42825 550.3869,197.25225 550.9309,197.25225 C551.2559,197.25225 551.5959,197.34125 551.9489,197.51725 Z M559.2669,200.00215 C559.2669,200.34515 559.1299,200.61315 558.8559,200.80815 C558.6139,200.98215 558.3149,201.06815 557.9569,201.06815 C557.6149,201.06815 557.2879,201.00915 556.9779,200.89015 L557.1069,200.44615 C557.4139,200.55415 557.6989,200.60815 557.9629,200.60815 C558.1679,200.60815 558.3379,200.56715 558.4719,200.48415 C558.6299,200.38315 558.7099,200.23715 558.7099,200.04515 C558.7099,199.82915 558.5609,199.63915 558.2659,199.47715 C557.9909,199.33215 557.7179,199.18815 557.4429,199.04415 C557.1469,198.83515 556.9989,198.56215 556.9989,198.22715 C556.9989,197.90515 557.1249,197.65615 557.3779,197.48015 C557.6019,197.32515 557.8809,197.24615 558.2169,197.24615 C558.4809,197.24615 558.7769,197.30515 559.1049,197.42015 L558.9479,197.84815 C558.6879,197.75415 558.4439,197.70715 558.2169,197.70715 C557.7729,197.70715 557.5509,197.87715 557.5509,198.21615 C557.5509,198.40315 557.6989,198.57315 557.9949,198.72415 C558.5109,198.98815 558.7869,199.13215 558.8229,199.15715 C559.1189,199.37415 559.2669,199.65515 559.2669,200.00215 Z M570.5743,201.00945 L570.0553,201.00945 L570.0553,197.30645 L570.8283,197.30645 L572.5343,200.26745 C572.5523,200.29945 572.5803,200.35545 572.6203,200.43545 L572.6313,200.43545 L572.6313,197.30645 L573.1513,197.30645 L573.1513,200.97645 C573.0533,201.01645 572.9543,201.03545 572.8533,201.03545 C572.5723,201.03545 572.3513,200.90045 572.1933,200.63045 L570.6613,198.02145 C570.6433,197.98845 570.6193,197.93445 570.5913,197.85845 L570.5743,197.85845 L570.5743,201.00945 Z M598.6526,201.00945 L598.1336,201.00945 L598.1336,197.30645 L598.9066,197.30645 L600.6126,200.26745 C600.6306,200.29945 600.6586,200.35545 600.6986,200.43545 L600.7096,200.43545 L600.7096,197.30645 L601.2296,197.30645 L601.2296,200.97645 C601.1316,201.01645 601.0326,201.03545 600.9316,201.03545 C600.6506,201.03545 600.4296,200.90045 600.2716,200.63045 L598.7396,198.02145 C598.7216,197.98845 598.6976,197.93445 598.6696,197.85845 L598.6526,197.85845 L598.6526,201.00945 Z M536.2343,201.00945 L535.7153,201.00945 L535.7153,197.34445 C535.9893,197.27945 536.2923,197.24645 536.6243,197.24645 C537.0073,197.24645 537.3153,197.33545 537.5503,197.51145 C537.8093,197.71045 537.9403,197.99545 537.9403,198.36745 C537.9403,198.73545 537.8113,199.02445 537.5553,199.23345 C537.3133,199.43245 536.9993,199.53145 536.6133,199.53145 C536.4873,199.53145 536.3613,199.52045 536.2343,199.49945 L536.2343,201.00945 Z M540.782,201.00945 L540.262,201.00945 L540.262,197.34945 C540.573,197.28145 540.867,197.24645 541.144,197.24645 C541.537,197.24645 541.85,197.32445 542.081,197.47945 C542.351,197.66745 542.487,197.95245 542.487,198.33545 C542.487,198.58345 542.413,198.79845 542.265,198.97945 C542.117,199.15945 541.926,199.27645 541.691,199.33045 L541.691,199.34245 C541.781,199.34545 541.884,199.44345 542,199.63445 L542.822,201.00945 L542.211,201.00945 L541.464,199.73145 C541.38,199.58745 541.305,199.48945 541.236,199.43945 C541.207,199.44345 541.163,199.44445 541.101,199.44445 C541.007,199.44445 540.901,199.43545 540.782,199.41745 L540.782,201.00945 Z M607.9355,201.00945 L607.4165,201.00945 L607.4165,197.76645 L606.3335,197.76645 L606.3335,197.30645 L609.0945,197.30645 L609.0945,197.76645 L607.9355,197.76645 L607.9355,201.00945 Z M581.0323,201.00915 L580.5133,201.00915 L580.5133,197.30615 L581.3033,197.30615 L582.2723,199.28215 C582.2833,199.30415 582.3083,199.36015 582.3483,199.45015 L582.3643,199.45015 C582.3753,199.41415 582.3973,199.35615 582.4293,199.27615 L583.4043,197.30615 L584.1883,197.30615 L584.1883,201.00915 L583.6693,201.00915 L583.6693,197.79915 L583.6583,197.79915 C583.6543,197.82415 583.6343,197.87915 583.5983,197.96115 L582.4773,200.18015 C582.2943,200.18015 582.1393,200.05415 582.0123,199.80215 L581.1033,197.96115 C581.0813,197.92115 581.0623,197.86715 581.0443,197.79915 L581.0323,197.79915 L581.0323,201.00915 Z M546.9528,197.76615 L545.4698,197.76615 L545.4698,198.84915 L546.7088,198.84915 L546.7088,199.30915 L545.4698,199.30915 L545.4698,200.54915 L547.0018,200.54915 L547.0018,201.00915 L544.9498,201.00915 L544.9498,197.30615 L546.9528,197.30615 L546.9528,197.76615 Z M587.1815,201.00915 L586.6625,201.00915 L586.6625,197.30615 L587.4525,197.30615 L588.4215,199.28215 C588.4325,199.30415 588.4575,199.36015 588.4975,199.45015 L588.5135,199.45015 C588.5245,199.41415 588.5465,199.35615 588.5785,199.27615 L589.5535,197.30615 L590.3375,197.30615 L590.3375,201.00915 L589.8185,201.00915 L589.8185,197.79915 L589.8075,197.79915 C589.8035,197.82415 589.7835,197.87915 589.7475,197.96115 L588.6265,200.18015 C588.4435,200.18015 588.2885,200.05415 588.1615,199.80215 L587.2525,197.96115 C587.2305,197.92115 587.2115,197.86715 587.1935,197.79915 L587.1815,197.79915 L587.1815,201.00915 Z M561.5772,201.00905 L562.0972,201.00905 L562.0972,197.30605 L561.5772,197.30605 L561.5772,201.00905 Z M612.7425,201.00905 L612.2225,201.00905 L612.2225,199.42805 C612.1725,199.37805 612.1265,199.32205 612.0875,199.26005 L610.8425,197.30605 L611.4385,197.30605 L612.3905,198.83305 C612.4085,198.85405 612.4375,198.91005 612.4775,199.00105 C612.4915,198.97205 612.5155,198.92805 612.5475,198.87105 L613.5325,197.30605 L614.1335,197.30605 L612.7425,199.42305 L612.7425,201.00905 Z M603.7025,201.00905 L604.2225,201.00905 L604.2225,197.30605 L603.7025,197.30605 L603.7025,201.00905 Z M554.1522,201.00905 L554.6722,201.00905 L554.6722,197.30605 L554.1522,197.30605 L554.1522,201.00905 Z M577.5192,201.00905 L578.0392,201.00905 L578.0392,197.30605 L577.5192,197.30605 L577.5192,201.00905 Z M519.3645,178.76865 L517.8505,182.80065 C520.0015,184.13165 521.4415,186.50565 521.4415,189.21565 C521.4415,193.37765 518.0565,196.76265 513.8945,196.76265 C509.7325,196.76265 506.3475,193.37765 506.3475,189.21565 C506.3475,186.50565 507.7875,184.13165 509.9385,182.80065 L508.4245,178.76865 C504.6665,180.74065 502.1015,184.67765 502.1015,189.21565 C502.1015,195.72865 507.3815,201.00865 513.8945,201.00865 C520.4075,201.00865 525.6875,195.72865 525.6875,189.21565 C525.6875,184.67765 523.1225,180.74065 519.3645,178.76865 Z M567.2132,199.16295 C567.2132,198.72995 567.1212,198.38395 566.9372,198.12395 C566.7422,197.84595 566.4612,197.70695 566.0922,197.70695 C565.7242,197.70695 565.4412,197.84595 565.2432,198.12395 C565.0592,198.38395 564.9672,198.72995 564.9672,199.16295 C564.9672,199.56395 565.0512,199.89395 565.2212,200.15395 C565.4202,200.45695 565.7102,200.60795 566.0922,200.60795 C566.4752,200.60795 566.7652,200.45695 566.9642,200.15395 C567.1302,199.89395 567.2132,199.56395 567.2132,199.16295 Z M537.3933,198.35645 C537.3933,197.92345 537.1343,197.70745 536.6193,197.70745 C536.5073,197.70745 536.3793,197.71945 536.2343,197.74545 L536.2343,199.04445 C536.3793,199.06545 536.5023,199.07645 536.6033,199.07645 C536.8443,199.07645 537.0363,199.01545 537.1793,198.89545 C537.3223,198.77445 537.3933,198.59545 537.3933,198.35645 Z M541.951,198.32445 C541.951,197.90945 541.687,197.70145 541.161,197.70145 C541.024,197.70145 540.897,197.71445 540.782,197.73945 L540.782,198.98945 C540.908,199.01145 541.029,199.02245 541.144,199.02245 C541.382,199.02245 541.576,198.96345 541.726,198.84645 C541.876,198.72945 541.951,198.55545 541.951,198.32445 Z M575.9657,185.53585 C575.9657,183.21185 574.6337,182.04985 571.9667,182.04985 C570.7427,182.04985 569.5417,182.35685 568.3027,182.93785 L569.5957,184.19585 C570.4267,183.89885 571.1737,183.74785 571.8367,183.74785 C573.2637,183.74785 573.9767,184.24485 573.9767,185.23185 C573.9767,185.69685 573.6737,186.05485 573.0597,186.30085 C572.7967,186.40185 572.0987,186.56985 570.9607,186.80085 C569.8247,187.03385 568.9747,187.35685 568.4057,187.76085 C567.6037,188.32885 567.2037,189.15085 567.2037,190.22285 C567.2037,191.25685 567.6337,192.05685 568.4907,192.62185 C569.2927,193.16285 570.3867,193.42985 571.7717,193.42985 C572.9947,193.42985 574.4447,193.16285 576.1197,192.62185 C576.0177,191.96685 575.9657,191.50285 575.9657,191.22685 L575.9657,185.53585 Z M564.7768,179.47885 L562.8118,177.50085 L562.8118,182.63585 C562.0678,182.24585 561.2518,182.04985 560.3638,182.04985 C558.7588,182.04985 557.5068,182.59985 556.6038,183.70585 C555.7598,184.72585 555.3358,186.05485 555.3358,187.69485 C555.3358,189.36885 555.8688,190.74185 556.9318,191.81785 C557.9938,192.88885 559.3648,193.42985 561.0398,193.42985 C562.3508,193.42985 563.6328,193.19085 564.8858,192.71185 C564.8118,192.09985 564.7768,191.66385 564.7768,191.40285 L564.7768,179.47885 Z M548.9695,182.04985 C547.4245,182.04985 546.2145,182.62185 545.3405,183.77285 C544.5535,184.80185 544.1615,186.11985 544.1615,187.71685 C544.1615,189.37585 544.6485,190.74185 545.6255,191.81785 C546.6025,192.88885 547.9045,193.42985 549.5365,193.42985 C550.7465,193.42985 551.8755,193.19085 552.9235,192.71185 L552.3125,191.22785 C551.4815,191.56385 550.6145,191.72885 549.7115,191.72885 C548.6915,191.72885 547.8765,191.41685 547.2645,190.79085 C546.6805,190.20985 546.3595,189.41785 546.3025,188.41385 L553.5795,188.41385 C553.6525,187.94785 553.6895,187.55285 553.6895,187.21585 C553.6895,185.70485 553.2865,184.48585 552.4865,183.55485 C551.6265,182.55085 550.4545,182.04985 548.9695,182.04985 Z M614.3535,191.17535 L614.3535,185.48435 C614.3535,183.16035 613.0215,181.99835 610.3545,181.99835 C609.1305,181.99835 607.9295,182.30535 606.6905,182.88635 L607.9835,184.14435 C608.8145,183.84735 609.5615,183.69635 610.2245,183.69635 C611.6515,183.69635 612.3645,184.19335 612.3645,185.18035 C612.3645,185.64535 612.0615,186.00235 611.4475,186.24935 C611.1845,186.35035 610.4865,186.51835 609.3485,186.74935 C608.2125,186.98235 607.3625,187.30535 606.7935,187.70935 C605.9915,188.27635 605.5915,189.09935 605.5915,190.17135 C605.5915,191.20535 606.0215,192.00535 606.8785,192.57035 C607.6805,193.11135 608.7745,193.37835 610.1595,193.37835 C611.3825,193.37835 612.8325,193.11135 614.5075,192.57035 C614.4055,191.91535 614.3535,191.45135 614.3535,191.17535 Z M590.9432,181.59425 L590.9432,177.42325 L593.0112,179.48725 L593.0112,181.59425 L595.1332,181.59425 L596.9422,183.38425 L593.0112,183.38425 L593.0112,190.32925 C593.0112,191.14225 593.4572,191.54425 594.3462,191.54425 C594.9102,191.54425 595.5942,191.40125 596.3892,191.10825 L596.9422,192.80825 C595.8222,193.18825 594.8882,193.37825 594.1382,193.37825 C592.0072,193.37825 590.9432,192.39525 590.9432,190.42425 L590.9432,183.38425 L589.6312,183.38425 L589.6312,181.59425 L590.9432,181.59425 Z M601.2006,193.25935 L599.2346,193.25935 L599.2346,184.77735 C599.2346,184.47035 599.1776,183.96435 599.0606,183.25135 C600.8226,182.49635 602.3245,182.11735 603.5625,182.11735 C604.1005,182.11735 604.6335,182.18335 605.1565,182.31435 L604.5665,184.03535 C604.1585,183.94735 603.7375,183.90435 603.3015,183.90435 C602.5845,183.90435 601.8796,184.02735 601.1806,184.27335 C601.1956,184.47735 601.2006,184.63135 601.2006,184.73435 L601.2006,193.25935 Z M536.8888,190.19025 L536.8978,190.19025 L541.6998,177.42325 L543.9508,177.42325 L537.9788,193.25925 L535.8088,193.25925 L529.8318,177.42325 L532.0828,177.42325 L536.8888,190.19025 Z M580.9098,193.25875 L578.9418,193.25875 L578.9418,184.68875 C578.9418,184.39875 578.8898,183.91175 578.7888,183.22975 C580.7268,182.48575 582.2998,182.11775 583.5088,182.11775 C586.4378,182.11775 587.9008,183.36575 587.9008,185.86875 L587.9008,193.25875 L585.9358,193.25875 L585.9358,186.23675 C585.9358,184.62475 585.1108,183.81575 583.4658,183.81575 C582.6348,183.81575 581.7678,184.00575 580.8638,184.38375 C580.8928,184.63075 580.9098,184.81275 580.9098,184.92875 L580.9098,193.25875 Z M571.7717,191.72885 C570.1817,191.72885 569.3877,191.17685 569.3877,190.07285 C569.3877,189.51785 569.6357,189.08985 570.1327,188.78585 C570.4667,188.58285 571.0287,188.39385 571.8147,188.21685 C572.9947,187.95585 573.7227,187.71685 574.0007,187.49885 L574.0007,190.92385 C574.0007,191.00985 574.0157,191.15585 574.0437,191.35985 C573.3307,191.60685 572.5717,191.72885 571.7717,191.72885 Z M561.0178,191.72885 C559.8948,191.72885 559.0228,191.32185 558.3958,190.50885 C557.8128,189.75085 557.5208,188.79985 557.5208,187.65285 C557.5208,186.56185 557.7768,185.66085 558.2868,184.94985 C558.8538,184.14885 559.6718,183.74785 560.7348,183.74785 C561.5068,183.74785 562.1978,183.95885 562.8118,184.38185 L562.8118,191.00985 C562.8118,191.15585 562.8188,191.28485 562.8328,191.40285 C562.2498,191.61985 561.6438,191.72885 561.0178,191.72885 Z M610.1595,191.67735 C608.5695,191.67735 607.7755,191.12535 607.7755,190.02135 C607.7755,189.46635 608.0235,189.03835 608.5205,188.73435 C608.8545,188.53135 609.4165,188.34235 610.2025,188.16535 C611.3825,187.90435 612.1105,187.66535 612.3885,187.44635 L612.3885,190.87235 C612.3885,190.95835 612.4035,191.10435 612.4315,191.30835 C611.7185,191.55535 610.9595,191.67735 610.1595,191.67735 Z M551.6125,186.82285 C551.5975,185.94985 551.3795,185.23285 550.9585,184.66685 C550.4915,184.04085 549.8345,183.72685 548.9905,183.72685 C548.1745,183.72685 547.5305,184.02385 547.0575,184.60985 C546.5825,185.19985 546.3315,185.93685 546.3025,186.82285 L551.6125,186.82285 Z M516.7179,177.76555 C515.8129,177.54255 514.8679,177.42255 513.8949,177.42255 C512.9209,177.42255 511.9759,177.54255 511.0709,177.76555 L513.8949,185.28455 L516.7179,177.76555 Z"></path></g></g>
</svg>