<svg width="111" height="20" viewBox="0 0 111 20" xmlns="http://www.w3.org/2000/svg"><path d="M29.809 8.09c-.213-.287-.477-.502-.79-.645-.313-.143-.64-.215-.98-.215-.393 0-.755.08-1.085.24-.33.16-.615.375-.855.645s-.427.583-.56.94c-.133.357-.2.728-.2 1.115 0 .413.067.798.2 1.155s.318.667.555.93c.237.263.52.472.85.625.33.153.695.23 1.095.23.433 0 .82-.085 1.16-.255.34-.17.637-.415.89-.735l.63.53c-.32.427-.705.74-1.155.94-.45.2-.958.3-1.525.3-.507 0-.98-.093-1.42-.28-.44-.187-.822-.445-1.145-.775-.323-.33-.577-.722-.76-1.175-.183-.453-.275-.95-.275-1.49 0-.52.088-1.007.265-1.46.177-.453.425-.847.745-1.18.32-.333.7-.597 1.14-.79.44-.193.923-.29 1.45-.29.48 0 .942.087 1.385.26.443.173.815.457 1.115.85l-.73.53zm2.46 2.05c0-.213-.007-.413-.02-.6l-.02-.51h.74l.01.38.01.39h.02c.053-.113.128-.223.225-.33.097-.107.212-.202.345-.285.133-.083.283-.15.45-.2.167-.05.347-.075.54-.075l.16.01.16.04-.05.79c-.133-.04-.273-.06-.42-.06-.48 0-.828.155-1.045.465-.217.31-.325.735-.325 1.275v2.28h-.78v-3.57zm4.11-1.11h.78v4.68h-.78v-4.68zm-.18-1.83c0-.153.055-.287.165-.4.11-.113.245-.17.405-.17.16 0 .295.057.405.17.11.113.165.247.165.4 0 .167-.053.303-.16.41-.107.107-.243.16-.41.16-.167 0-.303-.053-.41-.16-.107-.107-.16-.243-.16-.41zm3.03 2.94c0-.213-.007-.413-.02-.6l-.02-.51h.74l.01.38.01.39h.02c.053-.113.128-.223.225-.33.097-.107.212-.202.345-.285.133-.083.283-.15.45-.2.167-.05.347-.075.54-.075.253 0 .465.032.635.095.17.063.312.14.425.23.113.09.202.187.265.29l.155.275c.173-.28.373-.498.6-.655.227-.157.52-.235.88-.235.333 0 .613.045.84.135.227.09.41.22.55.39.14.17.24.377.3.62s.09.515.09.815v2.84h-.78v-2.8c0-.16-.017-.317-.05-.47-.033-.153-.093-.29-.18-.41s-.203-.217-.35-.29c-.147-.073-.333-.11-.56-.11-.167 0-.323.033-.47.1-.147.067-.275.16-.385.28-.11.12-.197.265-.26.435-.063.17-.095.358-.095.565v2.7h-.78v-2.65c0-.52-.07-.888-.21-1.105-.14-.217-.37-.325-.69-.325-.253 0-.472.043-.655.13-.183.087-.333.21-.45.37-.117.16-.203.35-.26.57-.057.22-.085.463-.085.73v2.28h-.78v-3.57zm9.14 2.34c.153.193.322.347.505.46.183.113.415.17.695.17.12 0 .242-.013.365-.04.123-.027.235-.07.335-.13.1-.06.18-.135.24-.225s.09-.198.09-.325-.028-.23-.085-.31c-.057-.08-.132-.148-.225-.205-.093-.057-.2-.102-.32-.135l-.37-.09c-.22-.047-.43-.1-.63-.16s-.375-.138-.525-.235c-.15-.097-.27-.222-.36-.375-.09-.153-.135-.35-.135-.59 0-.227.05-.427.15-.6.1-.173.233-.317.4-.43.167-.113.353-.2.56-.26.207-.06.42-.09.64-.09.333 0 .642.067.925.2.283.133.505.35.665.65l-.65.43c-.1-.167-.232-.302-.395-.405-.163-.103-.362-.155-.595-.155-.107 0-.215.013-.325.04-.11.027-.208.067-.295.12-.087.053-.158.122-.215.205-.057.083-.085.178-.085.285 0 .1.032.185.095.255s.15.132.26.185c.11.053.237.1.38.14l.445.1c.207.04.403.092.59.155.187.063.35.148.49.255.14.107.25.24.33.4.08.16.12.357.12.59 0 .267-.053.493-.16.68-.107.187-.248.338-.425.455-.177.117-.377.202-.6.255-.223.053-.452.08-.685.08-.4 0-.745-.062-1.035-.185-.29-.123-.552-.352-.785-.685l.62-.48zm4.41-1.11c0-.367.063-.7.19-1 .127-.3.3-.558.52-.775.22-.217.483-.385.79-.505.307-.12.64-.18 1-.18s.693.06 1 .18c.307.12.57.288.79.505.22.217.393.475.52.775.127.3.19.633.19 1s-.063.7-.19 1c-.127.3-.3.558-.52.775-.22.217-.483.385-.79.505-.307.12-.64.18-1 .18s-.693-.06-1-.18c-.307-.12-.57-.288-.79-.505-.22-.217-.393-.475-.52-.775-.127-.3-.19-.633-.19-1zm.84 0c0 .247.038.475.115.685.077.21.188.393.335.55.147.157.322.28.525.37.203.09.432.135.685.135.253 0 .482-.045.685-.135.203-.09.378-.213.525-.37.147-.157.258-.34.335-.55.077-.21.115-.438.115-.685 0-.247-.038-.475-.115-.685-.077-.21-.188-.393-.335-.55-.147-.157-.322-.28-.525-.37-.203-.09-.432-.135-.685-.135-.253 0-.482.045-.685.135-.203.09-.378.213-.525.37-.147.157-.258.34-.335.55-.077.21-.115.438-.115.685zm5.89-1.23c0-.213-.007-.413-.02-.6l-.02-.51h.74l.01.38.01.39h.02c.053-.113.128-.223.225-.33.097-.107.212-.202.345-.285.133-.083.283-.15.45-.2.167-.05.347-.075.54-.075.307 0 .572.047.795.14.223.093.408.223.555.39.147.167.255.368.325.605s.105.495.105.775v2.89h-.78v-2.81c0-.393-.087-.703-.26-.93-.173-.227-.443-.34-.81-.34-.253 0-.472.043-.655.13-.183.087-.333.21-.45.37-.117.16-.203.35-.26.57-.057.22-.085.463-.085.73v2.28h-.78v-3.57zm8.92-3.51h.84v3h3.78v-3h.84v7.08h-.84v-3.3h-3.78v3.3h-.84v-7.08zm11.78 6.23c-.28.36-.587.612-.92.755-.333.143-.72.215-1.16.215-.367 0-.697-.065-.99-.195-.293-.13-.542-.305-.745-.525-.203-.22-.36-.48-.47-.78-.11-.3-.165-.62-.165-.96 0-.36.06-.692.18-.995.12-.303.287-.563.5-.78.213-.217.467-.385.76-.505s.613-.18.96-.18c.327 0 .627.055.9.165.273.11.508.27.705.48.197.21.348.467.455.77.107.303.16.648.16 1.035v.25h-3.78c.013.2.062.392.145.575.083.183.192.343.325.48.133.137.29.245.47.325.18.08.377.12.59.12.34 0 .627-.06.86-.18.233-.12.443-.297.63-.53l.59.46zm-.67-1.91c-.013-.4-.143-.72-.39-.96-.247-.24-.587-.36-1.02-.36-.433 0-.783.12-1.05.36s-.427.56-.48.96h2.94zm3.68.24l-1.68-2.16h1.02l1.24 1.68 1.17-1.68h.95l-1.61 2.16 1.93 2.52h-1.03l-1.48-2.02-1.46 2.02h-.97l1.92-2.52zm4.25-1.56c.24-.247.525-.428.855-.545.33-.117.665-.175 1.005-.175.693 0 1.193.163 1.5.49.307.327.46.823.46 1.49v2.01l.02.415.05.395h-.75c-.027-.107-.042-.225-.045-.355l-.005-.345h-.02c-.153.24-.358.437-.615.59-.257.153-.565.23-.925.23-.24 0-.465-.03-.675-.09-.21-.06-.393-.148-.55-.265-.157-.117-.282-.262-.375-.435-.093-.173-.14-.373-.14-.6 0-.387.1-.69.3-.91.2-.22.448-.383.745-.49.297-.107.617-.173.96-.2.343-.027.658-.04.945-.04h.3v-.14c0-.34-.102-.597-.305-.77-.203-.173-.488-.26-.855-.26-.253 0-.502.042-.745.125-.243.083-.458.212-.645.385l-.49-.51zm2.26 1.83c-.5 0-.897.07-1.19.21-.293.14-.44.37-.44.69 0 .293.098.502.295.625.197.123.442.185.735.185.227 0 .425-.038.595-.115.17-.077.312-.178.425-.305.113-.127.2-.275.26-.445.06-.17.093-.352.1-.545v-.3h-.78zm8.18 2.04c0 .853-.218 1.502-.655 1.945-.437.443-1.068.665-1.895.665-.46 0-.875-.067-1.245-.2-.37-.133-.722-.363-1.055-.69l.56-.64c.247.267.508.468.785.605.277.137.595.205.955.205.347 0 .635-.052.865-.155.23-.103.412-.243.545-.42.133-.177.227-.378.28-.605.053-.227.08-.463.08-.71v-.6h-.02c-.187.3-.43.52-.73.66s-.607.21-.92.21c-.367 0-.703-.06-1.01-.18-.307-.12-.57-.287-.79-.5-.22-.213-.39-.467-.51-.76s-.18-.613-.18-.96c0-.38.06-.723.18-1.03.12-.307.288-.565.505-.775.217-.21.478-.372.785-.485.307-.113.647-.17 1.02-.17.16 0 .32.018.48.055.16.037.315.093.465.17.15.077.285.173.405.29.12.117.22.252.3.405h.02v-.8h.78v4.47zm-4.1-2.13c0 .24.043.462.13.665.087.203.205.38.355.53.15.15.325.268.525.355.2.087.413.13.64.13.267 0 .503-.047.71-.14.207-.093.382-.218.525-.375.143-.157.252-.337.325-.54.073-.203.11-.418.11-.645 0-.253-.04-.485-.12-.695-.08-.21-.193-.392-.34-.545-.147-.153-.323-.272-.53-.355-.207-.083-.433-.125-.68-.125-.247 0-.472.045-.675.135-.203.09-.377.213-.52.37-.143.157-.255.34-.335.55-.08.21-.12.438-.12.685zm5.59 0c0-.367.063-.7.19-1 .127-.3.3-.558.52-.775.22-.217.484-.385.79-.505.307-.12.64-.18 1-.18s.694.06 1 .18c.307.12.57.288.79.505.22.217.394.475.52.775.127.3.19.633.19 1s-.063.7-.19 1c-.126.3-.3.558-.52.775-.22.217-.483.385-.79.505-.306.12-.64.18-1 .18s-.693-.06-1-.18c-.306-.12-.57-.288-.79-.505-.22-.217-.393-.475-.52-.775-.127-.3-.19-.633-.19-1zm.84 0c0 .247.038.475.115.685.077.21.189.393.335.55.147.157.322.28.525.37.204.09.432.135.685.135.254 0 .482-.045.685-.135.204-.09.379-.213.525-.37.147-.157.259-.34.335-.55.077-.21.115-.438.115-.685 0-.247-.038-.475-.115-.685-.076-.21-.188-.393-.335-.55-.146-.157-.321-.28-.525-.37-.203-.09-.431-.135-.685-.135-.253 0-.481.045-.685.135-.203.09-.378.213-.525.37-.146.157-.258.34-.335.55-.077.21-.115.438-.115.685zm5.79-1.23c0-.213-.006-.413-.02-.6l-.02-.51h.74l.01.38.01.39h.02c.054-.113.129-.223.225-.33.097-.107.212-.202.345-.285.134-.083.284-.15.45-.2.167-.05.347-.075.54-.075.307 0 .572.047.795.14.224.093.409.223.555.39.147.167.255.368.325.605s.105.495.105.775v2.89h-.78v-2.81c0-.393-.086-.703-.26-.93-.173-.227-.443-.34-.81-.34-.253 0-.471.043-.655.13-.183.087-.333.21-.45.37-.116.16-.203.35-.26.57-.056.22-.085.463-.085.73v2.28h-.78v-3.57zm-94.433 3.743l1.739 3.011-1.739 3.012h-3.477l-1.739-3.012 1.739-3.011h3.477zm-4.141-.349l-1.739 3.012h-3.477l-1.739-3.012 1.739-3.011h3.477l1.739 3.011zm11.76 0l-1.739 3.012h-3.477l-1.739-3.012 1.739-3.011h3.477l1.739 3.011zm-13.499-3.709h-3.477l-1.739-3.011 1.739-3.011h3.477l1.739 3.011-1.739 3.011zm11.76 0h-3.477l-1.739-3.011 1.739-3.011h3.477l1.739 3.011-1.739 3.011zm-5.88-3.36h-3.477l-1.739-3.012 1.739-3.011h3.477l1.739 3.011-1.739 3.012z" fill="#686879"/></svg>