<?xml version="1.0" encoding="UTF-8"?>
<svg width="112px" height="27px" viewBox="0 0 112 27" xmlns="http://www.w3.org/2000/svg"><g stroke="none" stroke-width="1" fill="none" fill-rule="evenodd"><g transform="translate(-174.000000, -276.000000)" fill="#686879">
<path d="M221.3813,302.349 C222.6543,302.349 223.4843,301.353 223.4843,300.19 C223.4843,298.917 222.7653,298.087 221.4923,298.087 C220.2193,298.087 219.3883,299.083 219.3883,300.301 C219.3883,301.519 220.1083,302.349 221.3813,302.349 Z M244.5752,302.349 C245.8482,302.349 246.6782,301.353 246.6782,300.19 C246.6782,298.917 245.9592,298.087 244.6862,298.087 C243.4132,298.087 242.5822,299.083 242.5822,300.301 C242.5822,301.519 243.3022,302.349 244.5752,302.349 Z M214.9047,298.8617 C214.8497,298.8617 214.8497,298.8067 214.8497,298.7507 C214.7937,298.4737 214.2957,298.3077 213.9087,298.3077 C212.7457,298.3077 212.0817,299.1937 212.0817,300.3007 C212.0817,301.5187 212.9677,302.1277 213.7417,302.1277 C214.2957,302.1277 214.9597,301.9057 215.0157,301.5187 C215.0157,301.4637 215.0157,301.4077 215.0707,301.4077 C215.1257,301.4077 215.1257,301.4637 215.1257,301.5187 C215.1257,301.5737 215.1257,301.6297 215.0707,302.0727 C214.6837,302.2387 214.1297,302.3487 213.6317,302.3487 C212.3587,302.3487 211.4727,301.6847 211.4727,300.4117 C211.4727,299.0277 212.6347,298.0867 213.9637,298.0867 C214.3507,298.0867 214.6837,298.1977 215.0157,298.3077 C215.0157,298.8067 215.0157,298.8617 214.9047,298.8617 Z M204.1659,302.2387 L203.0029,302.2387 L203.0029,302.0727 L203.2799,302.0727 C203.3359,302.0727 203.3909,302.0167 203.3909,301.9617 L203.3909,299.1387 C203.3909,298.6407 203.3359,298.4187 203.0589,298.4187 L202.8369,298.4187 L202.8369,298.1977 L203.7779,298.1977 L206.3799,301.3527 L206.3799,299.0827 C206.3799,298.8067 206.3799,298.4187 206.1589,298.4187 L205.8269,298.4187 L205.8269,298.1977 L206.9889,298.1977 L206.9889,298.4187 L206.7679,298.4187 C206.7119,298.4187 206.6009,298.4187 206.6009,298.5297 L206.6009,302.1827 C206.6009,302.2387 206.6009,302.2937 206.5459,302.2937 L206.4909,302.2387 L206.3799,302.1277 L203.6679,298.8617 L203.6679,301.4077 C203.6679,301.6847 203.6679,302.0727 203.8339,302.0727 L204.1659,302.0727 L204.1659,302.2387 Z M229.5187,298.1976 C230.0717,298.1976 230.7917,298.5296 230.7917,299.3046 C230.7917,299.8576 230.3487,300.2456 229.7957,300.3566 C230.8467,301.8506 231.0687,302.0726 231.2347,302.0726 L231.4007,302.0726 L231.4007,302.2386 L230.6807,302.2386 C230.5147,302.2386 230.4597,302.2386 229.2967,300.4116 L228.7987,300.4116 L228.7987,301.1866 C228.7987,301.7956 228.8537,302.0726 229.0207,302.0726 L229.3527,302.0726 L229.3527,302.2386 L227.8577,302.2386 L227.8577,302.0726 L228.1897,302.0726 C228.2457,302.0726 228.3007,302.0166 228.3007,301.9616 L228.3007,299.3046 C228.3007,298.6406 228.2457,298.4186 228.0797,298.4186 L227.7467,298.4186 L227.7467,298.1976 L229.5187,298.1976 Z M258.4136,302.0726 C258.5246,302.0726 258.6356,302.0166 258.6356,301.9616 L260.2406,298.1416 C260.4066,298.1416 260.5726,298.0866 260.6286,298.0866 C260.6836,298.0866 260.6836,298.0866 260.6836,298.1416 C260.6836,298.1976 260.5726,298.1976 260.5726,298.3636 C260.5726,298.5846 261.3476,300.7436 261.6796,301.5736 C261.8456,301.9616 261.9016,302.0726 262.0676,302.0726 L262.2336,302.0726 L262.2336,302.2386 L260.8496,302.2386 L260.8496,302.0726 L261.1816,302.0726 C261.2366,302.0726 261.2926,302.0166 261.2926,302.0166 C261.2926,301.9616 261.0706,301.5186 260.8496,300.7436 L259.4106,300.7436 C259.2446,301.0756 259.0226,301.7406 259.0226,301.9066 C259.0226,302.0166 259.0786,302.0726 259.1886,302.0726 L259.5766,302.0726 L259.5766,302.2386 L258.3036,302.2386 L258.3036,302.0726 L258.4136,302.0726 Z M252.7125,298.1976 C253.2655,298.1976 253.9855,298.5296 253.9855,299.3046 C253.9855,299.8576 253.5425,300.2456 252.9895,300.3566 C254.0405,301.8506 254.2625,302.0726 254.4285,302.0726 L254.5945,302.0726 L254.5945,302.2386 L253.8745,302.2386 C253.7085,302.2386 253.6535,302.2386 252.4905,300.4116 L251.9925,300.4116 L251.9925,301.1866 C251.9925,301.7956 252.0485,302.0726 252.2145,302.0726 L252.5465,302.0726 L252.5465,302.2386 L251.0515,302.2386 L251.0515,302.0726 L251.3835,302.0726 C251.4395,302.0726 251.4945,302.0166 251.4945,301.9616 L251.4945,299.3046 C251.4945,298.6406 251.4395,298.4186 251.2735,298.4186 L250.9405,298.4186 L250.9405,298.1976 L252.7125,298.1976 Z M266.9383,298.4745 C266.2193,298.4745 265.8313,298.5845 265.7763,298.7505 C265.7763,298.8065 265.7213,298.8615 265.6653,298.8615 C265.6653,298.8615 265.6103,298.8615 265.6103,298.8065 C265.6103,298.7505 265.7213,298.4745 265.7763,298.1975 L268.9313,298.1975 C269.0423,298.4745 269.0973,298.7505 269.0973,298.8065 C269.0973,298.8615 269.0973,298.8615 269.0423,298.8615 C268.9863,298.8615 268.9863,298.8065 268.9863,298.7505 C268.8763,298.5845 268.5443,298.4745 267.7693,298.4745 L267.6583,298.4745 L267.6583,301.1865 C267.6583,301.7955 267.6583,302.0725 267.8243,302.0725 L268.3223,302.0725 L268.3223,302.2385 L266.5513,302.2385 L266.5513,302.0725 L266.9943,302.0725 C267.0493,302.0725 267.1043,302.0165 267.1043,301.9615 L267.1043,298.4745 L266.9383,298.4745 Z M198.6853,302.2385 L197.2463,302.2385 L197.2463,302.0725 L197.5233,302.0725 C197.5783,302.0725 197.6343,302.0165 197.6343,301.9615 L197.6343,299.3045 C197.6343,298.6405 197.6343,298.4185 197.4673,298.4185 L197.0803,298.4185 L197.0803,298.1975 L198.5753,298.1975 L198.5753,298.4185 L198.2423,298.4185 C198.1873,298.4185 198.1873,298.4745 198.1873,298.5295 L198.1873,301.1865 C198.1873,301.7955 198.1873,302.0725 198.3533,302.0725 L198.6853,302.0725 L198.6853,302.2385 Z M276.4045,302.2384 L273.3603,302.2384 L273.3603,302.0724 L273.6923,302.0724 C273.7473,302.0724 273.7473,302.0164 273.7473,301.9614 L273.7473,299.3044 C273.7473,298.6404 273.7473,298.4184 273.5813,298.4184 L273.1933,298.4184 L273.1933,298.1974 L276.4045,298.1974 C276.3495,298.8064 276.2935,298.8064 276.2385,298.8064 C276.1835,298.8064 276.1835,298.8064 276.1835,298.6954 C276.1835,298.6404 276.0725,298.4744 275.0765,298.4744 L274.4113,298.4744 C274.3563,298.4744 274.3013,298.4744 274.3013,298.5844 L274.3013,299.9684 L275.0205,299.9684 C275.6845,299.9684 275.9065,299.9134 275.9065,299.7474 L275.9065,299.4704 L276.0725,299.4704 L276.0725,300.5774 L275.9065,300.5774 L275.9065,300.3014 C275.9065,300.1344 275.8515,300.1344 275.1315,300.1344 L274.3013,300.1344 L274.3013,301.2424 C274.3013,302.0164 274.3563,302.0164 274.5773,302.0164 L274.9655,302.0164 C276.0725,302.0164 276.2935,301.8504 276.4045,301.6844 C276.4595,301.6294 276.4595,301.6294 276.5155,301.6294 C276.5155,301.6294 276.5705,301.6294 276.5705,301.6844 C276.5705,301.7404 276.4595,302.0164 276.4045,302.2384 Z M282.5485,298.1978 C284.3205,298.1978 284.6525,299.5808 284.6525,300.1348 C284.6525,301.2968 283.8775,302.2378 282.5485,302.2378 L280.8325,302.2378 L280.8325,302.0718 L281.1095,302.0718 C281.2205,302.0718 281.2205,302.0168 281.2205,301.9618 L281.2205,299.3048 C281.2205,298.6398 281.2205,298.4188 281.0545,298.4188 L280.6665,298.4188 L280.6665,298.1978 L282.5485,298.1978 Z M237.0464,298.1978 C237.6554,298.1978 238.3204,298.5298 238.3204,299.3048 C238.3204,299.8578 237.8214,300.4118 236.9364,300.4118 C236.7704,300.4118 236.5484,300.4118 236.3824,300.3558 L236.3824,301.1868 C236.3824,301.7958 236.3824,302.0718 236.5484,302.0718 L236.9364,302.0718 L236.9364,302.2378 L235.4414,302.2378 L235.4414,302.0718 L235.7734,302.0718 C235.8294,302.0718 235.8294,302.0168 235.8294,301.9618 L235.8294,299.3048 C235.8294,298.6398 235.8294,298.4188 235.6634,298.4188 L235.2754,298.4188 L235.2754,298.1978 L237.0464,298.1978 Z M244.5752,298.308 C245.2952,298.308 246.1252,298.917 246.1252,300.356 C246.1252,301.519 245.5712,302.183 244.7412,302.183 C243.9662,302.183 243.1362,301.574 243.1362,300.135 C243.1362,298.972 243.6892,298.308 244.5752,298.308 Z M221.3813,298.308 C222.1013,298.308 222.9313,298.917 222.9313,300.356 C222.9313,301.519 222.3773,302.183 221.5473,302.183 C220.7723,302.183 219.9423,301.574 219.9423,300.135 C219.9423,298.972 220.4953,298.308 221.3813,298.308 Z M282.5485,302.0168 C283.6555,302.0168 284.0435,301.1308 284.0435,300.4118 C284.0435,299.0278 283.1575,298.4738 282.2715,298.4738 C281.8285,298.4738 281.7735,298.4738 281.7735,298.5848 L281.7735,301.2418 C281.7735,302.0168 281.8285,302.0168 282.0505,302.0168 L282.5485,302.0168 Z M260.7386,300.5226 L260.1856,298.8066 L259.4656,300.5226 L260.7386,300.5226 Z M236.3824,298.5298 C236.3824,298.4738 236.4374,298.4738 236.6044,298.4738 C237.6554,298.4738 237.8214,299.0828 237.8214,299.4148 C237.8214,299.9128 237.3794,300.2458 236.8804,300.2458 C236.7144,300.2458 236.5484,300.1898 236.3824,300.1348 L236.3824,298.5298 Z M252.3245,300.2456 C252.8785,300.2456 253.4315,300.0236 253.4315,299.4156 C253.4315,298.8066 252.9895,298.4746 252.4905,298.4746 L252.1585,298.4746 C252.1035,298.4746 251.9925,298.4746 251.9925,298.5296 L251.9925,300.2456 L252.3245,300.2456 Z M229.2967,298.4746 L228.9647,298.4746 C228.9097,298.4746 228.7987,298.4746 228.7987,298.5296 L228.7987,300.2456 L229.1307,300.2456 C229.6847,300.2456 230.2377,300.0236 230.2377,299.4156 C230.2377,298.8066 229.7957,298.4746 229.2967,298.4746 Z M196.8592,294.9956 L284.4862,294.9956 L284.4862,294.5346 L196.8592,294.5346 L196.8592,294.9956 Z M240.7002,292.828 C243.1912,292.828 244.9072,290.89 244.9072,288.455 C244.9072,286.019 243.4682,284.359 240.9212,284.359 C238.3752,284.359 236.7152,286.351 236.7152,288.732 C236.7152,291.167 238.1542,292.828 240.7002,292.828 Z M210.4209,292.828 C212.9119,292.828 214.6279,290.89 214.6279,288.455 C214.6279,286.019 213.1889,284.359 210.6419,284.359 C208.1509,284.359 206.4359,286.351 206.4359,288.732 C206.4359,291.167 207.8749,292.828 210.4209,292.828 Z M247.5644,284.9679 L247.0104,284.9679 C246.8444,284.9679 246.7894,285.0779 246.7894,285.1889 L246.7894,289.9499 C246.7894,291.8319 248.0074,292.3299 248.9484,292.3299 C251.5494,292.3299 251.6054,290.3369 251.6054,289.3409 L251.6054,286.2959 C251.6054,285.6869 251.5494,284.9679 251.2174,284.9679 L250.5534,284.9679 L250.5534,284.5799 L252.8234,284.5799 L252.8234,284.5801 L254.5391,284.5801 L259.6871,290.8351 L259.7421,290.8351 L259.7421,286.2961 C259.7421,285.6871 259.6871,284.9671 259.3001,284.9671 L258.6351,284.9671 L258.6351,284.5801 L260.9601,284.5801 L260.9601,284.9671 L260.5171,284.9671 C260.3511,284.9671 260.1851,285.0231 260.1851,285.2441 L260.1851,292.4961 C260.1851,292.6621 260.1851,292.7171 260.1301,292.7171 C260.0741,292.7171 260.0191,292.6621 259.9081,292.6061 L259.7981,292.3851 L254.3181,285.7981 L254.2621,285.7981 L254.2621,290.8901 C254.2621,291.4991 254.3181,292.2191 254.7051,292.2191 L255.3691,292.2191 L255.3691,292.6061 L253.0441,292.6061 L253.0441,292.2191 L253.4871,292.2191 C253.6531,292.2191 253.8191,292.1641 253.8191,291.9981 L253.8191,286.4071 C253.8191,285.4101 253.7091,284.9671 253.1001,284.9671 L252.8234,284.9671 L252.8234,284.9679 L252.3804,284.9679 C252.2144,284.9679 252.1034,285.0229 252.1034,285.2439 L252.1034,289.7279 C252.1034,291.6659 250.8304,292.8279 248.8924,292.8279 C245.8484,292.8279 245.7374,290.8899 245.7374,289.5619 L245.7374,286.7389 C245.7374,285.4659 245.6824,284.9679 245.3504,284.9679 L244.6304,284.9679 L244.6304,284.5799 L247.5644,284.5799 L247.5644,284.9679 Z M217.2296,292.6061 L214.9046,292.6061 L214.9046,292.2191 L215.4026,292.2191 C215.5686,292.2191 215.6796,292.1641 215.6796,291.9981 L215.6796,286.4071 C215.6796,285.4101 215.5686,284.9671 214.9596,284.9671 L214.5726,284.9671 L214.5726,284.5801 L216.3996,284.5801 L221.6026,290.8351 L221.6026,286.2961 C221.6026,285.6871 221.6026,284.9671 221.2156,284.9671 L220.5506,284.9671 L220.5506,284.5801 L222.8756,284.5801 L222.8756,284.9671 L222.3776,284.9671 C222.2116,284.9671 222.1006,285.0231 222.1006,285.2441 L222.1006,292.4961 C222.1006,292.6621 222.1006,292.7171 221.9906,292.7171 C221.9346,292.7171 221.8796,292.6621 221.8236,292.6061 L221.6576,292.3851 L216.1776,285.7981 L216.1776,290.8901 C216.1776,291.4991 216.1776,292.2191 216.5656,292.2191 L217.2296,292.2191 L217.2296,292.6061 Z M279.5595,292.6061 L277.2345,292.6061 L277.2345,292.2191 L277.7335,292.2191 C277.8435,292.2191 278.0095,292.1641 278.0095,291.9981 L278.0095,286.4071 C278.0095,285.4101 277.8995,284.9671 277.2905,284.9671 L276.9025,284.9671 L276.9025,284.5801 L278.7295,284.5801 L283.8775,290.8351 L283.9325,290.8351 L283.9325,286.2961 C283.9325,285.6871 283.8775,284.9671 283.5455,284.9671 L282.8255,284.9671 L282.8255,284.5801 L285.1505,284.5801 L285.1505,284.9671 L284.7075,284.9671 C284.5415,284.9671 284.4315,285.0231 284.4315,285.2441 L284.4315,292.4961 C284.4315,292.6621 284.3755,292.7171 284.3205,292.7171 C284.2655,292.7171 284.2095,292.6621 284.1545,292.6061 L283.9885,292.3851 L278.5085,285.7981 L278.4525,285.7981 L278.4525,290.8901 C278.4525,291.4991 278.5085,292.2191 278.8955,292.2191 L279.5595,292.2191 L279.5595,292.6061 Z M203.1697,284.5799 C204.2767,284.5799 205.7157,285.1339 205.7157,286.7389 C205.7157,287.9009 204.8857,288.5659 203.7227,288.7869 C205.8267,291.8319 206.2687,292.2189 206.6567,292.2189 L206.9337,292.2189 L206.9337,292.6069 L205.4947,292.6069 C205.2177,292.6069 205.0517,292.6069 202.7267,288.9529 L201.8407,288.9529 L201.8407,290.4479 C201.8407,291.7759 201.8407,292.2189 202.1727,292.2189 L202.8927,292.2189 L202.8927,292.6069 L199.9587,292.6069 L199.9587,292.2189 L200.5677,292.2189 C200.6787,292.2189 200.7337,292.1639 200.7337,292.0529 L200.7337,286.7389 C200.7337,285.4659 200.7337,284.9679 200.4017,284.9679 L199.6267,284.9679 L199.6267,284.5799 L203.1697,284.5799 Z M266.4958,292.2193 C266.7168,292.2193 266.8828,292.2193 266.9388,292.0533 L270.1488,284.4693 C270.4818,284.3583 270.8138,284.3033 270.9238,284.3033 C270.9798,284.3033 271.0348,284.3583 271.0348,284.4143 C271.0348,284.5803 270.8138,284.5803 270.8138,284.8013 C270.8138,285.3553 272.3638,289.5623 272.9728,291.2783 C273.2488,292.0533 273.4148,292.2193 273.7468,292.2193 L274.0796,292.2193 L274.0796,292.2186 L274.6885,292.2186 C274.8545,292.2186 274.9095,292.1636 274.9095,292.0526 L274.9095,286.7386 C274.9095,285.4656 274.8545,284.9676 274.5226,284.9676 L273.8026,284.9676 L273.8026,284.5796 L276.7365,284.5796 L276.7365,284.9676 L276.1275,284.9676 C276.0165,284.9676 275.9615,285.0776 275.9615,285.1886 L275.9615,290.4476 C275.9615,291.7766 276.0165,292.2186 276.2935,292.2186 L277.0135,292.2186 L277.0135,292.6066 L274.0796,292.6066 L274.0796,292.6063 L271.3118,292.6063 L271.3118,292.2193 L271.9758,292.2193 C272.0868,292.2193 272.1418,292.2193 272.1418,292.1083 C272.1418,291.9973 271.8098,291.1113 271.3118,289.6173 L268.4328,289.6173 C268.1568,290.3373 267.7138,291.5543 267.7138,291.8873 C267.7138,292.1633 267.8238,292.2193 267.9908,292.2193 L268.8208,292.2193 L268.8208,292.6063 L266.3301,292.6063 L266.3301,292.6066 L262.7871,292.6066 L262.7871,292.2186 L263.7281,292.2186 C263.8941,292.2186 263.9491,292.1636 263.9491,292.0526 L263.9491,285.0226 L263.6171,285.0226 C262.1231,285.0226 261.4031,285.2996 261.2921,285.6866 C261.2921,285.7426 261.2371,285.8526 261.1261,285.8526 C261.0161,285.8526 260.9601,285.7976 260.9601,285.7426 C260.9601,285.6866 261.1811,285.0776 261.3481,284.5796 L267.6031,284.5796 C267.7691,285.0776 267.9901,285.6866 267.9901,285.7426 C267.9901,285.7976 267.8801,285.8526 267.8241,285.8526 C267.7131,285.8526 267.6581,285.7426 267.6581,285.6866 C267.5471,285.2996 266.8281,285.0226 265.3331,285.0226 L265.0011,285.0226 L265.0011,290.4476 C265.0011,291.7766 265.0561,292.2186 265.3891,292.2186 L266.3301,292.2186 L266.3301,292.2193 L266.4958,292.2193 Z M199.4609,283.6945 L198.7959,283.6945 C198.6299,283.6945 198.5749,283.8055 198.5749,283.9715 L198.5749,290.1155 C198.5749,291.6105 198.5749,292.1635 198.9619,292.1635 L199.7929,292.1635 L199.7929,292.6065 L196.4159,292.6065 L196.4159,292.1635 L197.0799,292.1635 C197.2459,292.1635 197.3019,292.0525 197.3019,291.9425 L197.3019,285.7975 C197.3019,284.3035 197.3019,283.6945 196.9139,283.6945 L196.0289,283.6945 L196.0289,283.3065 L199.4609,283.3065 L199.4609,283.6945 Z M228.2456,292.6063 L225.5326,292.6063 L225.5326,292.1633 L226.0866,292.1633 C226.2526,292.1633 226.4186,292.1083 226.4186,291.8873 L226.4186,285.4103 C226.4186,284.2473 226.3076,283.6943 225.5886,283.6943 L225.1456,283.6943 L225.1456,283.3073 L227.5256,283.3073 L231.0686,290.6133 L234.3346,283.3073 L236.3826,283.3073 L236.3826,283.6943 L235.7736,283.6943 C235.6076,283.6943 235.5526,283.8053 235.5526,283.9713 L235.5526,290.1153 C235.5526,291.6103 235.5526,292.1633 235.9396,292.1633 L236.7696,292.1633 L236.7696,292.6063 L233.3936,292.6063 L233.3936,292.1633 L234.0576,292.1633 C234.2236,292.1633 234.2786,292.0533 234.2786,291.9423 L234.2786,284.6903 L234.2236,284.6903 L230.9576,292.4403 C230.9026,292.5513 230.9026,292.5513 230.6806,292.5513 C230.6256,292.5513 230.5706,292.3853 230.4596,292.2193 L227.0276,284.8563 L226.9726,284.9123 L226.9726,290.6133 C226.9726,291.2783 227.0276,292.1633 227.4706,292.1633 L228.2456,292.1633 L228.2456,292.6063 Z M175.7685,290.337 L176.2665,290.946 L176.3215,290.946 L175.8795,290.116 L176.2665,289.562 L177.0965,290.614 L176.4325,289.174 L176.7645,288.676 L177.8715,290.171 L176.9315,288.289 L177.2635,287.735 L178.4805,289.451 L177.4295,287.348 L177.7615,286.849 L179.0895,288.676 L177.9825,286.517 L178.2595,286.019 L179.4775,287.68 L178.4805,285.576 L178.7575,285.134 L180.1415,286.905 L178.9795,284.635 L179.2555,284.248 L180.7505,286.185 L179.5325,283.75 L179.7535,283.362 L181.3595,285.576 L180.0305,282.864 L180.2525,282.532 L182.0235,284.912 L180.5845,281.923 L180.8055,281.646 L182.9095,284.691 L181.0825,280.982 L181.3035,280.705 L183.7395,284.414 L181.6365,279.986 L181.8575,279.709 L184.6255,284.137 L182.1895,279.045 L182.3555,278.823 L185.4555,283.694 L182.7435,278.103 L182.9095,277.882 L186.0095,282.864 L183.2415,277.218 L183.9615,276 L193.3715,292.441 L174.6065,292.496 L175.7685,290.337 Z M210.3659,284.746 C211.8599,284.746 213.5759,285.964 213.5759,288.842 C213.5759,291.112 212.4139,292.441 210.6979,292.441 C209.2029,292.441 207.4869,291.223 207.4869,288.344 C207.4869,286.075 208.6499,284.746 210.3659,284.746 Z M240.6452,284.746 C242.1392,284.746 243.8002,285.964 243.8002,288.842 C243.8002,291.112 242.6372,292.441 240.9772,292.441 C239.4822,292.441 237.7662,291.223 237.7662,288.344 C237.7662,286.075 238.9292,284.746 240.6452,284.746 Z M271.0908,289.1743 L269.9828,285.7973 L268.5998,289.1743 L271.0908,289.1743 Z M202.7267,285.0229 L202.1177,285.0229 C202.0067,285.0229 201.8407,285.0779 201.8407,285.2439 L201.8407,288.5659 L202.4497,288.5659 C203.5567,288.5659 204.6637,288.1779 204.6637,286.9599 C204.6637,285.7979 203.7227,285.0229 202.7267,285.0229 Z"></path></g></g>
</svg>