<svg width="100" height="46" viewBox="0 0 100 46" xmlns="http://www.w3.org/2000/svg"><path d="M71.986 41.602v1.962c0 .491.356.786.847.786.449 0 .865-.236.865-.846v-1.902h.852v1.937c0 1.131-.772 1.522-1.707 1.522-.991 0-1.708-.461-1.708-1.517v-1.942h.851zm15.764 1.707c0-.821-.666-1.752-1.952-1.752-1.287 0-1.958.926-1.958 1.752 0 .871.706 1.752 1.958 1.752 1.226 0 1.952-.876 1.952-1.752zm-22.569 0c0-.821-.666-1.752-1.952-1.752-1.287 0-1.957.926-1.957 1.752 0 .871.706 1.752 1.957 1.752 1.226 0 1.952-.876 1.952-1.752zm31.992-1.487c-.431-.185-.776-.265-1.156-.265-.791 0-1.302.39-1.302.981 0 1.226 1.737 1.021 1.737 1.582 0 .2-.175.315-.501.315-.375 0-.676-.115-1.166-.441v.736c.34.175.635.33 1.232.33.76 0 1.311-.38 1.311-1.036 0-1.191-1.737-1.046-1.737-1.561 0-.171.195-.281.501-.281.29 0 .585.086 1.081.306v-.666zm-37.63 0c-.43-.185-.776-.265-1.156-.265-.791 0-1.302.39-1.302.981 0 1.226 1.737 1.021 1.737 1.582 0 .2-.175.315-.501.315-.375 0-.675-.115-1.165-.441v.736c.34.175.635.33 1.231.33.761 0 1.311-.38 1.311-1.036 0-1.191-1.737-1.046-1.737-1.561 0-.171.196-.281.501-.281.29 0 .586.086 1.081.306v-.666zm21.662 3.194h.851v-3.414h-.851v3.414zm-37.242 0h.85v-3.414h-.85v3.414zm-3.768-2.148l1.096-1.266h.741v3.414h-.851v-2.133l-.921 1.072h-.13l-.921-1.072v2.133h-.851v-3.414h.741l1.096 1.266zm51.922.821v-2.087h.852v3.414h-.716l-1.887-2.188v2.188h-.851v-3.414h.781l1.821 2.087zm-14.691-1.462h-1.237v-.625h3.324v.625h-1.237v2.789h-.85v-2.789zm-47.839-.625h2.352v.625h-1.502v.762h1.502v.625h-1.502v1.402h-.85v-3.414zm37.355 0h.85v2.788h1.752v.626h-2.602v-3.414zm-20.2 0h.851v2.788h1.752v.626h-2.603v-3.414zm4.675 1.071l.746-1.071h1.027l-1.347 1.817v1.597h-.851v-1.597l-1.347-1.817h1.032l.74 1.071zm-17.101-1.07h.986l1.516 3.413h-.915l-.281-.676h-1.526l-.255.676h-.902l1.377-3.413zm52.558 1.706c0 .626-.431 1.041-1.076 1.041-.651 0-1.081-.415-1.081-1.041 0-.626.43-1.041 1.081-1.041.645 0 1.076.415 1.076 1.041zm-22.569 0c0 .626-.43 1.041-1.076 1.041-.651 0-1.081-.415-1.081-1.041 0-.626.43-1.041 1.081-1.041.646 0 1.076.415 1.076 1.041zm-28.933.436l-.551-1.327-.5 1.327h1.051zm63.26-.396c.495 0 .917-.385.917-.911 0-.521-.422-.905-.917-.905-.5 0-.922.384-.922.905 0 .526.422.911.922.911zm-.74-.911c0-.43.324-.754.74-.754.41 0 .735.324.735.754 0 .438-.325.759-.735.759-.416 0-.74-.321-.74-.759zm.787-.521c.248 0 .371.091.371.298 0 .187-.118.269-.272.288l.298.461h-.178l-.276-.454h-.183v.454h-.158v-1.047h.398zm-.049.459c.133 0 .254-.01.254-.171 0-.129-.118-.153-.228-.153h-.217v.324h.191zm-72.529-5.762v-.222c.446-.065.735-.185.884-.37.14-.186.207-.612.215-1.297v-8.889c0-.343-.042-.593-.125-.759-.073-.167-.264-.251-.578-.251l-.182.019-.19.028v-.334c.24-.074.538-.166.893-.287.355-.111.603-.194.744-.25l.793-.277.017.064v5.686c.347-.444.653-.769.925-.981.48-.371 1-.556 1.571-.556.892 0 1.496.416 1.826 1.259.174.445.257 1.028.265 1.75v3.778c0 .648.066 1.074.198 1.278.132.194.405.324.835.389v.259h-3.579v-.259c.479-.074.786-.195.926-.38.132-.176.199-.602.207-1.287v-3.75c0-.593-.092-1.074-.273-1.454-.174-.37-.504-.555-1.009-.555-.429 0-.843.166-1.248.518-.396.343-.595.565-.603.676v4.565c0 .685.066 1.111.215 1.297.141.166.446.287.918.37v.259h-3.628c.114.262.172.571.175.926 0 .972-.487 1.75-1.462 2.334-.967.574-1.943.861-2.943.87-.9 0-1.611-.204-2.149-.62-.529-.408-.793-.834-.793-1.287 0-.223.066-.435.207-.658.14-.204.413-.518.834-.944l.546-.547.099-.111c-.248-.111-.438-.213-.57-.324-.215-.185-.323-.398-.331-.657 0-.223.091-.472.281-.75.19-.278.595-.723 1.223-1.343-.496-.185-.884-.509-1.173-.991-.273-.472-.406-1-.413-1.602 0-.722.256-1.407.769-2.056.512-.648 1.23-.972 2.173-.972.397 0 .834.102 1.331.324.479.204.942.306 1.396.315l.521-.009.512-.019h.099v.75h-1.429c.098.26.173.482.231.676.091.352.132.686.141 1.019 0 .704-.257 1.352-.786 1.944-.512.584-1.206.871-2.099.88-.132 0-.38-.028-.744-.083-.157 0-.363.148-.636.454-.257.296-.38.537-.389.74 0 .195.191.334.579.435.248.056.529.084.843.093 1.413 0 2.372.083 2.885.269.507.176.858.477 1.056.907zm-5.164 2.825c.521.194 1.116.286 1.793.296.91 0 1.654-.176 2.232-.537.57-.352.851-.788.859-1.306 0-.407-.231-.676-.694-.824-.281-.074-.818-.12-1.628-.139-.199 0-.413-.009-.645-.028-.223 0-.429-.009-.62-.028-.115 0-.305-.018-.587-.074-.264-.037-.462-.074-.603-.111-.066 0-.223.195-.487.584-.265.389-.397.75-.397 1.092 0 .519.257.871.777 1.075zm56.771-10.195c.694-.852 1.586-1.278 2.693-1.278 1.092 0 1.993.398 2.712 1.204.71.796 1.066 1.861 1.074 3.204 0 1.222-.347 2.287-1.041 3.204-.694.907-1.587 1.361-2.695 1.361-1.057 0-1.95-.436-2.685-1.306-.728-.87-1.092-1.963-1.1-3.278 0-1.222.347-2.259 1.042-3.111zm-24.141 0c.694-.852 1.586-1.278 2.694-1.278 1.091 0 1.992.398 2.711 1.204.711.796 1.066 1.861 1.075 3.204 0 1.222-.347 2.287-1.042 3.204-.694.907-1.587 1.361-2.694 1.361-1.058 0-1.951-.436-2.686-1.306-.728-.87-1.092-1.963-1.1-3.278 0-1.222.347-2.259 1.042-3.111zm39.015 7.482h-.215v-2.991h.273c.124.704.289 1.241.512 1.621.38.685.942 1.027 1.695 1.037.413 0 .735-.121.975-.38s.355-.593.363-1c0-.259-.066-.509-.206-.75-.132-.241-.372-.472-.728-.704l-.925-.593c-.678-.407-1.174-.814-1.496-1.231-.314-.407-.471-.889-.48-1.463 0-.685.215-1.25.661-1.704.439-.444.993-.667 1.662-.667.289 0 .603.056.958.186.348.12.546.176.596.185.099 0 .165-.009.215-.046l.116-.148h.198l.058 2.583h-.256c-.107-.593-.257-1.056-.447-1.398-.339-.611-.827-.917-1.479-.926-.38 0-.678.129-.91.398-.215.259-.322.565-.33.935 0 .565.38 1.065 1.141 1.519l1.09.657c1.174.713 1.761 1.547 1.761 2.5 0 .723-.24 1.315-.736 1.788-.479.462-1.116.694-1.909.694-.331 0-.702-.055-1.124-.185-.413-.121-.661-.176-.744-.185-.066 0-.124.027-.174.083l-.115.185zm-56.557-7.945l-.016 5.333c0 .463.032.815.107 1.065.132.426.388.639.777.639.198 0 .363-.046.512-.157.149-.102.314-.269.504-.5l.215.203-.182.278c-.281.426-.579.732-.909.917-.314.176-.62.259-.925.268-.645 0-1.083-.324-1.323-.972-.124-.352-.182-.833-.19-1.463v-5.611h-.901l-.066-.056-.017-.074.034-.139.239-.24c.381-.352.653-.63.818-.852.166-.223.562-.797 1.191-1.741l.124.018.024.139v2.278h1.67v.667h-1.686zm10.314 7.871h-4.702v-.343c.661-.074 1.074-.204 1.24-.408.165-.194.247-.703.247-1.527v-8.214c0-.676-.09-1.111-.281-1.324-.182-.204-.578-.324-1.206-.38v-.352h4.702v.352c-.619.047-1.024.167-1.215.38-.181.204-.272.639-.28 1.324v3.695h5.132v-3.695c0-.676-.091-1.111-.273-1.324-.182-.204-.587-.324-1.214-.38v-.352h4.702v.352c-.62.047-1.025.167-1.215.38-.182.204-.272.639-.272 1.324v8.436c0 .685.09 1.13.272 1.333.182.185.587.306 1.215.38v.343h-4.702v-.343c.661-.074 1.074-.204 1.239-.408.165-.194.248-.703.248-1.527v-3.686h-5.132v3.908c0 .685.091 1.13.28 1.333.182.195.588.315 1.215.38v.343zm17.707 0h-4.075v-.306c.505-.046.835-.139 1.008-.296.166-.149.248-.472.248-.972v-4.177c0-.611-.049-1.046-.156-1.306-.099-.259-.281-.388-.554-.398l-.223.028-.281.056v-.306c.314-.12.636-.24.966-.379l.687-.278c.273-.111.554-.241.851-.398l.066.046.017.194v1.519c.347-.546.685-.972 1.016-1.287.331-.306.67-.454 1.025-.463.281 0 .504.092.686.287.174.185.256.417.264.704 0 .25-.066.463-.206.639-.132.166-.298.25-.504.259-.207 0-.414-.102-.636-.324-.207-.213-.373-.315-.497-.324-.19 0-.42.176-.711.527-.281.343-.421.695-.421 1.075v4.176c0 .528.108.898.331 1.111.215.204.578.296 1.099.287v.306zm-50.19 0h-4.075v-.306c.505-.046.835-.139 1.008-.296.166-.149.248-.472.248-.972v-4.177c0-.611-.049-1.046-.157-1.306-.098-.259-.281-.388-.553-.398l-.223.028-.281.056v-.306c.314-.12.636-.24.966-.379l.687-.278c.272-.111.553-.241.851-.398l.066.046.017.194v1.519c.347-.546.685-.972 1.016-1.287.331-.306.67-.454 1.025-.463.281 0 .504.092.686.287.173.185.256.417.265.704 0 .25-.066.463-.207.639-.133.166-.298.25-.505.259-.206 0-.413-.102-.636-.324-.206-.213-.372-.315-.496-.324-.19 0-.421.176-.711.527-.281.343-.421.695-.421 1.075v4.176c0 .528.107.898.331 1.111.214.204.578.296 1.099.287v.306zm56.719-6.269h-.289l.033-2.241h5.918v.222l-4.587 7.704h2.339c.81 0 1.322-.111 1.537-.342.215-.232.422-.797.637-1.704l.289.065-.232 2.565h-6.405v-.213l4.521-7.732h-2.215c-.595 0-.983.111-1.166.342-.181.223-.305.667-.38 1.334zm-64.86 6.269h-5.521v-.342c.677-.037 1.115-.149 1.322-.352.198-.195.298-.649.306-1.362v-8.435c0-.695-.099-1.139-.306-1.343-.198-.204-.636-.324-1.322-.361v-.352h4.744c1.355 0 2.43.241 3.223.731.793.482 1.19 1.315 1.199 2.519 0 .889-.273 1.565-.835 2.038-.315.259-.786.472-1.414.657.777.203 1.439.556 1.992 1.056.546.481.818 1.166.827 2.055 0 1.482-.612 2.5-1.835 3.056-.645.287-1.438.426-2.38.435zm81.892 0h-3.612v-.259c.388-.056.661-.157.818-.324.157-.167.231-.528.24-1.102v-4.695c0-.389-.034-.666-.099-.833-.1-.232-.315-.343-.645-.352l-.156.009-.191.028v-.324c.223-.074.752-.259 1.603-.574l.777-.287.066.046.017.13v1.361c.504-.528.901-.889 1.19-1.093.43-.296.876-.444 1.339-.453.372 0 .711.12 1.024.361.596.462.893 1.296.893 2.509v4.324c0 .445.074.76.24.964.157.194.421.296.801.305v.259h-3.528v-.259c.396-.056.677-.176.842-.37.158-.186.232-.593.24-1.232v-3.954c0-.528-.082-.963-.264-1.315-.174-.352-.496-.528-.976-.528-.322 0-.652.121-.991.371-.182.139-.422.37-.728.703v5.186c0 .445.083.741.265.898.173.148.446.223.835.241v.259zm-17.915 0h-4.017v-.259c.587-.056.959-.167 1.115-.333.15-.167.224-.612.232-1.334v-4.417c0-.398-.025-.676-.075-.833-.082-.25-.256-.37-.52-.38l-.181.019c-.05.009-.216.055-.497.148v-.287l.356-.13c.958-.351 1.628-.611 2.016-.796.149-.074.248-.111.298-.111l.016.139v6.648c0 .704.075 1.139.223 1.324.149.176.488.287 1.034.343v.259zm-50.19 0h-4.017v-.259c.587-.056.958-.167 1.116-.333.149-.167.223-.612.231-1.334v-4.417c0-.398-.024-.676-.074-.833-.083-.25-.256-.37-.521-.38l-.182.019c-.049.009-.215.055-.496.148v-.287l.356-.13c.958-.351 1.628-.611 2.017-.796.148-.074.247-.111.297-.111l.017.139v6.648c0 .704.074 1.139.223 1.324.149.176.487.287 1.033.343v.259zm35.394-7.648c-.545.556-.818 1.519-.826 2.908 0 1.092.215 2.111.661 3.074.446.944 1.058 1.417 1.851 1.426.612 0 1.083-.315 1.422-.954.331-.63.496-1.463.504-2.5 0-1.065-.207-2.065-.636-3.019-.422-.944-1.033-1.417-1.843-1.417-.43 0-.802.158-1.133.482zm24.141 0c-.546.556-.818 1.519-.826 2.908 0 1.092.214 2.111.661 3.074.446.944 1.058 1.417 1.851 1.426.612 0 1.083-.315 1.422-.954.33-.63.496-1.463.504-2.5 0-1.065-.207-2.065-.636-3.019-.422-.944-1.034-1.417-1.843-1.417-.43 0-.802.158-1.133.482zm-71.927 6.399c.579-.37.868-1.093.876-2.167 0-1.055-.338-1.778-1.024-2.176-.678-.389-1.546-.583-2.612-.583h-.496l-.314-.009v4.722c0 .324.082.537.248.639.165.093.545.139 1.149.139.859 0 1.578-.185 2.173-.565zm16.454-2.324c.331-.297.496-.805.496-1.547 0-.583-.132-1.24-.405-1.981-.265-.732-.703-1.093-1.331-1.102-.537 0-.909.287-1.115.861-.099.297-.149.667-.158 1.121 0 .75.158 1.426.488 2.027.323.593.744.889 1.265.899.297 0 .545-.093.76-.278zm-16.999-3.667c.711-.371 1.066-1.028 1.074-1.991 0-1.13-.413-1.889-1.239-2.287-.455-.213-1.149-.315-2.083-.324-.348 0-.562.027-.653.102-.083.065-.124.25-.124.555v4.278l1.612-.027c.562-.01 1.033-.112 1.413-.306zm10.225-4.353c.166-.185.364-.278.612-.287.231 0 .43.093.603.287.166.185.248.408.257.685 0 .26-.083.482-.257.685-.165.186-.363.278-.603.278s-.438-.092-.612-.278c-.165-.185-.248-.407-.248-.685 0-.259.083-.481.248-.685zm50.19 0c.165-.185.363-.278.611-.287.232 0 .43.093.604.287.165.185.248.408.255.685 0 .26-.082.482-.255.685-.165.186-.364.278-.604.278-.239 0-.437-.092-.611-.278-.165-.185-.248-.407-.248-.685 0-.259.083-.481.248-.685zm-46.498-3.959c5.216 1.492 8.616-1.222 8.616-1.222 3.927.535 18.479 1.269 12.645-1.538-5.597-2.693-31.978-.305-21.261 2.76zm13.067-13.734c.651.221 1.252.577 1.805 1.068.908.393 1.399 1.314 2.038 2.038.159.245.196.601.54.712.429.024.883.122 1.08.576-.148.602.675.442.601.995.013.454-.172.81-.208 1.24.147.699.479 1.559.012 2.209-.626.479-1.351.418-2.087.577-.405-.184-1.068-.257-1.105-.847.037-.38.43-.368.565-.675-.16-.417.368-.773-.098-1.092-.209-.455-.025-1.056-.491-1.436-.086-.344-.516-.442-.479-.848-.245-.356-.675-.466-.835-.822-.503-.405-.933-.798-1.497-1.142-.982.209-1.805-.662-2.811-.442-1.191-.159-2.173.553-3.217.909-1.043.515-1.779 1.301-2.479 2.246-.295.368-.344.859-.639 1.203-.122.283-.061.565-.331.774-.123.552-.467 1.006-.442 1.608-.184.49-.724.601-1.142.761-.454-.086-.883.122-1.239-.172-.258-.049-.602-.123-.737-.393.062-.638.16-1.264.307-1.878l.037.061c.049-.049-.013-.098-.025-.135.627-2.614 2.198-4.959 4.579-6.456.921-.418 1.78-1.069 2.811-1.167.945-.159 1.928-.344 2.946-.208l2.541.736zm14.473 6.506c.025.086.135.159.061.258-.699.417-1.386.319-2.209.442-1.473.196-2.799.515-4.346.601-.159-.061-.343-.123-.417-.307 0-.184-.037-.429.172-.466 1.73-.528 3.658-.614 5.401-1.044.54-.036.946.283 1.338.516zm-33.009-4.824c.724.589 1.633.786 2.394 1.338.258.061.503.184.736.331.884.136 1.67.528 2.517.762.172.073.135.245.11.405-.11.331-.662.294-.675.736-.257.258-.712.061-1.031.172-.687-.577-1.682-.528-2.516-.798-1.044-.491-2.124-.945-3.155-1.412-.135-.135-.184-.306-.221-.478.295-.454.675-.994 1.228-1.154l.613.098zm27.706-.614c.147.197.258.43.208.712-.638.552-1.313.761-2.012 1.142-.368.257-.786.613-1.277.564-.356-.135-.27-.54-.319-.81.994-.638 2.111-1.154 3.167-1.731.074.049.233-.024.233.123zm-22.181-5.278c.553-.368.982.27 1.497.319.467.295.81.97 1.473.847.111.16-.036.319.038.442.343.282.674.724.564 1.203-.528.614-1.105 1.08-1.78 1.362-.553.209-.982-.159-1.338-.503-.086-.859-1.129-.945-1.461-1.669-.196-.197-.454-.258-.699-.344-.43-.442-.798-.884-1.375-1.056-.074-.122-.197-.282-.099-.442.319-.405.933-.159 1.29-.503.711-.331 1.215.418 1.89.344zm16.13-2.443c.148.246.209.589.099.859-.406.332-.148.958-.528 1.277-.258 1.056-.847 1.976-1.081 3.044-.049.184-.245.234-.331.368-.271 0-.503-.196-.638-.441-.16-.663.38-1.166.626-1.731.417-1.068.982-2.075 1.08-3.278.061-.098.134-.221.27-.233.209.025.344.025.503.135zm-8.937 1.227c.393.418.553.946.933 1.351.037.478.675.847.197 1.325-.136.246-.356.013-.504-.024-.38-.356-.491-.859-.822-1.252-.504-.81-1.019-1.633-1.657-2.369-.184-.16-.197-.418-.295-.626.074-.111.062-.307.233-.344 1.117.024 1.203 1.301 1.915 1.939z" fill="#686879"/></svg>