<?xml version="1.0" encoding="UTF-8"?>
<svg width="108px" height="24px" viewBox="0 0 108 24" xmlns="http://www.w3.org/2000/svg"><g stroke="none" stroke-width="1" fill="none" fill-rule="evenodd"><g transform="translate(-419.000000, -478.000000)" fill="#686879">
<path d="M517.6489,498.076525 C517.6489,497.518325 517.7499,497.016725 517.952,496.571625 C518.154,496.126525 518.4341,495.748525 518.7923,495.437725 C519.151,495.126825 519.575,494.888425 520.067,494.722425 C520.558,494.556325 521.093,494.473325 521.672,494.473325 C522.223,494.473325 522.705,494.559925 523.118,494.733025 C523.532,494.906025 523.871,495.105625 524.138,495.331725 L523.49,495.893425 C523.251,495.695625 522.987,495.538425 522.698,495.421825 C522.409,495.305225 522.071,495.246925 521.685,495.246925 C521.254,495.246925 520.863,495.312325 520.514,495.443025 C520.165,495.573725 519.867,495.760925 519.619,496.004725 C519.371,496.248425 519.178,496.543425 519.04,496.889525 C518.9026,497.235725 518.8337,497.624325 518.8337,498.055325 C518.8337,498.493325 518.9003,498.887225 519.033,499.236925 C519.167,499.586625 519.353,499.885125 519.591,500.132425 C519.83,500.379625 520.122,500.570425 520.466,500.704625 C520.811,500.838925 521.199,500.906025 521.63,500.906025 C522.071,500.906025 522.455,500.838925 522.781,500.704625 C523.107,500.570425 523.417,500.379625 523.711,500.132425 L524.358,500.672825 C524,500.990825 523.596,501.238025 523.146,501.414725 C522.696,501.591325 522.181,501.679625 521.603,501.679625 C521.033,501.679625 520.508,501.598425 520.025,501.435925 C519.543,501.273425 519.125,501.038525 518.7717,500.731125 C518.4181,500.423825 518.1425,500.045825 517.9451,499.597225 C517.7476,499.148625 517.6489,498.641725 517.6489,498.076525 Z M434.1069,498.076525 C434.1069,497.518325 434.2079,497.016725 434.41,496.571625 C434.612,496.126525 434.8922,495.748525 435.2504,495.437725 C435.6085,495.126825 436.0333,494.888425 436.5247,494.722425 C437.0161,494.556325 437.5511,494.473325 438.1297,494.473325 C438.6808,494.473325 439.1629,494.559925 439.5762,494.733025 C439.9895,494.906025 440.3294,495.105625 440.5957,495.331725 L439.9482,495.893425 C439.7094,495.695625 439.4454,495.538425 439.1561,495.421825 C438.8667,495.305225 438.5292,495.246925 438.1435,495.246925 C437.7118,495.246925 437.3215,495.312325 436.9724,495.443025 C436.6234,495.573725 436.3249,495.760925 436.077,496.004725 C435.829,496.248425 435.6361,496.543425 435.4983,496.889525 C435.3606,497.235725 435.2917,497.624325 435.2917,498.055325 C435.2917,498.493325 435.3583,498.887225 435.4914,499.236925 C435.6246,499.586625 435.8106,499.885125 436.0494,500.132425 C436.2882,500.379625 436.5798,500.570425 436.9242,500.704625 C437.2686,500.838925 437.6567,500.906025 438.0884,500.906025 C438.5292,500.906025 438.9127,500.838925 439.2387,500.704625 C439.5648,500.570425 439.8747,500.379625 440.1686,500.132425 L440.8161,500.672825 C440.4579,500.990825 440.0538,501.238025 439.6038,501.414725 C439.1538,501.591325 438.6394,501.679625 438.0608,501.679625 C437.4914,501.679625 436.9656,501.598425 436.4834,501.435925 C436.0012,501.273425 435.5833,501.038525 435.2297,500.731125 C434.8761,500.423825 434.6006,500.045825 434.4031,499.597225 C434.2056,499.148625 434.1069,498.641725 434.1069,498.076525 Z M422.5482,500.037025 C422.8697,500.298425 423.2485,500.508625 423.6848,500.667525 C424.1211,500.826525 424.5734,500.906025 425.0418,500.906025 C425.6388,500.906025 426.1026,500.801825 426.4333,500.593425 C426.7639,500.384925 426.9292,500.111225 426.9292,499.772125 C426.9292,499.595425 426.8902,499.445325 426.8121,499.321725 C426.734,499.198025 426.6284,499.092125 426.4953,499.003725 C426.3621,498.915425 426.2036,498.835925 426.02,498.765325 C425.8363,498.694625 425.6388,498.620525 425.4276,498.542725 L424.1325,498.108325 C423.9213,498.037625 423.7055,497.952825 423.485,497.853925 C423.2646,497.755025 423.0671,497.634925 422.8926,497.493625 C422.7181,497.352325 422.5758,497.184525 422.4656,496.990225 C422.3553,496.795925 422.3002,496.571625 422.3002,496.317325 C422.3002,496.055925 422.3714,495.812125 422.5138,495.586125 C422.6561,495.360025 422.8536,495.163925 423.1062,494.997925 C423.3588,494.831925 423.6572,494.702925 424.0017,494.611125 C424.3461,494.519225 424.7249,494.473325 425.1382,494.473325 C425.6801,494.473325 426.1807,494.552825 426.6399,494.711825 C427.0991,494.870725 427.4895,495.077425 427.8109,495.331725 L427.191,495.904025 C426.9154,495.699125 426.6101,495.538425 426.2748,495.421825 C425.9396,495.305225 425.5607,495.246925 425.1382,495.246925 C424.6331,495.246925 424.2267,495.337025 423.919,495.517225 C423.6113,495.697325 423.4575,495.946425 423.4575,496.264325 C423.4575,496.433925 423.5011,496.576925 423.5884,496.693525 C423.6756,496.810125 423.7927,496.912525 423.9397,497.000825 C424.0866,497.089125 424.2474,497.166825 424.4219,497.234025 C424.5964,497.301125 424.7755,497.362925 424.9591,497.419425 L426.2404,497.843325 C426.4975,497.928125 426.7409,498.025225 426.9705,498.134725 C427.2002,498.244325 427.3976,498.371425 427.5629,498.516325 C427.7283,498.661125 427.8591,498.830625 427.9556,499.024925 C428.052,499.219225 428.1002,499.443525 428.1002,499.697925 C428.1002,499.973425 428.0291,500.231325 427.8867,500.471525 C427.7443,500.711725 427.54,500.921925 427.2736,501.102025 C427.0073,501.282225 426.6858,501.423525 426.3093,501.525925 C425.9327,501.628425 425.5056,501.679625 425.028,501.679625 C424.3943,501.679625 423.8065,501.587825 423.2646,501.404125 C422.7227,501.220425 422.2543,500.969625 421.8594,500.651625 L422.5482,500.037025 Z M510.0717,501.552425 L511.2152,501.552425 L511.2152,494.600525 L510.0717,494.600525 L510.0717,501.552425 Z M504.2717,495.342325 L500.2076,495.342325 L500.2076,497.695025 L503.6517,497.695025 L503.6517,498.436825 L500.2076,498.436825 L500.2076,501.552425 L499.0641,501.552425 L499.0641,494.600525 L504.2717,494.600525 L504.2717,495.342325 Z M490.6878,501.552425 L491.8313,501.552425 L491.8313,494.600525 L490.6878,494.600525 L490.6878,501.552425 Z M484.9981,495.342325 L482.2703,495.342325 L482.2703,501.552425 L481.113,501.552425 L481.113,495.342325 L478.3852,495.342325 L478.3852,494.600525 L484.9981,494.600525 L484.9981,495.342325 Z M467.4879,501.552425 L466.3995,501.552425 L466.3995,494.600525 L467.5843,494.600525 L470.8494,498.966625 L471.8275,500.407925 L471.8826,500.407925 C471.8551,500.054725 471.8252,499.689025 471.7931,499.311125 C471.7609,498.933125 471.7449,498.560425 471.7449,498.193025 L471.7449,494.600525 L472.8332,494.600525 L472.8332,501.552425 L471.6484,501.552425 L468.3696,497.175725 L467.3914,495.745025 L467.3363,495.745025 C467.3731,496.098325 467.4075,496.456825 467.4396,496.820725 C467.4718,497.184525 467.4879,497.550125 467.4879,497.917525 L467.4879,501.552425 Z M460.2826,495.342325 L456.2185,495.342325 L456.2185,497.525425 L459.6489,497.525425 L459.6489,498.277825 L456.2185,498.277825 L456.2185,500.800025 L460.4204,500.800025 L460.4204,501.552425 L455.075,501.552425 L455.075,494.600525 L460.2826,494.600525 L460.2826,495.342325 Z M446.8366,501.552425 L447.9801,501.552425 L447.9801,494.600525 L446.8366,494.600525 L446.8366,501.552425 Z M514.265,487.327325 C514.2632,487.343525 514.029,489.521225 515.6765,489.521225 C517.0434,489.521225 517.0998,488.177125 517.0998,488.177125 L519.95,488.177125 C519.95,488.177125 519.775,491.253925 515.7135,491.253925 C511.6524,491.253925 511.3396,488.575525 511.3396,486.518725 C511.3396,484.461825 512.445,482.194925 515.7163,482.194925 C518.9876,482.194925 520.009,484.112825 520.009,487.327325 L514.265,487.327325 Z M442.23,487.327325 C442.2277,487.348425 441.9958,489.521225 443.6415,489.521225 C445.0083,489.521225 445.0648,488.177125 445.0648,488.177125 L447.9154,488.177125 C447.9154,488.177125 447.7396,491.253925 443.6785,491.253925 C439.6173,491.253925 439.3046,488.575525 439.3046,486.518725 C439.3046,484.461825 440.41,482.194925 443.6813,482.194925 C446.9525,482.194925 447.9743,484.112825 447.9743,487.327325 L442.23,487.327325 Z M501.2383,485.050325 L498.3705,485.050325 C498.3919,484.886325 498.4645,483.970225 497.4143,483.970225 C496.4358,483.970225 496.5519,484.661525 496.5519,484.875425 C496.5519,485.089225 496.7775,485.272125 497.3455,485.436225 C497.9135,485.600225 499.2815,485.943225 499.8999,486.185125 C500.5183,486.427025 501.4012,487.061625 501.4012,488.356525 C501.4012,489.651325 500.6553,491.224825 497.5247,491.224825 C494.3942,491.224825 493.622,490.167225 493.622,488.210825 C493.622,488.204725 493.6221,488.198825 493.6221,488.192825 L496.4965,488.192825 C496.4863,488.282725 496.3754,489.449825 497.4844,489.449825 C498.6377,489.449825 498.5229,488.665725 498.5229,488.665725 C498.5229,488.665725 498.6187,488.086025 497.6322,487.729225 C496.7059,487.394125 493.6452,487.024325 493.6452,484.875425 C493.6452,482.726425 495.7651,482.244925 497.5596,482.244925 C499.2242,482.244925 501.2388,482.825125 501.2388,485.000325 C501.2388,485.017225 501.2387,485.033725 501.2383,485.050325 Z M474.5383,482.244925 C476.9999,482.244925 479.0809,483.616125 479.0809,486.634925 C479.0809,489.653725 477.522,491.224825 474.4193,491.224825 C471.3166,491.224825 469.8134,489.332325 469.8134,486.698825 C469.8134,484.065325 471.2805,482.244925 474.5383,482.244925 Z M451.6889,491.024825 L448.6917,491.024825 L448.6917,483.042425 C448.6917,483.042425 448.7036,482.697425 448.6382,482.465425 C448.6355,482.455725 451.6889,482.465425 451.6889,482.465425 C451.6889,482.465425 451.7389,482.672925 451.7389,483.206525 C451.7389,483.400125 451.7379,483.685325 451.7363,484.033625 C452.0991,483.190725 452.6093,482.372825 454.4416,482.372825 L454.4572,482.372825 L454.4572,484.933825 C454.2047,484.915525 453.8779,484.910425 453.5176,484.950325 C452.7303,485.037825 451.7389,485.384125 451.7389,487.002625 C451.7389,487.157825 451.7305,487.273225 451.7159,487.354025 C451.7029,489.234325 451.689,491.004825 451.6889,491.024825 Z M523.822,491.024825 L520.825,491.024825 L520.825,483.042425 C520.825,483.042425 520.836,482.697425 520.771,482.465425 C520.768,482.455725 523.822,482.465425 523.822,482.465425 C523.822,482.465425 523.872,482.672925 523.872,483.206525 C523.872,483.400125 523.871,483.685325 523.869,484.033625 C524.232,483.190725 524.742,482.372825 526.574,482.372825 L526.59,482.372825 L526.59,484.933825 C526.338,484.915525 526.011,484.910425 525.65,484.950325 C524.863,485.037825 523.872,485.384125 523.872,487.002625 C523.872,487.157825 523.863,487.273225 523.849,487.354025 C523.836,489.236725 523.822,491.009425 523.822,491.024825 Z M505.1496,491.024825 L502.0999,491.024825 L502.0999,478.725925 L505.1496,478.725925 L505.1496,483.338225 C505.6813,482.695625 506.492,482.191025 507.7218,482.191025 C509.1964,482.191025 510.1678,482.963325 510.5306,484.165025 C510.7209,484.795125 510.6369,486.329125 510.6369,487.861525 C510.6369,490.143425 510.7875,491.012425 510.7897,491.024825 L507.6471,491.024825 L507.6471,486.520825 C507.6471,485.628225 507.741,484.095025 506.3816,484.095025 C505.3569,484.095025 505.1763,485.081725 505.1496,485.567425 L505.1496,491.024825 Z M433.0987,491.024825 L430.049,491.024825 L430.049,478.725925 L433.0987,478.725925 L433.0987,483.338225 C433.6304,482.695625 434.4411,482.191025 435.6709,482.191025 C437.1456,482.191025 438.1169,482.963325 438.4797,484.165025 C438.67,484.795125 438.586,486.329125 438.586,487.861525 C438.586,490.145825 438.737,491.014225 438.7388,491.024825 L435.5963,491.024825 L435.5963,486.520825 C435.5963,485.628225 435.6901,484.095025 434.3307,484.095025 C433.306,484.095025 433.1254,485.081725 433.0987,485.567425 L433.0987,491.024825 Z M429.349,481.025725 L425.7494,481.025725 L425.7494,491.024825 L422.4997,491.024825 L422.4997,481.025725 L419,481.025725 L419,478.725925 L429.349,478.725925 L429.349,481.025725 Z M489.7434,491.024825 L492.7931,491.024825 L492.7931,482.425625 L489.7434,482.425625 L489.7434,491.024825 Z M488.8435,480.975725 L484.5439,480.975725 L484.5439,483.925425 L487.8936,483.925425 L487.1936,486.175225 L484.5439,486.175225 L484.5439,491.024825 L481.3442,491.024825 L481.3442,478.725925 L489.5434,478.725925 L488.8435,480.975725 Z M458.2244,491.024825 L455.1751,491.024825 L455.1751,482.472825 L458.1244,482.472825 C458.1244,482.472825 458.2158,482.735225 458.2244,483.467925 C458.2251,483.525725 458.2257,483.591125 458.2262,483.663625 C458.6683,482.824125 459.5556,482.294925 460.8083,482.294925 C462.8914,482.294925 463.3221,483.777225 463.3221,483.777225 C463.3221,483.777225 464.1164,482.244925 466.1368,482.244925 C468.1572,482.244925 469.1046,483.659525 469.1046,485.225325 C469.1046,486.790925 468.9769,490.220125 469.2643,491.024825 L466.1212,491.024825 L466.1212,485.675325 C466.1212,485.675325 466.2194,484.113525 464.865,484.113525 C463.9299,484.113525 463.5852,484.840725 463.5852,485.771325 L463.5852,491.024825 L460.6326,491.024825 L460.6326,485.664025 C460.6326,485.664025 460.7372,484.097825 459.4633,484.097825 C458.6947,484.097825 458.3688,484.567525 458.2313,485.156525 C458.234,487.472625 458.2245,490.995925 458.2244,491.024825 Z M474.4472,484.008125 C475.4878,484.008125 475.9528,484.871125 475.9528,486.634925 C475.9528,488.192025 475.7038,489.422325 474.4472,489.422325 C473.1906,489.422325 472.9365,488.240925 472.9365,486.734925 C472.9365,485.228825 473.2696,484.008125 474.4472,484.008125 Z M442.2804,485.598825 C442.2804,485.598825 442.2431,483.814625 443.6894,483.814625 C445.1357,483.814625 445.0818,485.618125 445.0818,485.618125 L442.2804,485.598825 Z M514.3155,485.598825 C514.3155,485.598825 514.2782,483.814625 515.7245,483.814625 C517.1708,483.814625 517.1169,485.618125 517.1169,485.618125 L514.3155,485.598825 Z M492.7931,480.975725 L489.7934,480.975725 L490.4933,478.725925 L493.4931,478.725925 L492.7931,480.975725 Z"></path></g></g>
</svg>