<?xml version="1.0" encoding="UTF-8"?>
<svg width="113px" height="15px" viewBox="0 0 113 15" xmlns="http://www.w3.org/2000/svg"><g stroke="none" stroke-width="1" fill="none" fill-rule="evenodd"><g transform="translate(-331.000000, -282.000000)" fill="#686879"><path d="M412.4245,291.50595 L414.59,285.30995 L416.5815,285.30995 L413.2623,293.89265 C412.5984,295.59975 411.8555,296.23195 410.512,296.23195 C409.7059,296.23195 409.121,296.04225 408.5362,295.72615 L409.1843,294.30355 C409.532,294.49325 409.9113,294.61975 410.3065,294.61975 C410.8439,294.61975 411.1758,294.38265 411.492,293.65555 L408.0146,285.30995 L410.0536,285.30995 L412.4245,291.50595 Z M335.6096,293.84525 C337.0954,293.84525 338.0754,293.18135 338.8973,292.24885 L338.3599,291.77465 C337.6802,292.53335 336.7951,293.11815 335.657,293.11815 C333.8077,293.11815 332.3377,291.56915 332.3377,289.62495 L332.3377,289.59335 C332.3377,287.66505 333.7603,286.13185 335.5938,286.13185 C336.7951,286.13185 337.5854,286.74825 338.2808,287.45955 L338.8341,286.89055 C338.0754,286.10025 337.127,285.40475 335.6096,285.40475 C333.3019,285.40475 331.5,287.36465 331.5,289.62495 L331.5,289.65655 C331.5,291.91685 333.2861,293.84525 335.6096,293.84525 Z M360.6149,282.11705 L361.3894,282.11705 L361.3894,293.65555 L360.6149,293.65555 L360.6149,291.85365 C359.9195,292.91265 358.8921,293.84525 357.2956,293.84525 C355.3515,293.84525 353.3757,292.28045 353.3757,289.65655 L353.3757,289.62495 C353.3757,287.00115 355.3515,285.40475 357.2956,285.40475 C358.9079,285.40475 359.9511,286.32145 360.6149,287.33305 L360.6149,282.11705 Z M368.4044,293.84525 C370.9808,293.84525 372.8775,291.86945 372.8775,289.49855 L372.8775,289.46695 C372.8775,287.08015 370.9966,285.13605 368.436,285.13605 C365.8754,285.13605 363.9787,287.11185 363.9787,289.49855 L363.9787,289.53015 C363.9787,291.90105 365.8596,293.84525 368.4044,293.84525 Z M385.2854,290.16235 C385.4908,291.52175 386.455,292.28045 387.6879,292.28045 C388.6205,292.28045 389.2843,291.93265 389.9482,291.28465 L391.0704,292.28045 C390.2801,293.22875 389.1895,293.84525 387.6563,293.84525 C385.2379,293.84525 383.3728,292.09075 383.3728,289.51435 L383.3728,289.48275 C383.3728,287.09595 385.0641,285.13605 387.4508,285.13605 C390.1062,285.13605 391.4498,287.22245 391.4498,289.62495 C391.4498,289.79885 391.434,289.97275 391.4182,290.16235 L385.2854,290.16235 Z M375.9439,282.11705 L375.9439,286.70085 C376.5604,285.83155 377.4297,285.13605 378.7732,285.13605 C380.749,285.13605 382.6615,286.70085 382.6615,289.46695 L382.6615,289.49855 C382.6615,292.26465 380.7648,293.82945 378.7732,293.82945 C377.3981,293.82945 376.5288,293.13395 375.9439,292.35945 L375.9439,293.65555 L374.0314,293.65555 L374.0314,282.11705 L375.9439,282.11705 Z M395.4487,293.81365 C397.1874,293.81365 398.5467,292.94425 398.5467,291.18975 L398.5467,291.15815 C398.5467,289.65655 397.1716,289.10335 395.9545,288.72405 C394.9745,288.40795 394.0736,288.15505 394.0736,287.55435 L394.0736,287.52275 C394.0736,287.03275 394.5004,286.68505 395.2432,286.68505 C395.9387,286.68505 396.7922,286.98535 397.5984,287.47535 L398.3571,286.11605 C397.4719,285.53115 396.3339,285.16765 395.2907,285.16765 C393.631,285.16765 392.3191,286.13185 392.3191,287.71245 L392.3191,287.74405 C392.3191,289.34045 393.6942,289.84625 394.9271,290.19405 C395.9071,290.49435 396.7922,290.71565 396.7922,291.36365 L396.7922,291.39525 C396.7922,291.94845 396.3181,292.29625 395.4961,292.29625 C394.6426,292.29625 393.6626,291.94845 392.7617,291.26885 L391.9081,292.56495 C392.9513,293.38685 394.2633,293.81365 395.4487,293.81365 Z M426.8839,293.81365 C429.3023,293.81365 431.1042,292.58075 431.1042,290.60495 L431.1042,290.57335 C431.1042,289.26145 430.3139,288.47115 429.1126,287.91795 C430.0452,287.42795 430.7248,286.68505 430.7248,285.45215 L430.7248,285.42055 C430.7248,283.71345 429.0968,282.43315 426.8839,282.43315 C424.6711,282.43315 423.0431,283.72925 423.0431,285.42055 L423.0431,285.45215 C423.0431,286.68505 423.7227,287.42795 424.6553,287.91795 C423.4066,288.43955 422.6637,289.27725 422.6637,290.62075 L422.6637,290.65235 C422.6637,292.54915 424.4656,293.81365 426.8839,293.81365 Z M442.596,287.10465 C443.043,289.64565 441.713,292.25795 439.243,293.32795 C436.353,294.57965 432.99,293.24975 431.739,290.35995 C430.487,287.47015 431.817,284.10785 434.707,282.85605 C437.468,281.66005 440.661,282.82105 442.031,285.44795 L440.625,284.75325 L440.283,285.88105 C439.237,284.31185 437.185,283.66495 435.393,284.44095 C433.378,285.31375 432.451,287.65845 433.324,289.67345 C434.196,291.68855 436.541,292.61595 438.556,291.74305 C440.144,291.05535 441.056,289.45375 440.945,287.81975 L439.9,288.27225 L440.826,285.21735 L443.688,286.63145 L442.596,287.10465 Z M405.4224,283.01805 L405.4224,285.30995 L407.6669,285.30995 L407.6669,286.95375 L405.4224,286.95375 L405.4224,291.04755 C405.4224,291.79045 405.8018,292.09075 406.4498,292.09075 C406.8766,292.09075 407.2559,291.99595 407.6353,291.80625 L407.6353,293.37105 C407.1611,293.63975 406.6237,293.79785 405.9124,293.79785 C404.5056,293.79785 403.5099,293.18135 403.5099,291.34785 L403.5099,286.95375 L402.4508,286.95375 L402.4508,285.30995 L403.5099,285.30995 L403.5099,283.01805 L405.4224,283.01805 Z M351.1787,293.65555 L351.9532,293.65555 L351.9532,282.11705 L351.1787,282.11705 L351.1787,293.65555 Z M340.7466,282.11705 L340.7466,287.09595 C341.284,286.14765 342.185,285.40475 343.6549,285.40475 C345.6939,285.40475 346.8794,286.79565 346.8794,288.72405 L346.8794,293.65555 L346.1049,293.65555 L346.1049,288.86625 C346.1049,287.20665 345.1723,286.11605 343.5443,286.11605 C341.9637,286.11605 340.7466,287.31725 340.7466,288.99275 L340.7466,293.65555 L339.9721,293.65555 L339.9721,282.11705 L340.7466,282.11705 Z M348.5074,293.65555 L349.2819,293.65555 L349.2819,285.59445 L348.5074,285.59445 L348.5074,293.65555 Z M399.6532,293.65555 L401.5657,293.65555 L401.5657,285.30995 L399.6532,285.30995 L399.6532,293.65555 Z M419.9767,282.51225 L421.336,282.51225 L421.336,293.65555 L419.4076,293.65555 L419.4076,284.48795 L417.4161,285.04115 L417.0051,283.46055 L419.9767,282.51225 Z M357.3747,293.10235 C355.6834,293.10235 354.2134,291.74305 354.2134,289.62495 L354.2134,289.59335 C354.2134,287.42795 355.6202,286.14765 357.3747,286.14765 C359.0501,286.14765 360.6623,287.53855 360.6623,289.60915 L360.6623,289.64075 C360.6623,291.69555 359.0501,293.10235 357.3747,293.10235 Z M368.436,292.18555 C366.9502,292.18555 365.8912,290.95265 365.8912,289.49855 L365.8912,289.46695 C365.8912,288.01275 366.8712,286.81145 368.4044,286.81145 C369.906,286.81145 370.965,288.02855 370.965,289.49855 L370.965,289.53015 C370.965,290.96855 369.985,292.18555 368.436,292.18555 Z M426.8839,292.18555 C425.4298,292.18555 424.5604,291.42685 424.5604,290.52595 L424.5604,290.49435 C424.5604,289.48275 425.572,288.81885 426.8839,288.81885 C428.1959,288.81885 429.2074,289.48275 429.2074,290.49435 L429.2074,290.52595 C429.2074,291.44265 428.3381,292.18555 426.8839,292.18555 Z M378.3307,292.16975 C377.0346,292.16975 375.8965,291.11075 375.8965,289.49855 L375.8965,289.46695 C375.8965,287.87045 377.0346,286.79565 378.3307,286.79565 C379.6268,286.79565 380.7174,287.85465 380.7174,289.46695 L380.7174,289.49855 C380.7174,291.14235 379.6426,292.16975 378.3307,292.16975 Z M389.553,288.89785 C389.4266,287.66505 388.6995,286.70085 387.435,286.70085 C386.2653,286.70085 385.4434,287.60175 385.2696,288.89785 L389.553,288.89785 Z M426.8839,287.26985 C425.7459,287.26985 424.9082,286.59015 424.9082,285.62605 L424.9082,285.59445 C424.9082,284.75665 425.6985,284.06125 426.8839,284.06125 C428.0694,284.06125 428.8597,284.75665 428.8597,285.61025 L428.8597,285.64185 C428.8597,286.59015 428.022,287.26985 426.8839,287.26985 Z M399.5741,284.02965 L401.6289,284.02965 L401.6289,282.21195 L399.5741,282.21195 L399.5741,284.02965 Z M348.4126,283.49215 L349.3768,283.49215 L349.3768,282.43315 L348.4126,282.43315 L348.4126,283.49215 Z"></path></g></g>
</svg>