<svg width="112" height="13" viewBox="0 0 112 13" xmlns="http://www.w3.org/2000/svg"><path d="M5.475 6.812c0-.578-.155-1.031-.465-1.358-.31-.327-.733-.491-1.269-.491-.532 0-.957.169-1.275.508-.317.338-.476.797-.476 1.375 0 .583.157 1.049.47 1.401.314.352.729.527 1.246.527.524 0 .95-.181 1.277-.544.328-.363.492-.836.492-1.418zm1.102 2.774h-1.102v-.851c-.187.344-.441.603-.763.777-.321.174-.709.261-1.161.261-.791 0-1.432-.273-1.925-.817-.492-.544-.738-1.252-.738-2.121 0-.855.247-1.547.741-2.076.495-.529 1.143-.794 1.946-.794.424 0 .796.08 1.114.241.317.161.579.402.786.723v-.777h1.102v5.434zm8.446 0h-1.102v-.851c-.187.344-.441.603-.763.777-.321.174-.709.261-1.161.261-.791 0-1.432-.273-1.925-.817-.492-.544-.738-1.252-.738-2.121 0-.855.247-1.547.741-2.076.495-.529 1.143-.794 1.946-.794.425 0 .796.08 1.114.241.317.161.579.402.786.723v-4.929h1.102v9.586zm-1.102-2.774c0-.578-.155-1.031-.465-1.358-.31-.327-.732-.491-1.269-.491-.532 0-.957.169-1.275.508-.317.338-.476.797-.476 1.375 0 .583.157 1.049.47 1.401.314.352.729.527 1.246.527.524 0 .95-.181 1.278-.544.327-.363.491-.836.491-1.418zm8.929-2.66l-2.77 5.689-2.783-5.689h1.246l1.537 3.448 1.513-3.448h1.257zm7.332 5.434h-1.102v-.851c-.187.344-.441.603-.763.777-.321.174-.709.261-1.161.261-.791 0-1.432-.273-1.925-.817-.492-.544-.738-1.252-.738-2.121 0-.855.247-1.547.741-2.076.495-.529 1.143-.794 1.946-.794.425 0 .796.08 1.114.241.317.161.579.402.786.723v-.777h1.102v5.434zm-1.102-2.774c0-.578-.155-1.031-.465-1.358-.31-.327-.732-.491-1.269-.491-.532 0-.957.169-1.275.508-.317.338-.476.797-.476 1.375 0 .583.157 1.049.47 1.401.314.352.729.527 1.246.527.524 0 .95-.181 1.278-.544.327-.363.491-.836.491-1.418zm9.227 2.774h-1.096v-3.216c0-.506-.096-.879-.286-1.117-.191-.238-.491-.358-.9-.358-.464 0-.823.178-1.075.534-.252.355-.378.869-.378 1.542v2.615h-1.097v-5.434h1.097v.766c.17-.314.41-.551.717-.712.308-.16.681-.241 1.118-.241.591 0 1.056.187 1.394.562.337.374.506.9.506 1.577v3.482zm7.481-.199c-.254.132-.517.23-.789.292-.272.062-.575.094-.909.094-.913 0-1.654-.268-2.222-.803-.568-.535-.852-1.231-.852-2.09 0-.87.29-1.573.87-2.11.58-.537 1.344-.805 2.293-.805.294 0 .563.029.808.088.244.058.491.152.741.281v1.117c-.222-.155-.463-.275-.724-.36-.26-.085-.519-.128-.777-.128-.647 0-1.161.175-1.54.525-.379.349-.569.821-.569 1.415 0 .567.192 1.021.575 1.361.383.34.895.51 1.534.51.294 0 .575-.043.843-.13.268-.087.507-.21.718-.369v1.112zm7.719-2.32h-4.343c.044.556.21.98.498 1.271.288.291.688.436 1.2.436.389 0 .711-.071.965-.215.254-.144.461-.367.62-.669l.917.465c-.262.476-.6.832-1.013 1.066-.413.235-.913.352-1.501.352-.854 0-1.531-.267-2.031-.8-.501-.533-.751-1.246-.751-2.138 0-.828.263-1.514.789-2.056.527-.543 1.183-.814 1.969-.814.803 0 1.45.249 1.942.746.493.497.739 1.154.739 1.971v.385zm-1.084-.72c-.048-.45-.209-.793-.483-1.029-.274-.237-.645-.355-1.114-.355-.449 0-.819.122-1.111.366-.292.244-.467.583-.527 1.018h3.235zm3.067 6.245v-12.391h.884v12.391h-.884zm12.943-3.183h-1.312v-3.227c0-.503-.101-.872-.303-1.108-.202-.236-.522-.354-.959-.354-.509 0-.876.157-1.102.47-.226.314-.339.826-.339 1.536v2.683h-1.319v-3.227c0-.525-.091-.9-.271-1.125-.181-.224-.49-.337-.927-.337-.509 0-.887.169-1.134.507-.247.338-.371.857-.371 1.556v2.626h-1.312v-5.431h1.312v.691c.176-.294.426-.514.749-.66.323-.145.727-.218 1.212-.218.452 0 .839.083 1.163.25.323.166.553.404.691.713.191-.309.466-.547.827-.713.362-.167.787-.25 1.277-.25.675 0 1.197.177 1.565.53.369.353.553.86.553 1.521v3.567zm8.904-2.519h-4.524c.046.556.218.98.518 1.271.3.291.717.436 1.251.436.405 0 .741-.071 1.005-.215.265-.144.48-.367.646-.669l.956.465c-.273.476-.626.832-1.056 1.066-.43.234-.951.352-1.563.352-.89 0-1.596-.267-2.117-.8-.521-.533-.782-1.246-.782-2.138 0-.828.274-1.512.822-2.054.549-.542 1.232-.813 2.051-.813.836 0 1.511.248 2.024.745.513.496.769 1.152.769 1.969v.385zm-1.129-.72c-.05-.449-.217-.792-.503-1.028-.285-.236-.672-.354-1.161-.354-.467 0-.853.122-1.157.365-.304.244-.487.583-.549 1.017h3.37zm9.931 3.239h-1.189v-.851c-.202.344-.476.603-.823.777-.347.174-.764.261-1.253.261-.852 0-1.544-.273-2.075-.817-.532-.545-.797-1.252-.797-2.122 0-.853.266-1.544.8-2.073.533-.529 1.233-.793 2.098-.793.458 0 .859.08 1.202.241.342.16.625.401.848.722v-4.229h1.189v8.884zm-1.189-2.774c0-.578-.167-1.031-.501-1.357-.334-.327-.791-.49-1.369-.49-.574 0-1.033.169-1.375.507-.343.338-.514.796-.514 1.374 0 .582.169 1.049.507 1.401.339.351.786.527 1.343.527.566 0 1.025-.181 1.379-.544.353-.363.53-.836.53-1.418zm5.922-5.505c0 .193-.075.356-.225.488-.15.132-.334.198-.552.198-.219 0-.403-.066-.553-.198-.15-.132-.225-.295-.225-.488 0-.189.075-.35.225-.482.15-.132.334-.199.553-.199.218 0 .402.067.552.199.15.132.225.293.225.482zm-1.368 8.278v-5.431h1.182v5.431h-1.182zm9.068-.198c-.247.133-.504.23-.769.292-.265.062-.56.094-.884.094-.89 0-1.611-.268-2.164-.803-.553-.535-.83-1.231-.83-2.09 0-.869.283-1.571.847-2.108.565-.536 1.309-.804 2.234-.804.286 0 .548.029.786.088.237.059.478.152.722.28v1.116c-.217-.155-.452-.274-.705-.359-.253-.086-.505-.128-.757-.128-.63 0-1.13.175-1.5.524-.369.349-.554.821-.554 1.414 0 .567.187 1.021.56 1.361.373.34.871.51 1.494.51.286 0 .56-.043.821-.13.261-.087.494-.21.699-.369v1.112zm8.255.199h-1.163v-.851c-.197.344-.466.603-.805.777-.339.174-.748.261-1.226.261-.834 0-1.512-.273-2.031-.817-.52-.545-.78-1.252-.78-2.122 0-.853.261-1.544.783-2.073.522-.529 1.206-.793 2.053-.793.449 0 .841.08 1.176.241.335.16.612.401.83.722v-.776h1.163v5.431zm-1.163-2.774c0-.578-.163-1.031-.491-1.357-.326-.327-.773-.49-1.339-.49-.562 0-1.01.169-1.345.507-.336.338-.504.796-.504 1.374 0 .582.166 1.049.497 1.401.331.351.769.527 1.314.527.554 0 1.004-.181 1.349-.544.346-.363.519-.836.519-1.418zm4.739 2.773v-8.884h1.182v8.884h-1.182z" fill="#686879"/></svg>