<svg width="100" height="22" viewBox="0 0 100 22" xmlns="http://www.w3.org/2000/svg"><path d="M76.99 12.013c-2.216.575-4.518 2.559-5.144 4.799-.364 1.15-.429 2.768.497 3.689.944 1.088 2.3 1.363 3.787 1.256 2.624-.149 5.226-2.067 6.131-4.52.517-1.303.581-3.134-.343-4.264-1.226-1.346-3.272-1.365-4.928-.96zm-9.252 7.06c-.817.019-1.593-.405-1.896-1.154-.191-.721-.019-1.469.303-2.067.515-1.004 1.549-1.772 2.712-1.728.623-.044 1.184.298 1.462.811l2.453-1.878c-.171-.406-.6-.658-.926-.933-1.718-.942-4.238-.579-5.809.377-1.959 1.217-3.182 3.201-3.182 5.461-.045 1.453 1.116 2.685 2.408 3.177 1.658.638 3.875.406 5.186-.68l-1.292-1.965c-.407.319-.903.516-1.419.579zm31.372-9.788l-.582-.575c-2.15-.449-4.195.831-5.357 2.622-.108-.362-.366-.705-.689-.94-1.937-.615-3.872.429-5.079 1.964-.087-.386.216-.961.152-1.26l-2.626.382-2.237 9.556 2.967-.429c.82-2.279.454-5.139 2.262-7.056.494-.343 1.077-.599 1.74-.492.349.149.52.492.496.878l-1.075 6.056 3.015-.596c.49-2.094.534-4.373 1.31-6.338.516-.85 1.463-1.619 2.518-1.469.41.15.453.551.474.914l-.862 5.949 3.034-.87.689-5.138c.128-1.028.304-2.217-.15-3.158zm-38.581 7.824c.342.427.453 1.11.239 1.618-.217.558-.734 1.071-1.294 1.264-.471.208-1.099.126-1.547-.11-.497-.34-.69-.851-.647-1.449.021-.725.603-1.367 1.226-1.662.668-.28 1.528-.174 2.023.339zm19.065-.682c-.152.874-.581 1.642-1.29 2.221-.819.614-2.152.933-3.1.363-.492-.324-.644-.855-.624-1.43.132-1.217.88-2.496 2.112-2.965.752-.217 1.846-.449 2.516.193.407.422.494 1.043.386 1.618zm-25.65-7.717c-.427.13-.791.507-1.203.575.128-.429.368-.811.536-1.213l-2.388-.941c-1.442 3.071-2.902 6.182-4 9.34l2.494.873 2.238-5.33c.323-.556.883-1.154 1.551-1.241.561 0 1.053.111 1.442.559.298.295.235.807.195 1.212l-2.262 5.843 2.647.768 1.936-4.921c.518-1.351 1.336-3.158.346-4.567-.904-.957-2.282-1.299-3.532-.957zm-44.149-4.264c-2.069-.666-4.197.338-5.575 1.961.217-2.028.624-4.245.841-6.292l-2.971.917-2.089 15.289 2.54-.898c.045-.464.086-.98.281-1.342l.473.515c1.096.788 2.582.166 3.635-.361 2.497-1.43 3.941-3.989 4.175-6.722.045-1.212-.173-2.429-1.31-3.067zm37.457 1.662c-1.439-1.579-4.045-1.922-5.894-1.001-1.745.764-2.925 2.579-3.335 4.305-.279 1.448-.11 2.987.903 4.051 1.099 1.196 2.625 1.704 4.281 1.515 2.303-.26 4.349-2.516 4.842-4.65.389-1.453.258-3.134-.797-4.22zm-11.902 4.638c-.473-.162-.759-.645-.623-1.13.176-.607.649-1.728 1.509-4.178l2.453.382.838-2.169-2.433-.516.969-2.729-2.818-.405-.971 2.748-1.826-.146-.732 2.218 1.744.232c-.817 2.495-1.226 3.811-1.68 4.923-.092.234-.244 1.408.089 1.947.598.977 1.988 1.536 4.065 1.236l.858-2.35c-.605.078-1.01.09-1.442-.063zm-13.057-6.454c-.277-.787-1.144-1.511-1.935-1.724-2.475-.535-4.822.406-6.585 2.154-1.506 1.705-2.495 3.925-1.764 6.249.238.748.969 1.385 1.698 1.661 2.478.681 4.822-.343 6.588-2.067 1.588-1.709 2.644-3.922 1.998-6.273zm5.983-.038c.409.125.924.382 1.074.854l2.282-1.622c-.343-.685-1.098-.981-1.746-1.213-1.634-.448-3.441-.11-4.711.87-1.094.874-1.742 2.11-1.546 3.54.582 1.599 2.471 1.236 3.635 2.11.236.324.084.768-.237 1.004-.493.339-1.271.3-1.852.19-.472-.169-.836-.575-1.051-1.001l-2.218 2.11.518.532c1.676 1.134 4.324.875 6.002-.106 1.205-.79 1.806-2.023 1.848-3.39-.127-2.044-2.473-1.705-3.677-2.685-.128-.32.019-.618.279-.831.366-.324.882-.472 1.4-.362zm-21.238 6.949c-.775.854-1.915 1.365-3.056 1.086-.641-.319-.688-1.02-.688-1.662.134-1.386 1.055-2.835 2.433-3.326.709-.32 1.955-.449 2.32.491.368 1.28-.19 2.473-1.009 3.411zm38.385-1.681c-.19 1.062-.816 2.216-1.935 2.638-.623.239-1.378.11-1.937-.19-.576-.319-.86-.917-.883-1.536.066-1.299.751-2.642 2.002-3.133.842-.276 1.765-.086 2.366.575.411.429.497 1.046.387 1.646zm-27.066-.281c-.647.6-1.421.855-2.28.895-.58-.02-1.161-.359-1.333-.918-.238-1.386.276-2.685 1.353-3.583.86-.677 2.583-1.063 3.289.047.542 1.299-.169 2.599-1.029 3.559z" fill="#686879"/></svg>