<?xml version="1.0" encoding="UTF-8"?>
<svg width="121px" height="17px" viewBox="0 0 121 17" xmlns="http://www.w3.org/2000/svg"><g stroke="none" stroke-width="1" fill="none" fill-rule="evenodd"><g transform="translate(-169.000000, -385.000000)" fill="#686879"><path d="M229.2398,389.336 L229.2428,388.724 C229.2758,386.599 231.0498,385 233.3828,385 C235.6668,385 237.4788,386.637 237.5028,388.729 L237.5168,389.385 L237.5028,389.385 L237.5028,391.096 C237.9488,391.235 238.3658,391.402 238.7548,391.6 C240.5148,392.481 240.9168,393.935 240.9168,396.055 C240.9168,397.858 240.5908,399.478 238.6238,400.495 C237.2778,401.189 235.5478,401.602 233.4998,401.602 C231.4808,401.602 229.7228,401.176 228.3548,400.46 C226.4418,399.453 226.0878,397.868 226.0878,396.055 C226.0878,394.089 226.3558,392.572 228.1728,391.625 C228.5078,391.45 228.8628,391.298 229.2428,391.162 L229.2428,389.336 L229.2398,389.336 Z M246.5651,401.2568 L242.5091,401.2568 C242.6191,399.9158 242.6191,398.6678 242.6191,397.3398 L242.6191,394.9828 C242.6191,393.7868 242.3801,392.5828 242.1831,391.3938 L246.8731,391.3938 C248.9241,393.5798 250.9851,395.6758 252.8061,397.9878 L252.8511,397.9628 L252.6931,394.9828 C252.6301,393.7638 252.5441,392.5448 252.3671,391.3938 L256.4241,391.3938 C256.3181,392.6258 256.3181,393.7638 256.3181,394.9828 L256.3181,397.3398 C256.3181,398.6518 256.3611,399.9318 256.5371,401.2568 L251.9691,401.4918 C250.0801,399.3208 248.1281,397.1608 246.2861,394.9828 L246.2341,394.9828 L246.2341,397.3398 C246.2341,398.6678 246.4161,400.0008 246.5651,401.2568 Z M179.913,401.3715 C179.06,401.4105 178.225,401.4915 177.367,401.4915 C171.857,401.4915 169,398.7095 169,396.0505 C169,392.5135 172.582,391.1555 177.06,391.1555 C177.961,391.1555 178.858,391.2275 179.759,391.2975 L179.759,393.6525 C178.949,393.5685 178.134,393.4465 177.301,393.4465 C174.556,393.4465 173.392,394.6065 173.392,396.0505 C173.392,397.7765 175.037,399.2075 177.961,399.2075 C178.619,399.2075 179.256,399.1645 179.913,399.0845 L179.913,401.3715 Z M212.3444,401.2568 C212.4104,400.3028 212.4504,399.4438 212.4504,398.5138 L212.4504,394.1368 C212.4504,393.4028 212.4504,392.4608 212.2314,391.3938 L214.9304,391.3938 C215.5464,391.3938 216.2044,391.3508 216.8664,391.3228 C217.5234,391.2818 218.2044,391.2558 218.8614,391.2558 C221.9154,391.2558 224.2214,392.2528 224.2214,393.6228 C224.2214,395.0088 222.5294,395.5368 221.3654,395.7858 L221.3654,395.8098 C223.0994,395.9248 225.2094,396.7408 225.2094,398.3608 C225.1864,400.6338 222.1124,401.3268 218.6444,401.3268 C217.4134,401.3268 216.1644,401.2568 214.9304,401.2568 L212.3444,401.2568 Z M201.8922,401.2572 L197.2802,401.2572 C197.3472,400.3032 197.3902,399.4442 197.3902,398.5132 L197.3902,394.1362 C197.3902,393.4022 197.3902,392.4612 197.1702,391.3932 L199.8732,391.3932 C200.5072,391.3932 201.1452,391.3502 201.8062,391.3222 C202.4822,391.2822 203.1442,391.2552 203.8012,391.2552 C206.8752,391.2552 209.5552,392.2642 209.5552,394.1782 C209.5552,395.9492 207.4252,396.5632 206.0832,396.8402 C207.3162,398.0832 208.7202,399.4712 211.2422,401.2572 L205.6232,401.2572 C203.6242,399.5132 203.3172,399.2232 201.8252,396.8952 L201.7822,396.8952 L201.7822,398.5132 C201.7822,399.4442 201.8482,400.3032 201.8922,401.2572 Z M185.1168,401.2572 L180.9008,401.2572 C181.3858,400.4412 182.1718,399.3212 182.9668,397.9322 L184.3478,395.4692 C185.0048,394.2582 185.7818,392.6342 186.0688,391.3632 L191.2188,391.3712 C191.4198,392.6982 192.0738,393.8872 192.7348,395.0942 L194.2258,397.8812 C194.9098,399.1522 195.7848,400.3032 196.4658,401.2572 L191.7688,401.2572 C191.3518,400.4802 190.9558,399.6932 190.5618,398.9022 L186.1498,398.9022 C185.7768,399.6802 185.4028,400.4692 185.1168,401.2572 Z M264.2898,401.2568 L259.3478,401.2568 C259.4148,400.3028 259.4578,399.4438 259.4578,398.5138 L259.4578,394.1368 C259.4578,393.4028 259.4578,392.4608 259.2378,391.3938 L264.0668,391.3938 C263.8458,392.2638 263.8458,393.2348 263.8458,394.1368 L263.8458,397.8218 C263.8458,398.9588 264.1578,400.0928 264.2898,401.2568 Z M289.493,401.2568 L279.922,401.2568 C279.985,400.3028 280.032,399.4438 280.032,398.5138 L280.032,394.1368 C280.032,393.4028 280.032,392.4608 279.812,391.3938 L289.254,391.3938 L289.493,393.4028 C288.572,393.3848 287.584,393.3318 286.658,393.3318 L284.416,393.3318 L284.416,395.1628 L286.022,395.1628 C287.08,395.1628 288.18,395.1038 289.254,395.0938 L289.254,397.1698 C288.726,397.1608 288.18,397.1468 287.647,397.1288 C287.101,397.1168 286.553,397.1028 286.022,397.1028 L284.416,397.1028 L284.416,399.3208 L285.586,399.3208 C286.966,399.3208 288.375,399.1648 289.757,399.0418 L289.493,401.2568 Z M274.347,401.2568 L269.733,401.2568 C269.802,400.3028 269.844,399.4438 269.844,398.5138 L269.844,393.3318 L268.6976,393.3318 C267.6236,393.3318 266.6796,393.4178 265.6006,393.4688 L265.8066,391.3938 L274.893,391.3938 C276.207,391.3938 277.348,391.3678 278.667,391.2558 L278.47,393.3318 L274.232,393.3318 L274.232,398.5138 C274.232,399.4438 274.299,400.3028 274.347,401.2568 Z M216.8414,399.4588 C217.1264,399.4878 217.4354,399.5288 217.7664,399.5288 C219.1484,399.5288 220.8174,398.9988 220.8174,397.9878 C220.8174,396.8648 218.8184,396.6588 217.9214,396.6588 C217.5464,396.6588 217.1724,396.6848 216.8414,396.7288 L216.8414,399.4588 Z M233.3487,397.7686 L232.5353,399.0643 C232.8259,399.1213 233.1423,399.152 233.4848,399.152 C233.7945,399.152 234.0804,399.1295 234.3437,399.0872 L233.4741,397.7719 C233.4315,397.7718 233.3897,397.7707 233.3487,397.7686 Z M236.6698,397.1178 L234.9481,397.1229 L234.9464,397.1259 C234.9099,397.1911 234.8648,397.2532 234.8091,397.3109 L235.6695,398.613 C235.7842,398.541 235.8901,398.4631 235.9878,398.38 C236.4102,398.0294 236.5935,397.5868 236.6698,397.1178 Z M232.0376,397.1315 L230.3171,397.1366 C230.4284,397.6661 230.6847,398.1545 231.2068,398.519 C231.2179,398.5268 231.229,398.5345 231.2403,398.5421 L232.0831,397.2008 C232.0669,397.1781 232.0517,397.155 232.0376,397.1315 Z M188.4958,393.3062 L188.4528,393.3062 C188.1018,394.7602 187.5748,395.9102 186.8948,397.2392 L189.8808,397.2392 C189.3528,395.9242 188.8268,394.8422 188.4958,393.3062 Z M201.7822,395.7142 L202.2892,395.7142 C203.8012,395.7142 205.7142,395.2722 205.7142,394.2742 C205.7142,393.5802 204.4822,393.1962 202.8132,393.1962 C202.4422,393.1962 202.0652,393.2522 201.7822,393.2732 L201.7822,395.7142 Z M231.0876,394.162 C230.9212,394.2756 230.7758,394.4039 230.6508,394.546 C230.3688,394.8732 230.2821,395.2661 230.2556,395.7107 L231.9286,395.7055 C231.9482,395.6516 231.9734,395.6 232.0059,395.551 L231.0876,394.162 Z M235.6612,394.0848 L234.8136,395.435 C234.8886,395.5153 234.9441,395.6033 234.9851,395.6961 L236.6848,395.6908 C236.6196,395.1874 236.4451,394.7043 236.0008,394.326 C235.8974,394.2396 235.7844,394.1589 235.6612,394.0848 Z M216.8414,395.2298 C217.0624,395.2588 217.2834,395.2728 217.5234,395.2728 C218.7984,395.2728 219.8064,394.9398 219.8304,394.0828 C219.8304,393.3498 218.7124,393.0558 217.8774,393.0558 C217.5034,393.0558 217.1264,393.0998 216.8414,393.1248 L216.8414,395.2298 Z M234.3155,393.648 L232.4298,393.648 C232.4175,393.6502 232.4053,393.6525 232.3931,393.6548 L233.2721,394.985 C233.3373,394.9811 233.4049,394.979 233.4749,394.9789 L233.4792,394.9789 L234.3155,393.648 Z M231.4608,388.761 C231.4808,387.869 232.4628,387.384 233.3828,387.384 C234.4198,387.384 235.2728,388 235.2878,388.756 L235.2878,390.622 C234.7018,390.553 234.1028,390.516 233.4998,390.516 C232.7838,390.516 232.1038,390.56 231.4608,390.648 L231.4608,388.761 Z"></path></g></g>
</svg>