<?xml version="1.0" encoding="UTF-8"?>
<svg width="101px" height="30px" viewBox="0 0 101 30" xmlns="http://www.w3.org/2000/svg"><g stroke="none" stroke-width="1" fill="none" fill-rule="evenodd"><g transform="translate(-663.000000, -174.000000)" fill="#686879">
<path d="M749.6077,174.83625 C741.6487,174.83625 735.1977,181.28825 735.1977,189.24625 C735.1977,197.20325 741.6487,203.65525 749.6077,203.65525 C757.5657,203.65525 764.017,197.20325 764.017,189.24625 C764.017,181.28825 757.5657,174.83625 749.6077,174.83625 Z M700.7769,185.31105 C700.8899,185.39205 700.9499,185.52605 700.9589,185.71105 C700.9669,185.89805 700.9709,186.08805 700.9709,186.28205 L700.9709,196.65005 C700.9709,196.78005 700.9669,196.90505 700.9589,197.02705 C700.9499,197.14805 700.9469,197.27405 700.9469,197.40305 C700.9299,197.53305 700.9179,197.65005 700.9099,197.75605 C700.9019,197.86005 700.8899,197.97705 700.8739,198.10805 C700.8089,198.33405 700.7559,198.54805 700.7159,198.75005 C700.6759,198.95205 700.6149,199.14205 700.5339,199.32105 C700.2579,199.93605 699.9059,200.44605 699.4769,200.85005 C699.0489,201.25505 698.5259,201.58705 697.9109,201.84605 C697.7329,201.92705 697.5549,201.99205 697.3769,202.04105 C697.1989,202.08905 697.0129,202.13705 696.8189,202.18705 C696.6409,202.23505 696.4619,202.26705 696.2839,202.28305 C696.1069,202.30005 695.9289,202.32405 695.7499,202.35705 C695.6859,202.35705 695.6209,202.36005 695.5559,202.36805 C695.4909,202.37705 695.4179,202.38105 695.3379,202.38105 C695.2729,202.39705 695.1999,202.40105 695.1189,202.39305 C695.0379,202.38405 694.9569,202.38805 694.8759,202.40405 C694.7949,202.42105 694.6899,202.42905 694.5609,202.42905 C694.4309,202.42905 694.3259,202.42105 694.2449,202.40405 L694.0259,202.40405 C693.9619,202.40405 693.8969,202.39705 693.8319,202.38105 C693.7019,202.34805 693.5689,202.33105 693.4319,202.33105 C693.2939,202.33105 693.1679,202.31505 693.0549,202.28305 C693.0229,202.26705 692.9829,202.25905 692.9339,202.25905 C692.8849,202.25905 692.8449,202.25105 692.8119,202.23505 C692.6509,202.20205 692.4919,202.16505 692.3389,202.12605 C692.1849,202.08505 692.0349,202.03205 691.8899,201.96805 C691.2739,201.70905 690.7239,201.38105 690.2389,200.98505 C689.7529,200.58805 689.3969,200.05705 689.1699,199.39405 C689.1379,199.34605 689.1219,199.29705 689.1219,199.24805 C689.1219,199.20005 689.1129,199.15905 689.0969,199.12705 C689.0489,198.91605 689.0689,198.75905 689.1579,198.65305 C689.2469,198.54805 689.3729,198.48005 689.5349,198.44705 C689.6959,198.41505 689.8789,198.40205 690.0809,198.41105 C690.2829,198.41805 690.4729,198.42305 690.6519,198.42305 L691.4769,198.42305 C691.5579,198.42305 691.6259,198.42705 691.6829,198.43505 C691.7399,198.44305 691.8079,198.44705 691.8899,198.44705 C692.1489,198.51105 692.3109,198.59705 692.3759,198.70205 C692.4399,198.80705 692.5369,198.94905 692.6669,199.12705 C692.7149,199.19105 692.7879,199.27305 692.8849,199.37005 C692.9009,199.40205 692.9169,199.42605 692.9339,199.44205 C692.9499,199.45905 692.9659,199.48305 692.9829,199.51605 C693.1119,199.61205 693.2489,199.70205 693.3949,199.78305 C693.5409,199.86305 693.7019,199.93605 693.8809,200.00105 C693.9939,200.03405 694.1069,200.05305 694.2209,200.06105 C694.3339,200.07005 694.4549,200.09005 694.5849,200.12305 L694.8519,200.12305 C694.9649,200.15505 695.1109,200.15905 695.2889,200.13505 C695.4669,200.11005 695.6049,200.08205 695.7019,200.05005 C695.7829,200.01705 695.8509,200.00105 695.9079,200.00105 C695.9649,200.00105 696.0249,199.98505 696.0899,199.95205 C696.4299,199.80605 696.7129,199.61205 696.9399,199.37005 C697.1669,199.12705 697.3529,198.84305 697.4989,198.52005 C697.5309,198.42305 697.5549,198.32505 697.5709,198.22805 C697.5879,198.13105 697.6119,198.02605 697.6439,197.91305 C697.6769,197.76705 697.6969,197.61005 697.7049,197.44005 C697.7129,197.26905 697.7169,197.09605 697.7169,196.91705 C697.7169,196.85305 697.7209,196.78805 697.7299,196.72305 C697.7369,196.65805 697.7329,196.60205 697.7169,196.55405 C697.6839,196.47205 697.6729,196.39905 697.6809,196.33505 C697.6889,196.27005 697.6769,196.20505 697.6439,196.14005 C697.6279,196.10805 697.6079,196.08405 697.5839,196.06705 C697.5589,196.05205 697.5309,196.02705 697.4989,195.99405 C697.3529,195.97805 697.2359,196.01105 697.1469,196.09205 C697.0579,196.17305 696.9719,196.24605 696.8919,196.31105 C696.7459,196.42405 696.5999,196.52905 696.4549,196.62705 C696.3089,196.72305 696.1469,196.81305 695.9689,196.89405 C695.7909,196.97505 695.6129,197.03905 695.4349,197.08805 C695.2569,197.13605 695.0709,197.18505 694.8759,197.23305 C694.7789,197.24905 694.6859,197.26105 694.5969,197.26905 C694.5079,197.27805 694.4229,197.29105 694.3419,197.30605 C694.2609,197.32205 694.1319,197.33105 693.9529,197.33105 C693.7749,197.33105 693.6459,197.32205 693.5649,197.30605 L693.3709,197.30605 C693.3219,197.29105 693.2689,197.28205 693.2129,197.28205 C693.1559,197.28205 693.0949,197.27405 693.0309,197.25805 C692.8039,197.20905 692.5849,197.16405 692.3759,197.12305 C692.1649,197.08305 691.9709,197.02305 691.7929,196.94205 C691.0969,196.66705 690.5339,196.28305 690.1049,195.78805 C689.6759,195.29405 689.3159,194.70005 689.0249,194.00305 C688.9439,193.82605 688.8869,193.64005 688.8539,193.44505 C688.8219,193.25105 688.7729,193.05705 688.7089,192.86305 C688.7089,192.78105 688.7009,192.71705 688.6849,192.66805 C688.6519,192.53905 688.6359,192.39705 688.6359,192.24305 C688.6359,192.09005 688.6199,191.94805 688.5879,191.81905 C688.5709,191.73805 688.5639,191.66005 688.5639,191.58705 L688.5639,191.35705 C688.5469,191.27705 688.5389,191.17505 688.5389,191.05305 C688.5389,190.93205 688.5469,190.83205 688.5639,190.75005 L688.5639,190.50705 C688.5789,190.44305 688.5839,190.37805 688.5749,190.31205 C688.5669,190.24905 688.5789,190.18405 688.6119,190.11805 C688.6439,189.95705 688.6679,189.79905 688.6849,189.64605 C688.7009,189.49205 688.7249,189.33405 688.7579,189.17105 C688.8539,188.84805 688.9559,188.54005 689.0609,188.24905 C689.1659,187.95805 689.2999,187.68305 689.4619,187.42305 C689.5429,187.26205 689.6359,187.11205 689.7409,186.97405 C689.8459,186.83705 689.9549,186.69505 690.0689,186.54905 C690.1179,186.46805 690.1859,186.38805 690.2749,186.30605 C690.3639,186.22605 690.4489,186.15305 690.5299,186.08805 L690.6759,185.94205 C690.7569,185.87805 690.8369,185.81705 690.9179,185.76005 C690.9989,185.70405 691.0799,185.65105 691.1609,185.60205 C691.3719,185.47305 691.5899,185.35905 691.8169,185.26305 C692.0439,185.16505 692.2939,185.07705 692.5699,184.99505 C692.6989,184.94705 692.8329,184.91905 692.9699,184.91105 C693.1079,184.90205 693.2409,184.88205 693.3709,184.85005 C693.4349,184.83405 693.5249,184.83405 693.6379,184.85005 C693.7509,184.86605 693.8239,184.85805 693.8569,184.82505 C694.3749,184.80905 694.8399,184.85805 695.2529,184.97105 C695.6649,185.08505 696.0339,185.24605 696.3569,185.45705 C696.4059,185.48905 696.4549,185.52605 696.5029,185.56605 C696.5519,185.60605 696.6079,185.65105 696.6729,185.69905 C696.7699,185.78105 696.8589,185.86205 696.9399,185.94205 C697.0209,186.02305 697.1179,186.09605 697.2309,186.16105 C697.2639,186.17705 697.3089,186.19405 697.3649,186.20905 C697.4219,186.22605 697.4659,186.21705 697.4989,186.18505 C697.5789,186.15305 697.6279,186.09605 697.6439,186.01505 C697.6609,185.93405 697.6839,185.85405 697.7169,185.77205 C697.7499,185.69105 697.7779,185.60605 697.8019,185.51705 C697.8269,185.42905 697.8709,185.35105 697.9359,185.28705 C698.0329,185.22305 698.1499,185.18605 698.2879,185.17705 C698.4249,185.17005 698.5669,185.16505 698.7129,185.16505 L699.9509,185.16505 C700.1289,185.16505 700.2869,185.17005 700.4249,185.17705 C700.5619,185.18605 700.6789,185.23005 700.7769,185.31105 Z M687.5563,190.92045 C687.5883,191.01745 687.6043,191.15545 687.6043,191.33345 C687.6043,191.51145 687.5883,191.64845 687.5563,191.74545 L687.5563,191.98745 C687.5233,192.11845 687.5113,192.24745 687.5193,192.37645 C687.5273,192.50745 687.5153,192.63645 687.4833,192.76545 C687.4503,192.87945 687.4263,192.98345 687.4103,193.08145 C687.3943,193.17845 687.3773,193.28345 687.3623,193.39645 C687.2963,193.57545 687.2403,193.75745 687.1913,193.94345 C687.1433,194.12945 687.0783,194.30345 686.9973,194.46545 C686.6573,195.24245 686.2123,195.87345 685.6623,196.35945 C685.1113,196.84445 684.4483,197.24945 683.6713,197.57245 C683.4763,197.65445 683.2783,197.71445 683.0763,197.75545 C682.8733,197.79545 682.6673,197.84045 682.4573,197.88845 C682.3753,197.92045 682.2863,197.93645 682.1903,197.93645 C682.0923,197.93645 682.0033,197.94545 681.9223,197.96145 C681.8743,197.96145 681.8213,197.96445 681.7653,197.97345 C681.7083,197.98145 681.6553,197.98645 681.6073,197.98645 C681.5263,198.00145 681.3963,198.01345 681.2193,198.02245 C681.0403,198.03045 680.9033,198.01745 680.8053,197.98645 L680.5633,197.98645 C680.4823,197.96945 680.3973,197.96445 680.3083,197.97345 C680.2193,197.98145 680.1343,197.96945 680.0533,197.93645 C679.9883,197.92045 679.9273,197.91345 679.8703,197.91345 C679.8143,197.91345 679.7453,197.90445 679.6643,197.88845 C679.5023,197.84045 679.3403,197.79845 679.1793,197.76745 C679.0173,197.73445 678.8633,197.68545 678.7173,197.62145 C678.5233,197.55745 678.3413,197.49245 678.1713,197.42645 C678.0013,197.36245 677.8273,197.28245 677.6493,197.18445 C677.0823,196.84445 676.5963,196.44845 676.1923,195.99445 C675.7883,195.54145 675.4473,194.99945 675.1723,194.36845 C675.0913,194.22245 675.0313,194.06845 674.9903,193.90745 C674.9493,193.74545 674.9053,193.57545 674.8563,193.39645 C674.8243,193.31645 674.8083,193.24345 674.8083,193.17845 C674.8083,193.11345 674.7923,193.04045 674.7603,192.95945 C674.7273,192.83045 674.7113,192.69645 674.7113,192.55945 C674.7113,192.42245 674.6953,192.28845 674.6623,192.15845 C674.6463,192.07745 674.6383,192.00445 674.6383,191.93945 L674.6383,191.72145 C674.6063,191.62445 674.5933,191.48745 674.6023,191.30845 C674.6103,191.13045 674.6303,190.99345 674.6623,190.89545 L674.6623,190.72545 C674.6793,190.64445 674.6833,190.55945 674.6753,190.47045 C674.6663,190.38245 674.6793,190.29745 674.7113,190.21645 C674.7273,190.13445 674.7353,190.05745 674.7353,189.98545 C674.7353,189.91245 674.7513,189.83545 674.7843,189.75445 C674.8483,189.54445 674.9053,189.33745 674.9543,189.13545 C675.0023,188.93345 675.0673,188.73445 675.1483,188.54045 C675.4393,187.87645 675.7883,187.32245 676.1923,186.87645 C676.5963,186.43145 677.0913,186.02345 677.6743,185.65145 C677.8353,185.57045 678.0053,185.49745 678.1833,185.43245 C678.3613,185.36845 678.5393,185.29545 678.7173,185.21345 C678.9273,185.13345 679.1463,185.07645 679.3733,185.04345 C679.6003,185.01145 679.8343,184.96345 680.0773,184.89845 C680.2063,184.88245 680.3283,184.87445 680.4413,184.87445 C680.5543,184.87445 680.6683,184.86545 680.7813,184.84945 C681.7203,184.83445 682.5343,184.93045 683.2213,185.14145 C683.9093,185.35145 684.5213,185.64345 685.0553,186.01545 C685.2323,186.14545 685.4143,186.28645 685.6013,186.44045 C685.7863,186.59445 685.9443,186.76045 686.0743,186.93845 C686.2043,187.09945 686.3213,187.26145 686.4273,187.42345 C686.5323,187.58545 686.6413,187.75545 686.7543,187.93345 C686.8673,188.11145 686.9573,188.30145 687.0213,188.50445 C687.0863,188.70645 687.1593,188.92045 687.2403,189.14745 C687.2893,189.27745 687.3293,189.41445 687.3623,189.55945 C687.3943,189.70545 687.4263,189.85145 687.4583,189.99745 C687.4753,190.06145 687.4833,190.12745 687.4833,190.19145 C687.4833,190.25645 687.4913,190.32245 687.5073,190.38545 C687.5393,190.46645 687.5473,190.55545 687.5313,190.65245 C687.5153,190.75045 687.5233,190.83845 687.5563,190.92045 Z M728.2943,184.82345 C729.0234,184.82745 729.6543,184.92095 730.1899,185.10405 C730.7809,185.30605 731.3109,185.57005 731.7809,185.89305 C731.9269,185.99005 732.0719,186.09905 732.2179,186.22105 C732.3639,186.34205 732.4929,186.46805 732.6059,186.59705 C732.6549,186.67805 732.7189,186.74305 732.7999,186.79105 C732.9299,186.97005 733.0509,187.15205 733.1649,187.33805 C733.2769,187.52405 733.3999,187.71405 733.5289,187.90805 C733.6089,188.05405 733.6779,188.20405 733.7349,188.35805 C733.7919,188.51205 733.8529,188.67705 733.9179,188.85505 C733.9979,189.06605 734.0629,189.28505 734.1119,189.51105 C734.1599,189.73705 734.2169,189.96405 734.2819,190.19105 C734.3139,190.32105 734.3259,190.46205 734.3179,190.61505 C734.3099,190.77005 734.3219,190.91205 734.3539,191.04005 L734.3539,191.30805 C734.3859,191.43805 734.3859,191.58305 734.3539,191.74405 C734.3219,191.90705 734.2649,192.01205 734.1849,192.06105 C734.1039,192.12605 733.9859,192.16905 733.8329,192.19405 C733.6779,192.21905 733.5079,192.23505 733.3229,192.24205 C733.1359,192.25105 732.9499,192.25105 732.7639,192.24205 C732.5779,192.23505 732.4119,192.23105 732.2659,192.23105 L726.0139,192.23105 C725.9089,192.23105 725.8149,192.24705 725.7339,192.27905 C725.6049,192.34405 725.5249,192.40805 725.4919,192.47305 C725.4589,192.50605 725.4269,192.56705 725.3949,192.65505 C725.3619,192.74505 725.3539,192.83005 725.3699,192.91005 C725.4029,193.00805 725.4229,193.10105 725.4319,193.19005 C725.4389,193.27905 725.4589,193.37105 725.4919,193.46905 C725.6219,193.85705 725.7789,194.17605 725.9649,194.42805 C726.1509,194.67905 726.4059,194.90205 726.7299,195.09605 C726.8599,195.17705 726.9929,195.22905 727.1309,195.25405 C727.2679,195.27805 727.4099,195.31405 727.5559,195.36205 C727.6849,195.39505 727.8629,195.42005 728.0899,195.43505 C728.3159,195.45105 728.5109,195.44405 728.6729,195.41105 L728.8919,195.41105 C729.0529,195.37905 729.2029,195.34205 729.3399,195.30205 C729.4779,195.26205 729.6109,195.21805 729.7409,195.16805 C729.9029,195.08805 730.0839,194.98305 730.2869,194.85305 C730.4889,194.72405 730.6389,194.59405 730.7369,194.46405 C730.8179,194.35105 730.9029,194.24205 730.9919,194.13605 C731.0799,194.03205 731.1899,193.95405 731.3189,193.90605 C731.4809,193.82405 731.6869,193.78805 731.9389,193.79705 C732.1899,193.80505 732.4199,193.80905 732.6309,193.80905 C732.7279,193.80905 732.8279,193.80505 732.9339,193.79705 C733.0389,193.78805 733.1319,193.80105 733.2129,193.83305 L733.4559,193.83305 C733.6179,193.86605 733.7319,193.90605 733.7959,193.95405 C733.8599,193.98705 733.8969,194.06005 733.9059,194.17305 C733.9129,194.28605 733.9009,194.38405 733.8689,194.46405 C733.7879,194.69105 733.6989,194.89305 733.6019,195.07205 C733.5039,195.25005 733.3909,195.42805 733.2619,195.60605 C732.9049,196.13905 732.5019,196.56905 732.0479,196.89305 C731.5949,197.21605 731.0269,197.49205 730.3479,197.71805 C730.1689,197.78305 729.9909,197.82305 729.8139,197.83905 C729.6359,197.85605 729.4499,197.88705 729.2559,197.93605 C729.1909,197.95305 729.1219,197.95705 729.0499,197.94905 C728.9769,197.94005 728.9069,197.94405 728.8419,197.96005 L728.5749,197.96005 C728.4939,197.99305 728.4019,198.00505 728.2959,197.99705 C728.1909,197.98905 728.0979,197.97705 728.0169,197.96005 C727.8879,197.94405 727.7749,197.94405 727.6769,197.96005 C727.5799,197.97705 727.4739,197.96905 727.3609,197.93605 C727.2799,197.90405 727.1919,197.88705 727.0939,197.88705 C726.9969,197.88705 726.9079,197.87105 726.8279,197.83905 C726.6489,197.80705 726.4709,197.77005 726.2929,197.73005 C726.1149,197.69005 725.9529,197.63005 725.8069,197.54805 C725.6289,197.48405 725.4629,197.42205 725.3099,197.36605 C725.1559,197.30905 725.0139,197.24205 724.8849,197.16005 C724.3659,196.83605 723.9049,196.45905 723.5009,196.03105 C723.0959,195.60205 722.7639,195.10405 722.5049,194.53705 C722.4239,194.35905 722.3599,194.17605 722.3109,193.99005 C722.2629,193.80505 722.1979,193.61405 722.1169,193.42005 C722.1009,193.35605 722.0929,193.29505 722.0929,193.23805 C722.0929,193.18205 722.0849,193.12105 722.0679,193.05605 C722.0039,192.86205 721.9639,192.65105 721.9469,192.42505 C721.9309,192.19805 721.9139,191.97205 721.8979,191.74405 C721.8979,191.66405 721.8939,191.57505 721.8869,191.47805 C721.8779,191.38105 721.8819,191.29205 721.8979,191.21105 L721.8979,190.91905 L721.9709,190.33605 C722.0349,190.06105 722.0929,189.79405 722.1409,189.53505 C722.1899,189.27605 722.2629,189.03405 722.3599,188.80705 C723.0559,187.12305 724.2369,185.93405 725.9049,185.23705 C726.1309,185.14105 726.3619,185.07205 726.5969,185.03105 C726.8309,184.99105 727.0769,184.93805 727.3369,184.87305 C727.4659,184.85705 727.5879,184.84905 727.7019,184.84905 C727.8149,184.84905 727.9359,184.84105 728.0649,184.82505 C728.1166,184.82405 728.1678,184.82345 728.2186,184.82335 L728.2943,184.82345 Z M741.6557,180.56225 C741.6227,180.56225 741.5867,180.56625 741.5457,180.57325 C741.5057,180.58225 741.4617,180.58625 741.4127,180.58625 C741.2677,180.65125 741.1617,180.73125 741.0977,180.82925 C741.0167,180.95825 740.9797,181.17725 740.9887,181.48525 C740.9967,181.79225 740.9997,182.05925 740.9997,182.28525 L740.9997,196.80625 C740.9997,196.98325 741.0087,197.15325 741.0247,197.31525 C741.0397,197.47725 741.0897,197.59825 741.1707,197.67925 C741.2677,197.76125 741.3917,197.80925 741.5457,197.82525 C741.7007,197.84225 741.8657,197.84925 742.0437,197.84925 L743.4767,197.84925 C743.6067,197.84925 743.7357,197.85725 743.8657,197.87425 C743.9947,197.88925 744.1167,197.88225 744.2297,197.84925 C744.4567,197.78525 744.6017,197.69625 744.6657,197.58325 C744.7477,197.45325 744.7837,197.25925 744.7757,197.00025 C744.7677,196.74125 744.7637,196.50525 744.7637,196.29525 L744.7637,181.77525 C744.7637,181.56625 744.7587,181.37125 744.7517,181.19325 C744.7427,181.01525 744.6987,180.86925 744.6177,180.75625 C744.5367,180.64325 744.4157,180.58225 744.2537,180.57325 C744.0917,180.56625 743.9217,180.56225 743.7437,180.56225 L741.6557,180.56225 Z M758.8977,189.57025 C758.8977,189.32725 758.8817,189.09225 758.8497,188.86525 C758.8327,188.83325 758.8247,188.76925 758.8247,188.67125 C758.7917,188.55825 758.7717,188.44525 758.7637,188.33225 C758.7557,188.21925 758.7357,188.09725 758.7037,187.96725 C758.6387,187.75725 758.5737,187.55125 758.5087,187.34825 C758.4447,187.14625 758.3547,186.95625 758.2417,186.77825 C757.8687,186.17925 757.3597,185.72525 756.7127,185.41825 C756.0657,185.11125 755.2557,184.97325 754.2837,185.00525 C754.2517,185.02125 754.1877,185.02525 754.0897,185.01725 C753.9927,185.00925 753.9197,185.01325 753.8717,185.02925 C753.6937,185.06225 753.5267,185.08625 753.3737,185.10225 C753.2197,185.11825 753.0697,185.15125 752.9247,185.19925 C752.3907,185.39325 751.9047,185.65225 751.4677,185.97625 C751.3377,186.05725 751.2167,186.16725 751.1037,186.30425 C750.9897,186.44225 750.8437,186.50225 750.6667,186.48625 C750.6177,186.45425 750.5817,186.42925 750.5567,186.41325 C750.5327,186.39725 750.5047,186.34925 750.4717,186.26725 C750.4397,186.21925 750.4277,186.17025 750.4357,186.12225 C750.4437,186.07325 750.4397,186.01725 750.4237,185.95225 C750.3907,185.82325 750.3547,185.70925 750.3147,185.61225 C750.2737,185.51525 750.1967,185.44225 750.0837,185.39325 C749.9867,185.36125 749.8777,185.34125 749.7557,185.33325 C749.6347,185.32525 749.5087,185.32025 749.3797,185.32025 L748.1047,185.32025 C748.0157,185.32025 747.9307,185.32925 747.8497,185.34525 L747.7287,185.34525 C747.6477,185.36125 747.5707,185.38125 747.4977,185.40625 C747.4247,185.43025 747.3717,185.46625 747.3397,185.51525 C747.2587,185.61225 747.2147,185.73325 747.2057,185.87925 C747.1977,186.02425 747.1947,186.18725 747.1947,186.36525 L747.1947,196.24725 C747.1947,196.48925 747.1897,196.74925 747.1827,197.02325 C747.1747,197.29925 747.2257,197.51025 747.3397,197.65525 C747.4207,197.75325 747.5497,197.80925 747.7287,197.82525 C747.9067,197.84225 748.0837,197.84925 748.2627,197.84925 L749.4767,197.84925 C749.7347,197.84925 749.9537,197.83425 750.1327,197.80125 C750.3107,197.76925 750.4397,197.66425 750.5217,197.48525 C750.5697,197.38925 750.5937,197.26625 750.5937,197.12125 L750.5937,192.16725 C750.5937,191.27725 750.6427,190.47725 750.7397,189.76425 C750.8367,189.05225 751.1437,188.51025 751.6617,188.13725 C751.8877,187.97625 752.1877,187.84625 752.5607,187.74925 C752.6087,187.73225 752.6567,187.72425 752.7067,187.72425 C752.7547,187.72425 752.8107,187.71625 752.8757,187.70025 C752.9407,187.68425 753.0337,187.67225 753.1547,187.66425 C753.2767,187.65625 753.3777,187.66025 753.4587,187.67625 C753.5567,187.70825 753.6487,187.72425 753.7377,187.72425 C753.8267,187.72425 753.9117,187.74125 753.9927,187.77325 C754.4297,187.90325 754.7617,188.12925 754.9877,188.45325 C755.2317,188.80925 755.3767,189.24225 755.4257,189.75225 C755.4747,190.26225 755.4977,190.81725 755.4977,191.41525 L755.4977,196.73325 C755.4977,196.91125 755.5027,197.07625 755.5107,197.23025 C755.5187,197.38425 755.5547,197.51025 755.6207,197.60625 C755.7007,197.72125 755.8177,197.78925 755.9717,197.81325 C756.1257,197.83725 756.2997,197.84925 756.4937,197.84925 L758.1937,197.84925 C758.3228,197.84925 758.4357,197.83425 758.5327,197.80125 C758.7607,197.72125 758.8767,197.53825 758.8857,197.25525 C758.8927,196.97225 758.8977,196.67625 758.8977,196.36825 L758.8977,189.57025 Z M702.3398,181.30475 C702.3398,181.17475 702.3478,181.04975 702.3638,180.92875 C702.3798,180.80675 702.4038,180.71375 702.4368,180.64875 C702.5018,180.53575 702.6308,180.45475 702.8258,180.40675 C702.8578,180.39075 702.8898,180.38675 702.9218,180.39475 C702.9548,180.40275 702.9868,180.39775 703.0198,180.38175 L706.9898,180.38175 C707.2568,180.38175 707.4628,180.43875 707.6088,180.55275 C707.7218,180.63375 707.8028,180.75075 707.8518,180.90475 C707.8998,181.05875 707.9478,181.20775 707.9968,181.35275 C708.0938,181.61275 708.1868,181.87575 708.2768,182.14275 C708.3648,182.40975 708.4588,182.68075 708.5558,182.95575 C708.9278,183.97575 709.2798,185.01175 709.6118,186.06375 C709.9438,187.11575 710.3038,188.15975 710.6928,189.19575 C710.8218,189.51975 710.9348,189.85175 711.0318,190.19175 C711.1288,190.53175 711.2418,190.86375 711.3718,191.18775 C711.4038,191.26875 711.4368,191.34975 711.4698,191.42975 C711.5008,191.51075 711.5578,191.57575 711.6388,191.62475 C711.6718,191.64075 711.7038,191.65675 711.7368,191.67275 C711.7688,191.68875 711.8008,191.68175 711.8328,191.64875 C711.9628,191.61575 712.0518,191.51975 712.0998,191.35675 C712.1488,191.19575 712.1978,191.04975 712.2458,190.91975 C712.3758,190.54775 712.4938,190.17975 712.5978,189.81475 C712.7028,189.45075 712.8208,189.08275 712.9508,188.70975 C713.2748,187.72375 713.5978,186.73175 713.9218,185.73575 C714.2458,184.73975 714.5688,183.74075 714.8928,182.73775 C714.9738,182.47875 715.0538,182.22375 715.1358,181.97175 C715.2168,181.72175 715.2978,181.46675 715.3788,181.20775 C715.4278,181.07875 715.4758,180.94875 715.5238,180.81875 C715.5728,180.68975 715.6618,180.58475 715.7908,180.50375 C715.8888,180.42275 716.0138,180.38175 716.1678,180.38175 L720.3438,180.38175 C720.4978,180.38175 720.6148,180.41475 720.6958,180.47975 C720.8738,180.57575 720.9638,180.75875 720.9638,181.02575 L720.9638,196.62675 C720.9638,196.80375 720.9598,196.97875 720.9508,197.14775 C720.9428,197.31775 720.8908,197.44375 720.7938,197.52475 C720.6958,197.60575 720.5748,197.64975 720.4288,197.65775 C720.2838,197.66575 720.1219,197.67075 719.9438,197.67075 L718.1218,197.67075 C717.9928,197.63775 717.8838,197.61375 717.7948,197.59775 C717.7058,197.58175 717.6288,197.52475 717.5638,197.42675 C717.4988,197.34675 717.4668,197.24175 717.4668,197.11175 L717.4668,189.21975 C717.4498,188.99375 717.4428,188.77975 717.4428,188.57675 L717.4428,187.95775 C717.4428,187.82775 717.4468,187.69475 717.4548,187.55775 C717.4628,187.41975 717.4498,187.28675 717.4188,187.15675 C717.3858,187.04375 717.3698,186.92175 717.3698,186.79175 C717.3698,186.66275 717.3218,186.58175 717.2238,186.54975 C717.1758,186.53275 717.1398,186.54175 717.1148,186.57375 C717.0908,186.60575 717.0698,186.63075 717.0538,186.64575 C716.9898,186.71175 716.9368,186.78875 716.8968,186.87675 C716.8558,186.96675 716.8188,187.05075 716.7868,187.13275 C716.6898,187.37475 716.5968,187.62575 716.5078,187.88475 C716.4188,188.14375 716.3258,188.40275 716.2278,188.66175 C716.1958,188.75875 716.1678,188.85575 716.1438,188.95275 C716.1198,189.04975 716.0828,189.14775 716.0338,189.24475 C715.9528,189.45475 715.8808,189.66575 715.8158,189.87575 C715.7508,190.08575 715.6778,190.29775 715.5968,190.50675 C715.5638,190.55575 715.5488,190.60775 715.5488,190.66475 C715.5488,190.72275 715.5318,190.77375 715.5008,190.82275 C715.4358,190.96875 715.3828,191.12275 715.3418,191.28375 C715.3018,191.44575 715.2418,191.60875 715.1598,191.77075 C715.0958,191.91575 715.0428,192.06975 715.0028,192.23175 C714.9608,192.39275 714.9098,192.55475 714.8448,192.71675 C714.6508,193.18575 714.4808,193.65975 714.3348,194.13775 C714.1888,194.61475 714.0268,195.08875 713.8488,195.55775 C713.8168,195.60575 713.8008,195.65475 713.8008,195.70375 C713.8008,195.75175 713.7838,195.80075 713.7518,195.84975 C713.6708,196.02675 713.6058,196.20975 713.5578,196.39575 C713.5098,196.58175 713.4438,196.76375 713.3638,196.94175 C713.3148,197.05575 713.2708,197.15975 713.2298,197.25775 C713.1898,197.35375 713.1278,197.43475 713.0478,197.49975 C712.9668,197.56475 712.8858,197.60175 712.8048,197.60975 C712.7228,197.61775 712.6268,197.63775 712.5138,197.67075 L711.9548,197.67075 C711.8417,197.67075 711.7078,197.67375 711.5548,197.68275 C711.3998,197.69075 711.2468,197.69475 711.0928,197.69475 C710.9388,197.69475 710.7968,197.68575 710.6678,197.67075 C710.5378,197.65475 710.4408,197.62075 710.3768,197.57275 C710.2468,197.49175 710.1578,197.39875 710.1098,197.29375 C710.0608,197.18875 710.0038,197.06275 709.9398,196.91675 C709.8588,196.72375 709.7898,196.52475 709.7328,196.32275 C709.6758,196.11975 709.6078,195.92275 709.5268,195.72775 L709.4538,195.50875 C709.3728,195.31475 709.2998,195.10875 709.2348,194.88975 C709.1698,194.67075 709.0978,194.46475 709.0168,194.27075 C709.0008,194.22275 708.9888,194.17775 708.9808,194.13775 C708.9718,194.09775 708.9598,194.05275 708.9438,194.00375 C708.8628,193.85875 708.7978,193.70375 708.7498,193.54175 C708.7018,193.38075 708.6438,193.21875 708.5798,193.05675 C708.5638,193.02475 708.5508,192.98375 708.5438,192.93575 C708.5348,192.88675 708.5228,192.84675 708.5068,192.81375 C708.4418,192.65175 708.3898,192.49075 708.3488,192.32875 C708.3088,192.16675 708.2478,192.00475 708.1668,191.84375 C708.0378,191.51975 707.9158,191.17875 707.8028,190.82275 C707.6888,190.46675 707.5678,190.11875 707.4378,189.77875 C707.2928,189.37375 707.1548,188.96175 707.0258,188.54075 C706.8958,188.11975 706.7428,187.71475 706.5648,187.32675 C706.4838,187.09975 706.3948,186.91375 706.2978,186.76775 C706.2648,186.73575 706.2328,186.70775 706.2008,186.68275 C706.1678,186.65875 706.1278,186.66275 706.0788,186.69475 C705.9978,186.74375 705.9568,186.82475 705.9568,186.93775 C705.9568,187.05075 705.9408,187.16475 705.9088,187.27775 C705.8758,187.39175 705.8638,187.50875 705.8728,187.62975 C705.8808,187.75175 705.8848,187.87675 705.8848,188.00575 L705.8848,188.54075 C705.8848,188.71875 705.8758,188.89675 705.8608,189.07475 L705.8608,197.11175 C705.8608,197.24175 705.8278,197.34675 705.7628,197.42675 C705.6978,197.54075 705.5768,197.61375 705.3988,197.64575 C705.2858,197.67875 705.1638,197.69075 705.0348,197.68275 C704.9048,197.67375 704.7748,197.67075 704.6458,197.67075 L703.3838,197.67075 C703.2058,197.67075 703.0438,197.66575 702.8978,197.65775 C702.7528,197.64975 702.6308,197.60575 702.5338,197.52475 C702.4368,197.44375 702.3798,197.31775 702.3638,197.14775 C702.3478,196.97875 702.3398,196.80375 702.3398,196.62675 L702.3398,181.30475 Z M663.666,181.42575 C663.666,181.28075 663.669,181.13475 663.678,180.98875 C663.686,180.84375 663.714,180.72975 663.762,180.64875 C663.827,180.53575 663.956,180.45475 664.151,180.40675 C664.184,180.39075 664.216,180.38675 664.248,180.39475 C664.28,180.40275 664.313,180.39775 664.345,180.38175 L666.409,180.38175 C666.587,180.38175 666.761,180.38675 666.931,180.39475 C667.101,180.40275 667.226,180.46275 667.308,180.57575 C667.388,180.68975 667.429,180.83975 667.429,181.02575 L667.429,192.61975 C667.429,192.74975 667.425,192.87475 667.417,192.99575 C667.408,193.11775 667.42,193.23475 667.453,193.34775 L667.453,193.59075 C667.453,193.70375 667.457,193.81375 667.466,193.91875 C667.473,194.02475 667.493,194.11775 667.526,194.19775 C667.639,194.40875 667.866,194.51375 668.206,194.51375 L672.477,194.51375 C672.607,194.51375 672.769,194.50975 672.963,194.50175 C673.157,194.49275 673.343,194.49275 673.521,194.50175 C673.699,194.50975 673.865,194.52975 674.019,194.56275 C674.173,194.59475 674.274,194.64375 674.323,194.70775 C674.404,194.80475 674.444,194.92675 674.444,195.07275 L674.444,196.64975 C674.444,196.77975 674.448,196.90175 674.456,197.01475 C674.464,197.12775 674.452,197.22575 674.42,197.30575 C674.355,197.43475 674.274,197.52475 674.177,197.57275 C674.096,197.63775 673.974,197.67075 673.813,197.67075 L664.734,197.67075 C664.507,197.67075 664.309,197.65775 664.139,197.63375 C663.969,197.60975 663.843,197.53275 663.762,197.40375 C663.698,197.30575 663.666,197.18075 663.666,197.02675 L663.666,181.42575 Z M684.1563,191.79345 C684.1723,191.71345 684.1813,191.59545 684.1813,191.44145 C684.1813,191.28845 684.1723,191.17045 684.1563,191.08945 L684.1563,190.89545 C684.1243,190.81545 684.1083,190.72545 684.1083,190.62945 C684.1083,190.53145 684.0993,190.44245 684.0833,190.36245 C684.0833,190.29745 684.0753,190.24945 684.0593,190.21645 C684.0263,190.08645 683.9983,189.95345 683.9743,189.81545 C683.9503,189.67745 683.9133,189.54445 683.8653,189.41445 C683.6863,188.99345 683.4763,188.63345 683.2333,188.33445 C682.9903,188.03445 682.6673,187.79645 682.2633,187.61745 C682.1653,187.58545 682.0683,187.55745 681.9713,187.53245 C681.8743,187.50845 681.7683,187.48045 681.6553,187.44745 C681.5263,187.41545 681.3883,187.40345 681.2433,187.41145 C681.0973,187.41945 680.9513,187.42345 680.8053,187.42345 C680.7573,187.45645 680.7003,187.46845 680.6363,187.45945 C680.5713,187.45145 680.5143,187.45645 680.4663,187.47145 C680.3523,187.50445 680.2433,187.53245 680.1383,187.55745 C680.0323,187.58145 679.9393,187.61745 679.8593,187.66645 C679.4543,187.84445 679.1263,188.09945 678.8753,188.43045 C678.6243,188.76245 678.4263,189.14745 678.2803,189.58445 C678.2323,189.74645 678.1953,189.91745 678.1713,190.09445 C678.1473,190.27245 678.1193,190.45045 678.0863,190.62945 C678.0703,190.71045 678.0623,190.79045 678.0623,190.87145 L678.0623,191.11345 C678.0293,191.22745 678.0173,191.39845 678.0263,191.62445 C678.0333,191.85145 678.0533,192.02045 678.0863,192.13445 L678.0863,192.35245 C678.1193,192.48245 678.1423,192.60745 678.1593,192.72945 C678.1753,192.85045 678.1993,192.97545 678.2323,193.10445 C678.3933,193.59145 678.5673,193.98345 678.7543,194.28245 C678.9393,194.58245 679.2353,194.85345 679.6403,195.09645 C679.7533,195.17745 679.8793,195.24245 680.0163,195.29045 C680.1543,195.33945 680.2953,195.37945 680.4413,195.41145 C680.5063,195.42745 680.5633,195.43245 680.6113,195.42445 C680.6603,195.41645 680.7163,195.42045 680.7813,195.43645 C680.8463,195.45245 680.9153,195.46445 680.9883,195.47245 C681.0613,195.48145 681.1293,195.47745 681.1943,195.46045 L681.3883,195.46045 C681.5183,195.42745 681.6473,195.40445 681.7773,195.38745 C681.9063,195.37145 682.0273,195.33945 682.1413,195.29045 C682.5623,195.12945 682.9023,194.91045 683.1613,194.63545 C683.4203,194.35945 683.6383,194.02045 683.8163,193.61545 C683.8803,193.45345 683.9293,193.29145 683.9623,193.12945 C683.9943,192.96845 684.0353,192.79745 684.0833,192.62045 C684.0993,192.55545 684.1083,192.49445 684.1083,192.43745 C684.1083,192.38145 684.1163,192.31945 684.1323,192.25545 L684.1323,192.02445 C684.1323,191.95245 684.1403,191.87545 684.1563,191.79345 Z M697.4499,192.81405 C697.5149,192.66805 697.5709,192.48205 697.6199,192.25505 C697.6689,192.02905 697.7009,191.79005 697.7169,191.53905 C697.7329,191.28805 697.7369,191.04205 697.7299,190.79905 C697.7209,190.55605 697.6929,190.33705 697.6439,190.14305 C697.6119,190.07805 697.5989,190.02605 697.6079,189.98505 C697.6159,189.94505 697.6119,189.89205 697.5959,189.82705 C697.5629,189.71405 697.5309,189.60105 697.4989,189.48705 C697.4659,189.37405 697.4259,189.26905 697.3769,189.17105 C697.1499,188.60505 696.8269,188.16805 696.4059,187.86005 C695.9849,187.55305 695.3699,187.39905 694.5609,187.39905 C694.5279,187.43205 694.4839,187.44405 694.4269,187.43505 C694.3699,187.42805 694.3179,187.43205 694.2689,187.44805 C694.1559,187.48105 694.0509,187.50805 693.9529,187.53305 C693.8569,187.55705 693.7589,187.58605 693.6619,187.61805 C693.2409,187.79605 692.9169,188.06305 692.6909,188.41905 C692.4639,188.77505 692.2779,189.17105 692.1319,189.60905 C692.0999,189.69005 692.0839,189.75405 692.0839,189.80305 C692.0839,189.85205 692.0759,189.91705 692.0599,189.99705 C692.0109,190.17605 691.9789,190.43505 691.9619,190.77405 C691.9459,191.11405 691.9619,191.39005 692.0109,191.60005 L692.0109,191.84305 C692.0439,191.97205 692.0679,192.09805 692.0839,192.21805 C692.0999,192.34005 692.1239,192.46605 692.1569,192.59505 C692.3029,193.01705 692.4809,193.38405 692.6909,193.70005 C692.9009,194.01605 693.1929,194.27105 693.5649,194.46505 C693.7269,194.54605 693.9529,194.62705 694.2449,194.70705 C694.3579,194.70705 694.4469,194.71605 694.5119,194.73205 C694.5439,194.73205 694.5929,194.73605 694.6579,194.74305 C694.7219,194.75205 694.7709,194.74905 694.8029,194.73205 L695.0459,194.73205 C695.1919,194.70005 695.3299,194.67605 695.4589,194.65905 C695.5879,194.64405 695.7179,194.60305 695.8479,194.53805 C696.2519,194.37705 696.5799,194.14905 696.8309,193.85905 C697.0819,193.56705 697.2879,193.21905 697.4499,192.81405 Z M730.7119,189.87505 C730.8249,189.71305 730.8379,189.51505 730.7479,189.28005 C730.6599,189.04605 730.5909,188.87105 730.5419,188.75805 C730.3149,188.32105 730.0159,187.98505 729.6439,187.75105 C729.2709,187.51605 728.7539,187.39005 728.0899,187.37405 C728.0419,187.40705 727.9839,187.41505 727.9209,187.39905 C727.8549,187.38305 727.7979,187.38305 727.7499,187.39905 C727.6689,187.43105 727.5799,187.45105 727.4829,187.45905 C727.3859,187.46805 727.2959,187.48805 727.2159,187.52005 C726.5029,187.74705 725.9779,188.19205 725.6379,188.85505 C725.6049,188.92005 725.5679,189.00605 725.5279,189.11005 C725.4879,189.21605 725.4589,189.32105 725.4429,189.42605 C725.4269,189.53205 725.4319,189.63205 725.4559,189.73005 C725.4799,189.82705 725.5319,189.90805 725.6129,189.97305 C725.7429,190.05405 725.9199,190.09405 726.1469,190.09405 L729.4979,190.09405 C729.7249,190.09405 729.9629,190.09005 730.2149,190.08205 C730.4659,190.07405 730.6309,190.00505 730.7119,189.87505 Z"></path></g></g>
</svg>