<svg width="96" height="24" viewBox="0 0 96 24" xmlns="http://www.w3.org/2000/svg"><path d="M18.591 1.023v22.321l-14.777-13.659v12.519h-3.814v-21.581l14.776 13.659v-13.259h3.815zm32.981 13.752l4.397-10.027h4.309l-8.709 18.441-8.669-18.441h4.306l4.366 10.027zm-12.888-7.367c-1.675-1.674-3.946-2.597-6.393-2.597-5.032 0-8.972 3.926-8.972 8.938 0 2.425.915 4.677 2.578 6.339 1.675 1.676 3.946 2.598 6.394 2.598 2.447 0 4.718-.922 6.393-2.598 1.662-1.662 2.579-3.914 2.579-6.339 0-2.426-.917-4.678-2.579-6.341zm32.181-2.855c2.456.006 4.443.749 5.902 2.21 1.608 1.608 2.458 3.977 2.458 6.853v.754h-13.246c.147 2.453 1.889 4.964 4.967 4.964 2.494 0 3.795-1.238 4.981-3.098l.129-.203 3.266 1.761-.13.229c-1.664 2.917-4.759 4.657-8.283 4.657-2.521 0-4.692-.838-6.279-2.426-1.624-1.624-2.519-3.943-2.519-6.532 0-5.656 3.343-9.169 8.725-9.169h.029zm12.903 17.657h3.72v-22.21h-3.72v22.21zm8.193 0h3.721v-22.21h-3.721v22.21zm-59.67-3.23c-1.341 0-2.61-.532-3.576-1.498-.987-.987-1.554-2.348-1.554-3.733 0-1.415.548-2.742 1.545-3.738.964-.964 2.236-1.495 3.585-1.495 1.346 0 2.62.531 3.583 1.495.997.996 1.544 2.323 1.544 3.738 0 2.885-2.3 5.231-5.127 5.231zm43.018-7.532c-.491-2.272-2.141-3.62-4.473-3.62-2.293 0-4.11 1.443-4.619 3.62h9.092z" fill="#686879"/></svg>