<svg width="109" height="25" viewBox="0 0 109 25" xmlns="http://www.w3.org/2000/svg"><path d="M34.571 24.902h-31.192v-.004c-1.874-.047-3.379-1.577-3.379-3.462v-17.328c0-1.885 1.505-3.416 3.379-3.462v-.004h31.192v.004l.086-.004c1.914 0 3.466 1.552 3.466 3.466v17.328c0 1.914-1.552 3.466-3.466 3.466l-.032-.001-.021-.001-.032-.001v.004zm26.335-15.18h-1.957c.062-.932.259-1.739.59-2.423.331-.683.781-1.242 1.351-1.677.57-.435 1.238-.756 2.004-.963.766-.207 1.615-.311 2.547-.311.704 0 1.408.068 2.112.202.704.135 1.336.388 1.895.761.56.373 1.015.896 1.367 1.569.352.673.528 1.548.528 2.625v8.511c0 .788.383 1.181 1.15 1.181.227 0 .434-.042.621-.125v1.646c-.228.042-.43.074-.606.094-.176.021-.399.031-.668.031-.497 0-.896-.067-1.196-.202-.3-.134-.533-.326-.699-.575-.166-.248-.274-.543-.326-.884-.052-.343-.078-.721-.078-1.134h-.062c-.352.517-.709.978-1.071 1.381-.363.405-.767.741-1.212 1.01-.445.269-.953.477-1.522.621-.57.145-1.248.218-2.035.218-.745 0-1.444-.088-2.096-.264-.653-.175-1.223-.456-1.709-.839-.487-.383-.869-.87-1.149-1.46s-.419-1.289-.419-2.097c0-1.118.248-1.993.745-2.625.497-.631 1.154-1.112 1.973-1.444.817-.331 1.739-.564 2.764-.699 1.025-.134 2.066-.264 3.122-.388.414-.041.777-.093 1.087-.156.311-.062.57-.17.777-.326.207-.155.367-.367.481-.636.114-.27.171-.622.171-1.057 0-.662-.109-1.206-.326-1.63-.218-.425-.518-.761-.901-1.01-.383-.248-.828-.419-1.336-.513-.507-.093-1.051-.139-1.63-.139-1.243 0-2.258.295-3.044.885-.788.59-1.202 1.537-1.243 2.842zm-4.628.125h-1.957c-.269-1.201-.766-2.144-1.491-2.827-.725-.683-1.739-1.025-3.044-1.025-.932 0-1.75.197-2.454.59-.704.394-1.289.911-1.755 1.553-.466.642-.818 1.372-1.056 2.19-.239.818-.358 1.652-.358 2.501s.119 1.682.358 2.5c.238.819.59 1.548 1.056 2.19.466.643 1.051 1.161 1.755 1.554s1.522.59 2.454.59c.6 0 1.17-.114 1.708-.343.539-.227 1.015-.543 1.429-.946.414-.405.756-.886 1.025-1.445.269-.559.435-1.17.497-1.833h1.957c-.269 1.947-.983 3.464-2.143 4.551-1.16 1.087-2.651 1.631-4.473 1.631-1.222 0-2.304-.224-3.246-.668-.943-.445-1.735-1.05-2.377-1.817-.642-.766-1.128-1.662-1.459-2.687-.332-1.025-.498-2.117-.498-3.277 0-1.16.166-2.252.498-3.278.331-1.025.817-1.92 1.459-2.687.642-.766 1.434-1.376 2.377-1.832.942-.456 2.024-.683 3.246-.683 1.718 0 3.173.455 4.364 1.366 1.191.912 1.9 2.289 2.128 4.132zm29.323 3.51c0 .704.098 1.434.295 2.189.197.757.513 1.435.948 2.035.435.601.983 1.099 1.646 1.492.662.393 1.46.589 2.392.589 1.429 0 2.547-.372 3.355-1.118.807-.745 1.367-1.74 1.677-2.982h1.957c-.414 1.823-1.176 3.231-2.283 4.225-1.108.993-2.677 1.491-4.706 1.491-1.263 0-2.356-.224-3.277-.668-.922-.445-1.673-1.057-2.252-1.833-.58-.776-1.01-1.677-1.289-2.702-.28-1.026-.42-2.107-.42-3.246 0-1.057.14-2.092.42-3.107.279-1.014.709-1.92 1.289-2.718.579-.797 1.33-1.439 2.252-1.925.921-.487 2.014-.73 3.277-.73 1.284 0 2.381.259 3.292.776.911.518 1.652 1.196 2.222 2.035.569.838.978 1.801 1.226 2.888.249 1.088.353 2.19.311 3.309h-12.332zm-68.816 2.205c-.31 1.243-.87 2.237-1.677 2.982-.808.746-1.926 1.119-3.355 1.119-.932 0-1.729-.197-2.392-.59-.663-.393-1.211-.891-1.646-1.492-.435-.6-.751-1.278-.948-2.034-.197-.756-.295-1.486-.295-2.19h12.332c.042-1.118-.062-2.221-.31-3.308-.249-1.088-.658-2.051-1.227-2.889-.57-.839-1.31-1.517-2.221-2.035-.912-.517-2.009-.776-3.293-.776-1.263 0-2.356.243-3.277.73-.922.486-1.673 1.128-2.252 1.926-.58.797-1.01 1.703-1.289 2.717-.28 1.015-.42 2.051-.42 3.107 0 1.139.14 2.221.42 3.246.279 1.025.709 1.926 1.289 2.702.579.777 1.33 1.388 2.252 1.833.921.445 2.014.668 3.277.668 2.029 0 3.598-.498 4.706-1.491 1.108-.994 1.869-2.402 2.283-4.225h-1.957zm61.578-10.747h3.262v1.646h-3.262v10.81c0 .642.088 1.145.264 1.506.176.363.616.566 1.321.606.559 0 1.118-.03 1.677-.092v1.646c-.29 0-.58.009-.87.031-.29.02-.58.031-.87.031-1.304 0-2.216-.253-2.733-.761-.518-.508-.767-1.445-.746-2.812v-10.965h-2.795v-1.646h2.795v-4.815h1.957v4.815zm-45.363 0h-12.239v1.646h9.754l-10.468 12.798v1.584h13.388v-1.646h-11.027l10.592-12.985v-1.397zm69.53 16.028h-1.957v-16.028h1.802v3.759h.062c.497-1.305 1.268-2.309 2.314-3.014 1.046-.703 2.294-1.025 3.743-.962v1.956c-.89-.041-1.698.078-2.423.358-.725.279-1.351.678-1.879 1.196-.528.517-.937 1.133-1.227 1.848-.29.714-.435 1.496-.435 2.345v8.542zm-33.144-8.759h-.062c-.124.228-.362.394-.714.497-.353.104-.663.176-.932.217-.829.146-1.683.275-2.563.389-.881.114-1.683.285-2.407.512-.726.228-1.321.555-1.786.979-.467.424-.7 1.03-.7 1.817 0 .497.098.937.296 1.32.196.384.46.715.792.994.331.28.714.492 1.149.637.435.145.88.217 1.336.217.745 0 1.46-.113 2.143-.342.684-.227 1.279-.558 1.786-.993.507-.435.911-.963 1.212-1.585.3-.621.45-1.325.45-2.112v-2.547zm-53.937-4.333c-.435-.528-.963-.953-1.584-1.274-.621-.321-1.325-.481-2.112-.481-.808 0-1.523.16-2.144.481-.621.321-1.149.746-1.584 1.274-.435.528-.782 1.139-1.04 1.833-.26.694-.43 1.403-.513 2.128h10.375c-.021-.746-.15-1.461-.388-2.144-.239-.683-.575-1.289-1.01-1.817zm80.138 1.817c-.238-.683-.575-1.289-1.01-1.817-.435-.528-.962-.953-1.584-1.274-.621-.321-1.325-.481-2.112-.481-.808 0-1.522.16-2.143.481-.622.321-1.15.746-1.585 1.274-.435.528-.782 1.139-1.04 1.833-.26.694-.43 1.402-.513 2.128h10.375c-.021-.746-.15-1.461-.388-2.144z" fill="#686879"/></svg>