<?xml version="1.0" encoding="UTF-8"?>
<svg width="108px" height="29px" viewBox="0 0 108 29" xmlns="http://www.w3.org/2000/svg"><g stroke="none" stroke-width="1" fill="none" fill-rule="evenodd"><g transform="translate(-504.000000, -378.000000)" fill="#686879"><path d="M529.809,401.599 C527.171,404.879 523.107,407.018 518.473,407.018 C510.488,407.018 504,400.53 504,392.544 C504,384.488 510.488,378 518.473,378 C523.107,378 527.171,380.139 529.809,383.49 L529.381,383.775 C527.028,381.28 523.749,379.782 520.113,379.782 C513.054,379.782 507.351,385.486 507.351,392.544 C507.351,399.531 513.054,405.235 520.113,405.235 C523.749,405.235 527.028,403.738 529.381,401.314 L529.809,401.599 Z M524.0344,395.2538 C523.7484,395.6818 522.6794,397.1078 520.2554,397.1078 C517.6174,397.1078 515.7634,395.1828 515.7634,392.5448 C515.7634,389.8348 517.6884,387.9098 520.2554,387.9098 C522.6794,387.9098 523.8204,389.4788 524.0344,389.7638 L526.2444,388.3378 C526.1014,388.0528 524.5334,385.2008 520.2554,385.2008 C515.6924,385.2008 512.7694,388.1958 512.7694,392.5448 C512.7694,396.7508 515.6924,399.8168 520.2554,399.8168 C524.4614,399.8168 526.0304,397.0358 526.2444,396.6798 L524.0344,395.2538 Z M599.3934,391.2608 C601.6754,392.0458 603.1014,393.2578 603.1014,395.2538 C603.1014,398.0338 600.7484,399.4598 597.6114,399.4598 C594.7594,399.4598 593.2624,398.5338 592.7634,398.2478 L593.9044,396.1088 C594.1894,396.2518 595.6864,397.1078 597.7544,397.1078 C599.1794,397.1078 600.2494,396.4658 600.2494,395.5388 C600.2494,394.7548 599.6794,394.1838 598.2534,393.6848 L596.6844,393.1858 C594.9024,392.6158 593.4054,391.4038 593.4054,389.3358 C593.4054,387.0548 595.4724,385.5578 598.3244,385.5578 C600.8194,385.5578 602.1034,386.4128 602.6024,386.6978 L601.5324,388.7658 C601.2474,388.6228 600.0354,387.9098 598.2534,387.9098 C596.8274,387.9098 596.2564,388.5518 596.2564,389.1938 C596.2564,389.8348 596.7554,390.3338 597.9674,390.8338 L599.3934,391.2608 Z M591.1944,385.8428 L591.1944,399.1748 L588.3424,399.1748 L588.2714,397.6778 C587.9154,398.0338 586.5604,399.4598 583.9934,399.4598 C579.7874,399.4598 577.0064,396.5368 577.0064,392.5448 C577.0064,388.3378 579.9304,385.5578 583.9934,385.5578 C586.7034,385.5578 587.9864,387.1258 588.2714,387.3398 C588.2714,387.1265 588.3419,385.8514 588.3424,385.8428 L591.1944,385.8428 Z M606.024,385.8428 L606.095,383.5608 L609.018,382.1348 L608.876,385.8428 L611.656,385.8428 L611.656,388.0528 L608.876,388.0528 L608.876,395.3958 C608.876,396.6798 609.517,397.1078 610.658,397.1078 C611.3,397.1078 611.87,396.9648 611.941,396.8938 L611.585,399.1748 C611.442,399.2458 610.729,399.4598 609.589,399.4598 C607.592,399.4598 606.024,398.2478 606.024,395.5388 L606.024,388.0528 L603.8854,388.0528 L603.8854,385.8428 L606.024,385.8428 Z M573.9414,395.1108 C573.7274,395.5388 572.6574,396.8938 570.3764,396.8938 C567.8814,396.8938 566.0984,395.0398 566.0984,392.5448 C566.0984,389.9778 567.8814,388.1238 570.3764,388.1238 C572.6574,388.1238 573.7984,389.6218 573.9414,389.9068 L576.0804,388.5518 C575.9374,388.2668 574.3694,385.5578 570.3764,385.5578 C566.0274,385.5578 563.1754,388.4088 563.1754,392.5448 C563.1754,396.6088 566.0274,399.4598 570.3764,399.4598 C574.3694,399.4598 575.8664,396.8218 576.0804,396.4658 L573.9414,395.1108 Z M534.1584,385.5578 C529.5954,385.5578 527.0284,388.6228 527.0284,392.5448 C527.0284,396.3948 529.5954,399.4598 534.1584,399.4598 C538.5074,399.4598 541.2164,396.3948 541.2164,392.5448 C541.2164,388.6228 538.5074,385.5578 534.1584,385.5578 Z M545.8504,399.1748 L542.9984,399.1748 L542.9984,385.8428 L545.7084,385.8428 L545.7084,387.1258 L545.7794,387.1258 C545.9934,386.8408 547.0624,385.5578 549.1304,385.5578 C551.4834,385.5578 552.4094,387.1968 552.5524,387.4828 C552.8374,387.1258 553.9784,385.5578 556.5454,385.5578 C559.6104,385.5578 561.3934,387.4828 561.3934,390.1918 L561.3934,399.1748 L558.6124,399.1748 L558.6124,390.8338 C558.6124,389.0508 557.6854,388.0528 556.1174,388.0528 C554.5484,388.0528 553.6214,389.1218 553.6214,390.8338 L553.6214,399.1748 L550.7704,399.1748 L550.7704,390.8338 C550.7704,389.0508 549.8434,388.0528 548.3464,388.0528 C546.7064,388.0528 545.8504,389.1218 545.8504,390.8338 L545.8504,399.1748 Z M584.2794,396.8938 C581.4984,396.8938 579.8584,394.8968 579.8584,392.5448 C579.8584,389.9068 581.7124,388.1238 584.2794,388.1238 C587.0594,388.1238 588.6994,390.1208 588.6994,392.5448 C588.6994,394.8968 587.0594,396.8938 584.2794,396.8938 Z M534.1584,396.8938 C531.5914,396.8938 529.8804,394.8968 529.8804,392.5448 C529.8804,390.1208 531.5914,388.1238 534.1584,388.1238 C536.4394,388.1238 538.2934,389.9778 538.2934,392.5448 C538.2934,394.9688 536.4394,396.8938 534.1584,396.8938 Z"></path></g></g>
</svg>