<?xml version="1.0" encoding="UTF-8"?>
<svg width="118px" height="17px" viewBox="0 0 118 17" xmlns="http://www.w3.org/2000/svg"><g stroke="none" stroke-width="1" fill="none" fill-rule="evenodd"><g transform="translate(-252.000000, -482.000000)" fill="#686879"><path d="M339.1879,497.808925 L336.4269,497.808925 L336.4269,496.130925 C336.0189,496.725925 335.4849,497.201925 334.8199,497.560925 C334.1539,497.908925 333.4499,498.090925 332.7149,498.090925 C331.9619,498.090925 331.2859,497.920925 330.6909,497.591925 C330.0919,497.261925 329.6609,496.793925 329.3929,496.190925 C329.1249,495.589925 328.9919,494.757925 328.9919,493.699925 L328.9919,486.567925 L331.9469,486.567925 L331.9469,491.742925 C331.9469,493.319925 331.9999,494.290925 332.1129,494.649925 C332.2229,495.002925 332.4219,495.284925 332.7119,495.498925 C333.0009,495.702925 333.3679,495.808925 333.8119,495.808925 C334.3239,495.808925 334.7799,495.669925 335.1819,495.388925 C335.5849,495.111925 335.8599,494.762925 336.0069,494.350925 C336.1549,493.937925 336.2289,492.928925 336.2289,491.316925 L336.2289,486.567925 L339.1879,486.567925 L339.1879,497.808925 Z M348.6294,482.314825 L351.5864,482.314825 L351.5864,497.808825 L348.8244,497.808825 L348.8244,496.161825 C348.3704,496.800825 347.8304,497.281825 347.2084,497.602825 C346.5834,497.926825 345.9624,498.090825 345.3294,498.090825 C344.0504,498.090825 342.9474,497.570825 342.0294,496.527825 C341.1164,495.492825 340.6604,494.037825 340.6604,492.174825 C340.6604,490.273825 341.1054,488.823825 341.9934,487.831825 C342.8884,486.844825 344.0174,486.343825 345.3844,486.343825 C346.6344,486.343825 347.7144,486.865825 348.6294,487.906825 L348.6294,482.314825 Z M282.9407,495.344225 C283.4277,496.243225 284.1337,496.929225 285.0657,497.391225 C285.9947,497.858225 286.9747,498.090225 287.9987,498.090225 C289.6567,498.090225 291.0307,497.532225 292.1287,496.412225 C293.2167,495.297225 293.7637,493.886225 293.7637,492.183225 C293.7637,490.500225 293.2217,489.106225 292.1457,487.999225 C291.0597,486.900225 289.6727,486.344225 287.9777,486.344225 C286.8807,486.344225 285.8917,486.587225 285.0007,487.075225 C284.1107,487.563225 283.4277,488.266225 282.9407,489.191225 C282.4567,490.115225 282.2167,491.073225 282.2167,492.060225 C282.2167,493.350225 282.4567,494.443225 282.9407,495.344225 Z M358.979,495.344225 C359.463,496.243225 360.172,496.929225 361.105,497.391225 C362.035,497.858225 363.011,498.090225 364.04,498.090225 C365.696,498.090225 367.07,497.532225 368.163,496.412225 C369.257,495.297225 369.801,493.886225 369.801,492.183225 C369.801,490.500225 369.261,489.106225 368.18,487.999225 C367.099,486.900225 365.713,486.344225 364.016,486.344225 C362.922,486.344225 361.929,486.587225 361.042,487.075225 C360.152,487.563225 359.463,488.266225 358.979,489.191225 C358.495,490.115225 358.25,491.073225 358.25,492.060225 C358.25,493.350225 358.495,494.443225 358.979,495.344225 Z M277.6384,497.808925 L274.9684,497.808925 L270.4554,486.567925 L273.5814,486.567925 L275.6794,492.307925 L276.2834,494.220925 C276.4464,493.729925 276.5494,493.412925 276.5954,493.252925 C276.6914,492.939925 276.8004,492.621925 276.9094,492.307925 L279.0464,486.567925 L282.0864,486.567925 L277.6384,497.808925 Z M259.684,497.808825 L256.56,497.808825 L256.56,484.937825 L252,484.937825 L252,482.314825 L264.246,482.314825 L264.246,484.937825 L259.684,484.937825 L259.684,497.808825 Z M318.752,482.314825 L322.097,482.314825 L328.34,497.808825 L324.974,497.808825 L323.63,494.290825 L317.415,494.290825 L316.145,497.808825 L312.791,497.808825 L318.752,482.314825 Z M295.2689,497.808625 L298.2319,497.808625 L298.2319,482.314625 L295.2689,482.314625 L295.2689,497.808625 Z M265.8329,497.808625 L268.7869,497.808625 L268.7869,486.567625 L265.8329,486.567625 L265.8329,497.808625 Z M300.8889,497.808625 L303.8469,497.808625 L303.8469,486.567625 L300.8889,486.567625 L300.8889,497.808625 Z M353.819,497.808625 L356.777,497.808625 L356.777,486.567625 L353.819,486.567625 L353.819,497.808625 Z M344.4134,489.465825 C344.8874,488.908825 345.4854,488.626825 346.1944,488.626825 C346.9184,488.626825 347.5184,488.911825 347.9824,489.480825 C348.4494,490.048825 348.6854,490.975825 348.6854,492.263825 C348.6854,493.426825 348.4424,494.296825 347.9664,494.880825 C347.4824,495.459825 346.8994,495.751825 346.2134,495.751825 C345.3494,495.751825 344.6784,495.363825 344.1974,494.584825 C343.8664,494.051825 343.7004,493.182825 343.7004,491.983825 C343.7004,490.866825 343.9394,490.030825 344.4134,489.465825 Z M286.0467,489.657225 C286.5717,489.063225 287.2237,488.766225 287.9917,488.766225 C288.7667,488.766225 289.4117,489.063225 289.9387,489.657225 C290.4577,490.250225 290.7187,491.097225 290.7187,492.198225 C290.7187,493.328225 290.4577,494.186225 289.9387,494.778225 C289.4117,495.371225 288.7667,495.669225 287.9917,495.669225 C287.2237,495.669225 286.5717,495.371225 286.0467,494.778225 C285.5207,494.186225 285.2557,493.331225 285.2557,492.219225 C285.2557,491.105225 285.5207,490.250225 286.0467,489.657225 Z M362.087,489.657225 C362.609,489.063225 363.261,488.766225 364.032,488.766225 C364.802,488.766225 365.451,489.063225 365.976,489.657225 C366.496,490.250225 366.76,491.097225 366.76,492.198225 C366.76,493.328225 366.496,494.186225 365.976,494.778225 C365.451,495.371225 364.802,495.669225 364.032,495.669225 C363.261,495.669225 362.609,495.371225 362.087,494.778225 C361.559,494.186225 361.296,493.331225 361.296,492.219225 C361.296,491.105225 361.559,490.250225 362.087,489.657225 Z M322.601,491.665825 L320.438,485.921825 L318.361,491.665825 L322.601,491.665825 Z M265.8329,485.077625 L268.7869,485.077625 L268.7869,482.314625 L265.8329,482.314625 L265.8329,485.077625 Z M300.8889,485.077625 L303.8469,485.077625 L303.8469,482.314625 L300.8889,482.314625 L300.8889,485.077625 Z M353.819,485.077625 L356.777,485.077625 L356.777,482.314625 L353.819,482.314625 L353.819,485.077625 Z"></path></g></g>
</svg>