<svg width="62px" height="61px" viewBox="0 0 62 61" xmlns="http://www.w3.org/2000/svg"><g id="Symbols" fill-rule="evenodd"><g id="logo-grid" transform="translate(-441.000000, -458.000000)" fill="#686879"><path d="M457.270095,488.170109 L454.316563,486.219584 C455.444426,485.521779 455.802346,485.324784 456.21437,485.019581 C456.894141,484.536805 457.091135,484.23299 457.091135,483.929174 C457.091135,483.714145 457.000962,483.284086 456.464082,482.47946 C455.802346,481.494486 455.175293,480.527548 453.851822,478.683844 C452.008118,479.936564 450.987075,480.688473 449.03655,482.210326 C448.230537,482.854027 447.64094,483.839 447.64094,485.09172 C447.64094,485.521779 447.67701,487.74005 447.67701,489.189764 C447.67701,490.317628 447.480015,490.908612 446.280012,491.91162 C443.416653,491.91162 441.697805,493.753937 441.697805,495.615675 C441.697805,496.403654 441.948904,497.226315 442.557923,497.889438 L442.754917,497.692443 C442.378963,497.298453 442.091794,496.6714 442.091794,495.937525 C442.091794,494.953939 442.807634,493.862145 445.099431,493.862145 C447.604871,493.862145 449.949385,495.579606 451.310313,496.403654 C453.260838,494.756945 454.495523,494.05914 457.000962,493.235091 L457.000962,489.028839 C457.000962,488.725023 457.091135,488.439242 457.270095,488.170109 Z M480.107744,481.297492 C480.071674,481.780822 480.053639,484.19692 480.053639,484.19692 L482.631218,484.303741 L482.631218,484.930795 L480.053639,484.930795 C480.053639,488.009183 480.018957,493.038097 480.018957,493.48619 C480.519768,494.02307 480.966474,494.220065 481.432602,494.220065 C481.897343,494.220065 482.434223,493.898214 482.953068,493.325265 L482.953068,487.472304 C482.953068,487.114384 482.900351,486.577504 482.792143,486.255653 C484.474921,485.324784 485.79978,484.500736 486.962326,483.33819 L490.560947,485.360854 L490.560947,492.304222 C490.560947,492.698212 490.595629,493.12827 490.721872,493.556942 C489.109845,494.290816 487.947299,495.185616 486.497585,496.52851 L482.757461,494.095209 L480.179882,496.439723 L477.172245,494.220065 C477.530165,493.683185 477.638374,493.038097 477.638374,492.501217 C477.638374,492.072545 477.673056,488.206178 477.673056,485.199928 L476.403689,485.199928 L473.699868,488.134039 L475.812705,489.567106 C475.722531,489.816818 475.686462,489.995778 475.686462,490.389767 L475.686462,493.753937 C474.290852,494.453129 473.359982,495.203651 472.107263,496.367584 C470.979399,495.472785 469.870957,494.811049 468.831879,494.811049 C467.812224,494.811049 467.454304,495.41868 467.454304,496.099838 C467.454304,496.52851 467.615229,496.994638 467.882975,497.388627 L467.651299,497.531518 C467.257309,497.02932 466.988176,496.510475 466.988176,495.848739 C466.988176,495.114865 467.311413,494.38099 468.170144,493.48619 L470.156738,491.409423 L468.043901,489.925026 C468.11604,489.137047 468.11604,488.831844 468.11604,487.902362 C468.11604,487.114384 468.07997,486.684325 468.009219,485.879699 C469.601823,485.12779 470.496623,484.500736 471.821482,483.141195 C473.502873,484.303741 474.666806,484.858656 476.206694,485.09172 L479.821963,481.297492 L480.107744,481.297492 Z M463.705856,502.222765 L463.418688,501.973054 L462.326893,503.118952 C462.326893,503.118952 459.517638,502.204731 457.225841,500.881259 C454.094735,503.261843 451.714152,504.943234 448.635763,507.126823 C447.901889,508.218617 447.507899,509.632262 447.507899,511.190185 C447.507899,515.432507 451.410336,518.725925 456.331041,518.725925 C459.535673,517.383032 461.826083,515.485224 463.508861,513.212849 C463.615682,512.74672 463.651752,512.084985 463.651752,511.727065 C463.651752,508.648676 461.558337,506.931216 459.338678,506.392949 L463.705856,502.222765 Z M486.880199,473.474167 L486.665169,473.277173 C485.609444,474.403649 485.143316,474.708852 484.356725,474.708852 C483.76574,474.708852 483.067935,474.332898 482.119031,473.438098 L482.119031,470.734276 L486.880199,467.102361 L483.62285,463.879694 C482.207818,465.007558 481.976141,465.204553 480.955098,466.009179 C480.382149,466.439238 480.060298,466.636232 479.702379,466.797158 C479.756483,467.191147 479.828622,467.764096 479.828622,468.158086 L479.828622,474.206654 C479.27232,474.7255 478.736827,474.958564 478.342838,474.958564 C477.805958,474.958564 477.411969,474.636713 477.411969,474.063764 L477.411969,465.974497 C477.090118,464.953454 476.463065,464.291718 475.22838,463.861659 L472.220743,466.296347 L472.220743,460.604311 C472.220743,459.78165 472.686871,459.029741 473.115542,458.832746 L473.115542,458.725925 C471.898892,458.725925 471.040162,459.530551 470.664207,460.443386 L470.145362,459.351591 L469.948368,459.387661 L469.948368,473.938908 C468.748365,474.564574 467.460963,475.263767 466.045931,475.263767 C465.778184,475.263767 465.54512,475.263767 465.277374,475.227697 L465.277374,462.7879 C465.90304,462.860039 466.29703,462.896108 466.672984,462.896108 C467.227899,462.896108 467.585819,462.7879 467.853565,462.663044 L469.483627,459.351591 L469.214493,459.297487 C468.58744,460.551594 468.247554,460.747201 466.906048,460.747201 C466.278995,460.747201 464.883385,460.586276 463.486387,460.407316 C462.162916,460.246391 460.820023,460.085466 460.122218,460.085466 C458.063485,460.085466 456.882904,461.499111 456.882904,462.96686 C456.882904,463.557844 457.079898,464.148828 457.473888,464.685708 L457.705565,464.506748 C457.437818,464.184897 457.275506,463.754838 457.275506,463.396918 C457.275506,462.7879 457.741634,462.269055 458.994354,462.269055 C459.495164,462.269055 461.250082,462.42998 462.896791,462.554836 C461.017017,463.485705 459.460482,464.488713 457.634813,465.866288 C456.846834,466.922013 456.452845,468.282941 456.452845,469.678551 C456.452845,473.241103 459.155279,477.106083 465.151131,477.106083 C466.906048,476.122497 469.483627,474.636713 469.483627,474.636713 L471.862823,476.784233 L473.509532,475.155558 L472.220743,473.814052 L472.220743,466.905366 C472.793692,466.135422 473.420745,465.813571 473.903521,465.813571 C474.47647,465.813571 474.995316,466.206174 475.138206,466.922013 L475.138206,475.227697 C475.335201,475.925502 476.159249,476.587238 476.98191,476.820302 L479.935443,474.600644 L483.335682,476.945158 L486.880199,473.474167 Z M466.720291,485.288715 L462.926062,483.213334 C461.762129,484.37588 460.276345,485.288715 458.593567,486.219584 C458.826631,486.917389 458.755879,487.812189 458.755879,488.922018 C458.755879,491.678556 458.790561,493.16434 458.289751,493.898214 L462.496003,496.474405 C463.641902,495.27579 464.894622,494.344921 466.594048,493.432086 C466.451157,493.003415 466.415088,492.573356 466.415088,492.179367 L466.415088,487.472304 C466.415088,486.094728 466.559365,485.59253 466.720291,485.288715 Z M502.731611,494.02307 L502.498547,493.753937 L501.370683,494.720875 C500.815768,494.720875 500.421779,494.326886 500.421779,493.683185 C500.421779,493.12827 500.457848,486.577504 500.475883,485.44964 C500.045824,484.59091 499.49091,483.929174 498.23819,483.499115 L495.23194,485.718774 C495.23194,484.805939 494.695061,483.963856 493.674018,483.445011 L491.920488,484.930795 L492.851357,485.915768 C492.851357,485.915768 492.815287,491.73266 492.815287,492.698212 C492.815287,493.66515 492.117482,494.344921 492.117482,494.344921 L494.855986,496.367584 L496.323735,494.577985 L495.23194,493.593011 L495.23194,486.326405 C495.750786,485.6286 496.323735,485.324784 496.806511,485.324784 C497.37946,485.324784 497.845588,485.718774 497.970444,486.291723 C498.006513,486.720394 498.006513,487.400165 498.006513,488.134039 C498.006513,489.261903 498.006513,493.235091 497.970444,494.774979 C498.167439,495.472785 499.187094,496.439723 499.84883,496.439723 L502.731611,494.02307 Z M487.276962,515.718149 C487.116037,514.232365 487.152107,510.20646 487.152107,508.308652 C487.152107,507.092002 486.096382,506.197202 484.771523,505.642288 L482.069089,507.914663 L482.069089,502.956501 C482.069089,502.13384 482.551865,501.239041 483.160884,501.239041 L483.160884,501.078115 C481.872095,501.078115 480.440415,502.097771 480.207351,502.760894 C479.92157,502.258696 479.223765,501.972915 478.560642,501.972915 L478.52596,502.224014 C479.187695,502.224014 479.813361,503.350491 479.813361,505.337085 C479.813361,509.346343 479.778679,513.17664 479.778679,514.82335 C479.778679,515.360229 479.70654,515.718149 479.420759,516.148208 L483.482734,518.635613 C485.040657,517.185898 485.630253,516.75584 487.276962,515.718149 Z M496.244382,515.092483 L496.047387,514.895488 C495.027732,515.915144 494.436748,516.345203 493.827729,516.345203 C493.238132,516.345203 492.683218,515.987283 491.483215,515.056414 L491.483215,512.35398 L496.154208,508.612468 C495.063801,507.681599 492.808074,505.445293 492.808074,505.445293 C491.555354,506.57177 490.821479,507.198823 489.066562,508.415473 C489.138701,508.773393 489.21084,509.275591 489.21084,509.668193 L489.21084,514.931558 C489.21084,515.289478 489.17477,515.557224 489.03188,515.987283 L492.701252,518.564861 L496.244382,515.092483 Z M477.933866,507.359887 L473.960677,505.301154 C472.744027,506.429018 471.545412,507.253066 469.95142,508.057692 C470.059628,508.344861 470.148414,509.579545 470.148414,510.331455 L470.166449,515.790427 C469.790494,516.183029 469.432574,516.381411 469.074655,516.381411 C468.6987,516.381411 468.304711,516.219098 467.8039,515.861178 L467.8039,502.63479 C467.8039,501.864846 468.270028,500.970046 468.859625,500.970046 L468.859625,500.881259 C467.642975,500.881259 466.55118,501.436174 466.22933,502.367043 C465.924127,501.864846 465.459386,501.436174 464.761581,501.436174 L464.743546,501.579065 C465.137536,501.579065 465.531525,502.688894 465.531525,503.744619 L465.531525,514.375395 C465.531525,515.396438 465.388634,515.915283 464.994645,516.488232 L467.642975,518.402687 L470.130379,516.255168 L473.960677,518.563612 C475.410392,517.204072 476.270509,516.416093 477.899184,515.450542 C477.790975,514.966379 477.754906,514.000827 477.754906,513.606838 L477.754906,508.91781 C477.754906,508.111796 477.790975,507.681738 477.933866,507.359887 Z M488.144294,494.774979 L488.019438,494.881801 L485.369721,493.253126 L485.369721,485.002934 L488.144294,486.649643 L488.144294,494.774979 Z M464.035891,494.720875 L463.909648,494.811049 L461.297388,493.235091 L461.297388,484.858656 L464.035891,486.416579 L464.035891,494.720875 Z M484.968518,512.478835 C484.968518,513.92855 484.896379,516.773874 484.896379,516.882083 L484.807593,516.970869 L482.069089,515.253408 L482.069089,508.523682 C482.499148,507.860559 483.088745,507.520674 483.608977,507.520674 C484.252678,507.520674 484.699384,507.986802 484.932448,508.612468 C484.932448,508.881602 484.968518,510.635132 484.968518,512.478835 Z M473.396052,494.720875 C472.447148,493.862145 471.122289,493.12827 469.010839,493.12827 L472.250153,489.691962 L473.359982,490.675548 L473.396052,494.720875 Z M457.137055,516.846152 C458.747833,516.846152 460.179374,516.291237 461.128278,515.324299 C461.396024,514.537707 461.486198,513.874584 461.486198,512.909033 C461.486198,510.438276 459.875558,508.290756 457.494975,508.290756 C457.225841,508.290756 456.958095,508.308791 456.670926,508.344861 L456.670926,516.846152 L457.137055,516.846152 Z M454.316563,489.100978 L454.262458,493.862145 C453.761648,494.129891 453.421763,494.290816 452.973669,494.614054 C452.599102,494.38099 452.239795,494.147926 451.811123,493.898214 L451.811123,487.74005 L454.316563,489.100978 Z M464.954136,475.191628 C463.289393,474.994633 461.875748,474.36758 460.820023,473.402028 C462.860721,471.916245 463.325462,471.057514 463.325462,469.410805 L463.325462,462.699113 L463.397601,462.626974 C464.059337,462.699113 464.417256,462.735183 464.954136,462.769865 L464.954136,475.191628 Z M456.331041,516.810082 C454.577511,516.685227 453.234618,516.094243 452.160858,515.199443 C453.789532,514.071579 454.810575,513.49863 454.810575,511.781169 L454.810575,503.225774 L455.311386,502.831784 C455.669306,502.95664 455.973121,503.09953 456.331041,503.225774 L456.331041,516.810082 Z M475.482531,516.649157 L475.285536,516.774013 L472.476281,515.002448 L472.476281,507.090754 L475.446461,508.540468 L475.482531,516.649157 Z M451.89991,483.248016 C451.881875,483.678214 451.811123,484.269198 451.811123,485.324784 L451.811123,487.436234 C454.030782,486.058659 454.692517,485.682704 454.692517,484.966864 C454.692517,484.805939 454.549627,484.466054 454.352632,484.142816 C453.493902,482.675067 453.063843,481.977262 451.972048,480.366622 C450.593086,481.54859 450.057593,482.353217 450.057593,483.678075 L450.057593,487.812189 C450.057593,489.691962 448.374815,490.980751 446.692036,491.946302 C448.463601,492.072545 450.164414,492.931276 451.54199,493.753937 L451.54199,485.324784 C451.54199,484.269198 451.50592,483.714283 451.453203,483.248016 L451.89991,483.248016 Z M452.769877,513.015854 C452.769877,513.910654 452.500743,514.465568 451.911147,514.930309 C450.550219,513.606838 449.888483,511.763134 449.888483,509.901396 C449.888483,507.126823 450.855422,506.071098 452.160858,505.104159 C452.375888,504.943234 452.572882,504.818378 452.769877,504.675488 L452.769877,513.015854 Z M461.177943,471.021445 C461.177943,472.023066 461.017017,472.61405 460.480138,473.080178 C459.263487,471.826071 458.600364,470.036471 458.600364,468.013808 C458.600364,466.905366 458.797359,466.027214 459.191348,465.437617 C459.853084,464.846633 460.641063,464.291718 461.177943,463.987902 L461.177943,471.021445 Z M450.361409,479.811708 L450.28927,479.596678 C448.89366,479.596678 448.141751,479.435753 447.407876,479.310897 C446.710071,479.204076 446.119087,479.077833 445.296426,479.077833 C443.112837,479.077833 441.697805,480.205697 441.697805,482.013331 C441.697805,482.783275 441.860118,483.213334 442.360928,483.768249 L442.557923,483.571254 C442.288789,483.248016 442.145899,482.908131 442.145899,482.550211 C442.145899,481.762233 442.807634,481.064428 444.275383,481.064428 C445.367178,481.064428 446.352151,481.261422 447.210881,481.458417 C445.367178,482.819345 444.240701,483.802931 444.240701,486.684325 C443.971568,486.577504 443.613648,486.5234 443.112837,486.5234 C441.71584,486.5234 441,487.436234 441,488.331034 C441,488.725023 441.090174,489.155082 441.35792,489.458898 L441.590984,489.334042 C441.484163,489.137047 441.430059,488.922018 441.430059,488.725023 C441.430059,488.134039 441.8948,487.669298 442.754917,487.669298 C443.505439,487.669298 444.078389,488.009183 444.329487,488.475312 C444.329487,490.478553 443.935498,491.517631 442.879773,491.517631 L442.879773,491.73266 C444.472378,491.73266 446.388221,490.586762 446.388221,488.725023 L446.388221,485.019581 C446.388221,481.977262 448.17782,480.563617 450.361409,479.811708 Z M474.487846,486.756464 L471.713273,489.762714 L470.496623,488.867914 L470.496623,484.858656 C471.749343,485.718774 472.483217,486.183514 474.487846,486.756464 Z M484.785396,468.158086 L482.119031,470.305605 L482.119031,465.669294 L482.207818,465.580507 L484.785396,468.158086 Z M494.024724,509.740332 L491.483215,511.8171 L491.483215,507.092002 L494.024724,509.740332 Z M460.197409,505.069477 L456.670926,508.218617 L456.670926,503.350629 C457.925033,503.85144 459.05151,504.442424 460.197409,505.069477 Z" id="boston-globe-logo"></path></g></g></svg>
