<svg width="91" height="32" viewBox="0 0 91 32" xmlns="http://www.w3.org/2000/svg"><path d="M91.016 26.966c-.324 2.138-1.814 4.081-4.211 4.081-3.434 0-5.053-2.656-5.053-5.895 0-3.563 2.267-5.895 5.247-5.895 2.397 0 3.887 1.36 3.887 2.656 0 .907-.583 1.49-1.296 1.49-.712 0-1.166-.518-1.166-1.101 0-.389.195-.583.324-.778.195-.194.324-.324.324-.583 0-.453-.648-1.101-1.814-1.101-2.008 0-2.85 1.749-2.85 4.211v2.461c0 2.527.842 3.628 2.721 3.628 1.814 0 2.915-1.749 3.174-3.174h.713zm-51.63 0c-.389 2.461-2.073 4.081-4.34 4.081-2.851 0-4.924-2.203-4.924-5.895 0-3.109 2.073-5.895 4.859-5.895 3.174 0 4.599 2.591 4.599 4.276v.388c0 .195-.065.259-.194.259h-6.608v2.592c0 2.267.972 3.368 2.721 3.368 1.814 0 2.915-1.619 3.239-3.174h.648zm-38.673-2.915c.388 4.211 2.785 6.284 5.247 6.284 2.462 0 4.016-1.685 4.016-3.757 0-1.749-1.166-3.369-3.822-3.952l-1.296-.324c-3.303-.777-4.858-2.526-4.858-5.765 0-3.045 2.138-5.118 4.858-5.118 2.721 0 3.434 1.36 4.341 1.36.518 0 .713-.388.777-.712h.648v5.571h-.712c-.389-2.98-2.073-5.442-4.989-5.442-1.878 0-3.433 1.361-3.433 3.434 0 1.49.907 2.98 4.016 3.692l1.361.324c3.498.907 4.793 2.915 4.793 5.636 0 3.498-2.008 5.765-5.635 5.765-2.527 0-3.563-1.036-4.535-1.036-.518 0-.713.324-.777.777h-.648v-6.737h.648zm21.831 2.98c-.259 2.073-1.814 4.016-4.146 4.016-3.498 0-5.118-2.656-5.118-5.895 0-3.563 2.332-5.894 5.312-5.894 2.333 0 3.887 1.425 3.887 2.72 0 .907-.583 1.49-1.296 1.49-.777 0-1.166-.583-1.166-1.101 0-.389.13-.648.324-.842.13-.195.324-.324.324-.583 0-.454-.712-1.037-1.879-1.037-1.943 0-2.85 1.749-2.85 4.146v2.527c0 2.461.907 3.562 2.721 3.562 1.879 0 2.98-1.749 3.239-3.109h.648zm35.175-10.689v3.369h2.85v.583h-2.85v8.486c0 1.037.518 1.36 1.166 1.36.842 0 1.36-.647 1.684-1.23l.454.389c-.26.647-.907 1.748-2.851 1.748-1.619 0-2.85-.647-2.85-2.526v-8.227h-2.008v-.583c2.332 0 3.563-.777 3.951-3.369h.454zm12.697 3.369v-1.814c0-3.304 1.49-6.867 5.765-6.867 2.397 0 3.563 1.49 3.563 2.656 0 .972-.583 1.62-1.425 1.62-.518 0-1.166-.454-1.166-1.166 0-.454.259-.842.583-.972.259-.129.518-.259.518-.583 0-.453-.777-.907-1.878-.907-2.656 0-3.563 1.944-3.563 4.405v3.628h4.599c.778 0 1.684-.065 2.138-.583v10.818h1.943v.648h-5.959v-.648h1.619v-9.652h-4.34v9.652h1.814v.648h-6.154v-.648h1.943v-9.652h-2.202v-.583h2.202zm-23.969 10.883h-6.154v-.648h1.879v-9.652h-1.879v-.583h2.008c1.166 0 1.749 0 2.203-.583v2.138h.065c.518-.648 1.749-2.138 3.886-2.138 2.268 0 3.434 1.49 3.434 3.304v7.514h1.878v.648h-6.089v-.648h1.749v-8.097c0-1.296-.648-1.814-1.555-1.814-1.554 0-2.72 1.554-3.303 2.332v7.579h1.878v.648zm-18.786-.648h1.684v.648h-6.089v-.648h2.008v-9.587h-1.684v-.648h2.008c.777 0 1.619-.065 2.073-.583v10.818zm36.017-10.235c.842 0 1.62-.065 2.138-.583v10.818h1.619v.648h-6.024v-.648h2.008v-9.587h-1.749v-.648h2.008zm-26.754 3.757c.13 0 .195-.065.195-.195v-.583c0-1.813-.778-2.85-2.138-2.85-1.296 0-2.203 1.101-2.203 2.85v.778h4.146zm8.616-20.212h.388v3.044h2.462v.583h-2.462v6.738c0 .842.518 1.101 1.101 1.101.648 0 1.102-.518 1.361-.907l.324.518c-.389.583-1.101 1.296-2.462 1.296-1.425 0-2.461-.583-2.461-2.073v-6.673h-1.555v-.583c1.749 0 2.98-.906 3.304-3.044zm2.979 7.514c0 2.656 1.879 4.858 4.535 4.858s4.534-2.267 4.534-4.858c0-2.656-1.878-4.859-4.534-4.859-2.656 0-4.535 2.203-4.535 4.859zm-12.567 1.425c.129 1.101.842 2.786 2.721 2.786 1.036 0 1.943-.583 1.943-1.685 0-.777-.518-1.554-1.749-1.684l-.648-.13c-1.36-.129-2.656-.906-2.656-2.85 0-1.619 1.231-2.721 2.85-2.721 1.102 0 1.62.519 2.009.519.259 0 .324-.195.324-.389h.453v2.591h-.453c-.195-1.296-.972-2.073-2.333-2.073-1.166 0-1.813.648-1.813 1.425 0 .778.518 1.231 1.813 1.49l1.037.195c1.749.194 2.526 1.425 2.526 2.785 0 1.879-1.23 3.109-3.239 3.109-1.36 0-1.878-.582-2.332-.582-.259 0-.324.129-.388.453h-.454l-.065-3.239h.454zm-10.689-1.425c0 2.656 1.879 4.793 4.535 4.793s4.469-2.202 4.469-4.793c0-2.656-1.813-4.859-4.469-4.859-2.656 0-4.535 2.203-4.535 4.859zm-6.607-10.43c3.109 0 4.859 1.361 4.859 3.369 0 2.267-1.75 3.433-3.499 3.562v.065c2.073.13 4.146 1.361 4.146 3.693 0 2.98-2.591 4.211-4.858 4.211h-6.932v-.584h2.073v-13.733h-2.073v-.583h6.284zm44.633 14.899h-5.506v-.583h1.749v-7.774h-1.684v-.583h1.619c.972 0 1.814 0 2.138-.453v1.749h.065c.842-1.037 2.008-1.749 3.304-1.749 2.073 0 2.785 1.425 2.785 2.656v6.154h1.684v.583h-5.182v-.583h1.296v-6.348c0-1.037-.713-1.49-1.426-1.49-.971 0-2.008.971-2.461 1.943v5.895h1.619v.583zm-8.033-3.952c0 1.879-.194 3.693-2.202 3.693-2.073 0-2.268-1.814-2.268-3.693v-1.036c0-1.879.195-3.693 2.268-3.693 2.137 0 2.202 1.814 2.202 3.693v1.036zm-23.256 0c0 1.879-.194 3.693-2.202 3.693-2.073 0-2.268-1.814-2.268-3.693v-1.101c0-1.814.13-3.628 2.268-3.628 2.137 0 2.202 1.814 2.202 3.628v1.101zm-14.058-3.693h-1.101v7.061h1.296c2.202 0 3.498-1.489 3.498-3.627 0-1.879-1.296-3.434-3.693-3.434zm-.518-6.672h-.583v6.089h.648c1.943 0 3.563-.842 3.563-3.174 0-1.619-1.231-2.915-3.628-2.915z" fill="#686879"/></svg>