<svg width="190" height="74" viewBox="0 0 190 74" xmlns="http://www.w3.org/2000/svg"><path fill-rule="evenodd" d="M49.541 4.768c2.022 2.517 2.796 5.894 2.326 10.132l-.809 5.96c-.068.595-.304.993-.708 1.191-.404.198-.742.332-1.011.397h-12.233c-.271-.065-.556-.163-.86-.297-.303-.132-.523-.431-.657-.895v-.496l.505-3.576c.067-.529-.034-.994-.303-1.391-.203-.199-.506-.364-.91-.496-.203-.066-.371-.099-.505-.099h-9.807c-.068 0-.44.099-1.112.297-.675.199-1.079.795-1.213 1.789l-4.954 39.532c-.136.596-.035 1.06.303 1.391.135.199.438.365.91.497.203.067.369.1.505.1h9.807c.404.066.741 0 1.011-.2.673-.263 1.113-.859 1.315-1.788l.506-4.371h-5.662c-.607-.131-1.011-.379-1.214-.745-.202-.363-.303-.71-.303-1.043l1.516-12.019c.066-.331.218-.677.455-1.043.235-.363.691-.479 1.365-.346l19.615-.1c.268 0 .571.084.91.248.337.166.506.514.506 1.043.066.067.066.198 0 .397-.136.73-.288 1.773-.455 3.129-.169 1.359-.354 2.898-.556 4.619-.202 1.723-.422 3.561-.657 5.514-.238 1.954-.49 3.89-.759 5.81-.606 4.504-1.213 9.371-1.82 14.601-.136.597-.389.994-.758 1.193-.371.199-.725.297-1.061.297h-29.017c-.54-.065-1.213-.181-2.022-.347-.809-.165-1.668-.413-2.578-.745-.91-.331-1.838-.795-2.781-1.391-.945-.596-1.787-1.356-2.527-2.285-2.09-2.449-2.866-5.794-2.326-10.032l1.012-9.039c.268-1.721.033-3.079-.708-4.072-.404-.397-.809-.661-1.213-.795-.27-.065-.472-.099-.606-.099v-.795c.673-.132 1.229-.331 1.668-.596.437-.263.86-.695 1.264-1.291s.708-1.423.91-2.483l.303-2.285c.539-4.436 1.044-8.443 1.517-12.019.202-1.523.386-3.013.555-4.47.168-1.456.336-2.763.506-3.923.167-1.158.303-2.102.404-2.831.101-.728.152-1.125.152-1.192.539-2.781 1.517-5.015 2.932-6.705 1.415-1.688 2.931-3.012 4.549-3.973 1.618-.959 3.185-1.605 4.701-1.937 1.516-.331 2.645-.529 3.387-.595h.101c.134 0 .253-.016.353-.05.102-.032.219-.05.354-.05h15.267c.134 0 .253.017.354.05.101.034.218.05.354.05.471 0 1.112.084 1.921.248.808.166 1.684.414 2.629.745.943.332 1.886.795 2.831 1.39.943.596 1.785 1.359 2.527 2.285zm54.532 48.716l-.453 3.635c-.168 1.361-.353 2.739-.555 4.133l-1.411 11.155c-.068.596-.302 1.012-.706 1.245-.403.233-.74.348-1.008.348h-11.995c-.539 0-.975-.164-1.31-.498-.269-.264-.403-.498-.403-.697-.068-.132-.068-.264 0-.398l2.319-18.227c.066-.53-.035-.996-.302-1.393-.27-.265-.639-.399-1.109-.399h-11.289c-.068 0-.219.035-.453.1-.237.068-.387.299-.454.697l-2.52 19.222c0 .332-.135.68-.402 1.045-.27.365-.774.547-1.512.547h-12.096c-.337 0-.589-.049-.756-.149-.168-.1-.32-.215-.454-.349-.135-.264-.201-.513-.201-.747 0-.231.033-.381.1-.448l2.722-22.209c.268-1.792.033-3.152-.706-4.083-.403-.398-.807-.663-1.21-.797-.269-.065-.471-.099-.604-.099v-.797c.738-.132 1.326-.364 1.764-.697.436-.331.872-.831 1.31-1.495.436-.663.722-1.626.857-2.887l4.637-36.65c.134-.597.386-1.011.756-1.245.368-.232.688-.348.958-.348h28.123c.066 0 .469.034 1.209.099.739.067 1.629.233 2.671.498 1.041.267 2.167.714 3.377 1.345 1.209.632 2.318 1.478 3.326 2.539 2.284 2.656 3.125 6.11 2.52 10.358l-2.694 21.66c-.816 6.467-7.809 7.263-14.277 7.191 6.469.073 13.016 2.359 12.234 8.794zm-11.129-35.474l-2.101 16.981c-.134 1.004-.535 1.592-1.201 1.758-.668.168-1.035.251-1.101.251h-10.906c-.267 0-.435-.066-.5-.201-.134-.134-.167-.302-.1-.502l2.401-19.392c.066-.403.216-.654.451-.754.232-.101.416-.151.55-.151h10.806c.133 0 .301.034.5.101.4.135.7.301.9.502.333.336.433.804.301 1.407zm40.48 21.332c-.333 1.927-.067 3.287.796 4.083.132.267.314.449.547.548l.548.249c.199.067.398.1.597.1v.797c-.731.134-1.311.365-1.742.697-.432.333-.863.831-1.294 1.493-.432.665-.714 1.628-.845 2.889l-2.787 22.21c-.067.664-.298 1.095-.696 1.294-.398.199-.73.298-.995.298h-12.04l-.497-.049c-.266-.034-.497-.183-.696-.449-.266-.264-.366-.663-.299-1.195l2.885-22.607c.066-1.659-.233-2.889-.896-3.685-.464-.398-.83-.663-1.094-.797-.199-.065-.398-.099-.597-.099v-.797c.662-.132 1.209-.349 1.642-.648.43-.299.845-.762 1.244-1.394.398-.63.697-1.544.896-2.74l4.676-36.948c.065-.597.298-1.011.696-1.245.398-.232.729-.348.996-.348h12.039l.497.049c.265.034.498.184.697.449.198.2.298.597.298 1.195l-4.577 36.649zm56.257-37.844c.266.266.367.664.3 1.195l-1.505 11.95c-.068.665-.301 1.096-.703 1.295-.402.199-.737.299-1.004.299h-12.142c-.135 0-.318.05-.552.149-.235.099-.386.348-.452.747l-2.81 22.208c-.2 1.991.066 3.354.803 4.083.334.466.703.732 1.104.797.401.067.635.1.703.1v.797c-.067 0-.268.034-.602.099-.336.068-.737.267-1.204.598-.469.333-.903.831-1.305 1.493-.401.665-.669 1.628-.803 2.889l-2.81 22.21c-.135.664-.386 1.095-.752 1.294-.369.199-.72.298-1.054.298h-12.142l-.452-.049c-.235-.034-.451-.183-.652-.449-.268-.264-.369-.663-.301-1.195l2.81-22.209c.2-1.792-.068-3.152-.803-4.083-.401-.398-.803-.663-1.204-.797-.268-.065-.469-.099-.602-.099v-.797c.736-.132 1.321-.364 1.756-.697.434-.331.869-.831 1.305-1.495.434-.663.718-1.626.853-2.887l2.81-22.209c0-.332-.035-.531-.1-.598-.135-.132-.336-.199-.603-.199h-12.042c-.067 0-.235-.015-.502-.05-.268-.033-.502-.182-.702-.448-.268-.265-.367-.663-.301-1.195l1.505-11.951c.133-.663.384-1.095.753-1.295.367-.199.718-.298 1.053-.298h41.245c.134 0 .267.034.402.099l.351.149c.1.034.217.117.352.249z" fill="#F0652F"/></svg>
