<svg width="90" height="90" viewBox="0 0 90 90" xmlns="http://www.w3.org/2000/svg" xmlns:sketch="http://www.bohemiancoding.com/sketch/ns"><title>chasm</title><desc>Created with Sketch.</desc><path d="M88.888 35.568v-.064h-.016c-4.348-20.26-22.384-35.504-43.928-35.504-24.784 0-44.944 20.164-44.944 44.944 0 1.488.08 2.96.22 4.412l-.14.212.176.116c2.376 22.56 21.508 40.204 44.688 40.204 24.784 0 44.944-20.164 44.944-44.944 0-3.216-.352-6.348-1-9.376zm-18.024-24.784c7.916 6.024 13.688 14.704 15.948 24.72h-11.908l-4.132-8.488h-.004l.096-16.232zm-24.052 39.536l-3.108-1.352 11.524-9.556-2.568 4.94-5.848 5.968zm2.692.112l-.452.864-.276-.12.728-.744zm-31.428-10.44l-10.896 6.96-3.768-2.516 10.072-6.444 4.592 2zm-.696-2.484h4.588l-1.86 1.188-2.728-1.188zm2.908 3.448l5.544 2.412-11.856 8.124-4.98-3.328 11.292-7.208zm15.076 4.38l-5.424-2.36 7.988-5.468h8.304l-10.868 7.828zm14.292-7.828h4.736l-12.744 10.564-4.152-1.808 12.16-8.756zm-21.876 4.528l-5.46-2.38 3.368-2.148h8.704l-6.612 4.528zm.212 2.272l5.484 2.388-12.836 9.244-4.876-3.256 12.228-8.376zm7.616 3.316l4.312 1.88-12.9 10.696-4.604-3.072 13.192-9.504zm6.368 2.772l3.336 1.452-12.184 12.432-4.376-2.92 13.224-10.964zm5.3 2.308l.852.372-8.184 15.756-5.12-3.42 12.452-12.708zm5.156-17.2l7.708-5.548-2.544 4.892-.792.656h-4.372zm-3.42 0h-8.164l20.752-14.212v5.148l-12.588 9.064zm-11.7 0h-8.492l32.78-20.928v4.296l-24.288 16.632zm-12.212 0h-7.732l44.232-28.308v5.004l-36.5 23.304zm19.844-33.5c5.7 0 11.132 1.136 16.112 3.164l-47.404 30.336h-.868l-8.684-3.78c5.592-17.224 21.776-29.72 40.844-29.72zm-41.392 31.664l7.72 3.36-9.172 5.872c.152-3.18.64-6.268 1.452-9.232zm-1.504 12.264l36.968 24.684-.98 1.892-35.856-23.94c-.072-.872-.112-1.752-.132-2.636zm.456 5.256l34.604 23.104-5.876 11.312c-15.056-5.092-26.364-18.308-28.728-34.416zm30.668 35.02l30.312-58.356.108-21.528c1.828.884 3.608 1.856 5.284 2.984v17.9l-8.348 16.144-22.756 43.888c-1.564-.264-3.1-.604-4.6-1.032zm32.928-49.248l13.76 27.62-22.984-9.832 5.432-10.472.296-.58 3.496-6.736zm-26.24 50.6l4.34-8.368 11.044 7.372c-3.304.832-6.74 1.324-10.3 1.324-1.724 0-3.412-.128-5.084-.328zm17.92-1.708l-12.652-8.448 1.028-1.988 14.276 9.536c-.868.34-1.76.616-2.652.9zm4.864-1.828l-15.56-10.392 8.872-17.108 25.28 10.82.124.252c-4.472 7.16-10.972 12.908-18.716 16.428zm19.944-18.448l-15.356-30.828 2.616-5.068 15.044 30.92c-.672 1.712-1.424 3.38-2.304 4.976zm3.26-7.58l-9.968-20.488h11.32c.424 2.42.688 4.896.688 7.436 0 4.552-.724 8.932-2.04 13.052z" sketch:type="MSShapeGroup" fill="#6dbfac"/></svg>