<svg width="90" height="90" viewBox="0 0 90 90" xmlns="http://www.w3.org/2000/svg" xmlns:sketch="http://www.bohemiancoding.com/sketch/ns"><title>extend</title><desc>Created with Sketch.</desc><path d="M44.944 0c-24.784 0-44.944 20.164-44.944 44.944s20.16 44.94 44.944 44.94c24.78 0 44.944-20.16 44.944-44.94 0-24.78-20.164-44.944-44.944-44.944zm42.752 41.172l-33.876-9.832v-15.824l27.136 6.112c3.72 5.728 6.112 12.384 6.74 19.544zm-8.472-21.984l-18.056-4.068h14.42v-.208c1.308 1.336 2.508 2.776 3.636 4.276zm-34.28-17.188c11.052 0 21.112 4.232 28.732 11.12h-21.856v17.888h-22.764v17.776h-22.764v14.748c-2.724-5.632-4.292-11.924-4.292-18.588 0-23.68 19.264-42.944 42.944-42.944zm-13.888 31.508l55.888 20.352c-1.328 6.248-4.04 11.976-7.768 16.9l-48.12-21.584v-15.668zm-22.764 33.696v-15.692l55.58 31.92c-5.72 2.824-12.132 4.452-18.928 4.452-15.524 0-29.108-8.304-36.652-20.68zm57.692 15.136l-54.944-31.556h18.704l48.184 21.612c-3.332 4-7.384 7.368-11.944 9.944zm21.296-30.488l-51.752-18.844h16.988l-.012.032 35.3 10.248c.02.556.084 1.096.084 1.656 0 2.356-.24 4.652-.608 6.908z" sketch:type="MSShapeGroup" fill="#6dbfac"/></svg>