<svg width="90" height="90" viewBox="0 0 90 90" xmlns="http://www.w3.org/2000/svg" xmlns:sketch="http://www.bohemiancoding.com/sketch/ns"><title>funding</title><desc>Created with Sketch.</desc><path d="M44.944 0c-24.784 0-44.944 20.16-44.944 44.944 0 24.78 20.16 44.944 44.944 44.944 24.78 0 44.944-20.164 44.944-44.944 0-24.784-20.164-44.944-44.944-44.944zm0 87.888c-23.68 0-42.944-19.264-42.944-42.944 0-23.68 19.264-42.944 42.944-42.944 23.68 0 42.944 19.264 42.944 42.944 0 1.944-.176 3.844-.428 5.72-3.188-.632-12.8-2.576-16.024-3.732-4.3-1.548-14.992-1.9-17.34-1.896-.768-.004-1.936-.24-3.272-.5-3.94-.776-9.348-1.836-12.264.8-1.684 1.532-1.504 3.012-1.24 3.764.868 2.48 4.792 4.104 8.596 4.584-.256.152-.52.312-.712.44-4.1-.912-8.124-1.208-11.992-.924-1.624-2.048-6.272-5.076-8.824-5.896-.812-.272-2.36-.352-3.3.488-.172.156-.312.328-.416.516-1.844-.364-4.268.128-5.468 1.304-.608.592-.892 1.308-.844 2.076-1.88.172-3.376 1.088-3.912 2.48-.308.792-.688 2.872 2.32 5.072 1 .724 3.348 3.432 6.32 6.86 2.036 2.348 4.42 5.092 7.028 7.968l.212.236.316.068c11.444 2.46 20.952 3.24 21.668 3.252h.028c.548 0 2.16-.252 5.408-.764 4.708-.744 13.472-2.116 14.848-1.736 1.752.464 6.152-1.376 9.584-3.032-7.88 9.632-19.848 15.796-33.236 15.796zm35.848-19.36c-4.736 2.532-10.476 5.02-11.66 4.668-1.684-.448-7.828.444-15.696 1.688-2.3.364-4.676.74-5.088.74h-.004c-.66-.008-10-.808-20.964-3.14-2.512-2.776-4.812-5.424-6.784-7.696-3.292-3.796-5.468-6.304-6.648-7.164-1.316-.96-1.924-1.984-1.636-2.736.28-.716 1.484-1.348 3.184-1.196.84.376 7.488 3.456 12.076 9.692l.452.608.708-.268c4.16-1.58 9.82-.792 14.424 2.012l.908.552.496-.94c1.336-2.536 5.984-3.164 10.48-3.768 2.736-.372 5.56-.756 7.736-1.592l1.888-.724-1.724-1.06c-.34-.208-7.084-4.296-12.716-5.82l.004-.024h-.088c-1.028-.272-2.032-.488-2.936-.548-4.176-.272-7.504-1.964-7.996-3.372-.068-.188-.26-.752.696-1.62 2.168-1.968 7.004-1.016 10.532-.32 1.568.308 2.816.54 3.696.536 2.656-.08 12.804.404 16.628 1.776 3.424 1.228 13.252 3.212 16.4 3.828-1.052 5.78-3.248 11.16-6.368 15.888zm-64.188-17.492c.904-.892 3.428-1.08 4.324-.528l.032.02c.068.04 6.916 3.956 9.136 7.244l.308.456.552-.016c6.452-.196 9.964.996 11.252 1.556-.24 1.232-.208 2.332-.072 3.236-4.448-2.104-9.344-2.676-13.4-1.396-4.552-5.848-10.608-8.908-12.224-9.652-.184-.464-.092-.74.092-.92zm33.14 3.276c3.556.968 7.736 3.104 10.152 4.448-1.58.36-3.372.6-5.124.836-4.08.552-8.256 1.132-10.648 3.196-.196-1.24-.188-3.032.876-4.94l-1.744-.976c-.184.332-.304.652-.44.976-1.624-.688-5.212-1.8-11.392-1.652-2.24-2.924-6.984-5.924-8.76-6.988.276-.088.716-.136 1.108-.004 2.604.84 7.38 4.24 8.064 5.512l.312.584.664-.06c3.956-.368 8.12-.06 12.372.92l.432.104.364-.26c1.292-.904 3.128-1.784 3.764-1.696zm-7.668-11.344c7.568 0 13.496-3.268 13.496-7.44v-3.032h-.052c-.092-.96-.5-1.888-1.208-2.744.792-.952 1.26-2.012 1.26-3.144v-3.032h-.052c-.092-.94-.476-1.848-1.156-2.684.76-.94 1.208-1.98 1.208-3.092v-3.028h-.076c-.396-3.964-6.116-7.016-13.42-7.016-7.568 0-13.496 3.268-13.496 7.44v2.604c0 1.112.444 2.152 1.208 3.092-.784.964-1.208 2.02-1.208 3.112v2.604c0 1.136.468 2.192 1.26 3.148-.816.976-1.26 2.056-1.26 3.168v2.604c0 4.172 5.928 7.44 13.496 7.44zm0-2c-5.16 0-9.048-1.584-10.668-3.484 2.448 1.752 6.256 2.884 10.668 2.884 4.408 0 8.22-1.132 10.668-2.884-1.62 1.9-5.508 3.484-10.668 3.484zm-10.668-12.404c2.448 1.752 6.256 2.884 10.668 2.884 4.408 0 8.22-1.132 10.668-2.884-1.62 1.904-5.508 3.488-10.668 3.488-5.16 0-9.048-1.584-10.668-3.488zm-.004-8.812c2.448 1.756 6.26 2.884 10.672 2.884 4.412 0 8.224-1.128 10.672-2.884-1.616 1.904-5.508 3.492-10.672 3.492-5.168 0-9.056-1.588-10.672-3.492zm10.672-9.996c6.876 0 11.496 2.812 11.496 5.44 0 2.628-4.62 5.44-11.496 5.44s-11.496-2.812-11.496-5.44c0-2.628 4.62-5.44 11.496-5.44zm-10.784 12.528c2.44 1.796 6.304 2.96 10.784 2.96 4.476 0 8.34-1.164 10.78-2.96.424.564.716 1.136.716 1.72 0 2.628-4.62 5.444-11.496 5.444s-11.496-2.816-11.496-5.444c0-.584.288-1.16.712-1.72zm.056 8.844c2.448 1.776 6.284 2.924 10.728 2.924s8.28-1.144 10.724-2.92c.46.584.772 1.184.772 1.792 0 2.628-4.62 5.444-11.496 5.444s-11.496-2.816-11.496-5.444c0-.608.308-1.208.768-1.796z" sketch:type="MSShapeGroup" fill="#6dbfac"/></svg>