<svg width="90" height="90" viewBox="0 0 90 90" xmlns="http://www.w3.org/2000/svg" xmlns:sketch="http://www.bohemiancoding.com/sketch/ns"><title>jolt</title><desc>Created with Sketch.</desc><path d="M44.944 0c-9.472 0-18.26 2.964-25.512 7.988-.9.564-1.464 1.004-1.54 1.068l.04.052c-10.864 8.212-17.932 21.2-17.932 35.84 0 24.78 20.16 44.944 44.944 44.944 24.78 0 44.944-20.164 44.944-44.944 0-24.784-20.164-44.948-44.944-44.948zm-24.516 9.736c2.184-1.372 6.896-3.776 11.824-2.668 4.26.956 7.828 4.328 10.604 10.016l1.796-.876c-.712-1.456-1.48-2.76-2.292-3.94 2.48-.628 8.172-1.612 13.088.944 3.668 1.908 6.224 5.444 7.6 10.512 1.836 6.752-2.212 14.12-10.076 18.328-8.436 4.516-22.056 5.468-32.676-6.696l-1.508 1.312c1.336 1.532 2.728 2.82 4.14 3.98-8.384 7.348-18.24 2.528-20.764 1.068.992-13.224 7.972-24.792 18.264-31.98zm30.956 35.248l5.224 9.844h-5.592l9.752 18.52-20.756-16.14h3.648l-5.768-10.176c.888.088 1.772.132 2.644.132 3.924-.004 7.628-.856 10.848-2.18zm-6.44 42.908c-23.68 0-42.944-19.268-42.944-42.944 0-.356.044-.696.052-1.048 2.092 1.06 6.036 2.692 10.62 2.692 3.8 0 7.996-1.16 11.868-4.684 3.532 2.536 7.216 4.048 10.84 4.748l4.844 8.552h-6.044l32.676 25.408-12.528-23.788h5.604l-6.728-12.684.712-.328c8.704-4.66 13.148-12.944 11.064-20.616-1.528-5.628-4.428-9.584-8.608-11.76-6.204-3.232-13.212-1.532-15.32-.896-2.412-2.892-5.212-4.724-8.38-5.432-.952-.208-1.888-.312-2.804-.328 4.7-1.768 9.764-2.784 15.076-2.784 23.68 0 42.944 19.268 42.944 42.948 0 23.676-19.264 42.944-42.944 42.944z" sketch:type="MSShapeGroup" fill="#6dbfac"/></svg>