<svg width="90" height="90" viewBox="0 0 90 90" xmlns="http://www.w3.org/2000/svg" xmlns:sketch="http://www.bohemiancoding.com/sketch/ns"><title>market</title><desc>Created with Sketch.</desc><path d="M44.944 0c-24.784 0-44.944 20.164-44.944 44.944 0 24.784 20.16 44.944 44.944 44.944 24.78 0 44.944-20.16 44.944-44.944 0-24.78-20.164-44.944-44.944-44.944zm0 2c23.68 0 42.944 19.264 42.944 42.944 0 10.472-3.776 20.072-10.028 27.532v-18.536h3.904l-3.904-8.312v-10.36h1.964v-7.372h-19.82v-7.508h-30.12v7.508h-19.82v7.372h1.964v10.36l-3.904 8.312h3.904v18.536c-6.252-7.46-10.028-17.06-10.028-27.532 0-23.68 19.264-42.944 42.944-42.944zm26.012 49.944h-5.6l-4.348-16.676h3.864l6.084 16.676zm-7.668 0h-5.652l-2.608-16.676h3.912l4.348 16.676zm-46.488-.004h-5.528l7.824-16.672h3.792l-6.088 16.672zm43.204-20.32v-1.724h17.82v3.368h-65.76v-3.368h17.82v1.724h30.12zm-28.12-9.232h26.12v7.236h-26.12v-7.236zm43.976 18.976l-2.86-6.096h2.86v6.096zm-50.844-6.096h3.864l-4.348 16.672h-5.6l6.084-16.672zm17.268 10.5l.548-10.5h4.22l.872 16.676h-5.96l.32-6.176zm-1.856-2.784l-.468 8.96h-5.684l2.608-16.676h3.948l-.404 7.716zm-6.872.624l-1.304 8.336h-5.652l4.348-16.676h3.912l-1.304 8.34zm-13.376 10.336h28.344v17.268h-28.344v-17.268zm-3.292-18.676l-2.86 6.096v-6.096h2.86zm33.04 16.676l-.872-16.676h3.948l2.608 16.676h-5.684zm17.072-16.676h3.792l7.824 16.672h-5.532l-6.084-16.672zm-10.892 22.512h15.088v13.684h-15.088v-13.684zm0 15.684h15.088v5.392c-4.424 3.432-9.532 6.008-15.088 7.508v-12.9zm17.088 3.74v-21.424h-19.088v31.1c-2.956.644-6.016 1.008-9.164 1.008-12.14 0-23.1-5.088-30.916-13.212v-20.736h4.152v17.524h-1.848v2h36.04v-2h-1.848v-17.52h23.292l-.004-.004h2.048v20.736c-.848.884-1.74 1.72-2.664 2.528zm-14.788-7.88h10.544v-5.528h-10.544v5.528zm2-3.528h6.544v1.528h-6.544v-1.528z" sketch:type="MSShapeGroup" fill="#6dbfac"/></svg>