<svg width="90" height="90" viewBox="0 0 90 90" xmlns="http://www.w3.org/2000/svg" xmlns:sketch="http://www.bohemiancoding.com/sketch/ns"><title>new</title><desc>Created with Sketch.</desc><path d="M44.944 0c-24.784 0-44.944 20.16-44.944 44.944 0 24.78 20.16 44.944 44.944 44.944 24.78 0 44.944-20.164 44.944-44.944 0-24.784-20.164-44.944-44.944-44.944zm30.832 36.996h11.344c.484 2.58.768 5.228.768 7.948 0 2.716-.284 5.368-.768 7.948h-10.504c.132-4.796-.124-10.848-.84-15.896zm10.9-2h-11.224c-.712-3.988-1.76-7.044-3.208-7.736-3-1.42-11.244 2.996-17.352 6.748v-30.796c15.692 3.74 28.044 16.092 31.784 31.784zm-34.696 19.092c.94-1.064 1.636-2.34 1.988-3.756l5.3 1.892.672-1.884-5.692-2.032.016-.148v-1.888c0-.508-.068-1-.152-1.488l5.692-3.228-.988-1.744-5.252 2.984c-.62-1.472-1.64-2.724-2.896-3.676 7.6-5.116 18.348-11.184 20.712-10.056.052.024 1.28.68 2.296 7.192 1.656 10.6 1.04 23.54-.052 24.668-1.972.32-13.748-3.812-21.644-6.836zm-34.896 6.912c-1.28-1.208-1.896-14.156-.236-24.76 1.012-6.496 2.24-7.152 2.292-7.176 2.368-1.144 13.116 4.944 20.716 10.056-1.256.952-2.276 2.204-2.896 3.676l-5.252-2.984-.988 1.744 5.688 3.232c-.08.484-.152.976-.152 1.484v1.888l.016.148-5.692 2.032.672 1.884 5.3-1.892c.356 1.416 1.048 2.692 1.988 3.756-7.884 3.02-19.576 7.152-21.456 6.912zm21.176-12.84v-1.888c0-3.86 3.14-7 7-7s7.004 3.14 7.004 7v1.888c0 3.86-3.144 7-7.004 7-3.86 0-7-3.14-7-7zm14.632-45.392v32.488c-1.776 1.132-3.22 2.1-4.132 2.724-1.076-.456-2.26-.708-3.5-.708-1.24 0-2.424.252-3.5.708-1.016-.696-2.708-1.828-4.764-3.12v-32.092c2.58-.484 5.232-.768 7.948-.768s5.368.284 7.948.768zm-17.896.444v30.412c-6.04-3.66-13.84-7.736-16.72-6.364-1.448.692-2.496 3.748-3.208 7.736h-11.86c3.744-15.692 16.096-28.044 31.788-31.784zm-32.232 33.784h11.98c-.712 5.048-.972 11.1-.84 15.896h-11.136c-.488-2.58-.768-5.232-.768-7.948 0-2.72.28-5.368.764-7.948zm.444 17.896h10.78c.072 1.368.184 2.58.328 3.564.428 2.932 1.108 4.26 2.272 4.444.12.02.26.028.42.028 2.912 0 11.8-3.084 17.988-5.368v29.116c-15.692-3.74-28.044-16.092-31.788-31.784zm33.788 32.228v-30.304c1.336-.5 2.44-.924 3.204-1.22 1.444.984 3.184 1.564 5.06 1.564 1.876 0 3.616-.576 5.06-1.564.644.248 1.508.58 2.572.98v30.544c-2.58.484-5.232.768-7.948.768s-5.368-.284-7.948-.768zm17.896-.444v-29.352c6.196 2.304 15.608 5.604 18.62 5.604.16 0 .3-.008.42-.028 1.168-.184 1.844-1.512 2.276-4.444.144-.984.252-2.196.328-3.564h10.14c-3.744 15.692-16.092 28.044-31.784 31.784z" sketch:type="MSShapeGroup" fill="#6dbfac"/></svg>