<svg width="90" height="90" viewBox="0 0 90 90" xmlns="http://www.w3.org/2000/svg" xmlns:sketch="http://www.bohemiancoding.com/sketch/ns"><title>rampingup</title><desc>Created with Sketch.</desc><path d="M44.944 0c-24.784 0-44.944 20.164-44.944 44.944 0 24.784 20.16 44.948 44.944 44.948 24.78 0 44.944-20.164 44.944-44.948 0-24.78-20.164-44.944-44.944-44.944zm36.768 67.02c-2.06 1.096-3.636 1.432-6.78 1.432-12.384 0-18.22-13.46-18.276-13.592l-.216-.516-.552-.084c-.32-.052-32.1-5.008-40.024-6.052-3.044-.4-4.136-1.276-4.14-1.964-.004-.712.852-1.42 1.112-1.46.216 0 1.284.016 2.94.044 40.112.624 40.164.312 40.38-.864.076-.428.56-2.212.996-3.772 1.352-3.152 2.912-5.612 4.568-7.504h.08l.14-.248c1.7-1.884 3.484-3.208 5.22-4.116 2.444-1.084 4.776-1.62 4.816-1.632l.412-.088c3.024-.468 5.24.028 5.472.084v-.004l.024.008c.044.012 4.028.9 7.092 2.836 1.804 4.664 2.836 9.7 2.888 14.98-3.752-3.752-9.04-4.848-12.084-5.156l-.592-.06v-.076l-1.048.044c-1.86.092-11.332.964-15.032 9.472l-.964 2.204 2.24-.872c4.92-1.924 11.324-2.384 13.844-2.492l.96-.044.46.012c1.56.04 6.944.312 12 1.892-.664 6.392-2.776 12.34-5.936 17.588zm-53.204-11.344h3.38c3.376.776 5.82 3.836 5.82 7.308 0 4.14-3.372 7.508-7.512 7.508s-7.508-3.368-7.508-7.508c0-3.472 2.444-6.532 5.82-7.308zm2.516-2h-1.656v-1.472l1.656.252v1.22zm25.16-16.072c-1.1-.416-3.656-1.42-7.996-3.316-1.532-.668-2.384-1.144-2.848-1.456.464-.076 1.224-.144 2.448-.144h11.42c-1.072 1.392-2.084 3.032-3.024 4.916zm22.624-18.972c1.912 2.456 3.552 5.124 4.904 7.964-1.88-.86-3.696-1.424-4.668-1.676-.072-1.064-.188-3.28-.236-6.288zm8.868 28.712c-4.344-1.272-8.788-1.652-11-1.764v-4.096c2.92.44 8.048 1.788 11 5.86zm-14.488-5.996v4.272c-2.532.156-6.96.576-11.048 1.748 3.168-4.576 8.56-5.728 11.048-6.02zm14.504 6l.076-.056-.004.08-.072-.024zm-10.904-31.112c.004 3.9.136 6.784.228 8.316-.972-.1-2.42-.152-4.172.06.116-1.916.304-6.056.204-11.528l.016-.52c1.32 1.148 2.556 2.376 3.724 3.672zm-31.844 71.656c-23.68 0-42.944-19.268-42.944-42.948s19.264-42.944 42.944-42.944c9.856 0 18.92 3.372 26.172 8.976-.04.684-.08 1.368-.068 2.144.108 5.836-.12 10.16-.228 11.796-2.044.532-7.756 2.292-10.156 5.772h-12.876c-2.756 0-4.648.272-4.928 1.612-.256 1.232.968 2.268 4.524 3.824 4.16 1.816 6.692 2.82 7.908 3.288l-.02.072c-.46 1.08-.884 2.26-1.288 3.496-2.612.18-11.804.26-38.176-.152-1.676-.028-2.752-.044-2.972-.044-1.276 0-2.992 1.536-3.104 3.268-.084 1.244.572 3.44 5.872 4.14 2.324.304 6.716.952 11.764 1.708v2.008c-3.916 1.22-6.68 4.916-6.68 9.076 0 5.244 4.264 9.508 9.508 9.508 5.244 0 9.512-4.264 9.512-9.508 0-4.16-2.768-7.856-6.684-9.076v-1.148c9.572 1.456 19.62 3.016 22.02 3.392 1.256 2.66 7.464 14.3 19.888 14.3 2.048 0 3.52-.16 4.872-.528-7.8 10.86-20.504 17.968-34.86 17.968zm-14.748-20.652c2.424 0 4.396-1.976 4.396-4.396 0-2.424-1.972-4.4-4.396-4.4s-4.396 1.976-4.396 4.4c0 2.42 1.972 4.396 4.396 4.396zm0-6.796c1.324 0 2.396 1.076 2.396 2.4 0 1.32-1.072 2.396-2.396 2.396-1.32 0-2.396-1.076-2.396-2.396 0-1.324 1.076-2.4 2.396-2.4z" sketch:type="MSShapeGroup" fill="#6dbfac"/></svg>