<svg width="163" height="150" viewBox="0 0 163 150" xmlns="http://www.w3.org/2000/svg"><title>butcherboy-logo-white</title><desc>Created with Sketch.</desc><path d="M156.707 72.897c1.724-.152 5.377.358 6.25 2.23.371.805-3.609 1.558-4.198 1.819-2.029.784-3.95 1.916-5.805 3.047-1.768 1.067-3.491 2.199-5.303 3.222-.873.501-1.768.98-2.684 1.393l-1.44.631c-5.128 2.068-10.431 3.309-15.93 3.853-3.906.392-10.911 1.741-14.337-.871-2.64-2.003.48-1.85 2.204-1.872 2.509-.044 5.041-.131 7.55-.414 4.997-.566 9.842-1.828 14.533-3.657-1.069.435 2.095-.98 2.466-1.175 1.157-.609 2.269-1.306 3.382-1.981 2.095-1.284 4.168-2.634 6.35-3.766 2.117-1.088 4.561-2.242 6.961-2.46zm-93.593 25.533c3.077-1.393 6.176-2.83 9.536-3.461 1.113-.196 2.946.522 3.142 1.828.218 1.567-1.986 1.437-3.142 1.741-3.426.892-6.787 2.307-10.322 2.656-.698.065-2.99.392-3.295-.609-.196-.631 3.579-1.937 4.081-2.155zm-41.053-5.171c3.286-.031 6.347.546 8.478 2.406 2.962 2.522 1.17 6.609-1.66 8.605-4.047 2.807-8.716 3.855-13.592 3.475-4.27-.372-8.594-2.431-9.384-6.944-.327-1.89 1.598-6.944 2.553-9.605-6.88-2.383-9.087-6.857-8.307-11.668 1.656-9.043 10.362-13.992 16.911-15.2 5.867-1.085 17.368 1.963 18.091 10.443.507 5.958-4.803 12.987-13.091 18.486zm-10.683 5.792c-3.269 10.23 14.829 6.134 15.383-.813.359-4.318-10.03-1.619-15.046-.427l-.337 1.239zm17.264-27.141c-3.581-8.067-13.915-4.945-19.074.345-3.191 3.352-8.599 13.59-.397 16.836 1.628-5.14 4.581-14.685 4.982-15.886.549-1.898 4.795 1.333 4.194 3.245-2.118 6.42-3.641 11.753-5.493 17.72 8.526-3.531 19.606-13.705 15.788-22.259zm63.803 12.671c-1.075.01-2.628-.475-3.372-1.148-3.233 3.075-7.499 5.013-11.75 3.594-1.359-.426-2.622-1.017-3.522-2.41-3.673 6.178-10.02 8.494-12.364 7.194-1.562-.851-2.67-1.763-3.427-2.726-2.805 5.49-6.348 7.05-8.76 6.11-1.345-.528-2.268-1.331-2.974-2.354-2.181 3.858-5.106 6.757-8.954 4.629-3.821-2.025-3.754-7.254-1.304-14.09 1.695-4.884 2.541-6.694 3.278-7.873 1.168-1.84 4.84.663 4.376 2.046l-3.576 9.048c-1.358 3.644-2.489 8.162-1.723 8.786.623.497 2.874-1.405 6.347-9.164l4.901-13.452c1.135-1.337 5.045.61 4.617 1.709-.163.427-1.501 3.517-2.693 6.954-.753 2.17-3.808 10.48-1.376 11.384 1.643.616 5.401-6.889 7.036-11.375.419-1.418 1.002-2.875 1.556-4.352.327-.853.87-2.146 1.461-3.671-3.806.988-4.612-2.533-3.378-2.853 1.697-.441 1.619-.53 5.13-1.387 1.474-3.62 2.937-7.072 3.038-7.317.835-1.644 4.571.897 4.26 2.021-.175.594-.767 2.119-1.522 4.071 3.164-.712 7.184 1.865 3.789 2.747-.823.214-3.419.998-5.477 1.532-1.436 3.555-2.808 7.148-3.186 8.014-1.385 3.541-2.268 8.379-.998 9.037 1.741.894 6.564-.599 10.814-10.942.555-5.784 3.92-13.24 7.322-15.163.705-.457 1.825-.584 2.538-.166 4.431 2.47 5.343 3.44 4.937 6.947-.292 1.832-.678 3.303-1.858 5.311-.52.958-3.712-1.395-2.952-4.171.834-3.124.916-4.078.656-4.231-.519-.304-2.519 2.136-4.585 7.281-2.14 5.493-1.956 9.999.049 10.74 3.091 1.118 9.644-3.876 12.987-13.348.282-1.014.559-2.031.819-3.02.947-3.538 7.152-22.321 9.622-26.967.405-.764 1.809-.854 3.42.483 1.338 1.134 1.509 2.845 1.226 4.29-.384 1.691-4.357 12.378-9.054 21.552-.924 3.203-1.785 6.224-2.445 8.754 4.077-6.49 8.669-14.376 11.33-19.346.215-.44.589-.482.781-.587 1.08-.28 4.643.33 3.877 2.45-1.495 4.174-4.52 11.542-5.292 15.748-.319 1.728-.627 3.29.008 3.619.589.346 4.345-3.532 7.185-10.2.302-5.756 3.66-13.599 7.229-15.652.769-.419 2.028-.856 3.322-.315 4.696 1.798 5.211 3.145 4.794 6.82-.624 4.99-3.151 8.993-6.603 10.712-1.271.604-3.07-.19-4.158-.786-.183 2.462.47 4.761 1.621 5.175 2.945 1.035 8.851-3.228 12.352-11.53 1.922-4.863 2.265-7.991 2.552-10.115-.856-.546-1.43-1.275-1.429-2.536-.016-4.495 2.679-8.486 4.459-8.4 2.218.082 3.463 2.337 3.138 6.152-.045.67-.165 1.689-.75 3.87 1.444.064 3.026-1.664 4.531-3.481.114-.194.268-.234.423-.274.36-.094.722.032 1.059.273 2.319 1.318 3.024 3.604 2.849 4.198-.767 2.119-6.709 14.525-4.824 16.285 1.885 1.76 7.148-7.562 8.536-12.147.376-1.085 3.487.74 2.371 4.047-2.912 8.437-9.083 11.521-12.343 10.173-4.944-2.118-2.417-10.345-.359-16.365-1.055.164-2.229.085-3.498-.572-.757 3.07-2.541 8.105-3.693 11.063l-.068.227c-1.979 6.11-9.306 13.828-16.664 11.295-1.501-.49-2.637-1.053-3.467-2.194-4.078 7.542-9.9 8.198-12.303 4.26-1.06-1.754-.796-5.17-.237-7.454.036-.284.124-.581.211-.878-3.173 5.323-7.014 10.819-8.586 13.641-.318.467-.624.766-1.282.772zm31.761-28.821c-.556-.239-2.786 2.589-4.735 7.758-.856 2.197-1.264 4.004-.735 4.141.878.211 2.557-2.2 3.872-4.956 1.745-3.635 2.09-6.742 1.598-6.943zm-29.957 34.426c5.867-1.085 17.368 1.963 18.091 10.443.507 5.958-4.803 12.987-13.091 18.486 3.286-.031 6.347.546 8.478 2.406 2.963 2.522 1.17 6.609-1.66 8.606-4.047 2.807-8.716 3.854-13.592 3.475-4.27-.372-8.594-2.431-9.384-6.944-.327-1.89 1.598-6.944 2.553-9.605-6.879-2.383-9.087-6.857-8.307-11.668 1.656-9.043 10.362-13.992 16.911-15.199zm1.286 12.119c-2.118 6.42-3.641 11.753-5.493 17.72 8.526-3.531 19.606-13.705 15.788-22.259-3.581-8.068-13.915-4.945-19.074.345-3.191 3.352-8.599 13.59-.397 16.836 1.628-5.14 4.581-14.685 4.982-15.886.549-1.898 4.795 1.333 4.194 3.245zm-6.969 22.602c-3.269 10.23 14.829 6.134 15.383-.813.359-4.318-10.03-1.619-15.046-.426l-.337 1.239zm66.849-22.663c1.229-2.239 2.365-4.839 3.107-6.842.428-1.099 3.436.754 2.32 4.061-1.08 3.024-2.323 5.212-3.93 7.055-2.079 2.35-5.665 4.818-9.007 7.167-1.744 5.116-3.944 12.49-5.321 15.426-1.44 3.117-3.232 1.717-4.063 1.055-1.298-.98-1.312-3.774-.607-6.975.743-3.265 1.892-5.813 4.944-8.855.125-.362.757-1.733 1.425-3.387-1.624 1.354-3.541 1.797-5.782.569-2.941-1.59-3.578-5.115-2.552-9.834 0 0-1.448.536-2.66.901-1.212.365-2.248.381-2.248.381-.174 2.779-.784 4.694-1.69 7.18l-.125.286c-.71 1.713-1.579 3.354-2.525 4.374-3.265 3.701-6.562 2.637-7.623 2.144-1.048-.441-4.03-.928-4.669-4.438-1.199-6.93 2.232-13.582 4.012-16.238 1.552-2.263 3.015-3.038 4.755-2.868 3.277.26 6.799 3.179 7.506 5.996 5.095-.605 8.659-7.519 8.659-7.573.581-1.013.831-1.677 1.112-2.223.936-1.889 4.979.636 4.399 1.994l-3.525 9.035c-1.41 3.658-2.54 8.175-1.774 8.8.675.483 2.874-1.405 6.308-9.099l4.953-13.466c.285-1.226 4.975-.085 4.566 1.722-.603 1.693-2.327 7.517-3.415 11.146-.412 1.369-1.74 5.554-2.803 9.067.857-.716 1.944-1.602 2.251-1.901 1.087-.886 3.027-2.926 4.004-4.661zm-29.068 1.021c-.956-.077-1.972-.921-2.353-1.328-.455-.486-1.151-1.774-1.4-2.805l-.149.236c-.863 1.327-1.753 3.143-2.488 5.559-1.24 3.888-1.372 9.079.103 9.683 1.473.634 3.72-3.8 4.936-6.921.142-.426.292-.846.458-1.256l.033-.085c.107-.263.528-1.263.861-3.085z" fill="#fff"/></svg>