<svg width="100" height="150" viewBox="0 0 100 150" xmlns="http://www.w3.org/2000/svg" xmlns:sketch="http://www.bohemiancoding.com/sketch/ns"><title>logo</title><desc>Created with Sketch.</desc><path d="M67.698 3.604c2.996 0 5.875.433 8.595 1.261 2.959-2.563 5.639-3.865 7.886-3.865 2.444 0 3.983 1.499 3.983 3.746 0 2.367-1.735 5.008-5.126 7.255v.316c0 3.667-2.721 6.505-7.925 8.123l-.197-.118-.118-.355.157-.196c4.732-1.656 7.138-4.141 7.138-7.176-2.996 1.577-6.309 2.523-9.818 2.996-.434 1.458-.67 3.155-.67 4.929 0 5.086 2.956 8.044 7.65 8.044 4.652 0 8.515-3.549 13.168-10.567.079.236.118.433.118.552 0 .867-1.104 2.444-3.192 4.928-3.393 4.023-6.667 6.033-10.885 6.033-5.835 0-9.896-3.982-9.896-9.698 0-1.223.158-2.604.553-4.14-7.846-.276-11.829-2.485-11.829-6.231 0-3.351 3.745-5.835 10.409-5.835zm7.887 1.892c-2.17-.708-4.536-1.024-7.137-1.024-5.56 0-8.833 2.326-8.833 5.284 0 3.116 3.351 5.007 9.739 5.047 1.222-3.43 3.313-6.584 6.231-9.306m6.505 5.561c-.512-2.248-2.09-3.865-4.731-5.008-1.894 2.484-3.471 5.363-4.733 8.635 3.629-.512 6.821-1.735 9.464-3.626m.711-.75c2.325-2.128 3.468-4.377 3.468-5.914s-.986-2.525-2.484-2.525c-1.695 0-3.825 1.144-5.914 3.51 2.485 1.143 4.219 2.642 4.929 4.928zm-64.253 16.089c-3.391-2.917-4.219-6.742-4.219-9.937 0-2.247.828-6.15 3.904-9.147 2.089-2.011 5.244-3.589 10.567-3.589 1.381 0 3.351.118 5.047.395 1.302.237 2.405.474 3.549.512.355 0 .434.159.434.355 0 .276-.079.67-.158 1.893-.039 1.104-.039 2.958-.079 3.431-.039.512-.197.708-.394.708-.237 0-.276-.236-.276-.708 0-1.302-.553-2.643-1.46-3.352-1.222-1.025-3.745-1.853-6.821-1.853-4.456 0-6.584 1.183-7.807 2.326-2.563 2.367-3.114 5.364-3.114 8.753 0 6.427 5.086 12.145 12.499 12.145 2.602 0 4.337-.197 5.717-1.577.75-.749 1.223-2.169 1.34-2.8.08-.354.118-.473.355-.473.158 0 .316.237.316.473 0 .237-.474 3.154-.828 4.298-.197.631-.276.749-.869.986-1.419.552-4.021.75-6.268.75-5.205 0-8.714-1.224-11.436-3.589zm8.047 17.922c9.135 0 15.727 6.981 15.727 15.732 0 8.717-6.593 15.731-15.727 15.731-9.137 0-15.703-7.013-15.703-15.731 0-8.751 6.566-15.732 15.703-15.732zm0 28.729c7.492 0 12.833-5.856 12.833-12.997s-5.34-12.965-12.833-12.965c-7.498 0-12.807 5.824-12.807 12.965s5.308 12.997 12.807 12.997m4.564-9.749c-1.092.645-2.153 1.061-3.312 1.061-2.315 0-3.86-1.671-3.86-4.502 0-2.831 1.446-4.536 3.731-4.536 1.287 0 2.252.45 3.186 1.124l.385-2.669c-.998-.643-2.157-.997-3.83-.997-3.923 0-6.657 2.863-6.657 7.11 0 4.151 2.636 7.012 6.691 7.012 1.544 0 2.926-.418 4.053-1.093l-.389-2.51zm37.051 4.235c0 1.304-.864 1.958-2.587 1.958-.896 0-1.553-.093-1.978-.28-.769-.359-1.154-.919-1.154-1.678 0-.679.269-1.159.801-1.437l.59-.36.094-.12c0-.067-.173-.194-.519-.38-.643-.332-.965-.859-.965-1.578 0-.759.433-1.331 1.296-1.718.127-.12.189-.194.189-.221l-.047-.118-.682-.4c-.503-.321-.755-.8-.755-1.439 0-.679.269-1.171.801-1.478l.59-.32c.062-.053.094-.106.094-.159-.016-.068-.048-.121-.097-.16l-.656-.341c-.486-.306-.73-.785-.73-1.437 0-.747.276-1.259.828-1.539.437-.226.656-.365.656-.42l-.047-.079-.73-.441c-.47-.306-.707-.786-.707-1.439 0-.573.252-1.041.753-1.408.503-.366 1.146-.549 1.932-.549.846 0 1.473.093 1.882.279.767.36 1.152.907 1.152 1.639 0 .733-.273 1.252-.822 1.558l-.517.28c-.062.053-.094.106-.094.159.016.08.064.133.141.16l.423.259c.58.321.869.819.869 1.499 0 .706-.273 1.21-.822 1.518l-.564.339-.094.121c.016.065.047.106.094.118l.517.28c.58.32.869.839.869 1.558 0 .733-.273 1.239-.822 1.519l-.564.279-.047.12c0 .054.032.107.094.16l.47.3c.58.345.869.851.869 1.518 0 .653-.234 1.125-.703 1.419l-.729.459-.047.08c0 .067.202.2.611.4.58.292.869.798.869 1.518zm13.802-19.529c0 .796-.385 1.367-1.154 1.711-.36.173-1.019.259-1.977.259h-8.69c-.925 0-1.571-.086-1.931-.259-.769-.344-1.154-.902-1.154-1.671 0-1.301.918-1.951 2.757-1.951h9.985c.548 0 1.046.196 1.494.587.447.391.67.832.67 1.323m0 23.421c0 1.308-.871 1.962-2.613 1.962h-7.841c-1.697 0-2.678-.039-2.944-.121-1.003-.306-1.507-.907-1.507-1.801 0-.787.401-1.347 1.202-1.682.329-.133.909-.2 1.742-.2h9.395c1.711 0 2.567.613 2.567 1.842m4.593-19.503c0 1.325-.918 1.987-2.754 1.987-.849 0-1.445-.081-1.79-.243-.769-.379-1.154-.946-1.154-1.704 0-1.324.902-1.987 2.708-1.987h.376c1.742.041 2.613.69 2.613 1.947m0 15.652c0 .945-.549 1.558-1.648 1.837-.157.054-.675.08-1.555.08-.721 0-1.318-.173-1.788-.519-.473-.347-.707-.798-.707-1.359 0-1.305.933-1.957 2.802-1.957 1.931 0 2.896.638 2.896 1.917zm-79.775 65.895l-.643 1.893h.11c.552-1.011 1.176-2.059 1.636-2.629.589-.734 1.085-1.176 1.636-1.176.589 0 .846.515.846 1.03 0 .569-.423 1.47-.993 1.47-.221 0-.294-.202-.368-.533-.073-.368-.184-.552-.368-.552-.221 0-.644.405-1.25 1.415-.68 1.103-1.452 2.886-2.206 4.633-.091.22-.331.294-.624.294-.369 0-1.012-.111-.845-.626.403-1.194 1.323-3.75 1.837-5.423.093-.294.073-.478-.11-.478-.405 0-.993.515-1.435 1.029-.183 0-.329-.147-.292-.368.476-.827 1.396-1.893 2.536-1.893.993 0 .828 1.066.533 1.913zm6.897 3.841c0-1.379.864-3.438 2.611-4.76 1.011-.754 1.874-.993 2.573-.993.883 0 1.472.661 1.472 1.267 0 1.656-2.501 2.555-4.542 3.107-.091.258-.165.681-.165 1.196 0 .68.294 1.048.809 1.048.661 0 1.323-.386 2.169-1.157.184 0 .331.184.294.366-.992 1.378-2.28 1.931-3.493 1.931-1.212 0-1.727-.993-1.727-2.004zm3.584-4.357c-.68.717-1.122 1.69-1.323 2.353.938-.331 1.507-.644 2.095-1.25.46-.459.68-1.085.68-1.378 0-.239-.11-.46-.349-.46-.257 0-.644.221-1.103.735zm10.976-.331c-.627 1.837-1.472 5.184-2.041 6.985-.46 1.434-.956 2.537-1.417 3.124-.385.497-1.36 1.27-2.499 1.27-.883 0-1.545-.59-1.545-1.233 0-.496.331-.864.698-.864.257 0 .423.128.57.368.349.552.753.919 1.066.919.275 0 .533-.294.901-1.562.624-2.206 1.508-5.772 2.427-9.007h-1.637c-.183-.258-.036-.698.221-.809h1.636c.423-1.415.828-2.684 1.581-3.768.919-1.341 2.078-2.132 3.512-2.132 1.14 0 1.839.663 1.839 1.415 0 .772-.589 1.25-.993 1.25-.257 0-.368-.11-.405-.368-.147-1.249-.679-1.635-1.048-1.635-.405 0-.845.459-1.231 1.23-.607 1.214-1.012 2.611-1.415 4.008h2.188c.147.222.073.663-.221.809h-2.186zm5.145 4.688c0-1.379.864-3.438 2.611-4.76 1.011-.754 1.874-.993 2.573-.993.882 0 1.471.661 1.471 1.267 0 1.656-2.5 2.555-4.54 3.107-.093.258-.167.681-.167 1.196 0 .68.295 1.048.809 1.048.661 0 1.324-.386 2.169-1.157.184 0 .331.184.294.366-.992 1.378-2.279 1.931-3.492 1.931-1.214 0-1.729-.993-1.729-2.004zm3.586-4.357c-.681.717-1.123 1.69-1.325 2.353.938-.331 1.509-.644 2.096-1.25.459-.459.68-1.085.68-1.378 0-.239-.11-.46-.349-.46-.257 0-.643.221-1.102.735zm10.514.516l-.643 1.893h.11c.552-1.011 1.176-2.059 1.636-2.629.589-.734 1.085-1.176 1.636-1.176.587 0 .845.515.845 1.03 0 .569-.423 1.47-.992 1.47-.221 0-.294-.202-.369-.533-.073-.368-.184-.552-.366-.552-.221 0-.644.405-1.251 1.415-.68 1.103-1.451 2.886-2.205 4.633-.093.22-.332.294-.624.294-.369 0-1.012-.111-.846-.626.405-1.194 1.324-3.75 1.839-5.423.091-.294.073-.478-.11-.478-.405 0-.993.515-1.435 1.029-.183 0-.331-.147-.294-.368.478-.827 1.397-1.893 2.537-1.893.993 0 .827 1.066.533 1.913zm6.897 3.841c0-1.379.864-3.438 2.61-4.76 1.012-.754 1.876-.993 2.574-.993.882 0 1.471.661 1.471 1.267 0 1.656-2.5 2.555-4.541 3.107-.091.258-.164.681-.164 1.196 0 .68.294 1.048.807 1.048.663 0 1.325-.386 2.17-1.157.183 0 .331.184.294.366-.993 1.378-2.279 1.931-3.493 1.931-1.213 0-1.727-.993-1.727-2.004zm3.584-4.357c-.68.717-1.122 1.69-1.324 2.353.939-.331 1.508-.644 2.098-1.25.459-.459.679-1.085.679-1.378 0-.239-.11-.46-.349-.46-.258 0-.643.221-1.103.735zm15.569-.366c0 .348-.147.974-.329 1.451-.333.901-1.215 2.905-1.509 3.64-.09.22-.11.368.037.368.294 0 1.176-.663 1.692-1.25.221-.037.329.11.329.331-.623 1.029-2.094 2.188-3.528 2.188-.332 0-.626-.331-.626-.589 0-.22.074-.479.331-1.085.479-1.103 1.102-2.629 1.545-3.713.147-.368.294-.809.294-1.104 0-.165-.037-.311-.258-.311-.312 0-1.102.569-1.947 1.635-.993 1.287-1.895 2.979-2.795 4.873-.11.22-.332.294-.626.294-.329 0-.972-.111-.808-.626.073-.238 1.764-4.797 1.948-5.312.11-.295.146-.553-.074-.553-.368 0-1.066.479-1.579.958-.185 0-.295-.148-.295-.295.587-.937 1.911-1.93 3.162-1.93.66 0 .717.552.55.956l-1.12 2.849h.073c1.157-1.636 2.849-3.805 4.43-3.805.809 0 1.103.515 1.103 1.03zm5 4.705c0-1.213.754-3.033 2.077-4.338.975-.955 1.95-1.397 2.924-1.397.955 0 1.598.515 1.581 1.25 0 .717-.681 1.011-1.104 1.011-.311 0-.532-.184-.55-.515-.037-.405.019-1.012-.459-1.012-.369 0-.845.368-1.361 1.178-.57.9-1.157 2.26-1.157 3.603 0 .825.311 1.102.754 1.102.549 0 1.212-.349 1.966-1.122.221 0 .368.148.332.368-.68.901-2.022 1.894-3.383 1.894-.992 0-1.618-.7-1.618-2.022zm10.477.019c0-1.379.865-3.438 2.611-4.76 1.012-.754 1.874-.993 2.574-.993.882 0 1.471.661 1.471 1.267 0 1.656-2.501 2.555-4.542 3.107-.09.258-.164.681-.164 1.196 0 .68.294 1.048.807 1.048.663 0 1.325-.386 2.172-1.157.183 0 .329.184.292.366-.992 1.378-2.278 1.931-3.493 1.931-1.212 0-1.727-.993-1.727-2.004zm3.586-4.357c-.68.717-1.122 1.69-1.325 2.353.939-.331 1.509-.644 2.096-1.25.46-.459.68-1.085.68-1.378 0-.239-.109-.46-.348-.46-.258 0-.644.221-1.103.735zm-77.056-28.246c-1.415-.843-3.074-1.355-4.76-1.355-3.254 0-5.363 2.2-5.363 5.754 0 3.586 1.988 5.846 5.392 5.846 1.839 0 3.556-.603 4.971-1.537l.995 4.248c-1.476.813-3.977 1.355-6.176 1.355-6.025 0-10.003-3.464-10.003-9.791 0-6.086 3.947-9.942 10.153-9.942 2.29 0 4.52.573 6.237 1.415l-1.446 4.006zm10.303 13.859h-4.79v-18.829h7.561c5.001 0 7.623 2.32 7.623 5.966 0 2.529-1.326 4.458-3.857 5.422l4.82 7.442h-5.392l-3.766-6.327-2.199.181v6.146zm2.32-9.761c2.05-.149 3.164-.993 3.164-2.802 0-1.656-1.146-2.469-3.555-2.469h-2.019v5.332l2.41-.06zm12.683 9.761v-18.829h13.768v3.856h-9.068v3.617h7.29v3.825h-7.29v3.676h9.068v3.856h-13.768zm24.974 0h-6.748v-18.829h7.08c6.627 0 10.393 3.676 10.393 9.279 0 5.785-3.825 9.55-10.725 9.55zm.031-15.003h-1.989v11.177h2.23c3.465 0 5.633-1.777 5.633-5.543 0-3.886-1.957-5.634-5.873-5.634zm23.98 15.455c-5.572 0-9.821-3.464-9.821-9.821 0-5.966 4.278-9.912 9.881-9.912 5.604 0 9.851 3.434 9.851 9.791 0 5.965-4.308 9.942-9.912 9.942zm-38.882-82.016v-26.655h-1v26.655h-42.158v1h42.158v29.079h1v-29.079h41.855v-1h-41.855zm38.882 66.14c-3.192 0-5.001 2.411-5.001 5.935 0 3.615 1.868 6.086 5.092 6.086 3.162 0 5.001-2.439 5.001-5.965 0-3.615-1.899-6.056-5.092-6.056z" sketch:type="MSShapeGroup" fill="#fff"/></svg>