<?xml version="1.0" encoding="UTF-8" standalone="no"?>
<svg width="351px" height="150px" viewBox="0 0 351 150" version="1.1" xmlns="http://www.w3.org/2000/svg" xmlns:xlink="http://www.w3.org/1999/xlink" xmlns:sketch="http://www.bohemiancoding.com/sketch/ns">
    <!-- Generator: Sketch 3.2 (9961) - http://www.bohemiancoding.com/sketch -->
    <title>logo</title>
    <desc>Created with Sketch.</desc>
    <defs></defs>
    <g id="client-logos" stroke="none" stroke-width="1" fill="none" fill-rule="evenodd" sketch:type="MSPage">
        <g id="logo" sketch:type="MSArtboardGroup" fill="#FFFFFF">
            <path d="M50.4095051,91.7994729 L50.4095051,91.7273597 C50.4095051,86.5109024 54.5238151,82.0803978 59.9738231,82.0803978 C63.5111312,82.0803978 65.7127413,83.5453488 67.4445655,85.3676248 L65.6038885,87.2968551 C64.124963,85.7606011 62.4643434,84.5095589 59.9386301,84.5095589 C56.1484233,84.5095589 53.2609585,87.6898315 53.2609585,91.6560568 L53.2609585,91.7273597 C53.2609585,95.7292365 56.2204462,98.9095091 60.117869,98.9095091 C62.5003549,98.9095091 64.3410318,97.73058 65.8207757,96.1578643 L67.5894298,97.8018829 C65.7127413,99.8745294 63.4751198,101.375132 59.9738231,101.375132 C54.5238151,101.375132 50.4095051,96.9802787 50.4095051,91.7994729 L50.4095051,91.7994729 Z M72.1015028,82.4733741 L74.8801148,82.4733741 L74.8801148,87.2968551 C76.2518243,84.2243471 78.9592318,82.0090948 82.4957214,82.1517007 L82.4957214,85.1172543 L82.2788342,85.1172543 C78.2013541,85.1172543 74.8801148,88.0115049 74.8801148,93.5860974 L74.8801148,100.946504 L72.1015028,100.946504 L72.1015028,82.4733741 L72.1015028,82.4733741 Z M86.7188843,75.3989894 L89.8944408,75.3989894 L89.8944408,78.4358459 L86.7188843,78.4358459 L86.7188843,75.3989894 Z M86.8997601,82.4733741 L89.6783721,82.4733741 L89.6783721,100.946504 L86.8997601,100.946504 L86.8997601,82.4733741 Z M96.0663151,82.4733741 L98.8457455,82.4733741 L98.8457455,85.5823438 C100.073409,83.7600679 101.73321,82.0803978 104.873574,82.0803978 C107.905085,82.0803978 109.853796,83.6879547 110.863754,85.7606011 C112.199452,83.7236061 114.184993,82.0803978 117.432573,82.0803978 C121.728577,82.0803978 124.362325,84.9389969 124.362325,89.5121074 L124.362325,100.946504 L121.583713,100.946504 L121.583713,90.1554543 C121.583713,86.5822053 119.779047,84.581672 116.747536,84.581672 C113.932095,84.581672 111.586439,86.6535082 111.586439,90.2980601 L111.586439,100.946504 L108.84302,100.946504 L108.84302,90.0841513 C108.84302,86.6178568 107.002343,84.581672 104.042855,84.581672 C101.083367,84.581672 98.8457455,87.0108331 98.8457455,90.4058248 L98.8457455,100.946504 L96.0663151,100.946504 L96.0663151,82.4733741 L96.0663151,82.4733741 Z M128.767182,98.5878356 L130.174903,96.6229538 C132.196455,98.1235563 134.433259,98.980812 136.634869,98.980812 C138.87249,98.980812 140.497098,97.8375344 140.497098,96.0509099 L140.497098,95.979607 C140.497098,94.1216796 138.295488,93.4070298 135.840979,92.7280314 C132.917503,91.9064273 129.669924,90.9057555 129.669924,87.5115741 L129.669924,87.4402712 C129.669924,84.2599986 132.339683,82.1517007 136.021037,82.1517007 C138.295488,82.1517007 140.82202,82.9376534 142.73472,84.1878854 L141.471863,86.2613421 C139.738402,85.1529057 137.754498,84.4739074 135.949014,84.4739074 C133.747404,84.4739074 132.339683,85.6179953 132.339683,87.1542492 L132.339683,87.2255522 C132.339683,88.9765252 134.650146,89.6555235 137.140666,90.4058248 C140.027312,91.2630804 143.131664,92.3707066 143.131664,95.693585 L143.131664,95.7656982 C143.131664,99.266834 140.208188,101.303019 136.490823,101.303019 C133.820245,101.303019 130.860757,100.267506 128.767182,98.5878356 L128.767182,98.5878356 Z M147.065099,91.7994729 L147.065099,91.7273597 C147.065099,86.5109024 151.179409,82.0803978 156.810293,82.0803978 C162.404346,82.0803978 166.518656,86.4395994 166.518656,91.6560568 L166.518656,91.7273597 C166.518656,96.9446273 162.368335,101.375132 156.737451,101.375132 C151.143397,101.375132 147.065099,97.0159302 147.065099,91.7994729 L147.065099,91.7994729 Z M163.667203,91.7994729 L163.667203,91.7273597 C163.667203,87.7619446 160.671704,84.5095589 156.737451,84.5095589 C152.695164,84.5095589 149.916552,87.7619446 149.916552,91.6560568 L149.916552,91.7273597 C149.916552,95.693585 152.87604,98.9095091 156.810293,98.9095091 C160.851761,98.9095091 163.667203,95.693585 163.667203,91.7994729 L163.667203,91.7994729 Z M171.463685,82.4733741 L174.243116,82.4733741 L174.243116,85.6892982 C175.47078,83.6879547 177.418672,82.0803978 180.631059,82.0803978 C185.143132,82.0803978 187.777698,85.0816028 187.777698,89.4764559 L187.777698,100.946504 L184.998268,100.946504 L184.998268,90.1554543 C184.998268,86.7256214 183.121579,84.581672 179.837988,84.581672 C176.625602,84.581672 174.243116,86.9038787 174.243116,90.369363 L174.243116,100.946504 L171.463685,100.946504 L171.463685,82.4733741 L171.463685,82.4733741 Z M204.379802,74.8625969 L207.158414,74.8625969 L207.158414,85.6892982 C208.386078,83.6879547 210.334789,82.0803978 213.547176,82.0803978 C218.059249,82.0803978 220.693815,85.0816028 220.693815,89.4764559 L220.693815,100.946504 L217.914385,100.946504 L217.914385,90.1554543 C217.914385,86.7256214 216.037696,84.581672 212.753287,84.581672 C209.5409,84.581672 207.158414,86.9038787 207.158414,90.369363 L207.158414,100.946504 L204.379802,100.946504 L204.379802,74.8625969 L204.379802,74.8625969 Z M234.770206,98.980812 C237.332749,98.980812 239.137415,97.9444888 240.65317,96.3725833 L242.384994,97.9088373 C240.508306,99.9814837 238.234673,101.375132 234.698183,101.375132 C229.573097,101.375132 225.385945,97.4802095 225.385945,91.7273597 C225.385945,86.3682965 229.176152,82.0803978 234.336432,82.0803978 C239.858463,82.0803978 243.034838,86.4395994 243.034838,91.8707758 C243.034838,92.120336 243.034838,92.406358 242.998826,92.8349858 L228.201387,92.8349858 C228.598332,96.7299082 231.485797,98.980812 234.770206,98.980812 L234.770206,98.980812 Z M240.220214,90.6197335 C239.894474,87.2612036 237.946581,84.4026045 234.265227,84.4026045 C231.052841,84.4026045 228.598332,87.0464846 228.201387,90.6197335 L240.220214,90.6197335 L240.220214,90.6197335 Z M252.383905,91.5491024 L245.346119,82.4733741 L248.521676,82.4733741 L254.044525,89.619872 L259.565737,82.4733741 L262.67009,82.4733741 L255.596292,91.4777994 L262.959818,100.946504 L259.746613,100.946504 L253.972502,93.4070298 L248.161561,100.946504 L245.057209,100.946504 L252.383905,91.5491024 L252.383905,91.5491024 Z M265.450338,95.5866306 L265.450338,95.5153277 C265.450338,91.5491024 268.697918,89.4764559 273.426878,89.4764559 C275.808546,89.4764559 277.467528,89.7981294 279.128966,90.2632189 L279.128966,89.691175 C279.128966,86.403948 277.108232,84.6886264 273.606935,84.6886264 C271.404507,84.6886264 269.673501,85.2250189 267.940859,86.0101614 L267.110958,83.7600679 C269.166885,82.830699 271.151608,82.1873522 273.895027,82.1873522 C276.529593,82.1873522 278.586339,82.902002 279.922856,84.2243471 C281.222542,85.5102306 281.871567,87.2968551 281.871567,89.6555235 L281.871567,100.946504 L279.128966,100.946504 L279.128966,98.1948593 C277.82928,99.8380676 275.699693,101.33867 272.414465,101.33867 C268.913987,101.33867 265.450338,99.3737883 265.450338,95.5866306 L265.450338,95.5866306 Z M279.164978,94.157331 L279.164978,92.4420095 C277.794087,92.0490331 275.988603,91.6560568 273.714151,91.6560568 C270.250503,91.6560568 268.264962,93.1566593 268.264962,95.3719116 L268.264962,95.4440248 C268.264962,97.7662314 270.43056,99.1234178 272.956274,99.1234178 C276.385547,99.1234178 279.164978,97.0872331 279.164978,94.157331 L279.164978,94.157331 Z M287.464802,104.161618 L288.729296,102.017668 C290.858883,103.554733 293.240551,104.376337 295.911128,104.376337 C300.026257,104.376337 302.695197,102.125433 302.695197,97.8018829 L302.695197,95.6222821 C301.071408,97.7662314 298.798593,99.5163942 295.369319,99.5163942 C290.894076,99.5163942 286.599709,96.1935158 286.599709,90.870104 L286.599709,90.7988011 C286.599709,85.4032762 290.930088,82.0803978 295.369319,82.0803978 C298.869797,82.0803978 301.145067,83.7957193 302.660004,85.7962526 L302.660004,82.4733741 L305.438616,82.4733741 L305.438616,97.73058 C305.438616,100.589179 304.573523,102.76878 303.056949,104.269382 C301.397148,105.912591 298.906627,106.735005 295.946321,106.735005 C292.843606,106.735005 289.955323,105.876939 287.464802,104.161618 L287.464802,104.161618 Z M302.768857,90.8344526 L302.768857,90.7631497 C302.768857,86.9751817 299.447618,84.5095589 295.911128,84.5095589 C292.37382,84.5095589 289.450344,86.9395302 289.450344,90.7274982 L289.450344,90.7988011 C289.450344,94.5146559 292.445843,97.0872331 295.911128,97.0872331 C299.447618,97.0872331 302.768857,94.5503074 302.768857,90.8344526 L302.768857,90.8344526 Z M310.312441,91.7994729 L310.312441,91.7273597 C310.312441,86.5109024 314.426751,82.0803978 320.056816,82.0803978 C325.651688,82.0803978 329.765999,86.4395994 329.765999,91.6560568 L329.765999,91.7273597 C329.765999,96.9446273 325.614859,101.375132 319.984793,101.375132 C314.389921,101.375132 310.312441,97.0159302 310.312441,91.7994729 L310.312441,91.7994729 Z M326.914545,91.7994729 L326.914545,91.7273597 C326.914545,87.7619446 323.919046,84.5095589 319.984793,84.5095589 C315.942506,84.5095589 313.163894,87.7619446 313.163894,91.6560568 L313.163894,91.7273597 C313.163894,95.693585 316.123382,98.9095091 320.056816,98.9095091 C324.099922,98.9095091 326.914545,95.693585 326.914545,91.7994729 L326.914545,91.7994729 Z M334.639005,82.4733741 L337.418435,82.4733741 L337.418435,85.6892982 C338.646099,83.6879547 340.59481,82.0803978 343.806378,82.0803978 C348.318451,82.0803978 350.953017,85.0816028 350.953017,89.4764559 L350.953017,100.946504 L348.173587,100.946504 L348.173587,90.1554543 C348.173587,86.7256214 346.296898,84.581672 343.013307,84.581672 C339.800102,84.581672 337.418435,86.9038787 337.418435,90.369363 L337.418435,100.946504 L334.639005,100.946504 L334.639005,82.4733741 L334.639005,82.4733741 Z M41.4508344,69.8154841 L37.7244661,57.9759572 L25.5018471,55.254292 L17.0096887,64.3713435 L20.7409676,76.2116807 L32.9603128,78.9309151 L41.4508344,69.8154841 L41.4508344,69.8154841 Z M24.4395089,54.0170242 L20.7090484,42.1791178 L8.48970315,39.4558321 L0,48.5745042 L3.72718675,60.4116003 L15.9481689,63.1340757 L24.4395089,54.0170242 L24.4395089,54.0170242 Z M63.9293553,62.4769544 L60.1988948,50.6366172 L47.9770942,47.9141418 L39.4857542,57.0311934 L43.2170332,68.8723408 L55.4355599,71.5940059 L63.9293553,62.4769544 L63.9293553,62.4769544 Z M29.2396736,31.2503237 L25.51085,19.4140378 L13.2898679,16.6891317 L4.79607254,25.8061832 L8.5273515,37.6473306 L20.7483336,40.3673752 L29.2396736,31.2503237 L29.2396736,31.2503237 Z M69.1092773,39.9071473 L65.3779984,28.0676203 L53.1545609,25.3459552 L44.6648578,34.4630067 L48.3944999,46.3033439 L60.615482,49.0225783 L69.1092773,39.9071473 L69.1092773,39.9071473 Z M51.8303211,24.064123 L48.0998606,12.2262166 L35.87806,9.50374124 L27.3883569,18.6199825 L31.117999,30.4603197 L43.3381626,33.1844156 L51.8303211,24.064123 L51.8303211,24.064123 Z" id="crimson-hexagon" sketch:type="MSShapeGroup"></path>
        </g>
    </g>
</svg>