<svg width="178" height="150" viewBox="0 0 178 150" xmlns="http://www.w3.org/2000/svg" xmlns:sketch="http://www.bohemiancoding.com/sketch/ns"><title>logo</title><desc>Created with Sketch.</desc><path d="M24.925 78.421s-.486-5.708-.551-8.052c-.061-2.217-.086-5.112-.086-5.112s.975-.086 1.61.041c.639.129 1.277.471 1.277.471s-.445 3.513-.763 5.751c-.496 3.46-1.487 6.901-1.487 6.901zm-2.587-.043s.806-4.857 1.102-7.883c.298-3.025.469-5.241.469-5.241s-.341-.255-1.401-.255c-1.061 0-1.485.235-1.485.235s.212 3.707.339 5.326c.129 1.618.977 7.817.977 7.817zm-2.317.043s.486-5.708.549-8.052c.061-2.217.086-5.112.086-5.112s-.975-.086-1.61.041c-.639.129-1.275.471-1.275.471s.445 3.513.763 5.751c.492 3.46 1.487 6.901 1.487 6.901zm-2.356.639s-4.366-3.69-6.061-5.302c-1.605-1.528-3.662-3.556-3.662-3.556 0 .002.63-.753 1.171-1.114.539-.361 1.23-.573 1.23-.573s2.16 2.801 3.513 4.61c2.087 2.795 3.809 5.934 3.809 5.934zm-1.608 1.685s-3.023-3.892-4.945-6.242c-1.92-2.35-3.437-4.027-3.437-4.027s-.42.057-1.171.812c-.749.753-.885 1.22-.885 1.22s2.823 2.411 4.051 3.466c1.23 1.053 6.387 4.772 6.387 4.772zm-1.858 1.797s-3.678-4.384-5.284-6.083c-1.52-1.614-3.539-3.678-3.539-3.678s-.749.632-1.11 1.175c-.361.541-.643 1.206-.643 1.206s2.862 2.199 4.661 3.556c2.785 2.097 5.914 3.825 5.914 3.825zm12.817-3.207s4.368-3.692 6.063-5.302c1.603-1.528 3.662-3.554 3.662-3.554s-.63-.753-1.171-1.116c-.539-.361-1.228-.571-1.228-.571s-2.162 2.801-3.513 4.608c-2.089 2.795-3.813 5.934-3.813 5.934zm1.61 1.683s3.025-3.892 4.945-6.242c1.92-2.35 3.439-4.027 3.439-4.027s.42.059 1.169.814c.751.751.883 1.218.883 1.218s-2.819 2.411-4.049 3.466c-1.23 1.053-6.387 4.772-6.387 4.772zm1.86 1.799c-.002 0 3.676-4.384 5.284-6.083 1.516-1.614 3.535-3.678 3.535-3.678s.753.632 1.112 1.175c.361.541.643 1.206.643 1.206s-2.86 2.199-4.663 3.556c-2.783 2.097-5.91 3.825-5.91 3.825zm-17.118 2.026s-5.685.49-8.021.553c-2.209.059-5.092.086-5.092.086s-.086-.977.043-1.618c.129-.639.467-1.279.467-1.279s3.499.447 5.728.765c3.446.496 6.875 1.493 6.875 1.493zm-.041 2.597s-4.839-.81-7.852-1.108c-3.013-.298-5.22-.469-5.22-.469s-.255.341-.255 1.408c0 1.065.237 1.491.237 1.491-.002 0 3.69-.214 5.304-.343 1.612-.126 7.787-.979 7.787-.979zm.041 2.328s-5.685-.488-8.021-.553c-2.209-.059-5.092-.088-5.092-.088s-.086.981.043 1.62c.129.639.467 1.277.467 1.277s3.499-.445 5.728-.765c3.446-.496 6.875-1.491 6.875-1.491zm18.046 0s5.685-.488 8.019-.553c2.211-.059 5.094-.088 5.094-.088s.084.981-.043 1.62c-.129.641-.467 1.279-.467 1.279s-3.499-.445-5.728-.765c-3.448-.492-6.875-1.493-6.875-1.493zm.043-2.597s4.837.81 7.852 1.106c3.011.298 5.218.471 5.218.471s.255-.343.255-1.408-.233-1.491-.233-1.491-3.694.214-5.306.343c-1.614.126-7.787.979-7.787.979zm-.043-2.326s5.685.488 8.019.551c2.211.061 5.094.09 5.094.09s.084-.981-.043-1.62c-.129-.641-.467-1.279-.467-1.279s-3.499.445-5.728.765c-3.448.494-6.875 1.493-6.875 1.493zm-11.395 11.514s.486 5.712.551 8.052c.061 2.222.088 5.116.088 5.116s-.975.086-1.614-.045c-.636-.129-1.273-.467-1.273-.467s.443-3.513.763-5.751c.492-3.464 1.485-6.905 1.485-6.905zm2.587.045s-.806 4.859-1.104 7.883c-.296 3.025-.465 5.241-.465 5.241s.337.253 1.399.253c1.061 0 1.485-.231 1.485-.231s-.212-3.711-.341-5.331c-.126-1.618-.975-7.815-.975-7.815zm2.317-.045s-.486 5.712-.549 8.052c-.061 2.222-.088 5.116-.088 5.116s.975.086 1.612-.045c.636-.129 1.275-.467 1.275-.467s-.445-3.513-.763-5.751c-.492-3.464-1.487-6.905-1.487-6.905zm1.926-1.075s4.366 3.688 6.061 5.302c1.605 1.524 3.662 3.554 3.662 3.554s-.63.755-1.171 1.114c-.539.359-1.23.573-1.23.573s-2.16-2.799-3.513-4.61c-2.089-2.795-3.809-5.932-3.809-5.932zm1.608-1.683s3.023 3.894 4.945 6.238c1.922 2.35 3.439 4.033 3.439 4.033s.418-.063 1.169-.816c.751-.755.885-1.22.885-1.22s-2.821-2.407-4.051-3.464c-1.23-1.053-6.387-4.772-6.387-4.772zm1.86-1.799s3.678 4.384 5.284 6.081c1.52 1.614 3.537 3.682 3.537 3.682s.751-.634 1.11-1.175c.363-.545.643-1.208.643-1.208s-2.86-2.199-4.661-3.554c-2.785-2.097-5.912-3.827-5.912-3.827zm-12.438 3.752c0 .002-4.376 3.678-6.077 5.28-1.612 1.524-3.674 3.543-3.674 3.543 0 .002.626.753 1.167 1.118.539.365 1.226.575 1.226.575s2.173-2.791 3.529-4.596c2.097-2.789 3.829-5.92 3.829-5.92zm-1.603-1.685s-3.036 3.88-4.963 6.224c-1.93 2.34-3.454 4.015-3.454 4.015s-.418-.061-1.167-.82c-.747-.755-.881-1.22-.881-1.22s2.832-2.401 4.064-3.454c1.234-1.044 6.402-4.745 6.402-4.745zm-1.85-1.805s-3.692 4.37-5.302 6.061c-1.528 1.61-3.554 3.666-3.554 3.666s-.747-.634-1.106-1.179c-.359-.541-.639-1.21-.639-1.21s2.87-2.187 4.674-3.537c2.793-2.085 5.926-3.801 5.926-3.801zm53.554 8.96l7.399-27.965h-5.769l-4.88 20.336h-.08l-4.341-20.336h-6.079l6.895 27.965h6.854zm8.713-27.965v4.649h6.508v23.316h5.849v-23.316h6.512v-4.649h-18.868zm33.668 27.965v-21.574h.08l5.11 21.574h5.577l5.388-21.574h.08v21.574h5.69v-27.965h-9.098l-4.649 19.02h-.08l-4.382-19.02h-9.404v27.965h5.69zm37.612-10.372h-5.579l2.672-12.083h.078l2.829 12.083zm-8.327 10.372l1.585-6.195h7.978l1.552 6.195h6.157l-7.591-27.965h-7.709l-7.748 27.965h5.775zm.19-31.133h4.302v-4.184h-4.302v4.184zm6.854 0h4.302v-4.184h-4.302v4.184zm17.511 15.136h-.08v-11.97h-5.847v27.967h5.847v-14.33h.08l6.697 14.33h6.583l-7.821-15.416 7.821-12.552h-6.426l-6.854 11.97z" sketch:type="MSShapeGroup" fill="#fff"/></svg>