<?xml version="1.0" encoding="UTF-8" standalone="no"?>
<svg width="180px" height="150px" viewBox="0 0 180 150" version="1.1" xmlns="http://www.w3.org/2000/svg" xmlns:xlink="http://www.w3.org/1999/xlink" xmlns:sketch="http://www.bohemiancoding.com/sketch/ns">
    <!-- Generator: Sketch 3.2 (9961) - http://www.bohemiancoding.com/sketch -->
    <title>logo</title>
    <desc>Created with Sketch.</desc>
    <defs></defs>
    <g id="client-logos" stroke="none" stroke-width="1" fill="none" fill-rule="evenodd" sketch:type="MSPage">
        <g id="logo" sketch:type="MSArtboardGroup" fill="#FFFFFF">
            <path d="M23.5399315,77.878627 L10.778789,77.878627 C8.74524719,77.878627 7.9316397,77.878627 7.9316397,79.1381665 L7.9316397,80.0452618 C7.9316397,81.2531473 8.33828448,81.4046448 9.20244436,81.5555124 L16.981473,82.9656046 C22.4214199,83.9738032 25.4720506,84.4264059 25.4720506,90.3697696 L25.4720506,92.4343562 C25.4720506,98.9821351 21.9639048,101.248613 15.3542581,101.198219 C7.21977289,101.198219 0,100.392542 0,100.392542 L0.0508703392,94.9030411 L13.9813948,94.9030411 C17.0320254,94.9030411 18.303148,94.3490201 18.303148,92.3849069 L18.303148,91.3767083 C18.303148,90.4204787 17.998244,89.915907 15.7103504,89.4629893 L5.69461654,87.6503736 C2.18615283,86.9448551 0.356092375,85.9379163 0.356092375,81.4046448 L0.356092375,79.2890341 C0.356092375,72.7415702 3.66075679,71.6842373 10.2704035,71.7343165 C18.3543363,71.7343165 23.5399315,72.1878641 23.5399315,72.1878641 L23.5399315,77.878627 L23.5399315,77.878627 Z M54.3482807,100.341833 C54.3482807,100.341833 47.7389519,101.147825 39.7058895,101.147825 C33.0962427,101.198219 29.7915783,99.4359977 29.7915783,92.3341977 L29.7915783,81.1022797 C29.7915783,75.7129371 33.5032054,71.885499 40.1125342,71.885499 L46.5186996,71.885499 C53.1280285,71.885499 56.4330108,75.7129371 56.4330108,81.1022797 L56.4330108,89.3124367 C56.4330108,89.8157486 56.3818225,89.9666161 55.9246254,89.9666161 L37.4179959,89.9666161 L37.4179959,91.7297825 C37.4179959,94.9537502 38.0281221,95.155012 40.9261417,95.155012 L54.4500214,95.155012 L54.3482807,100.341833 L54.3482807,100.341833 Z M49.0609448,82.1095334 C49.0609448,78.1809921 47.8406926,77.7277594 45.095284,77.7277594 L41.7906195,77.7277594 C38.9940226,77.7277594 37.4179959,78.0301245 37.4179959,82.1095334 L37.4179959,84.5782184 L49.0609448,84.4264059 L49.0609448,82.1095334 L49.0609448,82.1095334 Z M61.6055705,72.0152641 L69.2319882,72.0152641 L69.2319882,74.0798507 C71.4686934,72.9721236 74.4175834,71.7135289 76.9089582,71.7135289 L78.3323739,71.7135289 C84.7385393,71.7135289 87.9923334,73.3248828 87.9923334,80.3255794 L87.9923334,100.975225 L80.3659157,100.975225 L80.3659157,81.0805473 C80.3659157,78.6128072 79.3494627,77.9082336 76.8580879,77.9082336 L75.688388,77.9082336 C73.7569048,77.9082336 71.5195637,78.814069 69.2319882,79.36809 L69.2319882,100.975225 L61.6055705,100.975225 L61.6055705,72.0152641 L61.6055705,72.0152641 Z M109.444355,71.7632932 C116.05432,71.7135289 119.358667,73.2741737 119.358667,80.3759736 L119.358667,100.975225 L111.732249,100.975225 L111.732249,98.809535 C109.495544,99.917892 106.546972,101.226881 104.055279,101.226881 L102.377194,101.226881 C95.9207937,101.177432 92.6666817,101.327984 92.6666817,92.6145154 L92.6666817,89.8951194 C92.6666817,82.7422954 95.9207937,82.1885893 102.377194,82.1885893 L105.173473,82.1885893 C108.325844,82.1885893 109.394121,82.5920577 111.732249,83.1964729 L111.732249,81.2320448 C111.681379,78.2600479 110.613737,77.454371 107.563743,77.454371 L95.6667599,77.5050801 L95.6667599,72.4684967 C95.6667599,72.4684967 101.361059,71.7632932 109.444355,71.7632932 L109.444355,71.7632932 Z M106.03795,87.2251727 L103.648952,87.2251727 C100.903543,87.2251727 100.0893,87.4780885 100.0893,90.4491404 L100.0893,92.4132536 C100.0893,94.8809936 101.157259,95.5868271 103.648952,95.5868271 L105.275849,95.5868271 C107.20765,95.5868271 109.444355,94.6800469 111.732249,94.1260258 L111.732249,87.6790353 C109.444355,87.4273794 107.970387,87.2251727 106.03795,87.2251727 L106.03795,87.2251727 Z M127.847019,102.939338 L132.524546,102.939338 C134.862992,102.939338 135.321143,102.687682 135.880399,100.623411 C135.981504,100.270651 136.286726,99.1626092 136.286726,99.1626092 L132.015843,99.1626092 C130.491004,99.1626092 129.728267,97.3487337 129.728267,97.2488902 C129.678033,97.1477869 122.190237,72.0152641 122.190237,72.0152641 L129.623029,72.0152641 L135.473118,91.4557642 L138.320268,91.4557642 L144.187843,72.0152641 L151.651158,72.0152641 C151.651158,72.0152641 143.40444,99.8174186 143.252147,100.169233 C141.320346,106.918589 140.354445,108.631046 133.592505,108.631046 C130.745356,108.631046 127.847019,107.724266 127.847019,107.724266 L127.847019,102.939338 L127.847019,102.939338 Z M169.237034,71.6376227 C175.846681,71.5872285 179.151345,73.1481882 179.151345,80.2506181 L179.151345,100.849869 L171.525246,100.849869 L171.525246,98.6844944 C169.288222,99.7922215 166.339333,101.101525 163.848276,101.101525 L162.17019,101.101525 C155.713155,101.050816 152.45936,101.202629 152.45936,92.4894748 L152.45936,89.7697639 C152.45936,82.6172548 155.713155,82.0632338 162.17019,82.0632338 L164.966787,82.0632338 C168.118523,82.0632338 169.186482,82.4663872 171.525246,83.0711174 L171.525246,81.1070042 C171.474375,78.1346924 170.406416,77.3287005 167.356103,77.3287005 L155.459121,77.3790947 L155.459121,72.3428262 C155.459121,72.3428262 161.153737,71.6376227 169.237034,71.6376227 L169.237034,71.6376227 Z M165.830947,87.0998172 L163.441313,87.0998172 C160.695904,87.0998172 159.882615,87.3514731 159.882615,90.3237849 L159.882615,92.2882131 C159.882615,94.7559531 160.949938,95.4602118 163.441313,95.4602118 L165.06821,95.4602118 C167.000011,95.4602118 169.237034,94.5546913 171.525246,94.0006703 L171.525246,87.5539947 C169.237034,87.3010789 167.763066,87.0998172 165.830947,87.0998172 L165.830947,87.0998172 Z M161.189347,42.3271073 C161.305712,41.9286783 161.081565,41.5113515 160.673966,41.3935551 L154.543137,39.5718055 C154.145076,39.4527492 153.719991,39.6801529 153.602035,40.0748024 L151.767524,46.1523406 C151.641302,46.5488798 151.870854,46.9674664 152.273684,47.0877826 L158.404513,48.9066975 C158.802892,49.0260687 159.23211,48.79898 159.34943,48.4033856 L161.189347,42.3271073 L161.189347,42.3271073 Z M175.095072,21.8566761 L167.402523,21.8566761 L165.460547,28.0973655 L172.8501,28.0973655 L172.8501,60.3814525 L155.585661,60.3808225 L153.644957,66.6211969 L175.095072,66.6211969 C177.331459,66.6211969 179.151345,64.819605 179.151345,62.6038358 L179.151345,25.8737222 C179.151345,23.659213 177.331459,21.8566761 175.095072,21.8566761 L175.095072,21.8566761 Z M137.85703,66.6224568 L145.549897,66.6224568 L147.491872,60.3808225 L140.102637,60.3808225 L140.102637,28.0964206 L157.366441,28.0979954 L159.307462,21.8566761 L137.85703,21.8566761 C135.62096,21.8566761 133.801074,23.6598429 133.801074,25.8749821 L133.801074,62.6050957 C133.801074,64.819605 135.62096,66.6224568 137.85703,66.6224568 L137.85703,66.6224568 Z" id="senaya" sketch:type="MSShapeGroup"></path>
        </g>
    </g>
</svg>