<svg width="147" height="150" viewBox="0 0 147 150" xmlns="http://www.w3.org/2000/svg" xmlns:sketch="http://www.bohemiancoding.com/sketch/ns"><title>logo</title><desc>Created with Sketch.</desc><path d="M18.854 57.885v40.171s-19.111-4.387-18.851-21.321c0 0 .553-13 18.851-18.85zm7.702 21.061c20.248 1.56 19.208-9.101 19.208-9.101.259-11.049-19.208-8.32-19.208-8.32v17.421zm.162 7.279l.163 13.554c13.229 2.275 19.142-1.463 19.142-1.463l-11.309-12.513-7.996.553v-.131zm24.375-25.479c8.842 16.445-7.67 23.27-7.67 23.27 10.141 14.43 17.291 15.469 17.291 15.469v-41.6c-2.729 0-9.621 2.861-9.621 2.861zm17.68 16.445l17.291-19.435c-9.75-2.861-17.16-1.365-17.16-1.365l-.131 20.8zm0 5.915v18.07s14.43 0 18.721-2.601l-18.721-15.469zm6.891-3.77l18.719 14.918c18.183 13.904 26.91 4.062 26.91 4.062 6.369-9.134-5.85-12.22-5.85-12.22-6.5-1.69-8.58-2.73-8.58-2.73-16.381-6.241-9.23-20.67-9.23-20.67l-4.289-2.471-17.68 19.111zm51.35-12.869c-17.68-10.271-23.01.389-23.01.389-1.821 6.629 6.371 8.969 6.371 8.969l9.099 2.86c16.868 5.201 10.27 21.094 10.27 21.094 10.529-2.437 14.949-11.7 14.949-11.7 7.93-19.598-15.34-26.813-15.34-26.813l-2.339 5.201zm-104.355 45.409l1.435-.087 1.508 2.465h1.319l-1.696-2.711c.826-.334 1.334-1.001 1.334-2.002 0-1.334-.942-2.131-2.64-2.131h-2.406v6.844h1.146v-2.378zm-.015-.972v-2.479h1.16c1.072 0 1.595.362 1.595 1.188 0 .77-.464 1.262-1.58 1.277l-1.175.014zm11.18 3.35v-1.016h-3.365v-1.898h2.799v-1.03h-2.799v-1.885h3.365v-1.015h-4.495v6.844h4.495zm5.771-6.844h-1.363l-2.552 6.844h1.19l.593-1.697h2.858l.608 1.697h1.16l-2.494-6.844zm.392 4.146h-2.175l1.087-3.087 1.088 3.087zm8.685 2.698v-1.03h-3.248v-5.814h-1.145v6.844h4.393zm7.046-3.64v-3.204h-1.145v6.844h1.145v-3.19h.015l2.725 3.19h1.421l-3.059-3.481 3.03-3.363h-1.406l-2.711 3.204h-.015zm6.25 3.64h1.146v-6.844h-1.146v6.844zm9.888-3.465c0-2.045-1.362-3.379-3.653-3.379h-2.205v6.844h2.131c2.408 0 3.727-1.364 3.727-3.465zm-1.16.057c0 1.581-1.015 2.392-2.537 2.392h-1.015v-4.813h.957c1.639 0 2.595.811 2.595 2.421zm5.612 2.582c-.812 0-1.493-.276-2.102-.653l-.304 1c.667.392 1.537.639 2.392.639 1.509 0 2.509-.871 2.509-2.089 0-1.305-1.045-1.783-2.045-2.059-1.016-.276-1.609-.493-1.609-1.116 0-.494.377-.899 1.26-.899.624 0 1.349.218 1.929.58l.334-.987c-.653-.391-1.407-.594-2.276-.594-1.45 0-2.378.783-2.378 1.958 0 1.348 1.116 1.783 2.088 2.044 1.072.304 1.579.522 1.579 1.16 0 .595-.58 1.016-1.377 1.016zm10.629 0c-.812 0-1.494-.276-2.103-.653l-.305 1c.668.392 1.537.639 2.393.639 1.508 0 2.508-.871 2.508-2.089 0-1.305-1.043-1.783-2.043-2.059-1.016-.276-1.61-.493-1.61-1.116 0-.494.377-.899 1.26-.899.625 0 1.35.218 1.93.58l.334-.987c-.653-.391-1.409-.594-2.278-.594-1.449 0-2.377.783-2.377 1.958 0 1.348 1.116 1.783 2.088 2.044 1.072.304 1.58.522 1.58 1.16 0 .595-.58 1.016-1.377 1.016zm10.772.826v-6.844h-1.145v2.885h-3.465v-2.885h-1.146v6.844h1.146v-2.93h3.465v2.93h1.145zm6.076-6.844h-1.363l-2.551 6.844h1.189l.594-1.697h2.858l.607 1.697h1.16l-2.494-6.844zm.393 4.146h-2.176l1.088-3.087 1.088 3.087zm10.148-.767c0-2.045-1.361-3.379-3.652-3.379h-2.205v6.844h2.13c2.409 0 3.727-1.364 3.727-3.465zm-1.16.057c0 1.581-1.014 2.392-2.537 2.392h-1.014v-4.813h.957c1.639 0 2.594.811 2.594 2.421zm8.18 3.408v-1.016h-3.366v-1.898h2.799v-1.03h-2.799v-1.885h3.366v-1.015h-4.497v6.844h4.497zm4.496-.826c-.813 0-1.494-.276-2.104-.653l-.305 1c.668.392 1.538.639 2.393.639 1.508 0 2.508-.871 2.508-2.089 0-1.305-1.043-1.783-2.043-2.059-1.016-.276-1.609-.493-1.609-1.116 0-.494.376-.899 1.259-.899.625 0 1.35.218 1.93.58l.334-.987c-.652-.391-1.408-.594-2.277-.594-1.45 0-2.377.783-2.377 1.958 0 1.348 1.115 1.783 2.088 2.044 1.072.304 1.58.522 1.58 1.16 0 .595-.58 1.016-1.377 1.016z" sketch:type="MSShapeGroup" fill="#fff"/></svg>