<svg width="256" height="150" viewBox="0 0 256 150" xmlns="http://www.w3.org/2000/svg"><g fill="#fff"><path d="M71.888 32.719c.864 0 1.482.101 1.851.301.369.201.617.506.743.917.126.411.189.949.189 1.613s-.068 1.197-.205 1.597c-.137.4-.365.675-.681.822-.464.253-1.117.379-1.961.379h-12.365c-.76 0-1.413-.285-1.961-.854s-.822-1.233-.822-1.993c0-1.138.395-2.187 1.186-3.147.791-.959 1.745-1.782 2.863-2.467 1.117-.685 2.234-1.36 3.353-2.024 1.117-.664 2.071-1.418 2.862-2.261.791-.843 1.187-1.74 1.187-2.689 0-.189-.075-.459-.221-.807-.149-.348-.312-.632-.491-.854-.179-.221-.458-.426-.838-.617-.379-.189-.908-.285-1.581-.285-.676 0-1.26.249-1.756.744-.495.496-.774.986-.837 1.471l-.126.727v.19c0 .464-.017.812-.048 1.044-.032.233-.131.496-.3.791-.316.506-1.138.759-2.467.759-1.476 0-2.352-.4-2.626-1.202-.106-.336-.158-.874-.158-1.613 0-2.192.785-4.159 2.356-5.898 1.571-1.74 3.627-2.609 6.168-2.609 2.541 0 4.602.88 6.183 2.641 1.581 1.761 2.372 3.769 2.372 6.025 0 1.202-.264 2.341-.791 3.416-.527 1.075-1.16 1.94-1.898 2.593-1.56 1.392-2.952 2.33-4.174 2.815l-.791.316v.158h5.787z"/><path d="M90.939 32.719c2.171 0 3.258-2.066 3.258-6.199v-.189c0-4.239-1.075-6.358-3.226-6.358s-3.226 2.125-3.226 6.373c0 4.249 1.063 6.373 3.194 6.373m-6.389-15.324c.611-.854 1.47-1.571 2.577-2.151 1.107-.58 2.389-.869 3.843-.869 1.455 0 2.725.285 3.81.854 1.086.569 1.94 1.276 2.562 2.12.622.843 1.122 1.834 1.502 2.972.632 1.898.949 3.912.949 6.041 0 3.817-.822 6.843-2.467 9.078-.611.843-1.459 1.539-2.546 2.087-1.086.549-2.346.822-3.779.822-1.435 0-2.705-.28-3.812-.838-1.107-.558-1.972-1.249-2.594-2.071-.622-.822-1.133-1.803-1.533-2.942-.611-1.813-.917-3.869-.917-6.167 0-2.108.247-3.911.742-5.409.496-1.497 1.05-2.672 1.661-3.526"/><path d="M113.11 15.894c.549-.549 1.143-.822 1.787-.822.643 0 1.143.053 1.503.158.358.106.633.227.822.364.19.137.336.364.443.68.104.358.158.917.158 1.677v17.616c0 .486-.017.85-.048 1.091-.032.243-.132.522-.3.838-.296.569-1.119.854-2.467.854-1.309 0-2.119-.274-2.436-.822-.17-.317-.269-.606-.301-.87-.031-.264-.046-.648-.046-1.154v-11.291l-.411.379c-.865.654-1.603.981-2.214.981s-1.25-.369-1.914-1.107c-.665-.738-.996-1.392-.996-1.961 0-.569.379-1.191 1.138-1.866l5.188-4.681.095-.064z"/><path d="M140.723 15.198c1.476 0 2.341.4 2.594 1.202.126.337.189.928.189 1.771 0 .843-.274 1.892-.822 3.146-.548 1.255-1.206 2.494-1.976 3.717-.77 1.223-1.545 2.457-2.324 3.7-1.857 3.015-2.783 5.44-2.783 7.274 0 .464-.022.807-.063 1.028-.044.221-.148.454-.317.696-.17.242-.449.407-.839.49-.39.085-.922.126-1.597.126-.676 0-1.208-.042-1.598-.126-.39-.083-.669-.253-.838-.506-.168-.253-.269-.49-.301-.712-.032-.221-.047-.574-.047-1.06 0-1.37.232-2.778.696-4.222.464-1.445 1.023-2.736 1.676-3.875.653-1.139 1.307-2.187 1.961-3.147l1.676-2.467c.463-.685.696-1.164.696-1.44h-7.211c-.843 0-1.456-.105-1.835-.316-.379-.21-.632-.516-.759-.918-.126-.4-.19-.927-.19-1.581 0-.653.064-1.181.19-1.581.126-.4.327-.675.601-.822.442-.253 1.054-.379 1.834-.379h11.385z"/><path d="M167.756 16.051c.168-.317.453-.538.854-.664.4-.126.906-.19 1.518-.19.611 0 1.096.053 1.455.158.358.106.633.232.822.379.19.148.338.358.443.633.106.358.158.906.158 1.644v17.554c0 .485-.015.849-.047 1.091-.032.243-.132.522-.301.838-.295.569-1.117.854-2.467.854-1.476 0-2.341-.39-2.594-1.171-.126-.358-.189-.906-.189-1.644v-6.42h-8.381v6.452c0 .485-.017.849-.048 1.091-.031.243-.131.522-.299.838-.297.569-1.118.854-2.467.854-1.476 0-2.341-.39-2.594-1.171-.126-.358-.189-.906-.189-1.644v-17.553c0-.485.015-.849.046-1.091.032-.243.133-.522.301-.838.296-.569 1.117-.854 2.467-.854 1.476 0 2.351.39 2.625 1.171.106.358.158.906.158 1.644v6.452h8.381v-6.483c0-.485.016-.849.048-1.091.032-.243.132-.522.3-.838"/><path d="M188.76 24.085l-2.087 4.333h4.205l-2.118-4.333zm2.561-7.59l8.54 17.648c.358.718.538 1.255.538 1.613 0 .759-.611 1.445-1.834 2.056-.717.358-1.281.538-1.691.538-.411 0-.749-.095-1.012-.285-.264-.19-.454-.39-.569-.601-.116-.21-.28-.526-.491-.949l-1.645-3.416h-8.76l-1.645 3.416c-.211.423-.375.728-.491.918-.116.189-.306.385-.569.585-.264.2-.601.301-1.013.301-.411 0-.974-.179-1.691-.538-1.223-.59-1.834-1.265-1.834-2.024 0-.358.179-.896.538-1.613l8.54-17.68c.231-.485.585-.875 1.059-1.17.475-.296.975-.443 1.503-.443 1.137 0 1.981.548 2.529 1.645z"/><path d="M210.186 33.668h8.602c.696 0 1.202.079 1.518.237.316.158.527.407.632.744.106.337.158.786.158 1.344 0 .559-.053 1.007-.158 1.344-.106.337-.285.569-.538.695-.4.211-.949.317-1.645.317h-11.385c-1.476 0-2.341-.4-2.594-1.202-.126-.337-.189-.875-.189-1.613v-17.585c0-.485.015-.849.047-1.091.031-.242.132-.522.301-.838.296-.569 1.117-.854 2.467-.854 1.476 0 2.351.39 2.625 1.17.106.358.158.907.158 1.645v15.687z"/><path d="M240.625 15.166c.486 0 .85.016 1.092.048.243.031.517.132.822.3.304.169.521.454.648.854.127.4.189.938.189 1.613s-.062 1.213-.189 1.612c-.126.401-.348.68-.664.838-.316.158-.595.253-.838.285-.243.031-.617.047-1.124.047h-9.678v3.194h6.23c.507 0 .881.016 1.124.048.242.032.521.132.838.301.547.317.822 1.15.822 2.499 0 1.476-.4 2.351-1.202 2.626-.337.106-.875.158-1.613.158h-6.199v5.978c0 .506-.016.875-.047 1.107-.032.233-.131.506-.301.822-.296.569-1.117.854-2.467.854-1.476 0-2.341-.4-2.594-1.202-.126-.337-.19-.875-.19-1.613v-17.585c0-1.075.201-1.808.602-2.198.4-.39 1.159-.585 2.277-.585h12.461z"/><path d="M76.845 114.2c.161.3.256.57.286.81.029.24.044.59.044 1.049v16.644c0 1.38-.379 2.19-1.14 2.43-.379.119-.859.179-1.44.179-.58 0-1.039-.05-1.379-.149-.341-.1-.6-.22-.781-.36-.179-.14-.32-.34-.419-.6-.101-.339-.15-.859-.15-1.559v-10.047c-.5.62-1.231 1.605-2.19 2.954-.96 1.349-1.57 2.195-1.83 2.534l-.539.705c-.1.13-.346.31-.735.54-.389.23-.81.345-1.26.345-.449 0-.86-.105-1.229-.315-.371-.21-.635-.415-.796-.615l-.24-.33c-.4-.5-1.189-1.564-2.369-3.194-1.18-1.63-1.82-2.504-1.919-2.624v10.107c0 .46-.015.805-.046 1.035-.029.23-.125.485-.285.765-.3.54-1.08.81-2.34.81-1.219 0-1.979-.269-2.279-.81-.16-.28-.255-.54-.285-.78-.029-.24-.044-.599-.044-1.079v-16.644c0-.46.015-.805.044-1.034.031-.23.125-.495.285-.795.3-.519 1.079-.78 2.338-.78.54 0 1.006.065 1.395.194.39.131.644.266.765.406l.179.18 6.807 8.936c3.4-4.498 5.669-7.467 6.808-8.907.34-.54 1.143-.81 2.413-.81 1.27 0 2.045.269 2.324.81"/><path d="M91.506 121.787l-1.979 4.108h3.988l-2.009-4.108zm2.43-7.197l8.097 16.734c.34.68.51 1.19.51 1.53 0 .719-.58 1.37-1.74 1.949-.679.339-1.215.51-1.604.51-.39 0-.71-.09-.961-.27-.249-.18-.43-.37-.538-.57-.111-.199-.266-.499-.465-.899l-1.559-3.239h-8.308l-1.559 3.239c-.2.4-.355.69-.465.869-.11.18-.289.365-.538.555-.251.189-.571.285-.961.285-.389 0-.924-.171-1.604-.51-1.16-.559-1.74-1.199-1.74-1.919 0-.34.17-.85.51-1.53l8.097-16.764c.221-.46.556-.829 1.006-1.11.449-.28.924-.42 1.424-.42 1.079 0 1.879.52 2.399 1.56z"/><path d="M112.634 123.767h3.839c.58 0 1.16-.22 1.74-.66.58-.44.869-1.099.869-1.979 0-.88-.289-1.544-.869-1.994-.58-.449-1.18-.674-1.799-.674h-3.779v5.308zm11.517 7.647c.299.719.449 1.24.449 1.56 0 .76-.62 1.399-1.86 1.919-.64.28-1.154.42-1.544.42-.39 0-.71-.095-.959-.285-.251-.19-.435-.385-.556-.585-.2-.379-.979-2.189-2.34-5.428l-.929.06h-3.779v3.388c0 .461-.015.805-.044 1.035-.031.229-.125.494-.285.794-.281.54-1.06.81-2.34.81-1.4 0-2.219-.37-2.458-1.11-.121-.339-.181-.859-.181-1.559v-16.644c0-.46.015-.805.044-1.034.031-.229.125-.495.286-.795.278-.54 1.059-.81 2.338-.81h6.479c1.759 0 3.468.64 5.129 1.919.799.62 1.459 1.459 1.979 2.519s.781 2.239.781 3.539c0 2.26-.75 4.119-2.249 5.578.439 1.06 1.119 2.629 2.04 4.708z"/><path d="M139.214 121.937l-1.979 4.108h3.988l-2.009-4.108zm2.43-7.197l8.097 16.734c.34.68.51 1.19.51 1.53 0 .719-.58 1.369-1.74 1.949-.679.339-1.215.51-1.604.51-.39 0-.71-.09-.961-.27-.249-.18-.43-.37-.538-.57-.111-.199-.266-.499-.465-.899l-1.559-3.239h-8.308l-1.559 3.239c-.2.4-.355.69-.465.869-.11.18-.289.365-.538.555-.251.189-.571.285-.961.285-.389 0-.924-.171-1.604-.51-1.16-.559-1.74-1.199-1.74-1.919 0-.34.17-.85.51-1.53l8.097-16.764c.221-.46.556-.829 1.006-1.11.449-.28.924-.42 1.424-.42 1.079 0 1.879.52 2.399 1.56z"/><path d="M151.63 113.3h16.674c.639 0 1.11.075 1.41.225.3.15.499.385.6.705.099.32.15.74.15 1.26s-.051.935-.15 1.244c-.101.31-.271.525-.511.644-.36.181-.869.27-1.529.27h-5.729v15.085c0 .46-.015.8-.044 1.02-.031.22-.121.475-.271.764-.15.29-.414.495-.794.615-.379.12-.88.18-1.5.18s-1.115-.06-1.484-.18c-.37-.12-.63-.325-.78-.615-.15-.289-.24-.549-.269-.779-.031-.229-.046-.575-.046-1.035v-15.055h-5.758c-.639 0-1.109-.075-1.409-.225-.3-.15-.5-.385-.6-.705-.1-.32-.15-.739-.15-1.259 0-.521.05-.935.15-1.245.1-.31.269-.524.51-.644.36-.18.87-.27 1.53-.27"/><path d="M188.226 114.17c.16-.3.43-.51.81-.63.379-.12.859-.18 1.44-.18.58 0 1.039.05 1.379.149.34.101.6.221.781.36.18.14.32.341.419.6.101.34.15.86.15 1.559v16.644c0 .46-.014.805-.044 1.035-.031.23-.125.494-.285.794-.28.54-1.06.81-2.339.81-1.4 0-2.219-.369-2.459-1.11-.121-.339-.181-.859-.181-1.559v-6.088h-7.947v6.118c0 .46-.015.805-.044 1.035-.031.23-.126.494-.285.794-.282.54-1.06.81-2.34.81-1.4 0-2.22-.369-2.459-1.11-.121-.339-.181-.859-.181-1.559v-16.644c0-.46.015-.805.044-1.034.031-.23.126-.495.286-.795.279-.54 1.059-.81 2.338-.81 1.4 0 2.229.37 2.49 1.11.099.34.15.86.15 1.559v6.118h7.947v-6.148c0-.46.015-.805.046-1.034.029-.23.124-.495.285-.795"/><path d="M202.623 124.007c0 1.78.575 3.224 1.724 4.333 1.149 1.11 2.434 1.665 3.854 1.665 1.419 0 2.699-.54 3.839-1.619 1.138-1.08 1.709-2.529 1.709-4.349 0-1.818-.575-3.278-1.724-4.379-1.15-1.099-2.434-1.649-3.854-1.649s-2.699.555-3.839 1.665c-1.138 1.11-1.709 2.554-1.709 4.333m5.458-11.306c2.959 0 5.528 1.07 7.708 3.208 2.179 2.14 3.268 4.794 3.268 7.963 0 3.169-1.04 5.868-3.118 8.097-2.081 2.229-4.639 3.343-7.678 3.343-3.039 0-5.623-1.099-7.753-3.299-2.129-2.199-3.193-4.818-3.193-7.857 0-1.66.3-3.214.899-4.664.6-1.449 1.399-2.664 2.399-3.643.999-.979 2.148-1.749 3.449-2.309 1.299-.559 2.64-.84 4.018-.84"/><path d="M238.385 114.245c.19-.35.474-.585.854-.705.379-.12.855-.18 1.424-.18.57 0 1.03.05 1.38.15.349.1.609.221.779.36.17.14.295.35.374.63.121.32.181.83.181 1.529v16.644c0 .481-.015.83-.044 1.049-.031.221-.125.481-.285.781-.28.54-1.06.809-2.338.809-.781 0-1.32-.06-1.62-.179-.3-.12-.55-.31-.75-.57-4.498-5.998-7.457-9.917-8.876-11.756v9.866c0 .481-.015.83-.046 1.049-.029.221-.125.481-.285.781-.28.54-1.06.809-2.34.809-1.239 0-2-.269-2.278-.809-.161-.3-.256-.57-.286-.81-.029-.24-.044-.589-.044-1.049v-16.734c0-.76.095-1.314.285-1.665.189-.35.474-.585.855-.705.379-.12.869-.18 1.469-.18.6 0 1.075.055 1.425.165.35.111.595.236.734.375.08.06.311.32.69.78 4.218 5.738 7.037 9.527 8.457 11.366v-10.136c0-.76.095-1.314.286-1.665"/><path d="M167.756 80.91c.168-.317.453-.538.854-.664.4-.126.906-.19 1.518-.19.611 0 1.096.053 1.455.158.358.106.633.232.822.379.19.148.338.358.443.633.106.358.158.906.158 1.644v17.554c0 .485-.015.849-.047 1.091-.032.243-.132.522-.301.838-.295.569-1.117.854-2.467.854-1.476 0-2.341-.39-2.594-1.171-.126-.358-.189-.906-.189-1.644v-6.42h-8.381v6.452c0 .485-.017.849-.048 1.091-.031.243-.131.522-.299.838-.297.569-1.118.854-2.467.854-1.476 0-2.341-.39-2.594-1.171-.126-.358-.189-.906-.189-1.644v-17.553c0-.485.015-.849.046-1.091.032-.243.133-.522.301-.838.296-.569 1.117-.854 2.467-.854 1.476 0 2.351.39 2.625 1.171.106.358.158.906.158 1.644v6.452h8.381v-6.483c0-.485.016-.849.048-1.091.032-.243.132-.522.3-.838"/><path d="M188.76 88.944l-2.087 4.333h4.205l-2.118-4.333zm2.561-7.591l8.54 17.648c.358.718.538 1.255.538 1.613 0 .759-.611 1.445-1.834 2.056-.717.358-1.281.538-1.691.538-.411 0-.749-.095-1.012-.285-.264-.19-.454-.39-.569-.601-.116-.21-.28-.526-.491-.949l-1.645-3.416h-8.76l-1.645 3.416c-.211.423-.375.728-.491.918-.116.189-.306.385-.569.585-.264.2-.601.301-1.013.301-.411 0-.974-.179-1.691-.538-1.223-.59-1.834-1.265-1.834-2.024 0-.358.179-.896.538-1.613l8.54-17.68c.231-.485.585-.875 1.059-1.17.475-.296.975-.443 1.503-.443 1.137 0 1.981.548 2.529 1.645z"/><path d="M210.186 98.527h8.602c.696 0 1.202.079 1.518.237.316.158.527.407.632.744.106.337.158.786.158 1.344 0 .559-.053 1.007-.158 1.344-.106.337-.285.569-.538.695-.4.211-.949.317-1.645.317h-11.385c-1.476 0-2.341-.4-2.594-1.202-.126-.337-.189-.875-.189-1.613v-17.585c0-.485.015-.849.047-1.091.031-.242.132-.522.301-.838.296-.569 1.117-.854 2.467-.854 1.476 0 2.351.39 2.625 1.17.106.358.158.907.158 1.645v15.687z"/><path d="M240.625 80.025c.486 0 .85.016 1.092.048.243.031.517.132.822.3.304.169.521.454.648.854.127.4.189.938.189 1.613s-.062 1.213-.189 1.612c-.126.401-.348.68-.664.838-.316.158-.595.253-.838.285-.243.031-.617.047-1.124.047h-9.678v3.194h6.23c.507 0 .881.016 1.124.048.242.032.521.132.838.301.547.317.822 1.15.822 2.499 0 1.476-.4 2.351-1.202 2.626-.337.106-.875.158-1.613.158h-6.199v5.978c0 .506-.016.875-.047 1.107-.032.233-.131.506-.301.822-.296.569-1.117.854-2.467.854-1.476 0-2.341-.4-2.594-1.202-.126-.337-.19-.875-.19-1.613v-17.585c0-1.075.201-1.808.602-2.198.4-.39 1.159-.585 2.277-.585h12.461z"/><path d="M69.718 80.91c.168-.317.453-.538.854-.664.4-.126.906-.19 1.518-.19.611 0 1.096.053 1.455.158.358.106.633.232.822.379.19.148.338.358.443.633.106.358.158.906.158 1.644v17.554c0 .485-.015.849-.047 1.091-.032.243-.132.522-.301.838-.295.569-1.117.854-2.467.854-1.476 0-2.341-.39-2.594-1.171-.126-.358-.189-.906-.189-1.644v-6.42h-8.381v6.452c0 .485-.017.849-.048 1.091-.031.243-.131.522-.299.838-.297.569-1.118.854-2.467.854-1.476 0-2.341-.39-2.594-1.171-.126-.358-.189-.906-.189-1.644v-17.553c0-.485.015-.849.047-1.091.031-.243.132-.522.301-.838.296-.569 1.117-.854 2.467-.854 1.476 0 2.351.39 2.625 1.171.106.358.158.906.158 1.644v6.452h8.381v-6.483c0-.485.016-.849.048-1.091.032-.243.132-.522.3-.838"/><path d="M90.955 88.944l-2.087 4.333h4.205l-2.118-4.333zm2.561-7.591l8.54 17.648c.358.718.538 1.255.538 1.613 0 .759-.611 1.445-1.834 2.056-.717.358-1.281.538-1.691.538-.411 0-.749-.095-1.012-.285-.264-.19-.454-.39-.569-.601-.116-.21-.28-.526-.491-.949l-1.645-3.416h-8.76l-1.645 3.416c-.211.423-.375.728-.491.918-.116.189-.306.385-.569.585-.264.2-.601.301-1.013.301-.411 0-.974-.179-1.691-.538-1.223-.59-1.834-1.265-1.834-2.024 0-.358.179-.896.538-1.613l8.54-17.68c.231-.485.585-.875 1.059-1.17.475-.296.975-.443 1.503-.443 1.137 0 1.981.548 2.529 1.645z"/><path d="M112.148 98.527h8.602c.696 0 1.202.079 1.518.237.316.158.527.407.632.744.106.337.158.786.158 1.344 0 .559-.053 1.007-.158 1.344-.106.337-.285.569-.538.695-.4.211-.949.317-1.645.317h-11.385c-1.476 0-2.341-.4-2.594-1.202-.126-.337-.189-.875-.189-1.613v-17.585c0-.485.015-.849.047-1.091.031-.242.132-.522.301-.838.296-.569 1.117-.854 2.467-.854 1.476 0 2.351.39 2.625 1.17.106.358.158.907.158 1.645v15.687z"/><path d="M142.588 80.025c.485 0 .849.016 1.092.048.242.031.517.132.822.3.304.169.521.454.648.854.126.4.189.938.189 1.613s-.063 1.213-.189 1.612c-.126.401-.348.68-.664.838-.317.158-.595.253-.838.285-.243.031-.617.047-1.124.047h-9.677v3.194h6.229c.506 0 .881.016 1.124.048.242.032.521.132.838.301.548.317.822 1.15.822 2.499 0 1.476-.4 2.351-1.202 2.626-.337.106-.875.158-1.613.158h-6.198v5.978c0 .506-.017.875-.048 1.107-.032.233-.131.506-.3.822-.296.569-1.117.854-2.467.854-1.476 0-2.341-.4-2.594-1.202-.126-.337-.19-.875-.19-1.613v-17.585c0-1.075.2-1.808.601-2.198.4-.39 1.159-.585 2.277-.585h12.461z"/><path d="M167.756 48.362c.168-.317.453-.538.854-.664.4-.126.906-.19 1.518-.19.611 0 1.096.053 1.455.158.358.106.633.232.822.379.19.148.338.358.443.633.106.358.158.906.158 1.644v17.554c0 .485-.015.849-.047 1.091-.032.243-.132.522-.301.838-.295.569-1.117.854-2.467.854-1.476 0-2.341-.39-2.594-1.171-.126-.358-.189-.906-.189-1.644v-6.42h-8.381v6.452c0 .485-.017.849-.048 1.091-.031.243-.131.522-.299.838-.297.569-1.118.854-2.467.854-1.476 0-2.341-.39-2.594-1.171-.126-.358-.189-.906-.189-1.644v-17.553c0-.485.015-.849.046-1.091.032-.243.133-.522.301-.838.296-.569 1.117-.854 2.467-.854 1.476 0 2.351.39 2.625 1.171.106.358.158.906.158 1.644v6.452h8.381v-6.483c0-.485.016-.849.048-1.091.032-.243.132-.522.3-.838"/><path d="M188.76 56.396l-2.087 4.333h4.205l-2.118-4.333zm2.561-7.59l8.54 17.648c.358.718.538 1.255.538 1.613 0 .759-.611 1.445-1.834 2.056-.717.358-1.281.538-1.691.538-.411 0-.749-.095-1.012-.285-.264-.19-.454-.39-.569-.601-.116-.21-.28-.526-.491-.949l-1.645-3.416h-8.76l-1.645 3.416c-.211.423-.375.728-.491.918-.116.189-.306.385-.569.585-.264.2-.601.301-1.013.301-.411 0-.974-.179-1.691-.538-1.223-.59-1.834-1.265-1.834-2.024 0-.358.179-.896.538-1.613l8.54-17.68c.231-.485.585-.875 1.059-1.17.475-.296.975-.443 1.503-.443 1.137 0 1.981.548 2.529 1.645z"/><path d="M210.186 65.979h8.602c.696 0 1.202.079 1.518.237.316.158.527.407.632.744.106.338.158.786.158 1.344 0 .559-.053 1.007-.158 1.344-.106.337-.285.569-.538.695-.4.211-.949.317-1.645.317h-11.385c-1.476 0-2.341-.4-2.594-1.202-.126-.337-.189-.875-.189-1.613v-17.585c0-.485.015-.849.047-1.091.031-.242.132-.522.301-.838.296-.569 1.117-.854 2.467-.854 1.476 0 2.351.39 2.625 1.17.106.358.158.907.158 1.645v15.687z"/><path d="M240.625 47.477c.486 0 .85.016 1.092.048.243.031.517.132.822.3.304.169.521.454.648.854.127.4.189.938.189 1.613s-.062 1.213-.189 1.613c-.126.401-.348.68-.664.838-.316.158-.595.253-.838.285-.243.031-.617.047-1.124.047h-9.678v3.194h6.23c.507 0 .881.016 1.124.048.242.032.521.132.838.301.547.317.822 1.15.822 2.499 0 1.476-.4 2.351-1.202 2.626-.337.106-.875.158-1.613.158h-6.199v5.978c0 .506-.016.875-.047 1.107-.032.233-.131.506-.301.822-.296.569-1.117.854-2.467.854-1.476 0-2.341-.4-2.594-1.202-.126-.337-.19-.875-.19-1.613v-17.585c0-1.075.201-1.808.602-2.198.4-.39 1.159-.585 2.277-.585h12.461z"/><path d="M69.718 48.015c.168-.317.453-.538.854-.664.4-.126.906-.19 1.518-.19.611 0 1.096.053 1.455.158.358.106.633.232.822.379.19.148.338.358.443.633.106.358.158.906.158 1.644v17.554c0 .485-.015.849-.047 1.091-.032.243-.132.522-.301.838-.295.569-1.117.854-2.467.854-1.476 0-2.341-.39-2.594-1.171-.126-.358-.189-.906-.189-1.644v-6.42h-8.381v6.452c0 .485-.017.849-.048 1.091-.031.243-.131.522-.299.838-.297.569-1.118.854-2.467.854-1.476 0-2.341-.39-2.594-1.171-.126-.358-.189-.906-.189-1.644v-17.553c0-.485.015-.849.047-1.091.031-.243.132-.522.301-.838.296-.569 1.117-.854 2.467-.854 1.476 0 2.351.39 2.625 1.171.106.358.158.906.158 1.644v6.452h8.381v-6.483c0-.485.016-.849.048-1.091.032-.243.132-.522.3-.838"/><path d="M90.955 56.396l-2.087 4.333h4.205l-2.118-4.333zm2.561-7.59l8.54 17.648c.358.718.538 1.255.538 1.613 0 .759-.611 1.445-1.834 2.056-.717.358-1.281.538-1.691.538-.411 0-.749-.095-1.012-.285-.264-.19-.454-.39-.569-.601-.116-.21-.28-.526-.491-.949l-1.645-3.416h-8.76l-1.645 3.416c-.211.423-.375.728-.491.918-.116.189-.306.385-.569.585-.264.2-.601.301-1.013.301-.411 0-.974-.179-1.691-.538-1.223-.59-1.834-1.265-1.834-2.024 0-.358.179-.896.538-1.613l8.54-17.68c.231-.485.585-.875 1.059-1.17.475-.296.975-.443 1.503-.443 1.137 0 1.981.548 2.529 1.645z"/><path d="M112.148 65.662h8.602c.696 0 1.202.079 1.518.237.316.158.527.407.632.744.106.338.158.786.158 1.344 0 .559-.053 1.007-.158 1.344-.106.337-.285.569-.538.695-.4.211-.949.317-1.645.317h-11.385c-1.476 0-2.341-.4-2.594-1.202-.126-.337-.189-.875-.189-1.613v-17.585c0-.485.015-.849.047-1.091.031-.242.132-.522.301-.838.296-.569 1.117-.854 2.467-.854 1.476 0 2.351.39 2.625 1.17.106.358.158.907.158 1.645v15.687z"/><path d="M142.588 47.16c.485 0 .849.016 1.092.048.242.031.517.132.822.3.304.169.521.454.648.854.126.4.189.938.189 1.613s-.063 1.213-.189 1.612c-.126.401-.348.68-.664.838-.317.158-.595.253-.838.285-.243.031-.617.047-1.124.047h-9.677v3.194h6.229c.506 0 .881.016 1.124.048.242.032.521.132.838.301.548.316.822 1.15.822 2.499 0 1.476-.4 2.351-1.202 2.626-.337.106-.875.158-1.613.158h-6.198v5.978c0 .506-.017.875-.048 1.107-.032.233-.131.506-.3.822-.296.569-1.117.854-2.467.854-1.476 0-2.341-.4-2.594-1.202-.126-.337-.19-.875-.19-1.613v-17.585c0-1.075.2-1.808.601-2.198.4-.39 1.159-.585 2.277-.585h12.461z"/><path d="M40.769 129.251v-2.131c0-1.726-.403-2.922-1.209-3.588-.806-.665-2.136-.998-3.992-.998-1.919 0-3.31.374-4.173 1.122-.863.749-1.295 2.005-1.295 3.771v1.823h10.669zm-14.756 0v-1.804c0-1.701-.365-2.872-1.094-3.512-.729-.639-1.957-.959-3.684-.959-.896 0-1.622.106-2.178.317-.557.211-.975.566-1.257 1.065-.282.499-.467 1.053-.557 1.66-.089.608-.134 1.417-.134 2.427v.807h8.903zm18.843 5.795h-31.815v-7.791c0-1.47.132-2.753.394-3.847.262-1.094.697-2.066 1.304-2.917.608-.85 1.449-1.494 2.523-1.928 1.075-.435 2.373-.646 3.896-.633 3.927.013 6.121 1.573 6.582 4.682.358-1.88 1.18-3.284 2.465-4.212 1.286-.927 3.093-1.397 5.421-1.41 3.019-.013 5.312.742 6.879 2.265 1.567 1.522 2.35 3.741 2.35 6.658v9.134z"/><path d="M40.692 106.023c.167-.403.25-.886.25-1.449 0-.563-.083-1.042-.25-1.439-.166-.397-.384-.713-.652-.95-.269-.236-.62-.422-1.056-.556-.435-.134-.869-.224-1.305-.269-.435-.044-.953-.067-1.554-.067h-14.449c-.767 0-1.407.038-1.919.114-.512.077-.994.228-1.449.451-.454.224-.793.56-1.017 1.007-.224.448-.336 1.017-.336 1.708 0 .691.113 1.264.336 1.717.224.454.563.79 1.017 1.007.454.218.937.364 1.449.441.512.077 1.152.116 1.919.116h14.449c.601 0 1.119-.022 1.554-.068.435-.044.87-.134 1.305-.268.435-.134.787-.317 1.056-.547.268-.23.486-.547.652-.95m4.548-1.449c0 3.275-.889 5.622-2.668 7.042-1.777 1.419-4.381 2.129-7.81 2.129h-11.743c-1.688 0-3.153-.16-4.394-.48-1.241-.318-2.315-.834-3.224-1.544-.908-.71-1.59-1.66-2.043-2.85-.454-1.19-.681-2.622-.681-4.298 0-3.262.876-5.607 2.629-7.033 1.753-1.426 4.324-2.139 7.714-2.139h11.743c1.663 0 3.125.163 4.385.49 1.26.325 2.354.844 3.281 1.554.928.709 1.628 1.66 2.101 2.849.473 1.19.71 2.616.71 4.279"/><path d="M45.24 83.141c0 5.603-3.236 8.546-9.709 8.827l-1.056-5.047c4.209-.128 6.313-1.331 6.313-3.608 0-.882-.269-1.537-.806-1.967-.538-.428-1.26-.643-2.169-.643-.882 0-1.691.16-2.427.48-.736.32-1.337.691-1.804 1.113-.467.422-1.046 1.023-1.737 1.804l-3.626 4.183c-1.075 1.228-2.191 2.143-3.348 2.744-1.158.601-2.607.902-4.347.902-2.469 0-4.387-.725-5.756-2.178-1.369-1.451-2.066-3.444-2.092-5.977-.013-1.164.132-2.194.432-3.09.301-.895.704-1.634 1.209-2.216.506-.582 1.135-1.068 1.89-1.459.754-.39 1.538-.681 2.35-.873.812-.191 1.717-.326 2.715-.402l.979 4.95c-.64.026-1.196.067-1.67.125-.474.058-.953.157-1.439.298-.486.14-.88.323-1.18.547-.301.224-.54.524-.719.902-.179.378-.249.815-.211 1.314.051.857.336 1.513.854 1.967.518.455 1.213.681 2.082.681 1.023 0 1.864-.201 2.523-.604.659-.403 1.365-1.033 2.12-1.89l3.608-4.145c.627-.691 1.234-1.292 1.822-1.804.589-.511 1.26-1 2.015-1.468.755-.467 1.586-.822 2.495-1.065.908-.243 1.868-.364 2.878-.364 2.315 0 4.196.732 5.642 2.197 1.446 1.464 2.169 3.386 2.169 5.765"/><path d="M44.856 68.673h-27.535v5.335h-4.279v-16.291h4.279v5.162h27.535z"/><path d="M40.692 47.978c.167-.403.25-.886.25-1.449 0-.563-.083-1.042-.25-1.44-.166-.396-.384-.713-.652-.95-.269-.236-.62-.422-1.056-.557-.435-.134-.869-.224-1.305-.268-.435-.045-.953-.067-1.554-.067h-14.449c-.767 0-1.407.039-1.919.115-.512.077-.994.228-1.449.451-.454.224-.793.559-1.017 1.007-.224.447-.336 1.017-.336 1.708 0 .69.113 1.263.336 1.717.224.454.563.791 1.017 1.007.454.218.937.365 1.449.442.512.077 1.152.115 1.919.115h14.449c.601 0 1.119-.022 1.554-.067.435-.044.87-.134 1.305-.269.435-.134.787-.317 1.056-.547.268-.23.486-.547.652-.95m4.548-1.449c0 3.275-.889 5.622-2.668 7.042-1.777 1.42-4.381 2.13-7.81 2.13h-11.743c-1.688 0-3.153-.16-4.394-.48-1.241-.319-2.315-.835-3.224-1.544-.908-.71-1.59-1.66-2.043-2.849-.454-1.19-.681-2.622-.681-4.298 0-3.263.876-5.607 2.629-7.033 1.753-1.426 4.324-2.139 7.714-2.139h11.743c1.663 0 3.125.163 4.385.489 1.26.326 2.354.844 3.281 1.554.928.71 1.628 1.66 2.101 2.849.473 1.19.71 2.616.71 4.279"/><path d="M44.856 33.117h-31.815v-3.991l18.018-7.791h-18.018v-4.797h31.815v3.8l-18.939 7.867h18.939z"/><path d="M4.025 145.812h248.004v-141.787h-248.004v141.787zm252.029 4.025h-256.054v-149.837h256.054v149.837z"/></g></svg>
