<?xml version="1.0" encoding="UTF-8" standalone="no"?>
<svg width="200px" height="150px" viewBox="0 0 200 150" version="1.1" xmlns="http://www.w3.org/2000/svg" xmlns:xlink="http://www.w3.org/1999/xlink" xmlns:sketch="http://www.bohemiancoding.com/sketch/ns">
    <!-- Generator: Sketch 3.2.1 (9971) - http://www.bohemiancoding.com/sketch -->
    <title>logo</title>
    <desc>Created with Sketch.</desc>
    <defs></defs>
    <g id="client-logos" stroke="none" stroke-width="1" fill="none" fill-rule="evenodd" sketch:type="MSPage">
        <g id="logo" sketch:type="MSArtboardGroup" fill="#FFFFFF">
            <path d="M15.5022722,82.1157238 C14.6806141,82.2993148 14.2626859,81.9245096 14.12564,81.0783392 C13.8114221,79.344071 12.4347898,78.2634886 10.4982448,78.2952517 C8.89135072,78.320027 7.91783095,79.3116726 8.09685488,80.2836251 C8.72343862,83.5819109 21.7427994,83.2896899 21.8903398,93.0416132 C21.9094769,94.3140451 20.6217392,101.842548 10.8556753,101.997552 C2.20388104,102.136674 0.261162768,96.3132179 0.00497335445,93.0104853 C-0.047499176,92.2462638 0.316104594,91.7748986 1.05504129,91.5925781 L5.69484763,90.4592688 C6.51774037,90.2756778 6.9757947,90.6498477 7.0714799,91.539216 C7.26717157,93.5726931 8.80986397,94.7358597 10.7457917,94.7047318 C12.7650581,94.6723334 14.230585,93.4189594 13.9657531,92.278027 C13.1280446,88.6868849 0.737736809,89.6899652 0.591431048,79.9374067 C0.530933307,78.6662453 1.15813438,71.1485423 10.3883611,71.0024318 C18.8765646,70.8658502 20.9402784,76.5158799 21.2328899,79.5645073 C21.2859797,80.3274582 20.922376,80.8007292 20.182822,80.9824145 L15.5022722,82.1157238 L15.5022722,82.1157238 Z M32.158499,72 C32.8581237,72 33.3111846,72.2885912 33.5990478,72.9526612 L39.1948124,86.7473195 C39.3600101,87.1209365 39.6885563,87.0383932 39.6885563,86.6231943 L39.6885563,73.241873 C39.6885563,72.4139577 40.1416173,72 40.9238408,72 L45.5315011,72 C46.3550241,72 46.7661692,72.4139577 46.7661692,73.241873 L46.7661692,99.7562651 C46.7661692,100.54446 46.3550241,101 45.5315011,101 L39.483292,101 C38.7830509,101 38.3312228,100.708926 38.0427432,100.047339 L32.4469786,86.2508186 C32.2823973,85.8772016 31.9526183,85.9609862 31.9526183,86.3749438 L31.9526183,99.7562651 C31.9526183,100.54446 31.5414732,101 30.7185667,101 L26.1102899,101 C25.3280664,101 24.8756219,100.54446 24.8756219,99.7562651 L24.8756219,73.241873 C24.8756219,72.4139577 25.3280664,72 26.1102899,72 L32.158499,72 L32.158499,72 Z M71.641791,98.5798039 C71.641791,99.4986439 71.2156908,100 70.3628514,100 L65.5869511,100 C64.7762745,100 64.3073726,99.5812643 64.3073726,98.7456708 L64.3073726,95.1116211 C64.3073726,94.2760275 63.8806335,93.8591696 63.028433,93.8591696 L59.3602655,93.8591696 C58.5502279,93.8591696 58.0813259,94.2760275 58.0813259,95.1116211 L58.0813259,98.7456708 C58.0813259,99.5812643 57.6545868,100 56.8011086,100 L52.0252083,100 C51.2158094,100 50.7462687,99.4986439 50.7462687,98.5798039 L50.7462687,80.8633424 C50.7462687,75.5994158 51.599108,70 61.1943493,70 C70.7895905,70 71.641791,75.5994158 71.641791,80.8633424 L71.641791,98.5798039 L71.641791,98.5798039 Z M63.681592,81.0711294 C63.681592,79.0247746 63.3949073,78 60.6965174,78 C57.997515,78 57.7114428,79.0247746 57.7114428,81.0711294 L57.7114428,85.7203095 C57.7114428,86.5297792 58.1610723,87 58.9378166,87 L62.4552183,87 C63.2723924,86.9571946 63.681592,86.5297792 63.681592,85.6768652 L63.681592,81.0711294 L63.681592,81.0711294 Z M73.7926962,81.0733136 C73.8342063,78.2934151 74.5268678,70.849016 84.3269749,71.0023331 C93.1357954,71.1405078 94.4089792,77.1842318 94.5254553,80.4291292 C94.5576721,81.0190532 94.1791246,81.4777428 93.5979828,81.5944657 L88.9922175,82.5755692 C88.1211244,82.7307792 87.4681143,82.1294983 87.3565946,81.2449278 C87.178163,79.3874559 86.4508064,78.2820583 84.2179334,78.2467259 C81.1579556,78.1981439 80.9206663,80.1748625 80.8717216,83.4172362 L80.7800276,89.48115 C80.7310828,92.7235237 80.9082753,94.7065516 83.9682531,94.7551336 C86.2426363,94.789835 86.8795379,93.7046272 87.1570981,91.7714432 C87.2946392,90.8900273 87.9643772,90.351209 88.7890037,90.5764528 L93.4455725,91.7007785 C94.0229969,91.8364294 94.3872948,92.304583 94.3364913,92.9367796 C94.1227452,96.1349879 92.6674125,102.136439 83.8592115,101.997634 C74.0584849,101.844947 73.5913411,94.3816202 73.6340903,91.6010908 L73.7926962,81.0733136 L73.7926962,81.0733136 Z M121.091336,97.9103415 C121.708434,98.738502 121.342888,99.4203309 120.32267,99.4461912 L113.948541,99.6082912 C113.268396,99.6259519 112.793951,99.3843788 112.396563,98.805991 L106.919741,90.9413049 C106.743973,90.692163 106.4886,90.6997318 106.325569,90.9570734 L104.643675,93.3582972 C104.520128,93.5298583 104.481918,93.6988964 104.488286,93.9089325 L104.609286,98.5814479 C104.629665,99.3824866 104.216356,99.8555409 103.366175,99.8776168 L98.5210978,99.9993495 C97.7142218,100.019533 97.2346815,99.5691854 97.2143026,98.7694082 L96.5182368,71.8318017 C96.4953105,70.9891342 96.9519246,70.5577087 97.7594375,70.5368943 L102.604514,70.4139001 C103.454695,70.3930857 103.890294,70.8018047 103.911946,71.6432107 L104.130382,80.1039453 C104.141846,80.525279 104.44116,80.6015985 104.644949,80.2591071 L111.082125,70.9985953 C111.450855,70.4429141 111.911291,70.1786344 112.591436,70.160343 L118.880865,70.000766 C119.943114,69.974275 120.301654,70.6378125 119.729136,71.5372465 L111.446398,83.4563237 C111.324761,83.670775 111.286551,83.8385516 111.461682,84.0460648 L121.091336,97.9103415 L121.091336,97.9103415 Z M128.123833,73 C128.943229,73 129.353234,73.413337 129.353234,74.241873 L129.353234,100.756886 C129.353234,101.54446 128.943229,102 128.123833,102 L123.616847,102 C122.838574,102 122.38806,101.54446 122.38806,100.756886 L122.38806,74.241873 C122.38806,73.413337 122.838574,73 123.616847,73 L128.123833,73 L128.123833,73 Z M57.8985075,91 C57.8318408,91.035 57.7711443,91.074 57.7114428,91.119 C57.7661692,91.119 57.8228856,91.129 57.8776119,91.143 C57.8825871,91.096 57.8825871,91.045 57.8985075,91 L57.8985075,91 Z M58.1313433,91.242 C58.1333333,91.208 58.1353234,91.177 58.1452736,91.15 L58.199005,91 L58.0577114,91.073 C57.9910448,91.109 57.9283582,91.148 57.8626866,91.198 L57.7114428,91.311 L57.8995025,91.311 C57.9432836,91.311 57.9910448,91.317 58.0507463,91.332 L58.120398,91.35 L58.1313433,91.242 L58.1313433,91.242 Z M198.835119,82.1833222 C197.26234,69.0204439 185.201853,59.6130586 171.893577,61.1681062 C164.342729,62.0510201 158.01641,66.2759496 154.241615,72.169089 C154.190069,72.1653583 154.142294,72.1591406 154.087605,72.1591406 L132.603016,72.1591406 C131.805311,72.1591406 131.343284,72.5738615 131.343284,73.4033031 L131.343284,78.0529018 C131.343284,78.8406848 131.805311,79.297686 132.603016,79.297686 L138.476736,79.297686 C139.316557,79.297686 139.735839,79.7124068 139.735839,80.5424702 L139.735839,99.9665758 C139.735839,100.756224 140.197238,101.212604 140.994942,101.212604 L145.694421,101.212604 C146.533614,101.212604 146.952896,100.756224 146.952896,99.9665758 L146.952896,80.5424702 C146.952896,79.7124068 147.414924,79.297686 148.211999,79.297686 L151.170861,79.297686 C150.500135,82.0086047 150.296466,84.8811837 150.647858,87.8159397 C152.220637,100.97944 164.281754,110.387447 177.588772,108.831777 C190.897677,107.274864 200.406641,95.3468222 198.835119,82.1833222 L198.835119,82.1833222 Z M169.020044,100.836689 C160.279046,102.08876 158.803095,95.8054471 158.44749,93.4359427 L156.218905,78.692773 C156.247583,78.570544 156.267339,78.4408697 156.267339,78.295684 L156.267339,76.5404266 C156.431121,76.374766 156.666917,76.2655665 156.976,76.220894 L161.108154,75.6296037 C161.84358,75.5241269 162.266737,75.8300095 162.378262,76.547872 L164.502332,90.6234358 C164.921666,93.3900293 165.358843,95.0509781 168.088333,94.660714 C170.819736,94.2685887 170.746448,92.5567628 170.329664,89.7907898 L167.24648,70.5133602 C167.24648,70.5046739 167.249667,70.4978489 167.24648,70.4891626 L165.492035,70.7330001 C165.038926,70.4382856 164.979021,70.0511238 165.27026,69.6316986 L168.916166,64.3851603 C168.936559,64.3559991 168.958227,64.34359 168.979257,64.3175311 L168.953129,64.3200129 C168.990091,64.2796835 169.028966,64.2592086 169.064654,64.2250838 C169.109901,64.1804113 169.155148,64.1357388 169.201032,64.1034753 C169.234171,64.0848617 169.264124,64.0761754 169.295351,64.061905 C169.352706,64.0358461 169.408787,64.011028 169.46678,64.0035826 C169.526685,63.9948963 169.587864,64.0035826 169.646494,64.0128893 C169.679633,64.0166121 169.712135,64.0166121 169.747185,64.0265393 C169.801992,64.0457733 169.860622,64.0761754 169.918615,64.1078184 C169.963225,64.1295342 170.003374,64.1394615 170.047347,64.1686227 L170.025679,64.1717249 C170.051808,64.1903385 170.075387,64.1971635 170.104065,64.2207406 L175.116309,68.2586393 C175.515249,68.5831355 175.570693,68.9715381 175.22401,69.3779339 L173.591924,69.6043987 L176.963798,90.7847532 C177.321314,93.1548781 177.762953,99.5864789 169.020044,100.836689 L169.020044,100.836689 Z M187.8657,92.7500584 L186.08534,93.0064709 C185.38012,93.1087833 185.025586,93.5344533 185.133293,94.2657974 L186.766198,103.123397 C186.875186,103.854742 186.558478,104.274096 185.816074,104.381461 L181.662327,104.982073 C180.955184,105.085016 180.489097,104.740817 180.383955,104.047367 L176.140453,77.6810859 C176.031465,76.951005 176.345608,76.5316505 177.084807,76.3857606 L185.248692,75.2041157 C191.850194,74.247937 194.937776,76.6390153 195.833405,82.6337633 C196.725829,88.6297744 194.471048,91.7926165 187.8657,92.7500584 L187.8657,92.7500584 Z M186.99715,82.0928436 L185.028788,82.3634144 C184.339767,82.4579088 183.990856,82.8517331 184.098987,83.5325622 L184.504478,86.1138432 C184.60758,86.7594569 185.066508,87.0781553 185.756787,86.983661 L187.722634,86.7148509 C189.469705,86.4748 190.310864,86.1508193 189.978298,84.0443578 C189.645104,81.9384832 188.741707,81.8539665 186.99715,82.0928436 L186.99715,82.0928436 Z" id="snack-it-up" sketch:type="MSShapeGroup"></path>
        </g>
    </g>
</svg>