<svg width="210" height="150" viewBox="0 0 210 150" xmlns="http://www.w3.org/2000/svg" xmlns:sketch="http://www.bohemiancoding.com/sketch/ns"><title>logo</title><desc>Created with Sketch.</desc><path d="M94.093 73.409c.34.109.764.287 1.001-.052h.13c.163-.019.154.141.26.178.305.053.529-.058.752-.164-.436-.114-.866-.322-1.289-.287-.304.026-.574.226-.853.325zm.68-5.357c.036-.232.056-.479.043-.758-.324-.436-.964-.382-1.468-.313-.112.299-.116.713-.13 1.115.479-.069 1.077.039 1.555-.044zm2.247 5.193c.274.094.478.404.752.38.288-.024.456-.33.844-.39-.254-.099-.489-.217-.734-.326-.489-.097-.669.126-.862.335zm6.521-12.366l-.044.132c-.002.764-.038 2.097.044 3.209.8-6.809 1.37-14.707 1.944-21.294l-.045-.048c-.301.511-1.046 1.121-1.209 1.65-.091.293-.067.827-.086 1.246-.204 4.436-.431 9.253-.603 13.544-.022.503-.042 1.096 0 1.56zm-18.528 6.235c-.196.265-.418.494-.564.802 2.746.084 6.297.212 8.553.18.018-.402.228-.856.084-1.159-2.315.101-5.696.06-8.074.177zm21.721 5.926c-.348.059-.746-.142-1.122-.131l-.146.003.036.179-.086.042c-.094-.004-.091-.11-.088-.218l-.353.003c-.035.086-.141.09-.164-.002l-.131-.005.002.001c-.042.099-.189.109-.212-.01l-.369-.04c-.64-.108-1.019.371-1.426.357l-.432-.135c-.466-.021-.989.279-1.38-.132-.451.158-.931.288-1.341.488l-.154-.022c.281.153.547.322.951.207l.301-.224c.406.107.56-.208.778-.045-.023.181-.105.051-.172.137.268.101.539.105.793.043-.072-.006-.113-.044-.103-.135.038-.035.097-.047.173-.045v.158c.17-.052.334-.128.475-.247.386.405 1.291-.276 1.508.225.135.048.264.1.373.173.384-.179.571-.366.992-.315.133.018.275.172.434.179.342.019.574-.34.906-.399l1.382.22c.293-.036.383-.244.735-.267-.187-.194-.473-.264-.905-.31-.48-.053-.729.181-1.256.267zm-2.105-53.274l-35.453 58.545h70.907l-35.454-58.545zm-9.448 54.883l.086-.133c.075.01.099.075.086.179l-.172-.046zm.992.134c-.223-.023-.532.044-.517-.224.395.14.421-.133.734-.089l-.217.313zm-.044-.625h.173c.051.155-.241.207-.173 0zm.39-.222c-.154.034-.193-.114-.129-.18.113-.013.141.065.129.18zm4.017.222c-.279-.045-.633.198-.906.18-.347-.025-.522-.24-.866-.18-.303.056-.501.237-.777.223l-.429-.133c-.369-.038-.56.235-.91.268.034-.793.942-.582 1.513-.313.377-.279.996-.405 1.382-.045.572-.091 1.323-.249 1.857 0-.238.478-.513.059-.864 0zm1.21.313c-.194.062-.211-.178-.13-.268.142-.006.206.182.13.268zm.259.045v-.178c.1-.016.166.006.216.043.019.138-.093.143-.216.135zm2.202-.045c.041-.099.37-.223.345 0-.159.011-.213.126-.345 0zm.993 0c-.134.023-.114-.122-.216-.133.1-.076.164-.118.086-.268.14-.04.134.07.217.088l-.087.313zm.562 0c0-.122.204-.107.261-.044 0 .121-.205.106-.261.044zm.434.089c.068-.074.165.016.259.043 0 .137-.308.131-.259-.043zm1.641-.357c-.521.593-1.561.055-2.203-.045l-.087.313-.215-.357c.649-.427 1.361.532 1.986 0 .471.095.869-.341 1.212-.4l.042-.134c.197-.033.059.17.131.176.134.064.084-.291.171-.132.141.043.022.181.215.222.071-.006-.07-.21.131-.177.054.058.054.165 0 .223.294.038.488-.197.691 0 .179-.046.546-.294.56.089-.331-.062-.742.25-1.208.222l-.303-.133c-.426-.086-.703.201-1.122.133zm5.701.09c-.461.019-.648.127-1.037.267l-.261-.222c-.295.223-.842.64-1.078.088-.34.095-.448.211-.778.357-.425-.138-1.428-.232-1.813.178-.084-.88 1.179-.399 1.856-.402.3-.192.823-.564 1.124-.133.346.001.443-.254.69-.356.149.024.22.128.301.223.313.045.46-.426.865-.268-.061-.065-.033-.14.087-.133.151.078-.124.198.043.401zm-2.591-.401v.178c-.167.034-.167-.212 0-.178zm.171.089h.175c.033.172-.207.172-.175 0zm3.5.621c.113-.012.186.017.172.137-.08.087-.209.024-.172-.137zm.562-1.11c.09-.1.123.02.259 0 .045.183-.307.183-.259 0zm.517.665l-.171-.045c.01-.077.074-.104.171-.089v.134zm-.171-.665c.106-.007.131-.086.214 0 .042.177-.259.177-.214 0zm3.003-1.256c-.577.223-1.197.26-1.683.492-.31-.119-.574-.047-.952 0-.419.049-.849-.244-1.207-.089-.183.076-.531.144-.777.269l-.015-.084-.008-.002c-.008-.069.016-.105.058-.122.085-.114.252-.207.309-.328-.188.144-.387.193-.591.194l-.036.122c-.097.011-.13-.044-.131-.13-.602-.064-1.23-.444-1.745-.008-1.152-.4-1.543.541-2.551.533.9.606 1.681-.637 2.551-.044.263-.114.598-.157.82-.311-.018.217.173.274.474.268.024.065-.051.228.042.222.654-.343 1.9-.346 2.764-.135-.057.32-.541.153-.647 0-.396.191-.879-.044-1.338.047-.227.043-.418.261-.646.266-.197.003-.491-.258-.779-.266l-.69.133c-.273-.04-.548-.406-.866-.18.511.412 1.156.112 1.643.582.563-.186 1.227-.34 1.64.042-.364-.009-.769.155-.948-.042-.225.113-.466.146-.714.138l.126.089c-.01.078-.076.101-.173.089l.044-.178c-.543-.017-1.122-.243-1.66-.363-.403.16-.657.362-1.123.267-.327-.064-.637-.326-.951-.31-.297.014-.602.28-.905.268-.367-.015-.597-.401-1.126-.268-.245.06-.432.333-.775.357-.447.031-.895-.241-1.144.19-.001.068.031.109.084.126-.142.106-.156.14-.173.311-.093.01-.136-.037-.128-.133-.428.181-.894-.136-1.297-.09-.388.046-.536.464-.905.313.083-.133.294-.142.301-.357l.172.045c.457-.433 1.11-.068 1.735-.171-.402-.029-.574-.378-.89-.233-.025-.092-.006-.139.029-.169-.364.005-.782.178-1.219.084-.478.601-1.28-.111-1.901-.045-.301.161-.512.249-.82.177l-.259-.177-.345.045c-.213-.029-.327-.152-.478-.135-.156.022-.194.205-.345.267-.531.219-1.222-.017-1.728-.222-.473.049-.774.258-1.208.176-.406-.072-.856.209-1.339.18-.155-.006-.367-.268-.474-.044-.078-.032-.006-.081 0-.136-.357-.011-1.103.672-1.469.09-.599-.055-1.081-.281-1.425.178l-.172-.088c.086-.341.54-.302.819-.443.682.275 1.692.166 2.208-.075l-.067-.021c-.222-.268-.569-.492-.905-.535-.303-.038-.566.24-.952.312-.292.058-.617-.114-.82-.089-.364.047-.748.519-1.122.224-.053.007-.038.082-.044.133-.136-.036-.097-.256-.26-.267l-.086.177c-.078-.184-.083-.261-.345-.31-.059.015-.036.112-.042.178-.24-.23-.452.157-.692.045.007-.44.593-.279.692-.624.258.208.742.183.95.444.277-.024.439-.171.69-.222-2.071-1.634-4.34-3.063-6.479-4.633-.285-.016-.583-.02-.819-.089l-.043-.044v-.044c.148-.271.501-.038.819-.136.436-.131 1.283-1.612 1.555-2.005 1.446-2.087 2.88-4.409 4.233-6.414.771-1.353 1.581-2.706 2.419-4.054.772-1.246 1.58-2.66 2.377-4.055.224-.395.546-.804.646-1.158.264-.919.059-1.874.346-2.807.254.092.538.157.735.313.268-.347-.11-1.362.389-1.473.236.441-.099 1.018 0 1.606 1.811-2.364 3.721-4.976 5.528-7.483.562-.782 1.163-1.547 1.684-2.318.377-.559-.003-1.811.216-2.406-.007-.14-.17-.122-.13-.31l.52-.091h.087l.085.045c-.595 2.223.171 4.688.519 6.817.072.016.082-.035.088-.089.131.043-.052.119-.044.177.01.247.28 0 .086.222.951-.816 1.875-2.069 2.506-2.895.259-.053.388-.519.602-.578.018-.075-.032-.084-.086-.089l.173-.043c.826-1.131 1.648-1.991 2.504-3.074.282.276.054.655.044.978-.011.353.091.823.085 1.112-.042 2.649.272 5.737 1.039 8.645 1.207 6.411 4.212 11.91 7.858 16.26.79-.086 1.48-.245 2.202-.268.049.129.098.257.088.447-1.351.208-2.486.375-3.843.579-.934 1.383-1.85 2.785-2.766 4.189.51-.125.865-.144 1.339-.269-.132.367-.208.798-.432 1.069-.221-.036-.328.049-.474.089-.468.882-.842 1.865-1.427 2.629.006.099.183.018.258.045-.004.245-.297.461-.429.711.505-.23 1.07.125 1.553-.045.02.095-.029.12-.043.18.672.309 1.028.174 1.597 0 .137.021.033-.203.129-.224.171.002.45.121.65.044v.312zm-25.721 1.164c.01-.077.074-.102.173-.088v.134l-.173-.046zm-3.584-1.023c.038-.035.097-.047.172-.045.013.115-.015.189-.128.178l-.044-.133zm30.492-.491v.133c-.137.053-.106-.07-.175-.089.014-.059.11-.037.175-.044zm-1.685-.448v.181c-.112.012-.142-.062-.13-.181h.13zm-.517.492h-.133l.045-.178c.128-.047.077.098.087.178zm1.076-.402c-.165.037-.165-.211 0-.176v.176zm-15.307-5.751c0 .316-.091 1.021-.041 1.47 1.047-.444 2.117-.877 3.323-1.158.098.22-.008.383.043.623.279-.053.539-.129.779-.22.317.595.307 1.306.389 2.092 1.163-.03 2.26-.132 3.323-.269-.405-1.205-.623-2.376-1.121-3.518-2.223.319-4.459.711-6.696.981zm-.345-7.396c.119-1.812.215-3.813.304-5.747.166-3.671.466-6.925.517-11.094l-.044-.044c-.965 3.266-.862 6.786-1.165 10.381-.103 1.219-.261 2.439-.345 3.699-.093 1.424 0 2.894 0 4.322 0 1.375.069 2.773.302 4.054.269-1.773.31-3.721.432-5.57zm-2.85 8.11c-1.435.143-3.069.236-4.536.444.052.452-.085.714-.087 1.115.098.095.42.134.563.044.084-.076.012-.313.128-.356 1.15.012 2.522-.112 3.715-.09.152-.302.099-.82.217-1.157zm3.456-24.818c.221-1.113.444-2.45.474-3.474-2.345 3.335-4.706 6.372-6.997 9.756.221.128.492.204.734.312 2.033-2.091 3.823-4.433 5.789-6.594zm-3.327 24.818c-.009.419-.161.694-.129 1.157.6-.255.909.489 1.252.892.11-.555.394-.93 1.078-.892-.036-.349.035-.978.045-1.379-.739.083-1.519.125-2.246.223zm15.808-2.631c-1.932.31-3.876.609-5.831.892l1.036 3.562c1.309-.132 2.941-.265 4.362-.667.133-1.236.37-2.478.434-3.787zm-1.555 8.467c.875-.109 1.247.366 1.899.043-.515-.269-1.496-.474-1.899-.043zm3.842-8.779c-.8.093-1.409.193-2.117.312-.068 1.278-.374 2.487-.389 3.565.814-1.313 1.712-2.541 2.505-3.877zm-13.129-20.848c-.287-1.172-.407-2.534-.734-3.609-.034 1.208-.165 3.154-.087 4.456.247-.134.568-.574.821-.847zm-34.639 46.648h-.196l-.047-.193c-.131-.511-.224-.733-1.085-.733h-1.224v4.08c0 .964.121 1.128.898 1.128v.202h-2.534v-.202c.776 0 .898-.164.898-1.128v-4.08h-1.225c-.861 0-.953.222-1.085.733l-.046.193h-.197l.084-1.302h5.676l.084 1.302zm3.561 3.154c0 .964.113 1.128.888 1.128v.202h-2.524v-.202c.776 0 .888-.164.888-1.128v-3.134c0-.965-.112-1.119-.888-1.119v-.203h2.524v.203c-.776 0-.888.154-.888 1.119v1.215h3.179v-1.215c0-.965-.122-1.119-.898-1.119v-.203h2.534v.203c-.785 0-.898.154-.898 1.119v3.134c0 .964.113 1.128.898 1.128v.202h-2.534v-.202c.776 0 .898-.164.898-1.128v-1.562h-3.179v1.562zm7.011 1.128c.776 0 .888-.164.888-1.128v-3.134c0-.965-.113-1.119-.888-1.119v-.203h4.264l.084 1.273h-.196l-.046-.193c-.131-.502-.225-.724-1.085-.724h-1.384v2.189h.468c.935 0 1.085-.115 1.085-.926h.196v2.209h-.196c0-.81-.15-.927-1.085-.927h-.468v1.408c0 .964.112 1.119.888 1.119h.804c.861 0 .963-.223 1.085-.734l.047-.193h.196l-.075 1.283h-4.581v-.202zm14.042.366c-1.711 0-3.114-1.379-3.114-3.057s1.403-3.058 3.114-3.058c1.72 0 3.123 1.379 3.123 3.058 0 1.678-1.403 3.057-3.123 3.057zm-2.225-3.057c0 1.196.617 2.671 2.225 2.671 1.617 0 2.234-1.475 2.234-2.671 0-1.196-.617-2.681-2.234-2.681-1.609 0-2.225 1.485-2.225 2.681zm11.583 1.466c.551.675 1.178 1.158 1.739 1.225v.202h-1.543l-1.851-2.536h-.439v1.206c0 .964.112 1.128.888 1.128v.202h-2.524v-.202c.775 0 .888-.164.888-1.128v-3.134c0-.965-.113-1.119-.888-1.119v-.203h2.468c1.299 0 2.01.733 2.01 1.63 0 .839-.608 1.505-1.664 1.62l.916 1.109zm-.084-2.73c0-.694-.374-1.273-1.187-1.273h-.823v2.546h.823c.813 0 1.187-.569 1.187-1.273zm3.646 4.157v-.202c.775 0 .888-.164.888-1.128v-3.134c0-.965-.113-1.119-.888-1.119v-.203h2.524v.203c-.776 0-.888.154-.888 1.119v3.134c0 .964.113 1.128.888 1.128v.202h-2.524zm8.778-2.199v-.193h2.45v.193c-.776 0-.888.164-.888 1.128v.733c-1.038 0-1.458.501-2.431.501-1.581 0-2.871-1.379-2.871-3.057s1.29-3.058 2.871-3.058c.654 0 1.262.299 1.739.82.122-.097.271-.309.318-.55h.187v2.122h-.187c-.252-1.254-.981-2.016-2.029-2.016-1.496 0-2.039 1.485-2.039 2.681s.487 2.643 2.216 2.643c.814 0 1.543-.454 1.543-1.322 0-.415-.234-.627-.879-.627zm4.225 2.199v-.202c.776 0 .888-.164.888-1.128v-3.134c0-.965-.113-1.119-.888-1.119v-.203h2.524v.203c-.776 0-.888.154-.888 1.119v3.134c0 .964.113 1.128.888 1.128v.202h-2.524zm9.639-4.465c0-.965-.113-1.119-.888-1.119v-.203h2.132v.203c-.776 0-.898.154-.898 1.119v4.629h-.215l-3.806-4.851v3.356c0 .964.121 1.128.897 1.128v.202h-2.131v-.202c.776 0 .888-.164.888-1.128v-3.134c0-.965-.113-1.119-.888-1.119v-.203h1.318l3.59 4.591v-3.269zm3.957 3.53c-.225.52-.047.733.729.733v.202h-2.188v-.202c.785 0 .832-.164 1.122-.839l2.057-4.909h.121l2.066 4.909c.29.675.337.839 1.112.839v.202h-2.589v-.202c.776 0 .953-.202.729-.733l-.449-1.071h-2.263l-.449 1.071zm1.57-3.752l-.972 2.324h1.954l-.982-2.324zm4.945 4.485c.776 0 .888-.164.888-1.128v-3.134c0-.965-.113-1.119-.888-1.119v-.203h2.524v.203c-.776 0-.888.154-.888 1.119v2.99c0 .964.113 1.119.888 1.119h1.122c.851 0 .954-.223 1.075-.734l.047-.193h.196l-.074 1.283h-4.89v-.202zm-141.193-2.206h62.654v.347h-62.654v-.347zm148.537.002h60.573v.345h-60.573v-.345zm-41.789 9.462h-1.375v31.122h5.843v-31.122h-4.468zm4.086 1.418v29.31h-5.078v-30.334h5.078v1.024zm32.579-1.417h-4.393v19.989l-15.231-19.99h-4.942v31.122h5.767v-20.518l15.663 20.518h4.511v-31.121h-1.375zm.993 1.418v29.309h-3.943l-16.23-21.262v21.262h-5.003v-30.334h4.375l15.798 20.735v-20.734h5.004v1.024zm-112.023-1.419h-3.869l-9.253 14.301-9.252-14.301h-5.244v31.122h5.766v-19.69l7.886 11.933h1.611l7.887-11.963v19.721h5.843v-31.122h-1.375zm.993 1.418v29.31h-5.079v-20.607l-8.471 12.849h-1.207l-8.47-12.815v20.574h-5.002v-30.334h4.658l9.456 14.617 9.458-14.617h4.657v1.024zm-14.115 15.438l-9.987-15.438h-3.135v28.286h3.017v-22.869l9.987 15.112h.157l9.989-15.152v22.909h3.093v-28.286h-3.133l-9.988 15.438zm50.027 12.264l-12.86-29.319h-4.672l-13.741 31.321h6.194l3.252-7.476h13.137l3.212 7.476h6.356l-.878-2.003zm-4.583 1.609h-.646l-3.213-7.476h-13.633l-3.252 7.476h-5.355l13.395-30.533h4.18l13.392 30.533h-4.869zm-15.388-12.391h9.434l-4.703-10.893-4.731 10.893zm3.324-17.119l-12.496 28.485h3.173l3.252-7.476h14.921l3.213 7.476h3.331l-12.495-28.485h-2.899zm-2.735 16.725l4.141-9.533 4.115 9.533h-8.256zm-2.122 1.418l6.266-14.427 6.229 14.427h-12.495zm45.586-9.415c0-1.369-.586-4.552-6.02-4.552h-7.467v9.425h7.429c3.68 0 6.057-1.881 6.057-4.793v-.08zm6.203 18.906l-7.188-9.867c4.101-1.463 6.486-4.739 6.486-9.079v-.081c0-2.567-.894-4.904-2.518-6.579-2.032-2.093-5.145-3.245-8.766-3.245h-13.165v31.122h5.844v-10.993h5.769l7.95 10.993h7.241l-1.653-2.27zm-6.585-18.826c0 3.244-2.932 4.399-5.675 4.399h-7.047v-8.637h7.085c2.106 0 5.638.54 5.638 4.158v.08zm1.687 20.702h-.498l-7.951-10.993h-6.343v10.993h-5.08v-30.334h12.783c3.519 0 6.536 1.111 8.496 3.13 1.552 1.6 2.406 3.838 2.406 6.3v.081c0 4.328-2.486 7.557-6.733 8.873l8.706 11.949h-5.787zm2.821-20.822v-.081c0-2.221-.783-4.202-2.115-5.576-1.724-1.776-4.426-2.83-7.794-2.83h-11.791v28.286h3.095v-10.993h7.834l7.95 10.993h3.799l-8.42-11.557c4.308-.807 7.442-3.555 7.442-8.241zm-18.605 5.938v-11.473h8.459c4.428 0 7.012 2.099 7.012 5.576v.08c0 3.636-2.939 5.817-7.05 5.817h-8.422zm27.857-14.425h3.093v28.286h-3.093v-28.286zm33.647 22.671l-17.273-22.671h-2.9v28.286h3.018v-23.193l17.705 23.193h2.469v-28.285h-3.018v22.67zm33.144 1.288h-15.546v-7.061h14.962v-5.746h-14.962v-6.82h16.725v-5.748h-22.57v31.121h22.766v-5.746h-1.375zm.993 1.418v3.934h-22.002v-30.333h21.806v4.96h-16.725v7.609h14.962v4.958h-14.962v7.849h16.921v1.024zm-17.914-9.897h14.962v-2.91h-14.962v-9.657h16.725v-2.912h-19.821v28.285h20.017v-2.91h-16.921v-9.897zm49.283 11.955l-7.191-9.867c4.101-1.462 6.487-4.739 6.487-9.079v-.081c0-2.568-.895-4.904-2.52-6.579-2.03-2.092-5.142-3.245-8.764-3.245h-13.165v31.121h5.843v-10.993h5.768l7.953 10.993h7.243l-1.655-2.27zm-4.899 1.876h-.498l-7.953-10.993h-6.341v10.993h-5.079v-30.333h12.783c3.52 0 6.537 1.111 8.494 3.13 1.553 1.6 2.408 3.837 2.408 6.3v.081c0 4.329-2.486 7.557-6.733 8.873l8.708 11.949h-5.788zm-1.306-20.782c0-1.369-.586-4.551-6.018-4.551h-7.468v9.426h7.432c3.678 0 6.055-1.882 6.055-4.794v-.08zm4.127-.04v-.081c0-2.221-.783-4.202-2.117-5.575-1.724-1.777-4.425-2.83-7.793-2.83h-11.79v28.285h3.094v-10.993h7.832l7.953 10.993h3.8l-8.423-11.557c4.309-.806 7.443-3.555 7.443-8.241zm-4.509.121c0 3.244-2.931 4.4-5.673 4.4h-7.05v-8.638h7.086c2.105 0 5.636.54 5.636 4.157v.08zm-14.097 5.818v-11.474h8.461c4.426 0 7.011 2.099 7.011 5.575v.08c0 3.637-2.937 5.818-7.048 5.818h-8.424z" sketch:type="MSShapeGroup" fill="#fff"/></svg>