<svg width="222" height="52" viewBox="0 0 222 52" xmlns="http://www.w3.org/2000/svg"><g fill="none"><path d="M62.105 26.07v-.069c0-6.825 5.222-12.415 12.708-12.415 4.595 0 7.346 1.509 9.609 3.704l-3.412 3.875c-1.88-1.681-3.795-2.709-6.232-2.709-4.108 0-7.068 3.361-7.068 7.477v.068c0 4.117 2.89 7.546 7.068 7.546 2.785 0 4.491-1.097 6.406-2.812l3.412 3.396c-2.507 2.641-5.292 4.287-9.992 4.287-7.172 0-12.499-5.453-12.499-12.347zm30.895-12.072h5.362v9.497h9.887v-9.497h5.362v24h-5.362v-9.634h-9.887v9.634h-5.362v-24zm29.612 12.072v-.069c0-6.825 5.466-12.415 12.987-12.415 7.52 0 12.916 5.521 12.916 12.347v.068c0 6.826-5.466 12.416-12.986 12.416-7.52 0-12.917-5.521-12.917-12.347zm20.298 0v-.069c0-4.115-3.064-7.545-7.381-7.545s-7.311 3.361-7.311 7.477v.068c0 4.117 3.063 7.546 7.381 7.546 4.317 0 7.311-3.361 7.311-7.477zm14.73 11.928v-24h5.361v24h-5.361zm14.617-11.928v-.069c0-6.825 5.223-12.415 12.708-12.415 4.596 0 7.346 1.509 9.609 3.704l-3.412 3.875c-1.88-1.681-3.795-2.709-6.232-2.709-4.108 0-7.068 3.361-7.068 7.477v.068c0 4.117 2.89 7.546 7.068 7.546 2.785 0 4.492-1.097 6.407-2.812l3.411 3.396c-2.506 2.641-5.292 4.287-9.992 4.287-7.172 0-12.499-5.453-12.499-12.347zm30.743-12.072h18.382v4.697h-13.056v4.869h11.49v4.696h-11.49v5.04h13.231v4.697h-18.557v-24z" fill="#0D1733"/><path d="M14 0v14h-14v38h37.999v-14h14.001v-38h-38zm4.999 5h24.267l-9.002 9h-15.265v-9zm19 12.739l9-8.998v24.259h-9v-15.261zm-19 15.261h14v-14h-14v14zm-13.999-14h9v15.261l-9 8.999v-24.26zm12.735 19h15.265v9h-24.267l9.002-9z" fill="#0D1733"/><path fill="#28D886" d="M19 33h14v-14h-14z"/></g></svg>
