<svg width="228" height="94" viewBox="0 0 228 94" xmlns="http://www.w3.org/2000/svg"><g fill="none"><path d="M79.756 8.163s10.689-4.436 14.921-4.436v64.522s-11.09-1.612-26.818-23.993c0 0 25.61-10.586 11.897-36.093zm27.421 25.507l26.82-30.145c-15.125-4.436-26.617-2.116-26.617-2.116l-.203 32.261zm0 9.174v28.026s22.382 0 29.038-4.033l-29.038-23.993zm44.758-31.656l-6.655-3.832-27.42 29.641 29.034 23.141c.9.682 1.784 1.334 2.652 1.939 8.081-3.536 14.099-10.112 17.403-18.519-.48-.202-.697-.31-.697-.31-25.406-9.679-14.317-32.06-14.317-32.06z" fill="#273670"/><path d="M29.752 3.727v62.306s-29.642-6.805-29.239-33.07c0 0 .858-20.163 29.239-29.236zm11.946 32.665c31.405 2.419 29.792-14.115 29.792-14.115.401-17.138-29.792-12.905-29.792-12.905v27.02zm.251 11.29l.253 21.023c20.518 3.527 29.689-2.269 29.689-2.269l-17.539-19.408-12.403.857v-.203zm155.561-30.646c-27.422-15.93-35.689.604-35.689.604-2.823 10.282 9.881 13.911 9.881 13.911l14.115 4.437c26.161 8.066 15.928 32.717 15.928 32.717 16.331-3.781 23.187-18.148 23.187-18.148 12.297-30.396-23.793-41.587-23.793-41.587l-3.629 8.066zm-30.561 26.522c-3.304 8.407-9.322 14.983-17.403 18.519 26.414 18.659 39.087 4.359 39.087 4.359 9.88-14.161-9.073-18.955-9.073-18.955-7.492-1.953-11.2-3.334-12.611-3.923zm-134.144 45.79l2.251-.137 2.363 3.865h2.069l-2.659-4.25c1.295-.524 2.091-1.57 2.091-3.139 0-2.091-1.478-3.341-4.138-3.341h-3.773v10.73h1.796v-3.728zm-.023-1.524v-3.887h1.819c1.681 0 2.5.568 2.5 1.863 0 1.207-.727 1.978-2.477 2.003l-1.842.021zm17.527 5.252v-1.593h-5.274v-2.976h4.388v-1.613h-4.388v-2.957h5.274v-1.591h-7.047v10.73h7.047zm9.048-10.73h-2.137l-4.001 10.73h1.865l.931-2.659h4.48l.954 2.659h1.819l-3.911-10.73zm.614 6.501h-3.409l1.704-4.841 1.705 4.841zm13.617 4.229v-1.614h-5.092v-9.116h-1.796v10.73h6.888zm11.046-5.706v-5.024h-1.796v10.73h1.796v-5h.023l4.273 5h2.228l-4.797-5.457 4.751-5.273h-2.205l-4.25 5.024h-.023zm9.799 5.706h1.796v-10.729h-1.796v10.729zm15.501-5.432c0-3.206-2.136-5.298-5.728-5.298h-3.455v10.73h3.341c3.774 0 5.842-2.137 5.842-5.432zm-1.819.089c0 2.478-1.591 3.75-3.977 3.75h-1.591v-7.546h1.5c2.569 0 4.068 1.272 4.068 3.796zm8.799 4.048c-1.272 0-2.341-.432-3.295-1.023l-.478 1.568c1.046.613 2.41 1.001 3.751 1.001 2.365 0 3.933-1.366 3.933-3.275 0-2.045-1.638-2.796-3.206-3.227-1.592-.434-2.522-.773-2.522-1.75 0-.775.591-1.41 1.976-1.41.977 0 2.114.341 3.023.909l.524-1.546c-1.023-.614-2.205-.933-3.568-.933-2.274 0-3.728 1.228-3.728 3.07 0 2.114 1.75 2.796 3.273 3.204 1.68.478 2.476.82 2.476 1.819 0 .933-.909 1.593-2.159 1.593zm16.664 0c-1.274 0-2.342-.432-3.298-1.023l-.477 1.568c1.047.613 2.41 1.001 3.75 1.001 2.364 0 3.932-1.366 3.932-3.275 0-2.045-1.635-2.796-3.203-3.227-1.592-.434-2.523-.773-2.523-1.75 0-.775.591-1.41 1.975-1.41.98 0 2.116.341 3.025.909l.524-1.546c-1.023-.614-2.208-.933-3.57-.933-2.272 0-3.727 1.228-3.727 3.07 0 2.114 1.749 2.796 3.274 3.204 1.681.478 2.477.82 2.477 1.819 0 .933-.91 1.593-2.159 1.593zm16.887 1.295v-10.73h-1.794v4.523h-5.432v-4.523h-1.798v10.73h1.798v-4.593h5.432v4.593h1.794zm9.526-10.73h-2.137l-3.999 10.73h1.864l.931-2.659h4.48l.952 2.659h1.819l-3.91-10.73zm.615 6.501h-3.411l1.706-4.841 1.705 4.841zm15.911-1.203c0-3.206-2.135-5.298-5.726-5.298h-3.457v10.73h3.34c3.776 0 5.843-2.137 5.843-5.432zm-1.819.089c0 2.478-1.589 3.75-3.978 3.75h-1.589v-7.546h1.5c2.57 0 4.067 1.272 4.067 3.796zm12.823 5.343v-1.593h-5.275v-2.976h4.387v-1.613h-4.387v-2.957h5.275v-1.591h-7.048v10.73h7.048zm7.049-1.295c-1.274 0-2.342-.432-3.298-1.023l-.477 1.568c1.047.613 2.409 1.001 3.751 1.001 2.364 0 3.931-1.366 3.931-3.275 0-2.045-1.635-2.796-3.202-3.227-1.593-.434-2.524-.773-2.524-1.75 0-.775.591-1.41 1.975-1.41.98 0 2.116.341 3.026.909l.523-1.546c-1.022-.614-2.207-.933-3.57-.933-2.272 0-3.727 1.228-3.727 3.07 0 2.114 1.749 2.796 3.274 3.204 1.681.478 2.477.82 2.477 1.819 0 .933-.909 1.593-2.159 1.593z" fill="#9698BB"/></g></svg>
