<svg width="135" height="171" viewBox="0 0 135 171" xmlns="http://www.w3.org/2000/svg"><path d="M45.556 35.467l89.444 26.166v73.367h-77.167l-8.189-81.29c-1.9-1.269-5.919-3.258-12.515-3.258-6.309 0-10.249 1.804-12.241 3.073l-8.461 81.476h-16.426v-102h28.691v3.908c.264-.123.538-.241.84-.357v-3.55h7.597l7.588 2.223v1.328c.299.112.576.222.84.337v-1.42zm-8.252 6.568c-12.545 0-15.237 4.878-15.237 4.878v6.985s4.637-4.879 15.237-4.879c10.586 0 15.223 4.879 15.223 4.879v-6.985s-2.689-4.878-15.223-4.878zm11.135-1.931s-4.299-3.387-11.247-3.387c-6.948 0-10.717 3.387-10.717 3.387l-.182 1.715c2.532-.941 6.082-1.667 11.012-1.667 5.132 0 8.764.789 11.315 1.79l-.18-1.838zm-48.439-18.167l28.691 7.776v-1.742l7.159-4.765c-.299-.311-.479-.724-.479-1.182 0-.96.781-1.737 1.757-1.737.968 0 1.749.777 1.749 1.737 0 .458-.186.871-.484 1.182l7.172 4.765v4.029h89.434v-32h-135v21.937zm29.686 8.174v-.412s2.377-2.433 7.656-2.433c5.265 0 7.646 2.433 7.646 2.433v2.301h-7.646l-7.656-1.889zm-26.832 114.95h3.843c2.232 0 3.853.15 4.892.445 1.459.394 2.624 1.129 3.486 2.198.871 1.073 1.302 2.338 1.302 3.795 0 .949-.196 1.808-.598 2.583-.386.774-1.028 1.499-1.914 2.178 1.484.71 2.571 1.598 3.257 2.667.684 1.069 1.033 2.327 1.033 3.786 0 1.399-.357 2.678-1.063 3.826-.714 1.153-1.626 2.013-2.751 2.588-1.117.569-2.654.853-4.632.853h-6.855v-24.92zm4.66 4.525v5.251h1.009c1.136 0 1.978-.246 2.527-.73.553-.485.822-1.143.822-1.982 0-.78-.264-1.399-.773-1.854-.529-.459-1.322-.684-2.389-.684h-1.196zm0 9.486v6.383h1.156c1.934 0 3.233-.247 3.908-.744.671-.499 1.008-1.219 1.008-2.167 0-1.074-.396-1.918-1.185-2.542-.783-.62-2.096-.93-3.927-.93h-.96zm13.633-14.011h13.327v4.646h-8.715v4.504h8.715v4.557h-8.715v6.554h8.715v4.66h-13.327v-24.92zm25.068 0h4.721l9.391 24.92h-4.832l-1.91-5.134h-9.964l-1.993 5.134h-4.822l9.41-24.92zm2.39 6.609l-3.277 8.557h6.527l-3.25-8.557zm34.974-2.228l-3.257 3.162c-2.207-2.389-4.701-3.577-7.462-3.577-2.33 0-4.293.813-5.895 2.442-1.596 1.623-2.394 3.632-2.394 6.014 0 1.664.352 3.142 1.058 4.431.709 1.289 1.708 2.298 3.001 3.032 1.294.734 2.733 1.104 4.314 1.104 1.351 0 2.585-.26 3.702-.774 1.117-.51 2.345-1.449 3.676-2.803l3.164 3.357c-1.811 1.794-3.516 3.042-5.122 3.731-1.601.699-3.437 1.045-5.494 1.045-3.799 0-6.904-1.229-9.322-3.681-2.419-2.458-3.624-5.605-3.624-9.446 0-2.482.548-4.69 1.65-6.624 1.093-1.927 2.674-3.486 4.731-4.655 2.052-1.179 4.264-1.763 6.635-1.763 2.007 0 3.946.435 5.816 1.298 1.861.87 3.472 2.109 4.823 3.707zm13.93-5.005c3.462 0 6.429 1.274 8.922 3.826 2.477 2.552 3.73 5.665 3.73 9.336 0 3.632-1.228 6.713-3.681 9.231-2.453 2.517-5.435 3.776-8.931 3.776-3.663 0-6.714-1.294-9.137-3.876-2.429-2.588-3.644-5.66-3.644-9.217 0-2.382.568-4.575 1.695-6.573 1.136-1.999 2.684-3.582 4.662-4.751 1.978-1.169 4.113-1.753 6.384-1.753zm-.039 4.641c-2.263 0-4.167.804-5.71 2.408-1.537 1.602-2.305 3.641-2.305 6.114 0 2.752.969 4.935 2.908 6.538 1.503 1.254 3.231 1.878 5.186 1.878 2.202 0 4.083-.815 5.631-2.437 1.552-1.629 2.33-3.632 2.33-6.015 0-2.372-.783-4.38-2.34-6.023-1.567-1.639-3.467-2.463-5.7-2.463zm15.63-4.017h4.456l10.448 16.399v-16.399h4.652v24.92h-4.475l-10.434-16.349v16.349h-4.647v-24.92z" fill="#0065A4"/></svg>
