<svg width="151" height="150" viewBox="0 0 151 150" xmlns="http://www.w3.org/2000/svg" xmlns:sketch="http://www.bohemiancoding.com/sketch/ns"><title>logo</title><desc>Created with Sketch.</desc><path d="M101.787 59.026c0 9.066-6.35 13.175-10.483 14.001-2.535-10.674-7.681-23.101-14.4-23.101-3.65 0-5.093 4.701-5.053 10.211l-1.051.002c-1.123-3.351-3.818-9.778-8.301-11.145-3.52-.972-5.638 1.429-8.395 2.168v.52c4.643 1.768 6.884 5.576 7.067 11.497.483 15.692 4.572 29.977 19.284 36.097v3.283h-36.709v-3.392c4.67-.307 6.073-2.952 6.073-7.182v-36.113c0-4.507-1.211-8.27-6.073-8.602v-3.377h38.994c10.995 0 19.047 5.973 19.047 15.134zm-40.89-8.45c-.735 0-1.331.593-1.331 1.325 0 .73.596 1.323 1.331 1.323s1.332-.593 1.332-1.323c0-.732-.597-1.325-1.332-1.325zm41.621 39.261c-3.424-8.928-6.781-14.205-13.677-15.176-5.473-.775-10.328.303-11.067.498.002.135-.039.536.006.66 1.315 3.561 4.152 10.33 6.224 15.89 2.371 6.361 7.026 10.853 14.492 10.853h14.106v-3.381c-5.195 0-8.06-3.995-10.085-9.344zm-70.424 22.554s-3.264-3.399-5.149-6.74c-.579.414-.804.593-.804.593l.659 1.334c.363.805.301 1.059-.461 1.633l-11.157 8.392-.714-.938c-1.533-2.014-1.074-2.863.599-4.936l-.532-.699-3.612 2.717 8.928 11.732 3.612-2.716-.531-.7c-2.462 1.037-3.407 1.247-4.941-.769l-.714-.937 11.158-8.394c.763-.575 1.011-.593 1.707.003l1.162 1.03.792-.606zm-14.37-33.467c-.254-7.544.634-13.631.634-13.631l-5.177-.6-.043.874c2.776.913 3.772 1.662 3.624 4.661-.056 1.125-.117 1.847-.294 2.39-.202.517-.74.69-1.845.637l-5.453-.266.137-2.774c.088-1.774.577-2.001 2.327-2.241l.044-.874-5.63-.274-.043.874c1.717.409 2.208.684 2.12 2.457l-.137 2.774-5.755-.281c-.729-.035-.897-.194-.86-.943l.103-2.074c.132-2.673 1.036-3.131 3.579-3.607l.044-.9-4.448-.217-.649 13.167.88.043c.195-1.92.278-2.066 1.61-2l12.615.615c1.332.065 1.612.218 1.618 2.147 0 0 .547.046 1.001.043zm-6.792 11.628l5.866-1.788c1.273-.395 1.39-.275 2.064 1.535l.9-.271s-1.138-3.669-1.673-7.353c-.43.095-.909.164-.909.164.195 1.691-.143 2.234-1.416 2.629l-11.966 3.571c-1.273.396-1.361.269-2.033-1.54l-.841.261 2.105 7.322.841-.261c-.481-1.868-.425-2.039.848-2.436l5.152-1.535 2.226 7.14-5.113 1.744c-1.272.395-1.39.274-2.062-1.535l-.841.261 2.438 7.291.841-.26c-.481-1.869-.547-2.201.726-2.597l12.115-3.935c1.273-.395 1.691-.075 2.499 1.393 0 0 .457-.279.843-.414-1.856-3.67-2.834-6.944-2.834-6.944l-.89.331c.481 1.869.454 2.035-.819 2.43l-5.845 1.907-2.22-7.11zm5.431-44.729l.643-1.19c.642-1.19 1.534-1.679 3.009-1.289.827.214 2.331.761 3.583 1.033 2.093.456 3.192-.738 4.132-2 .762-1.024.954-1.257 1.181-1.592-.367-.237-.775-.534-.775-.534-.26.429-1.318 1.573-4.653.43-2.017-.708-3.706-1.07-5.52.914l-.044-.024c.822-2.315.236-4.615-1.781-5.692-2.15-1.147-4.557-.814-6.687 3.131l-3.94 7.536.775.414c1.005-1.649 1.083-1.807 2.257-1.179l11.188 5.759c1.176.627 1.515 1.021.784 2.819l.836.413s1.528-4.103 3.176-6.948c-.388-.214-.836-.444-.836-.444-1.005 1.649-1.143 1.746-2.317 1.119l-5.01-2.674zm-.932-.497l-5.469-2.706c-.71-.379-.859-.685-.156-1.987.833-1.542 2.375-2.721 4.77-1.442 2.017 1.076 2.759 2.609 1.569 4.813l-.714 1.322zm14.461-5.683c1.808-2.406 3.795-4.357 3.795-4.357l-.718-.7-1.084.932c-.493.391-.731.177-1.052-.381-.725-1.244-1.338-2.627-2.092-4.12l3.762-3.508 3.984 2.144c.577.32.82.682.395 1.146l-.933.95.673.625s3.037-2.684 5.772-4.618c-.362-.395-.718-.765-.718-.765-1.014.694-1.617.777-2.683.194l-14.139-7.566-1.964 1.831 3.486 7.793c1.046 2.352 2.244 4.939 2.969 6.731.478 1.165.677 2.065-.219 3.072 0 0 .491.323.763.597zm-1.632-9.685c-.399-.863-2.684-5.625-3.033-6.398l.055-.051 6.209 3.437-3.231 3.012zm20.503-20.025l-1.714-3.511c-1.371-.172-3.176.31-4.558.977-3.711 1.792-4.565 4.568-3.302 7.156 1.275 2.61 4.165 2.8 6.722 2.595l.596-.038c1.87-.124 3.463.275 4.254 1.895.857 1.755.198 3.213-1.499 4.033-1.855.896-4.243.074-6.331-2.255l-.792.383 2.184 3.728c1.603.477 3.885-.179 5.4-.911 4.357-2.132 4.64-5.16 3.454-7.591-1.264-2.587-3.689-2.974-6.235-2.802l-.811.058c-1.756.125-3.827.124-4.629-1.519-.726-1.485-.225-2.979 1.382-3.754 1.539-.743 3.335-.331 5.109 1.927l.77-.371zm22.434-.683l.666 6.064c.152 1.318.01 1.409-1.903 1.727l.099.931s3.838-.424 7.577-.254c-.014-.438.008-.918.008-.918-1.706-.126-2.179-.559-2.33-1.877l-1.282-12.356c-.152-1.318-.01-1.379 1.904-1.697l-.101-.87-7.628.682.099.87c1.937-.119 2.095-.032 2.247 1.286l.551 5.319-7.471.834-.763-5.321c-.151-1.317-.01-1.409 1.904-1.727l-.1-.87-7.661 1.014.099.87c1.937-.12 2.277-.121 2.429 1.196l1.614 12.569c.151 1.318-.244 1.665-1.847 2.178 0 0 .192.499.252.901 3.973-1.125 7.391-1.466 7.391-1.466l-.159-.93c-1.937.119-2.096.061-2.247-1.256l-.787-6.066 7.441-.833zm18.678-4.952c.241-1.304.403-1.35 2.326-1.102l.159-.861-7.522-1.374-.159.862c1.886.446 2.022.547 1.78 1.851l-2.28 12.351c-.241 1.304-.404 1.35-2.327 1.101l-.189.921s3.448.412 7.553 1.374l.159-.921c-1.887-.446-2.022-.547-1.78-1.852l2.28-12.351zm26.799 14.161l2.107-3.293c-.571-1.251-1.932-2.526-3.228-3.345-3.481-2.202-6.305-1.469-7.858.958-1.567 2.449-.214 4.995 1.303 7.051l.347.485c1.085 1.517 1.58 3.075.607 4.595-1.053 1.647-2.647 1.854-4.238.847-1.742-1.101-2.29-3.552-1.392-6.542l-.743-.47-2.046 3.805c.432 1.608 2.19 3.194 3.613 4.093 4.11 2.57 6.852 1.221 8.31-1.059 1.554-2.427.611-4.683-.871-6.747l-.475-.656c-1.028-1.421-2.113-3.175-1.128-4.716.891-1.393 2.433-1.753 3.94-.799 1.443.913 2.032 2.65 1.029 5.336l.722.457zm11.691 22.344l-.563-.673c-2.638 1.071-4.983 1.512-6.897-.779-3.037-3.638.492-7.558 2.739-9.413 2.05-1.693 6.592-4.401 9.533-.879 1.913 2.291 1.097 4.525-.289 6.352l.563.674 3.31-2.732c-.287-1.519-1.581-3.54-2.625-4.791-2.138-2.56-4.398-3.817-6.601-3.949-2.243-.1-4.47.796-6.638 2.586-2.209 1.822-3.458 3.927-3.612 6.134-.122 2.085.797 4.284 2.694 6.556 1.174 1.405 3.091 3.075 4.611 3.641l3.775-2.726zm3.641 35.383c-.075 2.826.702 4.924 2.223 6.39 1.497 1.465 3.767 2.25 6.634 2.324 2.868.075 5.176-.591 6.748-1.977 1.596-1.385 2.482-3.439 2.555-6.266.073-2.799-.701-4.922-2.224-6.362-1.497-1.466-3.766-2.275-6.634-2.35-2.868-.074-5.176.617-6.748 2.003-1.596 1.36-2.481 3.44-2.554 6.239zm1.055.028c.104-3.925 4.623-4.458 8.145-4.418 3.394.138 8.007.909 7.903 4.833-.103 3.927-4.748 4.457-8.145 4.42-3.52-.141-8.006-.907-7.903-4.835zm-4.848 18.963c-1.022 2.637-.999 4.872-.058 6.76.916 1.88 2.79 3.375 5.467 4.401 2.676 1.025 5.075 1.167 7.023.386 1.971-.774 3.497-2.415 4.519-5.053 1.014-2.614.999-4.873.05-6.737-.916-1.88-2.782-3.398-5.458-4.424-2.676-1.026-5.085-1.146-7.033-.364-1.963.75-3.497 2.414-4.511 5.03zm.986.378c1.421-3.667 5.859-2.661 9.164-1.448 3.151 1.26 7.237 3.524 5.815 7.188-1.419 3.665-5.976 2.617-9.163 1.449-3.269-1.307-7.236-3.524-5.816-7.189zm-6.209 10.529s-4.042 5.774-8.697 10.191c1.446 1.333 3.94 3.595 3.94 3.595l.579-.691c-1.663-2.355-2.075-3.563-.271-5.715.595-.712 1.082-1.253 1.552-1.579.474-.291 1.008-.109 1.859.596l9.29 7.651c1.024.849.986 1.013-.273 2.672l.676.559 4.992-5.956-.675-.56c-1.318 1.416-1.472 1.482-2.496.633l-9.703-8.038c-.921-.715-.921-1.276.056-2.707l-.829-.651zm-76.274 17.399c-.158-.016-.288 0-.389.044-.162.226-.333.49-.511.798-.178.305-.346.618-.503.939-.157.32-.291.627-.403.925-.113.297-.183.544-.21.742-.042.3-.01.56.096.78.106.223.281.429.519.62.241.192.544.382.909.567l1.248.622c.265.13.489.256.667.375.181.119.321.237.423.359.101.12.169.251.204.39.033.14.037.302.012.488-.027.197-.08.447-.158.748-.077.301-.177.631-.298.994-.121.36-.258.741-.408 1.145-.153.404-.314.806-.487 1.206.322.234.699.427 1.129.58 1.05-1.764 1.85-3.271 2.396-4.517.546-1.244.866-2.216.963-2.909.04-.291.015-.545-.072-.763-.088-.218-.238-.421-.449-.61-.211-.188-.477-.365-.798-.532-.32-.168-.693-.352-1.115-.552-.434-.202-.8-.382-1.099-.54-.298-.159-.539-.322-.725-.489-.183-.166-.313-.356-.392-.567-.077-.21-.118-.475-.123-.793l-.427-.051zm23.14 13.763c-.167.435-.384.917-.648 1.437-.267.52-.574 1.072-.921 1.652-.348.577-.722 1.161-1.123 1.748-.403.586-.819 1.16-1.253 1.72-.434.561-.866 1.08-1.293 1.559-.185-.611-.373-1.246-.565-1.905-.193-.659-.365-1.316-.516-1.97-.152-.655-.27-1.289-.354-1.903-.085-.617-.105-1.184-.061-1.707.031-.37.099-.731.204-1.079.105-.348.223-.683.356-1.004.133-.323.277-.625.427-.903l.416-.755c.191-.323.353-.612.485-.863.133-.253.207-.47.222-.656.035-.43-.429-.924-1.394-1.482-.437-.246-.779-.447-1.025-.601-.247-.153-.431-.291-.556-.415-.125-.12-.207-.243-.243-.369-.037-.126-.059-.283-.067-.471l-.162-.065-.241-.054-.245-.031-.151.014c-.206.229-.419.493-.638.789-.219.298-.421.596-.611.896-.19.301-.349.586-.477.857-.128.268-.198.497-.214.684-.018.208.018.397.102.568.086.171.211.333.373.486.164.155.364.307.597.462l.77.492.586.397c.154.108.27.204.345.293.075.089.114.176.118.263.005.087-.022.194-.077.318-.205.475-.381.945-.532 1.412-.15.466-.247.967-.292 1.502-.054.662-.069 1.371-.044 2.126.026.756.095 1.585.209 2.487.113.906.273 1.888.479 2.949.206 1.064.462 2.234.767 3.509.112.08.246.147.407.209.159.058.313.106.463.143.234.018.586.018 1.059-.002.471-.02 1.008-.058 1.614-.114.603-.055 1.249-.128 1.938-.217.689-.09 1.37-.193 2.044-.306.673-.114 1.31-.245 1.91-.387.599-.142 1.118-.296 1.554-.461.485-.182 1.026-.605 1.622-1.271.595-.663 1.195-1.461 1.8-2.393.607-.932 1.201-1.938 1.785-3.018.584-1.079 1.102-2.121 1.562-3.123.459-1.004.833-1.907 1.124-2.713.289-.806.45-1.407.483-1.802.026-.312-.105-.601-.395-.865-.29-.261-.724-.525-1.302-.781-.362-.158-.665-.291-.909-.406-.243-.114-.442-.235-.597-.365-.153-.13-.268-.274-.341-.433-.076-.158-.127-.366-.152-.624l-.173-.04-.245-.029-.228-.002-.16.023c-.151.245-.308.518-.474.82-.166.301-.324.612-.474.926-.149.315-.275.626-.376.933-.102.307-.164.587-.184.844-.02.232.014.433.099.605.087.172.213.323.378.461.164.135.359.259.586.372.225.111.47.225.73.339.509.24.844.446 1.006.618.162.169.235.353.219.551-.01.117-.093.371-.249.761-.155.39-.362.849-.625 1.376-.261.527-.567 1.091-.915 1.687-.349.597-.719 1.166-1.111 1.706-.392.542-.799 1.019-1.22 1.435-.422.415-.833.7-1.233.854-.389.143-.895.287-1.517.428-.622.142-1.295.268-2.015.38-.721.11-1.447.202-2.183.276-.735.073-1.403.128-2.005.161.572-.655 1.145-1.363 1.719-2.129.575-.767 1.125-1.55 1.65-2.355.525-.805 1.019-1.608 1.485-2.412.468-.803.874-1.571 1.222-2.302.348-.731.631-1.412.848-2.043.216-.629.344-1.177.383-1.642.01-.269-.099-.495-.33-.685-.232-.188-.603-.402-1.111-.642-.453-.225-.8-.416-1.046-.576-.246-.162-.43-.313-.553-.458-.122-.144-.199-.288-.229-.432-.03-.14-.053-.312-.072-.512l-.164-.049-.252-.039c-.186-.016-.317-.014-.388.003-.185.243-.373.523-.563.84-.192.316-.368.635-.529.956-.161.32-.296.625-.402.914-.106.29-.167.527-.182.713-.019.22.009.413.086.576.074.164.186.314.331.449.149.134.322.256.517.365l.632.35.583.32c.152.089.273.172.367.251.093.077.156.158.192.243.035.084.047.18.039.282-.024.279-.119.637-.283 1.074zm17.9-8.206c-.125.071-.233.159-.323.254.005.415.019.823.041 1.219.023.397.052.758.086 1.08.033.323.067.601.107.836.037.232.074.399.112.498.148.387.35.663.609.826.26.161.553.246.88.25.326.004.682-.049 1.066-.162.383-.114.777-.246 1.179-.395l5.839-2.192c1.18-.443 2.128-.503 2.836-.18.71.322 1.236.971 1.579 1.943.141.404.262.771.359 1.101.101.333.226.718.375 1.161.149.444.342.995.576 1.646.235.654.55 1.502.945 2.542.126.335.281.727.465 1.176.185.45.376.904.571 1.354l.558 1.264c.172.391.31.687.414.891.313-.081.62-.195.921-.346.087-.375.192-.784.315-1.231.124-.445.252-.864.386-1.255.06-.176.09-.326.094-.454.001-.128-.037-.297-.117-.507-.084-.222-.238-.52-.462-.893-.225-.372-.458-.777-.701-1.219-.475-.847-.951-1.724-1.428-2.627-.477-.906-.901-1.844-1.271-2.821-.177-.465-.315-.852-.414-1.165-.099-.312-.186-.597-.259-.861-.096-.346-.203-.679-.324-1.001-.296-.777-.66-1.386-1.097-1.832-.436-.443-.931-.752-1.488-.925-.554-.172-1.156-.217-1.802-.139-.646.078-1.32.247-2.023.511l-4.952 1.858c-.379.143-.713.252-1.004.329-.288.077-.556.108-.805.094-.248-.016-.488-.083-.718-.206-.232-.122-.48-.317-.748-.585-.126.035-.252.09-.378.162zm50.784-72.081l-5.826 1.915c-1.263.423-1.382.304-2.095-1.49l-.895.29s1.219 3.643 1.833 7.315c.428-.105.904-.184.904-.184-.231-1.687.095-2.236 1.359-2.658l11.885-3.828c1.264-.424 1.355-.299 2.066 1.496l.835-.279-2.263-7.275-.835.278c.522 1.859.469 2.03-.795 2.454l-5.118 1.646-2.38-7.091 5.075-1.853c1.263-.422 1.384-.304 2.096 1.491l.835-.279-2.596-7.238-.836.279c.522 1.858.595 2.188-.669 2.611l-12.026 4.194c-1.265.423-1.689.111-2.528-1.339 0 0-.451.289-.835.432 1.937 3.629 2.986 6.881 2.986 6.881l.882-.349c-.521-1.859-.498-2.025.766-2.447l5.802-2.032 2.374 7.06z" sketch:type="MSShapeGroup" fill="#fff"/></svg>