<svg width="415" height="150" viewBox="0 0 415 150" xmlns="http://www.w3.org/2000/svg"><g fill="#45548A"><path d="M384.711 106h-332.639c-1.144 0-2.073.894-2.073 2 0 1.104.929 2 2.073 2h332.927c-.228-.897-.344-1.873-.344-2.928 0-.365.019-.722.055-1.072z"/><path d="M63.977 102.101c2.077 0 2.96-.608 3.375-2.13l6.802-21.196 6.49 21.196c.467 1.521 1.402 2.13 3.479 2.13 2.285 0 3.271-.558 3.635-2.079l7.736-29.816c.104-.254-1.038-1.471-3.012-1.471-1.506 0-2.492.862-2.96 2.992l-5.556 24.086-6.283-20.537c-.519-1.572-1.454-2.383-3.531-2.383s-3.115.811-3.531 2.383l-6.386 20.638-5.452-24.137c-.519-2.231-1.713-3.042-3.115-3.042-2.077 0-3.219 1.217-3.167 1.471l7.84 29.816c.363 1.572 1.35 2.079 3.635 2.079zm36.9-24.607c-1.04 0-1.872.402-1.872.552v21.691c0 1.808.936 2.36 2.288 2.36h.572c1.3 0 2.288-.552 2.288-2.36v-8.486c0-5.573 1.612-9.389 5.668-9.389 1.404 0 2.392.452 3.172 1.054.104.1 1.56-.653 1.56-2.561 0-2.008-1.508-3.214-4.108-3.214-3.172 0-5.252 1.607-6.344 4.569-.052-3.414-1.716-4.218-3.224-4.218zm18.628-4.921c1.932 0 3-.954 3-2.762s-1.068-2.812-2.949-2.812c-1.932 0-3.051 1.004-3.051 2.812 0 1.757 1.119 2.762 3 2.762zm-.227 29.524h.505c1.313 0 2.222-.552 2.222-2.36v-19.833c0-1.858-.909-2.41-2.222-2.41h-.505c-1.313 0-2.273.603-2.273 2.41v19.833c0 1.808.96 2.36 2.273 2.36zm7.963-20.285h1.82v12.754c0 5.222 2.34 7.984 7.488 7.984 3.692 0 5.824-1.808 5.824-3.665 0-1.557-1.3-2.26-1.456-2.109-.78 1.004-1.924 1.707-3.536 1.707-2.444 0-3.328-1.456-3.328-4.469v-12.201h5.668c1.612 0 2.236-.653 2.236-1.908v-.351c0-1.205-.572-1.808-2.184-1.808h-5.668v-3.716c0-1.858-.884-2.36-2.236-2.36h-.52c-1.404 0-2.288.653-2.288 2.36v3.716h-1.82c-1.612 0-2.236.653-2.236 1.858v.351c0 1.205.624 1.858 2.236 1.858zm31 20.737c6.812 0 10.66-3.364 10.66-5.473s-2.6-2.561-2.704-2.46c-1.3 2.159-3.484 4.017-7.852 4.017-4.732 0-8.164-3.013-8.528-7.481h18.46c1.196 0 1.56-.402 1.56-1.456v-.402c0-7.23-4.784-12.151-12.012-12.151-7.384 0-12.792 5.473-12.792 12.804 0 7.532 5.304 12.603 13.208 12.603zm-.468-21.641c4.16 0 6.812 2.711 7.072 6.879h-14.976c.624-4.017 3.796-6.879 7.904-6.879zm28.732 21.624c7.767 0 12.5-3.716 12.5-9.692 0-6.277-5.453-8.437-11.111-9.692-4.63-1.055-7.87-1.607-7.87-5.173 0-3.013 2.726-4.972 6.893-4.972 3.858 0 7.15 1.908 8.899 4.369.103.151 2.469-1.004 2.469-2.863 0-2.36-4.012-5.775-11.42-5.775-7.099 0-11.986 3.917-11.986 9.441 0 6.579 5.35 8.336 10.494 9.491 4.424 1.004 8.333 1.858 8.333 5.524 0 3.214-2.623 5.072-7.253 5.072-4.578 0-8.128-2.26-10.031-4.972-.154-.201-2.418 1.055-2.418 2.762 0 2.662 4.475 6.478 12.5 6.478zm29.5.017c7.635 0 13-5.272 13-12.653 0-7.431-5.365-12.754-12.948-12.754-7.687 0-13.052 5.272-13.052 12.653 0 7.481 5.313 12.754 13 12.754zm.072-4.067c-4.784 0-8.372-3.716-8.372-8.687 0-4.971 3.588-8.586 8.372-8.586 4.836 0 8.32 3.665 8.32 8.687 0 4.921-3.536 8.586-8.32 8.586zm18.795-20.988c-1.037 0-1.867.402-1.867.552v21.691c0 1.808.934 2.36 2.282 2.36h.57c1.297 0 2.282-.552 2.282-2.36v-14.21c1.245-2.41 3.682-4.017 6.275-4.017 3.682 0 5.497 2.109 5.497 6.377v11.85c0 1.808.985 2.36 2.334 2.36h.519c1.348 0 2.282-.552 2.282-2.36v-14.21c1.297-2.41 3.682-4.017 6.327-4.017 3.682 0 5.497 2.109 5.497 6.176v12.051c0 1.808.934 2.36 2.334 2.36h.519c1.348 0 2.282-.552 2.282-2.36v-12.653c0-6.226-3.06-9.942-9.387-9.942-4.149 0-6.949 2.26-8.661 5.071-1.297-3.214-4.097-5.071-8.142-5.071-3.423 0-6.016 1.707-7.727 4.067-.207-3.013-1.763-3.716-3.215-3.716zm55.341 25.055c6.812 0 10.66-3.364 10.66-5.473s-2.6-2.561-2.704-2.46c-1.3 2.159-3.484 4.017-7.852 4.017-4.732 0-8.164-3.013-8.528-7.481h18.46c1.196 0 1.56-.402 1.56-1.456v-.402c0-7.23-4.784-12.151-12.012-12.151-7.384 0-12.792 5.473-12.792 12.804 0 7.532 5.304 12.603 13.208 12.603zm-.484-21.641c4.16 0 6.812 2.711 7.072 6.879h-14.976c.624-4.017 3.796-6.879 7.904-6.879zm15.512.904h1.82v12.754c0 5.222 2.34 7.984 7.488 7.984 3.692 0 5.824-1.808 5.824-3.665 0-1.557-1.3-2.26-1.456-2.109-.78 1.004-1.924 1.707-3.536 1.707-2.444 0-3.328-1.456-3.328-4.469v-12.201h5.668c1.612 0 2.236-.653 2.236-1.908v-.351c0-1.205-.572-1.808-2.184-1.808h-5.668v-3.716c0-1.858-.884-2.36-2.236-2.36h-.52c-1.404 0-2.288.653-2.288 2.36v3.716h-1.82c-1.612 0-2.236.653-2.236 1.858v.351c0 1.205.624 1.858 2.236 1.858zm24.892-10.143c0-3.465-1.709-4.268-3.264-4.268-1.036 0-1.865.402-1.865.552v31.784c0 1.808.932 2.36 2.279 2.36h.57c1.295 0 2.279-.552 2.279-2.36v-11.147c0-4.368 2.745-7.08 6.993-7.08 3.574 0 5.75 2.46 5.75 6.628v11.599c0 1.808.932 2.36 2.279 2.36h.57c1.295 0 2.279-.552 2.279-2.36v-12.151c0-6.025-3.056-10.444-9.635-10.444-3.885 0-6.579 1.858-8.236 4.419v-9.892zm25.372.904c1.932 0 3-.954 3-2.762s-1.068-2.812-2.949-2.812c-1.932 0-3.051 1.004-3.051 2.812 0 1.757 1.119 2.762 3 2.762zm-.227 29.519h.505c1.313 0 2.222-.552 2.222-2.36v-19.833c0-1.858-.909-2.41-2.222-2.41h-.505c-1.313 0-2.273.603-2.273 2.41v19.833c0 1.808.96 2.36 2.273 2.36zm9.592-24.598c-1.036 0-1.865.402-1.865.552v21.691c0 1.808.932 2.36 2.279 2.36h.57c1.295 0 2.279-.552 2.279-2.36v-14.009c1.243-2.511 3.73-4.218 6.993-4.218 3.626 0 5.75 2.511 5.75 6.578v11.649c0 1.808.932 2.36 2.279 2.36h.57c1.295 0 2.279-.552 2.279-2.36v-12.252c0-5.975-3.056-10.344-9.635-10.344-3.833 0-6.579 1.808-8.288 4.268-.155-3.163-1.709-3.916-3.212-3.916zm36.12 36.506c8.268 0 13.104-2.914 13.104-7.65 0-4.111-3.744-5.881-7.28-6.817-4.368-1.093-6.76-1.249-6.76-2.862 0-.312.052-.572.26-.885h.936c6.344 0 10.816-3.851 10.816-9.107 0-2.082-.832-4.007-2.184-5.568l4.264-4.423c.156-.104-.728-2.186-2.652-2.186-1.3 0-2.132.624-2.964 1.978l-1.352 2.394c-1.716-.937-3.796-1.509-5.98-1.509-6.188 0-10.712 4.215-10.712 9.471 0 3.903 2.548 7.077 6.552 8.326-.832.729-1.404 1.665-1.404 2.706s.364 1.821.988 2.342c-4.524.781-7.956 3.226-7.956 6.869 0 4.684 3.9 6.921 12.324 6.921zm.26-21.597c-3.432 0-5.876-2.29-5.876-5.672 0-3.383 2.392-5.672 5.772-5.672 3.536 0 5.928 2.342 5.928 5.672 0 3.383-2.392 5.672-5.824 5.672zm7.852 14.103c0 2.498-2.964 3.903-8.008 3.903-4.94 0-7.488-1.249-7.488-3.487 0-2.654 3.536-4.163 7.8-4.423 3.692.937 7.696 1.457 7.696 4.007z"/><path d="M45.848 105.526l-6.914-20.74-24.634-24.496c-.186-.186-.44-.29-.704-.29h-5.76c-.53 0-1.039.211-1.414.585l-6.128 6.123c-.188.186-.294.442-.294.706v6.174c0 .264.106.518.292.704l24.502 24.636 20.737 6.914c.196.065.382-.121.317-.316zm-8.92-18.776l3.872 11.613-1.209 1.207-1.222 1.224-11.613-3.872 10.172-10.172z"/></g></svg>
