<svg width="60" height="60" viewBox="0 0 60 60" xmlns="http://www.w3.org/2000/svg"><title>brand-strategy-inverted-icon</title><desc>Created with Sketch.</desc><path d="M22.318 14c-.097 0-.188.025-.273.074l-8.735 4.714c-.206.098-.309.27-.309.516v27.107c0 .16.058.298.173.414.115.117.252.175.409.175.097 0 .188-.025.273-.074l8.735-4.714c.206-.098.309-.27.309-.516v-27.107c0-.16-.058-.298-.173-.414-.115-.117-.252-.175-.409-.175zm23.1 0c-.097 0-.188.025-.273.074l-8.735 4.714c-.206.098-.309.27-.309.516v27.107c0 .16.058.298.173.414.115.117.252.175.409.175.097 0 .188-.025.273-.074l8.735-4.714c.206-.098.309-.27.309-.516v-27.107c0-.16-.058-.298-.173-.414-.115-.117-.252-.175-.409-.175zm-20.318 0c-.149 0-.278.058-.387.175-.109.117-.163.255-.163.414v27.107c0 .233.103.411.309.534l8.8 4.714c.069.037.149.055.241.055.149 0 .278-.058.387-.175.109-.117.163-.255.163-.414v-27.107c0-.233-.103-.411-.309-.534l-8.8-4.714c-.069-.037-.149-.055-.241-.055z" fill-rule="nonzero" fill="#fff"/></svg>