<svg width="60" height="60" viewBox="0 0 60 60" xmlns="http://www.w3.org/2000/svg" xmlns:xlink="http://www.w3.org/1999/xlink"><title>brand-strategy-icon-linked</title><desc>Created with Sketch.</desc><defs><radialGradient cy="0%" fx="50%" fy="0%" r="100%" id="d"><stop stop-color="#fff" offset="0%"/><stop stop-color="#2629A8" offset="100%"/></radialGradient><circle id="a" cx="30" cy="30" r="30"/><mask id="c" x="0" y="0" width="60" height="60"><use xlink:href="#a"/></mask><path d="M22.318 14c.158 0 .294.058.409.175.115.117.173.255.173.414v27.107c0 .246-.103.417-.309.516l-8.735 4.714c-.085.049-.176.074-.273.074-.158 0-.294-.058-.409-.175-.115-.117-.173-.255-.173-.414v-27.107c0-.246.103-.417.309-.516l8.735-4.714c.085-.049.176-.074.273-.074zm23.1 0c.158 0 .294.058.409.175.115.117.173.255.173.414v27.107c0 .246-.103.417-.309.516l-8.735 4.714c-.085.049-.176.074-.273.074-.158 0-.294-.058-.409-.175-.115-.117-.173-.255-.173-.414v-27.107c0-.246.103-.417.309-.516l8.735-4.714c.085-.049.176-.074.273-.074zm-20.318 0c.092 0 .172.018.241.055l8.8 4.714c.206.123.309.301.309.534v27.107c0 .16-.054.298-.163.414-.109.117-.238.175-.387.175-.092 0-.172-.018-.241-.055l-8.8-4.714c-.206-.123-.309-.301-.309-.534v-27.107c0-.16.054-.298.163-.414.109-.117.238-.175.387-.175z" id="b"/><mask id="e" x="-1" y="-1" width="35" height="35"><path fill="#fff" d="M12 13h35v35h-35z"/><use xlink:href="#b"/></mask></defs><g fill="none"><g><use fill="#2629A8" xlink:href="#a"/><use stroke="#2629A8" mask="url(#c)" stroke-width="2" stroke-linecap="round" stroke-linejoin="round" fill-opacity=".15" fill="url(#d)" xlink:href="#a"/></g><g><use fill="#fff" xlink:href="#b"/><use stroke="#2629A8" mask="url(#e)" stroke-width="2" stroke-linecap="round" stroke-linejoin="round" xlink:href="#b"/></g></g></svg>