<svg width="60" height="60" viewBox="0 0 60 60" xmlns="http://www.w3.org/2000/svg"><title>brand-assets-inverted-icon</title><desc>Created with Sketch.</desc><path d="M26.185 33.182l-13.167-.015-.018 7.5c0 1.85 1.631 3.333 3.665 3.333h25.656c2.034 0 3.665-1.483 3.665-3.333v-7.5l-13.19.008v2.5l-6.611.008v-2.5zm-.001 1.5l1.001 1v-1.001l-1.001.001zm9.89-14.015v-3.333l-3.299-3.333h-6.597l-3.299 3.333v3.333h-6.581c-1.814 0-3.299 1.5-3.299 3.333v5l.029 2.447 13.166.053v-2.5h6.597v2.5l13.208.023-.014-2.523v-5c0-1.833-1.484-3.333-3.299-3.333h-6.614zm-3.282 1h-6.597c-.552 0-1-.448-1-1v-3.333c0-.552.448-1 1-1h6.597c.552 0 1 .448 1 1v3.333c0 .552-.448 1-1 1z" fill-rule="nonzero" fill="#fff"/></svg>