<svg width="60" height="60" viewBox="0 0 60 60" xmlns="http://www.w3.org/2000/svg" xmlns:xlink="http://www.w3.org/1999/xlink"><title>brand-experiences-icon</title><desc>Created with Sketch.</desc><defs><radialGradient cy="0%" fx="50%" fy="0%" r="100%" id="d"><stop stop-color="#fff" stop-opacity=".15" offset="0%"/><stop stop-color="#909090" stop-opacity="0" offset="100%"/></radialGradient><circle id="a" cx="30" cy="30" r="30"/><mask id="c" x="0" y="0" width="60" height="60"><use xlink:href="#a"/></mask><path d="M44.982 15.381l-4.857 28.286c-.063.356-.266.632-.607.829-.177.098-.373.147-.588.147-.139 0-.291-.031-.455-.092l-8.595-3.407-4.591 5.432c-.228.282-.538.424-.93.424-.164 0-.304-.025-.417-.074-.24-.086-.116-.214-.261-.417-.145-.203-.218-.427-.218-.672v-6.427l16.075-19.518-20.282 17.034-7.494-2.983c-.468-.172-.721-.509-.759-1.013-.025-.491.177-.853.607-1.086l31.571-17.679c.19-.11.392-.166.607-.166.253 0 .481.068.683.203.417.295.588.687.512 1.179z" id="b"/><mask id="e" x="-1" y="-1" width="36" height="35"><path fill="#fff" d="M10 13h36v35h-36z"/><use xlink:href="#b"/></mask></defs><g fill="none"><g><use fill="#5FCAB4" xlink:href="#a"/><use stroke="#5FCAB4" mask="url(#c)" stroke-width="2" stroke-linecap="round" stroke-linejoin="round" fill="url(#d)" xlink:href="#a"/></g><g><use fill="#fff" xlink:href="#b"/><use stroke="#5FCAB4" mask="url(#e)" stroke-width="2" stroke-linecap="round" stroke-linejoin="round" xlink:href="#b"/></g></g></svg>