<svg width="60" height="60" viewBox="0 0 60 60" xmlns="http://www.w3.org/2000/svg"><title>brand-experiences-inverted-icon</title><desc>Created with Sketch.</desc><path d="M44.982 15.381c.076-.491-.095-.884-.512-1.179-.202-.135-.43-.203-.683-.203-.215 0-.417.055-.607.166l-31.571 17.679c-.43.233-.632.595-.607 1.086.038.503.291.841.759 1.013l7.494 2.983 20.282-17.034-16.075 19.518v6.427c0 .246.073.47.218.672.145.203.021.331.261.417.114.049.253.074.417.074.392 0 .702-.141.93-.424l4.591-5.432 8.595 3.407c.164.061.316.092.455.092.215 0 .411-.049.588-.147.342-.196.544-.473.607-.829l4.857-28.286z" fill-rule="nonzero" fill="#fff"/></svg>