<svg width="60" height="60" viewBox="0 0 60 60" xmlns="http://www.w3.org/2000/svg" xmlns:xlink="http://www.w3.org/1999/xlink"><title>brand-assets-icon</title><desc>Created with Sketch.</desc><defs><radialGradient cy="0%" fx="50%" fy="0%" r="100%" id="d"><stop stop-color="#fff" stop-opacity=".15" offset="0%"/><stop stop-color="#909090" stop-opacity="0" offset="100%"/></radialGradient><circle id="a" cx="30" cy="30" r="30"/><mask id="c" x="0" y="0" width="60" height="60"><use xlink:href="#a"/></mask><path d="M26.185 33.182l-13.167-.015-.018 7.5c0 1.85 1.631 3.333 3.665 3.333h25.656c2.034 0 3.665-1.483 3.665-3.333v-7.5l-13.19.008v2.5l-6.611.008v-2.5zm9.889-12.515v-3.333l-3.299-3.333h-6.597l-3.299 3.333v3.333h-6.581c-1.814 0-3.299 1.5-3.299 3.333v5l.029 2.447 13.166.053v-2.5h6.597v2.5l13.208.023-.014-2.523v-5c0-1.833-1.484-3.333-3.299-3.333h-6.614zm-3.282 0h-6.597v-3.333h6.597v3.333z" id="b"/><mask id="e" x="-1" y="-1" width="35" height="32"><path fill="#fff" d="M12 13h35v32h-35z"/><use xlink:href="#b"/></mask></defs><g fill="none"><g><use fill="#5FCAB4" xlink:href="#a"/><use stroke="#5FCAB4" mask="url(#c)" stroke-width="2" stroke-linecap="round" stroke-linejoin="round" fill="url(#d)" xlink:href="#a"/></g><g><use fill="#fff" xlink:href="#b"/><use stroke="#5FCAB4" mask="url(#e)" stroke-width="2" stroke-linecap="round" stroke-linejoin="round" xlink:href="#b"/></g></g></svg>