<svg width="137" height="21" viewBox="0 0 137 21" xmlns="http://www.w3.org/2000/svg"><path d="M132 0h5v1h-2v20h-1l-11-20v19h2v1h-5v-1h2v-19h-2v-1h6l8 13.727v-12.727h-2v-1zm-27 11h2.05l.3 1h-5.93l-2.7 8h2.785v1h-5.505v-1h1.854l6.926-20h1.938l6.45 20h1.353v1h-7.471c-.195 0 0-1 0-1h2.834l-5.349-16.996h-.057l-2.728 7.996h3.25zm-23.829 5.552l5.44-16.552h5.389v1h-2v19h2v1h-8v-1h3v-19l-6.539 20h-1.023l-6.438-20v19h2v1h-5v-1h2v-19h-2v-1h5.836l5.335 16.552zm-25.464-5.952l6.289 9.4h2.004v1h-4.969l-7.052-10.229v9.229h2.021v1h-7v-1h2v-19h-2v-1h8.629c1.243 0 2.295.139 3.156.425.853.285 1.546.653 2.072 1.118.526.465.9 1.004 1.14 1.608.239.612.359 1.249.359 1.918 0 1.477-.55 2.685-1.649 3.624-1.092.938-2.846 1.608-4.998 1.908zm-3.728-.6h1.753c1.777 0 3.092-.347 3.952-1.17.861-.823 1.291-1.978 1.291-3.479 0-.525-.072-1.041-.207-1.566-.143-.517-.375-.985-.717-1.397-.335-.403-.781-.742-1.331-1.001-.55-.258-1.235-.387-2.04-.387h-2.701v9zm-26.923-9h-2.056v-1h16v7.468h-.696c-.132-1.437-.34-2.677-.626-3.722-.294-1.045-.611-1.763-.967-2.171-.356-.4-.456-.469-.711-.575-.255-.098-.637 0-1 0h-7v8.77h3.407c.363 0 .681-.065.951-.196.263-.131.503-.359.719-.686.209-.318.394-.751.557-1.29.162-.531.219-.791.366-1.599h1v9h-1c-.147-.765-.204-1.29-.366-1.829-.162-.539-.348-.971-.557-1.29-.217-.326-.456-.555-.719-.686-.27-.131-.588-.196-.951-.196h-3.407v9h6.221c.779 0 1.422-.1 1.422-.1s.534-.271.766-.769c.232-.49.503-1.208.82-2.138.317-.93.688-2.53 1.106-4.791h.634v8.798h-15.969v-1h2.056v-19zm-15.056 9c2.096.196 3.677.602 4.784 1.532 1.108.93 1.666 2.089 1.666 3.485 0 .857-.183 1.641-.534 2.367-.359.735-.901 1.363-1.634 1.902-.733.539-1.658.955-2.773 1.257-1.116.302-2.438.457-3.984.457h-7.499v-1h2.016v-19h-2.016v-1h8.718c.948 0 1.809.122 2.574.359.773.245 1.426.579 1.961 1.004.534.424.948.93 1.243 1.518.295.588.446 1.224.446 1.91 0 .792-.143 1.477-.43 2.065-.287.588-.669 1.077-1.147 1.477-.47.392-.618.473-1.461.91-.843.438-1.315.658-1.929.756zm1.238 8.938c1.02-.706 1.531-1.946 1.531-3.714 0-1.418-.312-2.489-.964-3.181-.958-.827-1.526-1.042-6.804-1.042v9h1.44c2.181 0 3.777-.357 4.798-1.062zm-6.238-17.938v9h1.784c1.592 0 2.83-.468 3.677-1.154.847-.694 1.278-1.873 1.278-3.56 0-1.517-.33-2.615-.99-3.285-.669-.67-1.617-1.001-2.853-1.001h-2.895z" fill="#201F2D"/></svg>
