<svg width="291" height="66" viewBox="0 0 291 66" xmlns="http://www.w3.org/2000/svg"><g fill="none"><path d="M189.634 15.76c1.238 0 1.857.617 1.857 1.854v39.592c0 1.177-.619 1.856-1.857 1.856h-6.805c-1.175 0-1.855-.679-1.855-1.856v-39.592c0-1.237.68-1.854 1.855-1.854h6.805zm38.77-1.68h-31.675c-1.175 0-1.856.618-1.856 1.854v6.931c0 1.173.681 1.854 1.856 1.854h8.66c1.238 0 1.856.619 1.856 1.856v28.951c0 1.176.68 1.857 1.855 1.857h6.929c1.237 0 1.855-.681 1.855-1.857v-28.951c0-1.237.681-1.856 1.856-1.856h4.361c.93-3.798 2.472-7.381 4.527-10.625l-.226-.015zm31.258-8.616c1.927 1.611 2.158 4.162.565 6.078-.328.395-.748.704-1.217.894l.889 5.733c.55-.375 1.198-.658 1.942-.805l11.954-1.764.982-.13c6.147-.726 10.687.525 13.711 3.775-5.846-12.394-19.123-20.258-33.484-18.56-.321.038-.635.09-.952.137l5.609 4.642zm-28.825 11.209s6.01-.881 6.012-.883c2.89-.341 4.982 1.278 5.386 4.009l3.092 21.026c.108.732.433 2.931.82 3.457l.021-.006c.07-.007.286.006.662-.037.857-.126 1.063-.271 1.068-.274.168-.445-.17-2.724-.283-3.473l-4.016-25.796c-.591-.014-1.171-.196-1.67-.531-1.018-.684-1.691-1.671-1.894-2.782-.142-.763-.131-1.937.722-3.202l2.58-3.815c-5.366 2.886-9.787 7.198-12.808 12.382l.309-.074zm33.295 44.798l-1.69-10.664-.04.112c-1.466 3.305-4.935 7.501-13.141 8.709l-.782.103h-.005c-4.765.563-8.746-.285-11.783-2.375 6.787 6.23 16.142 9.582 26.009 8.416 1.343-.159 2.653-.406 3.935-.718-1.316-.655-2.262-1.933-2.503-3.582zm26.218-19.792c-2.36 3.114-6.242 5.028-11.859 5.852l-1.043.152 2.001 11.028c5.46-4.422 9.42-10.533 11.17-17.437l-.269.404zm-60.014 4.254l-3.123-21.241c-1.058 3.921-1.41 8.102-.904 12.383.7 5.924 2.947 11.285 6.278 15.743-1.092-1.931-1.861-4.226-2.251-6.885z" fill="#EA2227"/><path d="M23.271 28.55c-1.233.268-1.86-.278-2.066-1.513-.473-2.53-2.538-4.105-5.446-4.059-2.412.036-3.874 1.482-3.605 2.901.94 4.812 20.485 4.384 20.706 18.612.03 1.855-1.904 12.838-16.565 13.064-12.989.203-15.906-8.292-16.289-13.11-.079-1.115.466-1.803 1.575-2.069l6.966-1.653c1.234-.268 1.923.279 2.067 1.575.294 2.966 2.609 4.664 5.516 4.619 3.03-.048 5.231-1.877 4.834-3.541-1.258-5.239-19.858-3.776-20.079-18.002-.091-1.854.852-12.821 14.708-13.036 12.743-.199 15.841 8.044 16.28 12.492.08 1.113-.467 1.803-1.576 2.068l-7.027 1.653zm24.823-14.47c1.051 0 1.732.432 2.166 1.423l8.412 20.6c.248.557.743.434.743-.185v-19.982c0-1.236.681-1.854 1.856-1.854h6.927c1.238 0 1.857.618 1.857 1.854v39.593c0 1.176-.619 1.857-1.857 1.857h-9.092c-1.053 0-1.733-.435-2.166-1.423l-8.414-20.602c-.247-.557-.742-.433-.742.185v19.982c0 1.176-.619 1.857-1.855 1.857h-6.929c-1.175 0-1.855-.681-1.855-1.857v-39.593c0-1.236.68-1.854 1.855-1.854h9.094zm57.364 38.962c0 1.361-.618 2.104-1.855 2.104h-6.928c-1.176 0-1.857-.62-1.857-1.857v-5.382c0-1.237-.618-1.854-1.855-1.854h-5.32c-1.176 0-1.855.617-1.855 1.854v5.382c0 1.237-.619 1.857-1.857 1.857h-6.928c-1.175 0-1.855-.742-1.855-2.104v-26.231c0-7.794 1.237-16.084 15.157-16.084s15.156 8.29 15.156 16.084v26.231zm-10.641-26.231c0-2.968-.433-4.454-4.515-4.454-4.084 0-4.516 1.486-4.516 4.454v6.745c0 1.173.679 1.856 1.855 1.856h5.32c1.237-.063 1.855-.683 1.855-1.92v-6.681zm14.059.381c.062-4.084 1.097-15.018 15.756-14.793 13.177.202 15.082 9.079 15.256 13.845.047.867-.518 1.54-1.388 1.713l-6.888 1.44c-1.304.228-2.28-.655-2.447-1.954-.267-2.727-1.356-4.351-4.695-4.404-4.578-.07-4.932 2.833-5.005 7.595l-.137 8.908c-.073 4.762.192 7.674 4.769 7.746 3.402.052 4.355-1.543 4.77-4.382.206-1.296 1.208-2.086 2.44-1.756l6.965 1.651c.864.199 1.409.887 1.334 1.815-.32 4.699-2.498 13.513-15.673 13.31-14.66-.225-15.358-11.188-15.295-15.272l.238-15.463zm69.368 25.04c.898 1.218.366 2.22-1.119 2.258l-9.277.238c-.99.026-1.679-.329-2.258-1.18l-7.97-11.556c-.257-.365-.628-.354-.866.024l-2.447 3.527c-.18.253-.235.5-.227.809l.176 6.865c.03 1.177-.571 1.872-1.808 1.904l-7.051.18c-1.174.03-1.872-.633-1.903-1.808l-1.013-39.579c-.032-1.237.631-1.871 1.807-1.902l7.051-.182c1.237-.031 1.87.571 1.903 1.807l.318 12.431c.016.619.451.731.749.228l9.367-13.607c.536-.816 1.207-1.205 2.196-1.231l9.152-.235c1.546-.039 2.067.937 1.233 2.258l-12.053 17.512c-.176.316-.232.562.023.867l14.013 20.37zm96.009-33.538c9.543-1.403 14.006 2.105 15.3 10.901 1.291 8.799-1.969 13.44-11.517 14.845l-2.574.375c-1.018.15-1.531.775-1.375 1.848l2.36 12.998c.158 1.073-.3 1.689-1.374 1.846l-6.003.88c-1.023.151-1.696-.354-1.848-1.371l-6.134-38.69c-.158-1.071.297-1.687 1.364-1.9l11.802-1.734zm2.748 16.475c2.575-.378 3.815-.891 3.324-4.217-.49-3.325-1.822-3.458-4.395-3.08l-2.902.427c-1.015.149-1.529.771-1.37 1.845l.597 4.076c.152 1.019.829 1.523 1.847 1.374l2.898-.425zm-19.332-27.294l-7.289-6.032-.114-.072.031-.006-.186-.091-.25-.121-.146-.02-.26-.014-.25.087-.136.063-.198.182-.163.141.038-.004-.091.102-5.302 7.837c-.424.626-.336 1.204.323 1.644l2.55-.363v.036l4.484 28.794c.607 4.13.714 6.688-3.258 7.274-3.969.583-4.606-1.898-5.215-6.03l-3.089-21.025c-.162-1.072-.778-1.528-1.848-1.371l-6.009.883c-1.018.151-1.528.771-1.373 1.844l3.512 23.869c.518 3.538 2.664 12.923 15.376 11.054 12.714-1.868 12.071-11.474 11.552-15.014l-4.903-31.636 2.372-.339c.505-.607.424-1.187-.156-1.671z" fill="#0768B0"/></g></svg>
