<svg width="374" height="150" viewBox="0 0 374 150" xmlns="http://www.w3.org/2000/svg"><title>advancemedical-logo-white</title><desc>Created with Sketch.</desc><path d="M192.006 106.999h3.138v-46.019h-3.138v46.019zm14.568-27.249h5.056v1.949c.974-.982 1.805-1.646 2.494-1.992.734-.361 1.655-.541 2.764-.541 2.472 0 4.427 1.039 5.865 3.118 1.588-2.079 3.738-3.118 6.449-3.118 4.929 0 7.393 2.88 7.393 8.64v13.035h-5.079v-11.714c0-2.021-.255-3.45-.764-4.287-.524-.852-1.386-1.278-2.584-1.278-1.393 0-2.408.505-3.045 1.516-.637 1.01-.955 2.634-.955 4.872v10.892h-5.079v-11.649c0-3.753-1.124-5.63-3.371-5.63-1.423 0-2.461.512-3.112 1.537-.652 1.025-.978 2.642-.978 4.85v10.892h-5.056v-21.09zm58.428 11.693h-15.685c.135 1.732.719 3.111 1.753 4.136 1.034 1.01 2.359 1.516 3.977 1.516 1.258 0 2.3-.289 3.124-.866.809-.577 1.73-1.646 2.764-3.205l4.27 2.295c-.659 1.083-1.356 2.01-2.09 2.782-.734.772-1.521 1.407-2.359 1.905-.839.498-1.745.863-2.719 1.093-.974.231-2.03.346-3.168.346-3.266 0-5.887-1.01-7.865-3.031-1.977-2.035-2.966-4.735-2.966-8.098 0-3.335.959-6.034 2.876-8.098 1.933-2.035 4.494-3.053 7.685-3.053 3.221 0 5.768.989 7.64 2.966 1.858 1.963 2.786 4.684 2.786 8.163l-.022 1.148zm-5.191-3.984c-.704-2.598-2.404-3.898-5.101-3.898-.614 0-1.191.09-1.73.271-.539.18-1.03.44-1.472.78-.442.339-.82.747-1.135 1.223-.315.476-.554 1.018-.719 1.624h10.157zm28.945-24.387h5.079v37.769h-5.079v-2.209c-1.992 1.877-4.247 2.815-6.764 2.815-2.996 0-5.483-1.054-7.461-3.161-1.963-2.151-2.944-4.836-2.944-8.055 0-3.147.981-5.774 2.944-7.882 1.948-2.122 4.397-3.183 7.348-3.183 2.562 0 4.854 1.01 6.876 3.031v-19.125zm-12 27.158c0 2.021.562 3.667 1.685 4.937 1.154 1.285 2.607 1.927 4.359 1.927 1.873 0 3.386-.621 4.539-1.862 1.154-1.285 1.73-2.916 1.73-4.894 0-1.978-.577-3.609-1.73-4.894-1.154-1.256-2.652-1.884-4.494-1.884-1.738 0-3.191.635-4.359 1.905-1.154 1.285-1.73 2.873-1.73 4.764zm30.608-10.48v21.09h-5.056v-21.09h5.056zm-5.82-8.77c0-.852.322-1.588.966-2.209.644-.621 1.416-.931 2.315-.931.914 0 1.693.31 2.337.931.644.606.966 1.35.966 2.23 0 .881-.322 1.631-.966 2.252-.629.621-1.401.931-2.315.931-.914 0-1.693-.31-2.337-.931-.644-.621-.966-1.379-.966-2.274zm31.35 9.679v6.474c-1.154-1.357-2.187-2.288-3.101-2.793-.899-.52-1.955-.78-3.168-.78-1.903 0-3.483.642-4.741 1.927-1.258 1.285-1.888 2.894-1.888 4.829 0 1.978.607 3.602 1.82 4.872 1.228 1.27 2.794 1.905 4.697 1.905 1.213 0 2.285-.253 3.213-.758.899-.491 1.955-1.444 3.168-2.858v6.431c-2.052 1.025-4.105 1.537-6.157 1.537-3.386 0-6.217-1.054-8.494-3.161-2.277-2.122-3.416-4.756-3.416-7.903 0-3.147 1.154-5.803 3.461-7.968s5.138-3.248 8.494-3.248c2.157 0 4.195.498 6.112 1.494zm23.125-.909h5.079v21.09h-5.079v-2.209c-2.082 1.877-4.322 2.815-6.719 2.815-3.026 0-5.528-1.054-7.505-3.161-1.963-2.151-2.944-4.836-2.944-8.055 0-3.161.981-5.796 2.944-7.903 1.963-2.108 4.419-3.161 7.371-3.161 2.547 0 4.831 1.01 6.854 3.031v-2.447zm-12 10.48c0 2.021.562 3.667 1.685 4.937 1.154 1.285 2.607 1.927 4.359 1.927 1.873 0 3.386-.621 4.539-1.862 1.154-1.285 1.73-2.916 1.73-4.894 0-1.978-.577-3.609-1.73-4.894-1.154-1.256-2.652-1.884-4.494-1.884-1.738 0-3.191.635-4.359 1.905-1.154 1.285-1.73 2.873-1.73 4.764zm29.98-27.158v37.773h-5.23v-37.773h5.23zm-193.889 30.764l3.138 1.663c-.628 1.159-1.569 2.419-2.667 3.376-1.987 1.713-4.445 2.57-7.217 2.57-5.23 0-10.721-3.175-10.721-10.935 0-6.249 3.975-11.086 10.512-11.086 4.236 0 6.903 2.016 8.211 3.83 1.36 1.865 2.144 5.09 2.04 7.861h-16.892c.052 4.334 3.138 7.105 6.903 7.105 1.778 0 3.19-.504 4.445-1.512.994-.806 1.778-1.865 2.249-2.872zm-13.336-5.745h12.76c-.628-3.276-3.19-5.442-6.38-5.442s-5.805 2.318-6.38 5.442zm-10.773-6.652v4.334c-1.987-2.419-4.864-3.124-6.799-3.124-4.027 0-7.688 2.721-7.688 7.811s3.765 7.761 7.635 7.761c2.249 0 5.021-.957 7.008-3.276v4.334c-2.353 1.663-4.864 2.167-6.903 2.167-6.746 0-11.61-4.636-11.61-10.935 0-6.4 4.916-11.086 11.61-11.086 3.452 0 5.7 1.31 6.746 2.016zm-43.488 19.401v-20.913h3.765v2.419c.68-.857 2.615-2.923 6.223-2.923 2.563 0 4.916 1.008 6.223 2.872 1.098 1.562 1.255 3.276 1.255 5.594v12.951h-3.765v-12.85c0-1.26-.105-2.721-.994-3.83-.732-.907-1.883-1.512-3.556-1.512-1.307 0-2.719.353-3.818 1.613-1.464 1.663-1.569 4.132-1.569 5.644v10.935h-3.765zm-11.058-17.94v-2.973h3.765v20.913h-3.765v-2.923c-1.255 1.562-3.608 3.528-7.426 3.528-5.491 0-10.564-3.729-10.564-11.086 0-7.206 5.021-10.935 10.564-10.935 4.184 0 6.433 2.217 7.426 3.477zm-7.008-.252c-3.713 0-7.112 2.62-7.112 7.71 0 4.485 2.615 7.861 7.112 7.861 4.602 0 7.217-3.679 7.217-7.811 0-5.392-3.87-7.761-7.217-7.761zm-37.026-2.721h4.184l6.485 14.11 6.485-14.11h4.184l-10.669 22.274-10.669-22.274zm-9.832 2.973v-19.829h3.765v37.769h-3.765v-2.923c-1.255 1.562-3.608 3.528-7.426 3.528-5.491 0-10.564-3.729-10.564-11.086 0-7.206 5.021-10.935 10.564-10.935 4.184 0 6.433 2.217 7.426 3.477zm-7.008-.252c-3.713 0-7.112 2.62-7.112 7.71 0 4.485 2.615 7.861 7.112 7.861 4.602 0 7.217-3.679 7.217-7.811 0-5.392-3.87-7.761-7.217-7.761zm-22.592.252v-2.973h3.765v20.913h-3.765v-2.923c-1.255 1.562-3.608 3.528-7.426 3.528-5.491 0-10.564-3.729-10.564-11.086 0-7.206 5.021-10.935 10.564-10.935 4.184 0 6.433 2.217 7.426 3.477zm-7.008-.252c-3.713 0-7.112 2.62-7.112 7.71 0 4.485 2.615 7.861 7.112 7.861 4.602 0 7.217-3.679 7.217-7.811 0-5.392-3.87-7.761-7.217-7.761z" fill="#fff"/></svg>