<?xml version="1.0" encoding="UTF-8" standalone="no"?>
<svg width="269px" height="150px" viewBox="0 0 269 150" version="1.1" xmlns="http://www.w3.org/2000/svg" xmlns:xlink="http://www.w3.org/1999/xlink" xmlns:sketch="http://www.bohemiancoding.com/sketch/ns">
    <!-- Generator: Sketch 3.2 (9961) - http://www.bohemiancoding.com/sketch -->
    <title>logo</title>
    <desc>Created with Sketch.</desc>
    <defs></defs>
    <g id="client-logos" stroke="none" stroke-width="1" fill="none" fill-rule="evenodd" sketch:type="MSPage">
        <g id="logo" sketch:type="MSArtboardGroup" fill="#FFFFFF">
            <path d="M42.5043854,43.5054347 C43.0186317,45.3233072 44.2164644,46.8365566 45.8750021,47.7627589 C46.9769584,48.3769384 48.1760363,48.666762 49.3576821,48.666762 C51.8554498,48.666762 54.2797537,47.3730386 55.5908949,45.0729489 L75.7498473,9.59853586 C76.5056524,8.26288055 76.0312509,6.57327042 74.6864906,5.82342884 C73.3392401,5.0686541 71.6296513,5.54223825 70.871356,6.87789356 L50.7173841,42.3510733 C50.296524,43.0824155 49.3551918,43.3401736 48.6193091,42.9319539 C48.2631967,42.7321606 48.0079412,42.4065715 47.8958779,42.0156179 C47.7850597,41.623431 47.8361108,41.2115115 48.0403151,40.8587899 L65.5109921,10.1288515 C66.2742681,8.79566273 65.7961311,7.10728588 64.4501257,6.35497772 C63.1003849,5.60390285 61.398267,6.07502042 60.6374813,7.40820915 L43.1618237,38.1369143 C42.2254721,39.782126 41.9913842,41.6875622 42.5043854,43.5054347 L42.5043854,43.5054347 Z M41.1309867,56.1602446 C43.7059536,57.5957966 46.5025568,58.2778071 49.2630508,58.2778071 C55.0754035,58.2778071 60.7296223,55.2550082 63.7789907,49.8901878 L81.1064757,19.3847084 C81.8660162,18.0502864 81.3866341,16.3631429 80.0393835,15.6096014 C78.692133,14.85606 76.9875248,15.333344 76.2279843,16.667766 L58.9029896,47.1695454 C55.9196141,52.4184365 49.180871,54.2881073 43.8765389,51.3306729 C41.3102881,49.9000541 39.4599976,47.5617323 38.6643477,44.7510597 C37.8724334,41.9403871 38.2322813,38.9915857 39.6791437,36.4485375 L45.5662053,26.0913507 C46.3232555,24.758162 45.8488539,23.0673185 44.5016034,22.3162437 C43.1518625,21.5639355 41.4447641,22.0375197 40.6902042,23.3707084 L34.8031426,33.7266619 C32.6241329,37.5609669 32.0787579,42.0082181 33.2753455,46.2433431 C34.4694428,50.4809347 37.2610655,54.0019835 41.1309867,56.1602446 L41.1309867,56.1602446 Z M83.5220636,28.4259726 C82.174813,27.6711978 80.4702049,28.144782 79.7106644,29.4779707 L67.2492193,51.3960374 C64.587092,56.0788474 60.2452596,59.4506679 55.0218621,60.8960862 C49.7959743,62.3415045 44.3160763,61.6866264 39.5919833,59.0498479 C38.2484682,58.3000064 36.5388794,58.7711239 35.7805841,60.105546 C35.0222887,61.4375014 35.4979354,63.1271115 36.845186,63.8794197 C40.7811,66.0746796 45.1241776,67.1932755 49.5183062,67.1932755 C51.8579401,67.1932755 54.2125157,66.8775527 56.5272465,66.2362408 C63.193771,64.3912359 68.7309459,60.08458 72.1252204,54.1154464 L84.5866654,32.1998463 C85.3437157,30.8654243 84.8693141,29.1758142 83.5220636,28.4259726 L83.5220636,28.4259726 Z M32.0986803,75.5882946 C30.4301815,75.5882946 29.0779503,76.9288831 29.0779503,78.5814944 L29.0779503,101.122374 L35.1194103,101.122374 L35.1194103,78.5814944 C35.1194103,76.9288831 33.7671791,75.5882946 32.0986803,75.5882946 L32.0986803,75.5882946 Z M69.1032452,75.5882946 C67.4347464,75.5882946 66.0825153,76.9288831 66.0825153,78.5814944 L66.0825153,101.122374 L72.1227301,101.122374 L72.1227301,78.5814944 C72.1227301,76.9288831 70.7717441,75.5882946 69.1032452,75.5882946 L69.1032452,75.5882946 Z M80.9657739,66.9207179 C80.9657739,65.2853726 79.623504,63.9534172 77.9724372,63.9534172 C76.3213704,63.9534172 74.9766102,65.2853726 74.9766102,67.2364407 L74.9766102,91.7777196 C74.9766102,97.8701824 79.4192996,101.122374 88.1764282,101.122374 L88.6794682,101.122374 L88.6794682,95.2408037 L88.1764282,95.2408037 C85.204259,95.2408037 83.1422933,94.8375172 82.0577691,94.0494436 C81.3231315,93.5055618 80.9657739,92.6681564 80.9657739,91.4878959 L80.9657739,81.4760309 L88.6794682,81.4760309 L88.6794682,75.5907612 L80.9657739,75.5907612 L80.9657739,66.9207179 L80.9657739,66.9207179 Z M125.839677,94.0482103 C125.078891,93.5030952 124.709082,92.6866558 124.709082,91.5520271 L124.709082,66.9207179 C124.709082,65.2853726 123.364322,63.9534172 121.715745,63.9534172 C120.063433,63.9534172 118.721163,65.2853726 118.721163,66.9207179 L118.721163,91.5088619 C118.721163,97.8874485 123.176304,101.122374 131.965807,101.122374 L132.468847,101.122374 L132.468847,95.2358705 L131.965807,95.2358705 C128.996128,95.2358705 126.936652,94.8362839 125.839677,94.0482103 L125.839677,94.0482103 Z M147.755533,75.2577723 C145.362358,75.2577723 143.253077,75.6783249 141.47376,76.5070972 L141.47376,66.6715929 C141.47376,64.9893825 140.091645,63.6228949 138.396998,63.6228949 C136.699861,63.6228949 135.321482,64.9893825 135.321482,66.6715929 L135.321482,100.790618 L141.458818,100.790618 L141.458818,88.3775333 C141.458818,85.947948 141.854775,84.1892735 142.632993,83.1545414 C143.594248,81.8842506 145.318778,81.2392388 147.755533,81.2392388 C150.187308,81.2392388 151.894407,81.881784 152.828268,83.1533081 C153.606486,84.1917401 154.002443,85.9491813 154.002443,88.3775333 L154.002443,100.790618 L160.141024,100.790618 L160.141024,88.4046658 C160.141024,79.6803577 155.972268,75.2577723 147.755533,75.2577723 L147.755533,75.2577723 Z M203.538181,75.2577723 C201.143761,75.2577723 199.03697,75.6783249 197.255162,76.5070972 L197.255162,75.2577723 L191.101639,75.2577723 L191.101639,100.790618 L197.240221,100.790618 L197.240221,88.3775333 C197.240221,85.947948 197.636178,84.1892735 198.414396,83.1545414 C199.37565,81.8842506 201.100181,81.2392388 203.538181,81.2392388 C205.971201,81.2392388 207.675809,81.881784 208.609671,83.1533081 C209.387888,84.1917401 209.783846,85.9491813 209.783846,88.3775333 L209.783846,100.790618 L215.922427,100.790618 L215.922427,88.4046658 C215.922427,79.6803577 211.756161,75.2577723 203.538181,75.2577723 L203.538181,75.2577723 Z M162.067269,88.2714702 C162.067269,95.4208643 167.940634,101.238303 175.158759,101.238303 C177.753648,101.238303 180.170481,100.477362 182.206299,99.1811719 L182.206299,100.790618 L188.249004,100.790618 L188.249004,75.3058707 L175.158759,75.3058707 C167.940634,75.3058707 162.067269,81.1220761 162.067269,88.2714702 L162.067269,88.2714702 Z M182.206299,88.2714702 C182.206299,92.1205748 179.044867,95.2543699 175.158759,95.2543699 C171.271406,95.2543699 168.107484,92.1205748 168.107484,88.2714702 C168.107484,84.4223657 171.271406,81.2898038 175.158759,81.2898038 L182.206299,81.2898038 L182.206299,88.2714702 L182.206299,88.2714702 Z M23.1883984,63.9534172 C21.5323511,63.9534172 20.1925714,65.2829061 20.1925714,66.9207179 L20.1925714,75.6376263 L13.090245,75.6376263 C5.8721198,75.6376263 0,81.455065 0,88.6044591 C0,95.7538532 5.8721198,101.570059 13.090245,101.570059 C15.6876245,101.570059 18.1032124,100.809117 20.1402752,99.5129274 L20.1402752,101.122374 L26.1817352,101.122374 L26.1817352,66.9207179 C26.1817352,65.2829061 24.8419555,63.9534172 23.1883984,63.9534172 L23.1883984,63.9534172 Z M20.1402752,88.6044591 C20.1402752,92.4535636 16.9763531,95.5873588 13.090245,95.5873588 C9.20413688,95.5873588 6.04021483,92.4535636 6.04021483,88.6044591 C6.04021483,84.7553545 9.20413688,81.6215594 13.090245,81.6215594 L20.1402752,81.6215594 L20.1402752,88.6044591 L20.1402752,88.6044591 Z M50.1358998,75.6376263 C42.9177746,75.6376263 37.0456548,81.455065 37.0456548,88.6044591 C37.0456548,95.7538532 42.9177746,101.570059 50.1358998,101.570059 L57.2394714,101.570059 L57.2394714,102.22617 C57.2394714,103.328733 56.9991578,104.126673 56.514795,104.607657 C55.6008561,105.557292 53.7082306,106.038276 50.8954404,106.038276 L40.1722224,106.038276 L40.1722224,111.921079 L50.8954404,111.921079 C59.0785556,111.921079 63.2298803,108.660255 63.2298803,102.22987 L63.2298803,88.207339 L63.2099579,88.2480377 C63.0182051,81.2639047 57.2332457,75.6376263 50.1358998,75.6376263 L50.1358998,75.6376263 Z M57.18593,95.5873588 L50.1358998,95.5873588 C46.2497917,95.5873588 43.08836,92.4535636 43.08836,88.6044591 C43.08836,84.7553545 46.2497917,81.6215594 50.1358998,81.6215594 C54.022008,81.6215594 57.18593,84.7553545 57.18593,88.6044591 L57.18593,95.5873588 L57.18593,95.5873588 Z M89.6867932,88.6044591 C89.6867932,95.7538532 95.5601582,101.570059 102.778283,101.570059 C105.375663,101.570059 107.790006,100.809117 109.828314,99.5129274 L109.828314,101.122374 L115.868528,101.122374 L115.868528,75.6376263 L102.778283,75.6376263 C95.5601582,75.6376263 89.6867932,81.455065 89.6867932,88.6044591 L89.6867932,88.6044591 Z M109.828314,88.6044591 C109.828314,92.4535636 106.664392,95.5873588 102.778283,95.5873588 C98.8921753,95.5873588 95.7282532,92.4535636 95.7282532,88.6044591 C95.7282532,84.7553545 98.8921753,81.6215594 102.778283,81.6215594 L109.828314,81.6215594 L109.828314,88.6044591 L109.828314,88.6044591 Z M241.012167,63.6228949 C239.35861,63.6228949 238.01634,64.9499172 238.01634,66.5889624 L238.01634,75.3058707 L230.915259,75.3058707 C223.697134,75.3058707 217.823769,81.1220761 217.823769,88.2714702 C217.823769,95.4208643 223.697134,101.238303 230.915259,101.238303 C233.512638,101.238303 235.926981,100.477362 237.965289,99.1811719 L237.965289,100.790618 L244.007994,100.790618 L244.007994,66.5889624 C244.007994,64.9499172 242.665724,63.6228949 241.012167,63.6228949 L241.012167,63.6228949 Z M237.965289,88.2714702 C237.965289,92.1205748 234.801367,95.2543699 230.915259,95.2543699 C227.029151,95.2543699 223.867719,92.1205748 223.867719,88.2714702 C223.867719,84.4223657 227.029151,81.2898038 230.915259,81.2898038 L237.965289,81.2898038 L237.965289,88.2714702 L237.965289,88.2714702 Z M261.648011,85.6679907 L253.491044,84.4729307 C251.827526,84.1942066 251.934609,82.8807506 251.934609,82.8807506 C251.934609,81.3231027 253.550811,81.2700711 253.550811,81.2700711 L254.127315,81.2700711 L263.350129,81.2676046 L264.468272,81.2676046 C266.156694,81.2676046 267.522621,79.9331825 267.522621,78.2867376 C267.522621,76.6402927 266.156694,75.3058707 264.468272,75.3058707 L263.350129,75.3058707 L263.350129,75.2836714 L253.655404,75.2849047 L253.655404,75.2836714 C249.380809,75.2836714 245.931748,78.435966 245.931748,82.6180594 C245.931748,86.6139257 248.189202,89.3617004 251.846203,90.2780364 L260.485043,91.576693 C262.148561,91.8529504 262.043969,93.1664064 262.043969,93.1664064 C262.043969,94.7252876 260.424031,94.7795525 260.424031,94.7795525 L256.302589,94.7795525 L256.302589,94.7783192 L250.107976,94.7795525 L248.988588,94.7795525 C247.298921,94.7795525 245.931748,96.1139745 245.931748,97.7604194 C245.931748,99.4080976 247.298921,100.74252 248.988588,100.74252 L250.107976,100.74252 L250.107976,100.763486 L260.321928,100.763486 C264.595278,100.763486 268.043093,97.6111911 268.043093,93.4315642 C268.043093,89.2642703 265.587661,86.4585309 261.648011,85.6679907 L261.648011,85.6679907 Z" id="digital-hands" sketch:type="MSShapeGroup"></path>
        </g>
    </g>
</svg>