<svg width="270" height="150" viewBox="0 0 270 150" xmlns="http://www.w3.org/2000/svg" xmlns:sketch="http://www.bohemiancoding.com/sketch/ns"><title>logo</title><desc>Created with Sketch.</desc><path d="M26.989 68.273v5.831h-9.941v27.194h-6.882v-27.194h-9.941v-5.831h26.764zm2.776-.191h6.452v5.831h-6.452v-5.831zm0 8.794h6.452v24.421h-6.452v-24.421zm27.714 0h6.855l-8.813 24.422h-6.735l-8.745-24.422h7.167l5.077 18.014 5.194-18.014zm30.829 21.423c-2.061 2.541-5.188 3.811-9.383 3.811-4.195 0-7.323-1.27-9.383-3.811-2.061-2.54-3.09-5.6-3.09-9.177 0-3.518 1.029-6.565 3.09-9.143 2.06-2.578 5.188-3.868 9.383-3.868 4.195 0 7.323 1.29 9.383 3.868 2.06 2.578 3.091 5.626 3.091 9.143 0 3.577-1.031 6.637-3.091 9.177zm-5.106-3.486c1.003-1.328 1.506-3.217 1.506-5.665s-.502-4.333-1.506-5.653c-1.004-1.321-2.442-1.982-4.314-1.982-1.873 0-3.314.661-4.325 1.982-1.011 1.321-1.516 3.206-1.516 5.653 0 2.448.505 4.337 1.516 5.665 1.011 1.329 2.452 1.993 4.325 1.993 1.872 0 3.31-.664 4.314-1.993zm12.851-26.491h6.404v32.977h-6.404v-32.977zm12.747-.239h6.452v5.831h-6.452v-5.831zm0 8.794h6.452v24.421h-6.452v-24.421zm33.67-8.603h7.84l11.661 33.025h-7.482l-2.173-6.787h-12.156l-2.24 6.787h-7.246l11.796-33.025zm-.433 20.551h8.456l-4.164-13-4.291 13zm30.041-11.948v14.701c0 1.387.162 2.432.487 3.133.577 1.238 1.708 1.857 3.394 1.857 2.158 0 3.637-.879 4.435-2.64.414-.954.621-2.215.621-3.781v-13.269h6.452v24.422h-6.166v-3.469c-.06.074-.209.299-.448.674-.239.374-.522.704-.85.987-.999.898-1.965 1.512-2.897 1.841-.933.329-2.025.493-3.278.493-3.61 0-6.042-1.301-7.294-3.905-.701-1.432-1.051-3.544-1.051-6.335v-14.708h6.595zm34.547.356c1.149.652 2.081 1.553 2.798 2.706v-11.616h6.452v32.977h-6.165v-3.364c-.911 1.461-1.95 2.521-3.115 3.183-1.165.662-2.614.993-4.346.993-2.853 0-5.254-1.157-7.203-3.473-1.949-2.315-2.923-5.287-2.923-8.915 0-4.182.958-7.471 2.876-9.87 1.917-2.399 4.48-3.598 7.688-3.598 1.477 0 2.79.326 3.939.976zm1.579 17.455c.939-1.348 1.41-3.095 1.41-5.239 0-2.998-.757-5.142-2.27-6.431-.924-.78-1.997-1.17-3.219-1.17-1.863 0-3.23.709-4.101 2.126-.872 1.416-1.308 3.174-1.308 5.272 0 2.264.444 4.074 1.331 5.431.887 1.357 2.234 2.035 4.038 2.035 1.805 0 3.177-.674 4.117-2.024zm13.568-26.604h6.452v5.831h-6.452v-5.831zm0 8.794h6.452v24.421h-6.452v-24.421zm33.027 21.423c-2.061 2.541-5.188 3.811-9.383 3.811-4.195 0-7.323-1.27-9.383-3.811-2.061-2.54-3.091-5.6-3.091-9.177 0-3.518 1.03-6.565 3.091-9.143 2.06-2.578 5.188-3.868 9.383-3.868 4.195 0 7.323 1.29 9.383 3.868 2.06 2.578 3.09 5.626 3.09 9.143 0 3.577-1.03 6.637-3.09 9.177zm-5.106-3.486c1.003-1.328 1.505-3.217 1.505-5.665s-.502-4.333-1.505-5.653c-1.004-1.321-2.442-1.982-4.314-1.982-1.873 0-3.314.661-4.325 1.982-1.011 1.321-1.517 3.206-1.517 5.653 0 2.448.506 4.337 1.517 5.665 1.011 1.329 2.452 1.993 4.325 1.993 1.872 0 3.31-.664 4.314-1.993zm18.359-18.671c-.964.968-2.13 1.451-3.499 1.451-1.368 0-2.531-.483-3.491-1.451-.955-.963-1.433-2.13-1.433-3.501 0-1.356.483-2.517 1.446-3.479.96-.958 2.119-1.438 3.478-1.438 1.369 0 2.535.479 3.499 1.438.963.958 1.446 2.119 1.446 3.479 0 1.366-.483 2.533-1.446 3.501zm-6.509-6.498c-.83.829-1.245 1.831-1.245 3.005 0 1.183.412 2.191 1.238 3.024.83.834 1.838 1.251 3.024 1.251s2.194-.417 3.024-1.251c.83-.833 1.245-1.841 1.245-3.024 0-1.174-.415-2.176-1.245-3.005-.834-.833-1.842-1.25-3.024-1.25-1.178 0-2.183.418-3.017 1.25zm2.928.279c.674 0 1.168.065 1.483.195.563.231.843.687.843 1.366 0 .483-.177.837-.531 1.065-.188.121-.45.209-.787.262.423.067.732.243.928.529.196.286.294.565.294.837v.395l.014.401c.008.144.025.238.047.282l.034.067h-.885l-.014-.053-.013-.061-.02-.174v-.428c0-.624-.173-1.036-.52-1.237-.205-.115-.565-.174-1.08-.174h-.766v2.127h-.931v-5.4h1.903zm1.029.868c-.244-.133-.635-.199-1.172-.199h-.828v1.935h.876c.41 0 .717-.04.923-.119.378-.146.567-.424.567-.835 0-.389-.122-.65-.366-.782z" sketch:type="MSShapeGroup" fill="#fff"/></svg>