<svg xmlns="http://www.w3.org/2000/svg" width="64" height="64" viewBox="0 0 64 64">
  <g fill="none" fill-rule="evenodd">
    <path fill="#23262D" d="M10.2555408,-4.14336123e-16 L53.7444592,4.14336123e-16 C57.3105342,-2.4074122e-16 58.6036791,0.371302445 59.9073828,1.06853082 C61.2110865,1.76575919 62.2342408,2.78891348 62.9314692,4.09261719 C63.6286976,5.39632089 64,6.68946584 64,10.2555408 L64,53.7444592 C64,57.3105342 63.6286976,58.6036791 62.9314692,59.9073828 C62.2342408,61.2110865 61.2110865,62.2342408 59.9073828,62.9314692 C58.6036791,63.6286976 57.3105342,64 53.7444592,64 L10.2555408,64 C6.68946584,64 5.39632089,63.6286976 4.09261719,62.9314692 C2.78891348,62.2342408 1.76575919,61.2110865 1.06853082,59.9073828 C0.371302445,58.6036791 1.60494146e-16,57.3105342 -2.76224082e-16,53.7444592 L2.76224082e-16,10.2555408 C-1.60494146e-16,6.68946584 0.371302445,5.39632089 1.06853082,4.09261719 C1.76575919,2.78891348 2.78891348,1.76575919 4.09261719,1.06853082 C5.39632089,0.371302445 6.68946584,2.4074122e-16 10.2555408,-4.14336123e-16 Z"/>
    <path fill="#E6DFD7" fill-rule="nonzero" d="M32.1750015,12 C33.9081238,12 35.4787088,12.232381 36.875799,12.6838095 C38.2874992,13.1504762 39.4818744,13.7866667 40.4570981,14.5961905 C41.4323218,15.4038095 42.1902204,16.367619 42.7271413,17.487619 C43.2658885,18.607619 43.541654,19.8190476 43.541654,21.1257143 C43.541654,22.6342857 43.2804986,23.9390476 42.7563615,25.0590476 C42.2322244,26.1790476 41.5345924,27.1104762 40.6598131,27.872381 L40.2934503,28.1838402 L40.2934503,28.1838402 L39.9707181,28.4376037 L39.6491062,28.6627505 L39.6491062,28.6627505 L39.2861041,28.8883594 L39.1197917,28.985246 L39.1197917,28.985246 L38.5131032,29.3228757 L37.3257867,29.9619507 C36.1807389,30.5634376 35.4175993,30.8877656 34.4687861,31.0457143 C38.2966305,31.4209524 41.1839502,32.1942857 43.2074481,33.9657143 C45.230946,35.7371429 46.25,37.9447619 46.25,40.6038095 C46.25,42.2361905 45.9157941,43.7295238 45.2747763,45.112381 C44.6191484,46.512381 43.6293145,47.7085714 42.2906648,48.7352381 C40.952015,49.7619048 39.262723,50.5542857 37.224615,51.1295238 C35.186507,51.7047619 32.7703628,52 29.9469623,52 L16.25,52 L16.25,50.0952381 L19.9335697,50.0952381 L19.9335697,13.9047619 L16.25,13.9047619 L16.25,12 L32.1750015,12 Z M25.3374779,32.9542857 L25.3374779,50.0971429 L27.9672947,50.0971429 C31.9503713,50.0971429 34.8669112,49.4171429 36.7315243,48.0742857 L36.7296981,48.072381 C38.5943112,46.727619 39.5257046,44.3657143 39.5257046,40.9980952 C39.5257046,38.2971429 38.955911,36.2571429 37.7651884,34.9390476 L37.4103178,34.6295215 L37.1464743,34.4183128 L36.9673812,34.2871276 L36.7830564,34.163422 L36.5912082,34.0470097 L36.3895446,33.9377049 L36.284316,33.8856597 L36.0636325,33.7866672 L35.8274042,33.6943171 L35.5733393,33.6084232 L35.2991462,33.5287997 L34.8451025,33.4207141 L34.8451025,33.4207141 L34.5105619,33.3559524 L34.1478716,33.2968098 L33.75474,33.2431003 L33.3288751,33.1946379 L32.8679853,33.1512366 L32.1059653,33.0952172 L31.5474864,33.0636546 L30.62834,33.0245213 L29.6046046,32.9946825 L28.4685456,32.9735104 L26.3044974,32.9557776 L25.3374779,32.9542857 Z M30.6226791,13.9047619 L25.3356517,13.9047619 L25.3356517,31.047619 L28.5937024,31.047619 C31.501111,31.047619 33.7638492,30.1561905 35.3088665,28.8495238 C36.8557101,27.527619 37.6446551,25.2819048 37.6446551,22.0685714 C37.6446551,19.1790476 37.0419888,17.087619 35.8348299,15.8114286 C34.6130608,14.5352381 32.8817648,13.9047619 30.6226791,13.9047619 Z"/>
  </g>
</svg>
