<svg width="30" height="30" viewBox="0 0 30 30" xmlns="http://www.w3.org/2000/svg"><title>instagram</title><desc>Created with Sketch.</desc><path d="M15 0c-4.074 0-4.585.017-6.185.09-1.597.073-2.687.326-3.641.697-.986.383-1.823.896-2.657 1.73-.834.834-1.347 1.67-1.73 2.657-.371.954-.624 2.045-.697 3.641-.073 1.6-.09 2.111-.09 6.185s.017 4.585.09 6.184c.073 1.597.326 2.687.697 3.641.383.986.896 1.823 1.73 2.657.834.834 1.67 1.347 2.657 1.73.954.371 2.045.624 3.641.697 1.6.073 2.111.09 6.185.09s4.585-.017 6.184-.09c1.597-.073 2.687-.326 3.641-.697.986-.383 1.823-.896 2.657-1.73.834-.834 1.347-1.67 1.73-2.657.371-.954.624-2.045.697-3.641.073-1.6.09-2.111.09-6.184 0-4.074-.017-4.585-.09-6.185-.073-1.597-.326-2.687-.697-3.641-.383-.986-.896-1.823-1.73-2.657-.834-.834-1.67-1.347-2.657-1.73-.954-.371-2.045-.624-3.641-.697-1.6-.073-2.111-.09-6.184-.09zm0 2.703c4.005 0 4.48.015 6.061.087 1.462.067 2.257.311 2.785.516.7.272 1.2.597 1.725 1.122.525.525.85 1.025 1.122 1.725.205.529.45 1.323.516 2.785.072 1.582.087 2.056.087 6.061s-.015 4.48-.087 6.061c-.067 1.462-.311 2.257-.516 2.785-.272.7-.597 1.2-1.122 1.725-.525.525-1.025.85-1.725 1.122-.529.205-1.323.45-2.785.516-1.581.072-2.056.087-6.061.087s-4.48-.015-6.061-.087c-1.462-.067-2.257-.311-2.785-.516-.7-.272-1.2-.597-1.725-1.122-.525-.525-.85-1.025-1.122-1.725-.205-.529-.45-1.323-.516-2.785-.072-1.582-.087-2.056-.087-6.061s.015-4.48.087-6.061c.067-1.462.311-2.257.516-2.785.272-.7.597-1.2 1.122-1.725.525-.525 1.025-.85 1.725-1.122.529-.205 1.323-.45 2.785-.516 1.582-.072 2.056-.087 6.061-.087zm0 17.297c-2.761 0-5-2.239-5-5s2.239-5 5-5 5 2.239 5 5-2.239 5-5 5zm0-12.703c-4.254 0-7.703 3.449-7.703 7.703 0 4.254 3.449 7.703 7.703 7.703 4.254 0 7.703-3.449 7.703-7.703 0-4.254-3.449-7.703-7.703-7.703zm9.807-.304c0 .994-.806 1.8-1.8 1.8s-1.8-.806-1.8-1.8.806-1.8 1.8-1.8 1.8.806 1.8 1.8z" fill="#fff"/></svg>