<?xml version="1.0" encoding="UTF-8" standalone="no"?>
<svg width="30px" height="30px" viewBox="0 0 30 30" version="1.1" xmlns="http://www.w3.org/2000/svg" xmlns:xlink="http://www.w3.org/1999/xlink" xmlns:sketch="http://www.bohemiancoding.com/sketch/ns">
    <!-- Generator: Sketch 3.1.1 (8761) - http://www.bohemiancoding.com/sketch -->
    <title>linkedin</title>
    <desc>Created with Sketch.</desc>
    <defs></defs>
    <g id="icons" fill-rule="evenodd" sketch:type="MSPage">
        <g id="linkedin" sketch:type="MSArtboardGroup" fill="#FFFFFF">
            <path d="M4,10.1180479 L4,24.6581834 L8.71008506,24.6581834 L8.71008506,10.1180479 L4,10.1180479 Z M6.66469624,3 C5.05340581,3 4,4.08586109 4,5.51151217 C4,6.90763308 5.02227113,8.02476142 6.60355562,8.02476142 L6.63365562,8.02476142 C8.27598667,8.02476142 9.29882218,6.90763308 9.29882218,5.51151217 C9.26825187,4.08586109 8.27598667,3 6.66469624,3 Z M20.5769213,10.1180479 C18.076176,10.1180479 16.9565501,11.5293199 16.3314108,12.5193527 L16.3314108,10.4598644 L11.6207614,10.4598644 C11.6828427,11.8242356 11.6207614,25 11.6207614,25 L16.3314108,25 L16.3314108,16.8795887 C16.3314108,16.445032 16.3619812,16.0115368 16.4865199,15.7004084 C16.826932,14.83226 17.6020069,13.9334233 18.9032674,13.9334233 C20.6083381,13.9334233 21.2899149,15.2667202 21.2899149,17.2206333 L21.2899149,24.999614 L25.9998119,24.999614 L26,16.6627446 C26,12.1966439 23.6763743,10.1180479 20.5769213,10.1180479 Z" id="Oval-1" sketch:type="MSShapeGroup"></path>
        </g>
    </g>
</svg>