<?xml version="1.0" encoding="UTF-8" standalone="no"?>
<svg width="30px" height="30px" viewBox="0 0 30 30" version="1.1" xmlns="http://www.w3.org/2000/svg" xmlns:xlink="http://www.w3.org/1999/xlink" xmlns:sketch="http://www.bohemiancoding.com/sketch/ns">
    <!-- Generator: Sketch 3.1.1 (8761) - http://www.bohemiancoding.com/sketch -->
    <title>twitter</title>
    <desc>Created with Sketch.</desc>
    <defs></defs>
    <g id="icons" fill-rule="evenodd" sketch:type="MSPage">
        <g id="twitter" sketch:type="MSArtboardGroup" fill="#FFFFFF">
            <path d="M14.6822554,10.5542975 L14.729944,11.3761011 L13.9351333,11.2754721 C11.0420225,10.8897275 8.5145246,9.58155036 6.36853579,7.3844837 L5.31938569,6.29433606 L5.0491501,7.09936812 C4.4768864,8.89391883 4.84249928,10.7890985 6.03471529,12.0637326 C6.67056383,12.7681357 6.52749792,12.8687647 5.43065921,12.4494772 C5.0491501,12.3153051 4.7153296,12.2146761 4.68353715,12.2649907 C4.5722637,12.3823912 4.95377281,13.9085978 5.25580085,14.5123719 C5.66910241,15.350947 6.51160169,16.1727505 7.43358204,16.6591241 L8.21249649,17.0448686 L7.29051614,17.0616401 C6.40032817,17.0616401 6.36853579,17.0784116 6.46391308,17.4306131 C6.78183735,18.5207608 8.0376382,19.6779944 9.43650495,20.1811394 L10.4220701,20.533341 L9.56367463,21.070029 C8.29197755,21.8415181 6.79773351,22.2775772 5.30348946,22.3111202 C4.58815985,22.3278916 4,22.3949776 4,22.4452922 C4,22.6130071 5.93933799,23.5522113 7.06796916,23.9211843 C10.4538626,25.0113319 14.4756046,24.5417298 17.4958851,22.6800932 C19.6418739,21.3551445 21.7878628,18.7220188 22.7893242,16.1727505 C23.3297954,14.8142589 23.8702667,12.3320767 23.8702667,11.1413 C23.8702667,10.369811 23.9179553,10.269182 24.8081432,9.34674939 C25.3327183,8.8100613 25.8255009,8.22305875 25.9208782,8.0553437 C26.0798403,7.7366852 26.0639442,7.7366852 25.2532373,8.0218007 C23.9020591,8.5249458 23.7113045,8.4578598 24.3789455,7.7031422 C24.8717281,7.16645411 25.459888,6.19370707 25.459888,5.90859149 C25.459888,5.85827703 25.2214448,5.94213456 24.9512092,6.093078 C24.6650773,6.26079306 24.0292288,6.51236557 23.5523424,6.66330909 L22.6939469,6.94842459 L21.9150324,6.39496504 C21.4858346,6.093078 20.8817786,5.75764804 20.5638543,5.65701898 C19.7531474,5.42221801 18.5132428,5.455761 17.7820169,5.72410497 C15.7949903,6.47882257 14.5391894,8.42431681 14.6822554,10.5542975 C14.6822554,10.5542975 14.5391894,8.42431681 14.6822554,10.5542975 L14.6822554,10.5542975 L14.6822554,10.5542975 Z" id="Oval-1" sketch:type="MSShapeGroup"></path>
        </g>
    </g>
</svg>