<?xml version="1.0" encoding="UTF-8" standalone="no"?>
<svg width="31px" height="30px" viewBox="0 0 31 30" version="1.1" xmlns="http://www.w3.org/2000/svg" xmlns:xlink="http://www.w3.org/1999/xlink" xmlns:sketch="http://www.bohemiancoding.com/sketch/ns">
    <!-- Generator: Sketch 3.1.1 (8761) - http://www.bohemiancoding.com/sketch -->
    <title>vimeo</title>
    <desc>Created with Sketch.</desc>
    <defs></defs>
    <g id="icons" fill-rule="evenodd" sketch:type="MSPage">
        <g id="vimeo" sketch:type="MSArtboardGroup" transform="translate(0.500000, 0.000000)" fill="#FFFFFF">
            <path d="M7.31581201,10.9060694 C7.93280057,11.6627251 10.2884417,20.7991385 11.0747632,22.4845455 C11.7610734,23.9625783 13.6542105,25.9166045 15.7302773,24.5211721 C17.8051355,23.1256949 24.7049271,17.0158598 25.9400265,9.8005667 C27.1740468,2.5875569 17.6369679,4.09854037 16.6267538,10.382799 C19.1516416,8.81057032 20.4993563,11.0216204 19.2073234,13.5249731 C17.9176213,16.0259082 16.7391965,17.657054 16.1221216,17.657054 C15.5062553,17.657054 15.0324423,15.9834215 14.3267945,13.0582023 C13.5973201,10.0339521 13.6018092,4.58644253 10.5690087,5.20404304 C7.70890805,5.78627534 3.95,10.4417609 3.95,10.4417609 L4.84768512,11.6627251 C4.84768512,11.6627251 6.69878029,10.1493241 7.31581201,10.9060694 Z" id="Oval-1" sketch:type="MSShapeGroup"></path>
        </g>
    </g>
</svg>