<?xml version="1.0" encoding="UTF-8" standalone="no"?>
<svg width="31px" height="30px" viewBox="0 0 31 30" version="1.1" xmlns="http://www.w3.org/2000/svg" xmlns:xlink="http://www.w3.org/1999/xlink" xmlns:sketch="http://www.bohemiancoding.com/sketch/ns">
    <!-- Generator: Sketch 3.1.1 (8761) - http://www.bohemiancoding.com/sketch -->
    <title>youtube</title>
    <desc>Created with Sketch.</desc>
    <defs></defs>
    <g id="icons" fill-rule="evenodd" sketch:type="MSPage">
        <g id="youtube" sketch:type="MSArtboardGroup" transform="translate(0.500000, 0.000000)" fill="#FFFFFF">
            <path d="M26.768327,20.7654774 C26.4698281,22.0627028 25.4087162,23.0191862 24.1319129,23.1618614 C21.1074781,23.4998058 18.0463955,23.5014844 14.9984613,23.4998058 C11.9508068,23.5014844 8.88944437,23.4998058 5.86528938,23.1618614 C4.58820635,23.0191862 3.52765394,22.0627028 3.22943477,20.7654774 C2.8047662,18.9179732 2.8047662,16.9020564 2.8047662,15.0002798 C2.8047662,13.0982233 2.80980179,11.0820268 3.23419061,9.23452264 C3.53268953,7.93729723 4.59324195,6.98053404 5.87004522,6.83813859 C8.89447997,6.50019416 11.9555627,6.49851563 15.0034969,6.50019416 C18.0511513,6.49851563 21.1125137,6.50019416 24.1366687,6.83813859 C25.4137518,6.98053404 26.4748637,7.93729723 26.7730829,9.23452264 C27.1977514,11.0820268 27.1952336,13.0982233 27.1952336,15.0002798 C27.1952336,16.9020564 27.1927158,18.9179732 26.768327,20.7654774 Z M12.8047662,10.5 L19.5547662,14.3971143 L12.8047662,18.2942286 L12.8047662,10.5 Z" id="Oval-1" sketch:type="MSShapeGroup"></path>
        </g>
    </g>
</svg>