<svg width="126" height="150" viewBox="0 0 126 150" xmlns="http://www.w3.org/2000/svg" xmlns:sketch="http://www.bohemiancoding.com/sketch/ns"><title>logo-color</title><desc>Created with Sketch.</desc><path d="M107.874 71.014c-8.547 0-15.475 6.828-15.475 15.252 0 8.423 6.928 15.251 15.475 15.251s15.475-6.828 15.475-15.251c0-8.423-6.929-15.252-15.475-15.252zm0 26.314c-6.199 0-11.224-4.953-11.224-11.062 0-6.109 5.025-11.062 11.224-11.062s11.224 4.953 11.224 11.062c0 6.109-5.025 11.062-11.224 11.062zm-25.717-38.712c2.278.033 4.289 1.947 4.289 4.291v37.105c0 .864-.876 1.532-1.752 1.532h-1.063c-.876 0-1.474-.668-1.474-1.532v-41.396zm-11.258 12.32c2.412.033 4.289 1.934 4.289 4.277v24.763c0 .864-.776 1.568-1.652 1.568h-1.063c-.876 0-1.574-.668-1.574-1.532v-29.076zm5.028-9.426c0 1.591-1.309 2.88-2.923 2.88s-2.922-1.289-2.922-2.88 1.308-2.88 2.922-2.88 2.923 1.29 2.923 2.88zm-35.184 34.547v3.94c0 .863-.865 1.547-1.74 1.547h-1.063c-.876 0-1.486-.684-1.486-1.547v-41.35c2.278.033 4.289 1.932 4.289 4.274v8.166c0 .044-.145.077-.145.077h.145v5.028c.938-1.615 2.472-2.68 4.215-3.702 1.758-1.03 3.843-1.545 6.305-1.545 2.066 0 3.876.315 5.437.946 1.56.63 2.862 1.524 3.895 2.68 1.032 1.157 1.838 2.555 2.366 4.194.527 1.64.834 3.528.834 5.686v15.545c0 .863-.803 1.547-1.679 1.547h-1.063c-.876 0-1.547-.684-1.547-1.547v-15.293c0-3.027-.806-5.393-2.3-7.096-1.495-1.703-3.581-2.555-6.218-2.555-3.122 0-5.592.924-7.481 2.773-1.701 1.665-2.63 3.856-2.764 6.576v11.655zm-36.494 16.392c0 2.344-1.838 4.277-4.25 4.277v-30.645c0-5.742 3.27-10.649 8.015-13.224 2.205-1.181 4.743-1.841 7.429-1.841 8.547 0 15.447 6.831 15.447 15.255l.002.02.002.026c0 3.92-1.501 7.49-3.967 10.189-2.83 3.062-6.908 4.983-11.442 4.983-.921 0-1.821-.084-2.698-.236-.517-.09-1.025-.204-1.524-.344l-.14-.039c-.171-.077-.336-.165-.494-.263l-.096-.058-.075-.05c-1.484-.962-2.262-2.768-1.807-4.567.06-.239.164-.465.261-.683l.029.018c1.839 1.296 4.129 2.063 6.562 2.063.576 0 1.239-.039 1.769-.121l.017-.001v.008c5.227-.81 9.444-5.374 9.444-10.912 0-.784-.095-1.548-.254-2.284-1.042-5.047-5.569-8.844-10.997-8.844-6.199 0-11.234 4.954-11.234 11.064l.002 26.209z" sketch:type="MSShapeGroup" fill="#279DD8"/></svg>