<?xml version="1.0" encoding="UTF-8" standalone="no"?>
<svg width="126px" height="150px" viewBox="0 0 126 150" version="1.1" xmlns="http://www.w3.org/2000/svg" xmlns:xlink="http://www.w3.org/1999/xlink" xmlns:sketch="http://www.bohemiancoding.com/sketch/ns">
    <!-- Generator: Sketch 3.2 (9961) - http://www.bohemiancoding.com/sketch -->
    <title>logo</title>
    <desc>Created with Sketch.</desc>
    <defs></defs>
    <g id="client-logos" stroke="none" stroke-width="1" fill="none" fill-rule="evenodd" sketch:type="MSPage">
        <g id="logo" sketch:type="MSArtboardGroup" fill="#FFFFFF">
            <path d="M107.873976,71.0138433 C99.3272067,71.0138433 92.3987886,77.8422844 92.3987886,86.2654285 C92.3987886,94.6887047 99.3272067,101.516882 107.873976,101.516882 C116.420611,101.516882 123.349163,94.6887047 123.349163,86.2654285 C123.349163,77.8422844 116.420611,71.0138433 107.873976,71.0138433 L107.873976,71.0138433 Z M107.873976,97.3275665 C101.674921,97.3275665 96.6495229,92.3749125 96.6495229,86.2654285 C96.6495229,80.1559445 101.674921,75.2031585 107.873976,75.2031585 C114.07303,75.2031585 119.098295,80.1559445 119.098295,86.2654285 C119.098295,92.3749125 114.07303,97.3275665 107.873976,97.3275665 L107.873976,97.3275665 Z M82.1572745,58.6156314 C84.4356981,58.6483893 86.4460719,60.5630104 86.4460719,62.9065225 L86.4460719,100.011999 C86.4460719,100.875857 85.570085,101.543563 84.6943662,101.543563 L83.6315486,101.543563 C82.7558298,101.543563 82.1572745,100.875857 82.1572745,100.011999 L82.1572745,58.6156314 L82.1572745,58.6156314 Z M70.8991814,70.9355149 C73.31163,70.9682728 75.1879788,72.8692888 75.1879788,75.2126689 L75.1879788,99.9758065 C75.1879788,100.839664 74.4118405,101.543563 73.5359877,101.543563 L72.4733041,101.543563 C71.5975853,101.543563 70.8991814,100.875857 70.8991814,100.011999 L70.8991814,70.9355149 L70.8991814,70.9355149 Z M75.9272602,61.5094237 C75.9272602,63.1001641 74.618641,64.3896109 73.0047129,64.3896109 C71.3906508,64.3896109 70.0822996,63.1001641 70.0822996,61.5094237 C70.0822996,59.9188154 71.3906508,58.6292365 73.0047129,58.6292365 C74.618641,58.6292365 75.9272602,59.9188154 75.9272602,61.5094237 L75.9272602,61.5094237 Z M40.743575,96.0563479 L40.743575,99.9964123 C40.743575,100.859478 39.8789802,101.543563 39.0031274,101.543563 L37.9405778,101.543563 C37.064725,101.543563 36.4547776,100.859478 36.4547776,99.9964123 L36.4547776,58.6462759 C38.7332012,58.6789017 40.743575,60.5784648 40.743575,62.9201276 L40.743575,71.0860957 C40.743575,71.129949 40.598426,71.1632353 40.5989621,71.1632353 L40.743575,71.1632353 L40.743575,76.191708 C41.6817494,74.5765312 43.2152625,73.5118988 44.9583906,72.4900631 C46.7161274,71.46017 48.8018231,70.9452894 51.2635928,70.9452894 C53.329721,70.9452894 55.1395934,71.2600561 56.7007157,71.8910423 C58.2606317,72.5215001 59.5622817,73.415078 60.5961499,74.5712477 C61.6284098,75.7282098 62.4345697,77.1261012 62.9622258,78.7657143 C63.4890778,80.4053274 63.7958608,82.2941913 63.7958608,84.4515908 L63.7958608,99.9964123 C63.7958608,100.859478 62.9925154,101.543563 62.1166626,101.543563 L61.0541131,101.543563 C60.1782602,101.543563 59.5070634,100.859478 59.5070634,99.9964123 L59.5070634,84.7034834 C59.5070634,81.6762818 58.7010376,79.3104468 57.2071958,77.6074312 C55.7124159,75.9045478 53.6264521,75.0521815 50.9887077,75.0521815 C47.8671334,75.0521815 45.396518,75.9757434 43.5074368,77.8256413 C41.8059905,79.4908795 40.8775999,81.6813012 40.743575,84.4016614 L40.743575,96.0563479 L40.743575,96.0563479 Z M4.25006416,112.44878 C4.25006416,114.792293 2.41244852,116.726066 0,116.726066 L0,86.0814294 C0,80.339019 3.26993994,75.4323318 8.0153602,72.8571367 C10.2199361,71.6757382 12.758234,71.0166172 15.4442274,71.0166172 C23.9908623,71.0166172 30.8908672,77.8479642 30.8908672,86.2712404 C30.8908672,86.276656 30.8928775,86.285638 30.8928775,86.2913178 C30.8928775,86.2967335 30.8944858,86.3115274 30.8944858,86.3170751 C30.8944858,90.2367979 29.3934068,93.807411 26.9277504,96.5057125 C24.0974121,99.5673892 20.019704,101.489143 15.4859091,101.489143 C14.5650239,101.489143 13.6646445,101.405399 12.7881215,101.253365 C12.2707854,101.163677 11.7628309,101.048892 11.2645263,100.909803 C11.2180196,100.896991 11.1712449,100.884178 11.1248723,100.870705 C10.9535885,100.793698 10.7888718,100.705595 10.6304544,100.608114 C10.5984224,100.588564 10.5653183,100.570733 10.5339565,100.550259 C10.5080896,100.534276 10.4840992,100.516312 10.4586344,100.499801 C8.97444251,99.5378014 8.19642786,97.7320211 8.65117441,95.932581 C8.71161965,95.6936332 8.81548896,95.4680262 8.91265702,95.2499483 C8.92150267,95.2560243 8.93235869,95.2618362 8.94133836,95.2681765 C10.7800262,96.5640956 13.0707801,97.3316612 15.5034664,97.3316612 C16.0793714,97.3316612 16.7427948,97.2926951 17.2723272,97.210272 C17.2760799,97.2097436 17.2892144,97.2092153 17.2892144,97.208819 L17.2892144,97.2168764 C22.5161862,96.4067783 26.7336823,91.8425963 26.7336823,86.3047909 C26.7336823,85.5207142 26.6390607,84.7572434 26.4797051,84.0204544 C25.4376613,78.9737535 20.9108357,75.1766087 15.4825585,75.1766087 C9.28350397,75.1766087 4.24832184,80.1307156 4.24832184,86.2401996 L4.25006416,112.44878 L4.25006416,112.44878 Z" id="philo" sketch:type="MSShapeGroup"></path>
        </g>
    </g>
</svg>