<svg width="30" height="29" viewBox="0 0 30 29" xmlns="http://www.w3.org/2000/svg"><title>share-icon-linkedin</title><desc>Created with Sketch.</desc><path d="M7 29.005h-6v-19.375h6v19.375zm10.125 0h-6.123v-19.375h5.87v2.625h.063c1.305-2.083 3.261-3.125 5.87-3.125 4.797 0 7.196 2.771 7.196 8.312v11.562h-6.06v-10.187c0-2.917-1.031-4.375-3.093-4.375-2.483 0-3.724 1.437-3.724 4.312v10.25zm-9.625-25.505c0 .464-.089.911-.266 1.339-.178.429-.431.807-.759 1.135-.328.328-.707.581-1.135.759-.429.178-.875.266-1.339.266-.464 0-.911-.089-1.339-.266-.429-.178-.807-.431-1.135-.759-.328-.328-.581-.707-.759-1.135-.178-.429-.266-.875-.266-1.339 0-.464.089-.911.266-1.339.178-.429.431-.807.759-1.135.328-.328.707-.581 1.135-.759.429-.178.875-.266 1.339-.266.464 0 .911.089 1.339.266.429.178.807.431 1.135.759.328.328.581.707.759 1.135.178.429.266.875.266 1.339z" fill="#0077B5"/></svg>