<svg width="34" height="29" viewBox="0 0 34 29" xmlns="http://www.w3.org/2000/svg"><title>share-icon-twitter</title><desc>Created with Sketch.</desc><path d="M33.625 4.876s-1.312 2.125-3.437 3.562c.438 9.75-6.687 20.562-19.625 20.562-6.437 0-10.562-3.125-10.562-3.125s5.062 1.062 10.187-2.812c-5.187-.312-6.437-4.812-6.437-4.812s1.437.375 3.125-.125c-5.812-1.437-5.562-6.875-5.562-6.875s1.437.875 3.125.875c-5.25-4.062-2.125-9.25-2.125-9.25s4.75 6.687 14.25 7.25c-1.375-7.562 7.312-11.062 11.75-6.312 2.312-.375 4.437-1.687 4.437-1.687s-.75 2.562-3.062 3.812c1.875-.125 3.937-1.062 3.937-1.062z" fill="#00ACED"/></svg>