<svg width="41" height="29" viewBox="0 0 41 29" xmlns="http://www.w3.org/2000/svg"><title>share-icon-gplus</title><desc>Created with Sketch.</desc><path d="M25.505 14.062c1.312 8.062-3.875 14.812-12.187 14.812-7.125 0-12.937-5.812-12.937-12.937 0-7.125 5.812-12.937 12.937-12.937 5.562 0 8.625 3.375 8.625 3.375l-3.5 3.375s-1.812-2-5.125-2c-4.437 0-8 3.687-8 8.187 0 4.562 3.562 8.187 8 8.187 5.062 0 7.062-3.625 7.312-5.625h-7.312v-4.437h12.187zm11.812-3.687v3.687h3.687v3.75h-3.687v3.687h-3.687v-3.687h-3.687v-3.75h3.687v-3.687h3.687z" fill="#DD4B39"/></svg>