<svg width="401" height="150" viewBox="0 0 401 150" xmlns="http://www.w3.org/2000/svg" xmlns:sketch="http://www.bohemiancoding.com/sketch/ns"><title>logo-color</title><desc>Created with Sketch.</desc><path d="M78.136 74.06l-3.005.516 3.789 16.125.523 3.741h.131l.784-3.741 5.488-19.221h3.528l5.618 19.221.784 3.741h.131l.653-3.741 3.789-16.255-3.005-.516v-2.58h9.539v2.58l-2.352.258-6.533 26.574h-3.658l-5.88-20.383-.523-2.709h-.131l-.523 2.709-6.141 20.641h-3.528l-6.533-26.575-2.352-.258v-2.58h9.408v2.451zm30.575 7.611v-2.58h6.925l.392 3.225c.653-1.161 1.437-1.935 2.352-2.58.914-.645 1.96-.903 3.136-.903.261 0 .654 0 .915.129.392 0 .653.129.784.129l-.523 3.741-2.352-.129c-1.045 0-1.96.258-2.744.774-.784.516-1.306 1.161-1.698 2.064v12.513l3.397.516v2.58h-10.714v-2.58l3.397-.516v-15.867l-3.266-.516zm17.378 16.77l3.397-.516v-15.738l-3.397-.516v-2.58h7.317v18.834l3.397.516v2.58h-10.714v-2.58zm3.266-29.155h4.051v4.128h-4.051v-4.128zm17.509 4.515v5.289h4.181v2.967h-4.181v13.288c0 1.032.261 1.806.654 2.193.392.387 1.045.645 1.698.645.392 0 .784 0 1.176-.129.392-.129.784-.129 1.176-.129l.523 2.709c-.392.258-.914.387-1.699.645-.784.129-1.437.258-2.221.258-1.698 0-3.005-.516-3.92-1.419-.914-1.032-1.437-2.451-1.437-4.645v-13.416h-3.528v-2.967h3.528v-5.289h4.051zm18.424 27.607c-3.136 0-5.488-1.032-7.317-3.096-1.829-2.064-2.743-4.644-2.743-7.869v-.903c0-3.096.914-5.676 2.874-7.74 1.829-2.064 4.051-3.096 6.664-3.096 3.005 0 5.227.903 6.795 2.709 1.568 1.806 2.352 4.128 2.352 7.095v2.451h-14.373v.129c0 2.064.523 3.87 1.568 5.16 1.045 1.419 2.483 2.064 4.312 2.064 1.307 0 2.613-.129 3.658-.516 1.046-.387 1.96-.903 2.613-1.548l1.568 2.58c-.784.774-1.829 1.419-3.136 1.935-1.307.516-2.875.645-4.834.645zm-.523-19.609c-1.307 0-2.483.516-3.528 1.677-.915 1.161-1.568 2.58-1.699 4.257v.129h10.192v-.516c0-1.548-.392-2.838-1.307-3.87-.914-1.032-1.96-1.677-3.658-1.677zm34.233-1.548h-3.005l-.784-4.257c-.654-.516-1.437-.903-2.483-1.29-1.045-.387-2.222-.516-3.528-.516-2.09 0-3.789.387-4.965 1.29-1.176.903-1.698 2.064-1.698 3.483 0 1.29.522 2.322 1.698 3.225s3.005 1.548 5.619 2.193c3.136.774 5.488 1.935 7.186 3.354 1.568 1.548 2.483 3.354 2.483 5.547 0 2.322-1.045 4.257-3.005 5.676-1.96 1.419-4.573 2.193-7.709 2.193-2.352 0-4.312-.387-6.141-1.161-1.829-.774-3.267-1.677-4.312-2.967v-5.547h3.005l.784 4.257c.784.645 1.699 1.161 2.744 1.548 1.045.387 2.352.645 3.92.645 2.09 0 3.658-.387 4.834-1.29 1.176-.903 1.829-2.064 1.829-3.483 0-1.29-.523-2.451-1.568-3.354s-2.875-1.677-5.488-2.322c-3.136-.774-5.618-1.806-7.448-3.225-1.829-1.419-2.613-3.225-2.613-5.418 0-2.322 1.045-4.257 3.005-5.805s4.573-2.323 7.709-2.323c2.09 0 4.05.387 5.749 1.032 1.699.645 3.136 1.548 4.181 2.58v5.935zm4.442 9.546c0-3.225.914-5.934 2.613-7.998 1.829-2.064 4.181-3.096 7.186-3.096s5.488 1.032 7.317 3.096c1.829 2.064 2.613 4.773 2.613 7.998v.387c0 3.225-.914 5.934-2.613 7.998-1.829 2.064-4.181 3.096-7.187 3.096-3.136 0-5.487-1.032-7.317-3.096-1.829-2.064-2.613-4.773-2.613-7.998v-.387zm3.92.516c0 2.322.523 4.257 1.437 5.805 1.045 1.548 2.483 2.322 4.442 2.322 1.96 0 3.398-.774 4.312-2.322 1.045-1.548 1.437-3.483 1.437-5.805v-.387c0-2.322-.523-4.257-1.437-5.676-1.045-1.548-2.483-2.322-4.442-2.322-1.96 0-3.398.774-4.443 2.322-1.045 1.548-1.437 3.484-1.437 5.676v.387h.131zm18.685 8.127l3.397-.516v-15.738l-3.397-.516v-2.58h6.925l.261 2.838c.654-1.032 1.568-1.806 2.744-2.451 1.176-.516 2.483-.903 3.92-.903 1.437 0 2.744.387 3.789 1.032s1.829 1.677 2.352 3.096c.654-1.29 1.568-2.193 2.744-2.967 1.176-.774 2.483-1.032 4.051-1.032 2.221 0 4.051.774 5.357 2.322 1.307 1.548 1.96 3.87 1.96 6.966v9.933l3.397.516v2.58h-10.714v-2.58l3.397-.516v-10.062c0-2.193-.392-3.741-1.176-4.645-.784-.903-1.829-1.29-3.397-1.29-1.437 0-2.483.516-3.397 1.419-.915 1.032-1.307 2.193-1.437 3.741v10.836l3.397.516v2.58h-10.714v-2.58l3.397-.516v-10.062c0-2.064-.392-3.613-1.176-4.515-.784-.903-1.829-1.419-3.398-1.419-1.176 0-2.221.258-3.005.774-.784.516-1.437 1.161-1.829 2.064v13.03l3.398.516v2.58h-10.845v-2.451zm50.435 2.967c-3.136 0-5.488-1.032-7.317-3.096-1.829-2.064-2.744-4.644-2.744-7.869v-.903c0-3.096.914-5.676 2.875-7.74 1.829-2.064 4.051-3.096 6.664-3.096 3.005 0 5.226.903 6.794 2.709 1.568 1.806 2.352 4.128 2.352 7.095v2.451h-14.372v.129c0 2.064.522 3.87 1.568 5.16 1.046 1.419 2.483 2.064 4.312 2.064 1.307 0 2.613-.129 3.658-.516s1.96-.903 2.613-1.548l1.568 2.58c-.784.774-1.829 1.419-3.136 1.935-1.307.516-3.005.645-4.834.645zm-.653-19.609c-1.307 0-2.483.516-3.528 1.677-.914 1.161-1.568 2.58-1.698 4.257v.129h10.192v-.516c0-1.548-.392-2.838-1.307-3.87-.915-1.032-1.96-1.677-3.658-1.677zm20.122-7.998v5.289h4.181v2.967h-4.181v13.288c0 1.032.261 1.806.653 2.193s1.045.645 1.699.645c.392 0 .784 0 1.176-.129.392-.129.784-.129 1.176-.129l.522 2.709c-.392.258-.914.387-1.698.645-.784.129-1.437.258-2.221.258-1.699 0-3.005-.516-3.92-1.419-.915-1.032-1.437-2.451-1.437-4.645v-13.416h-3.528v-2.967h3.528v-5.289h4.051zm7.839 24.64l3.398-.516v-25.413l-3.398-.516v-2.58h7.317v12.642c.784-1.032 1.699-1.806 2.744-2.451 1.045-.516 2.352-.903 3.658-.903 2.352 0 4.181.645 5.488 2.064 1.307 1.419 1.96 3.612 1.96 6.45v10.579l3.397.516v2.58h-10.715v-2.58l3.398-.516v-10.708c0-1.806-.392-3.096-1.176-3.999-.784-.903-1.96-1.29-3.528-1.29-1.046 0-2.091.258-3.005.774-.914.516-1.699 1.161-2.221 2.064v13.03l3.397.516v2.58h-10.715v-2.322zm27.57 0l3.398-.516v-15.738l-3.398-.516v-2.58h7.317v18.834l3.397.516v2.58h-10.714l-.001-2.58zm3.398-29.155h4.051v4.128h-4.051v-4.128zm11.628 27.606h4.051v4.128h-4.051v-4.128zm8.363 1.548l3.397-.516v-15.738l-3.397-.516v-2.58h6.925l.261 3.225c.784-1.161 1.699-2.064 2.744-2.709 1.176-.645 2.352-.903 3.789-.903 2.352 0 4.181.645 5.618 2.064 1.307 1.419 1.96 3.483 1.96 6.45v10.707l3.397.516v2.58h-10.714v-2.58l3.397-.516v-10.578c0-1.935-.392-3.354-1.176-4.128-.784-.774-1.96-1.161-3.528-1.161-1.176 0-2.222.258-3.136.774-.914.516-1.568 1.291-2.09 2.323v12.9l3.397.516v2.58h-10.714v-2.709h-.131zm27.439-7.998c0-3.483.784-6.321 2.352-8.514 1.568-2.193 3.658-3.225 6.402-3.225 1.437 0 2.613.258 3.658.774s1.96 1.29 2.613 2.322l.392-2.709h3.397v21.672c0 2.838-.784 5.031-2.352 6.708-1.568 1.677-3.92 2.451-6.795 2.451-1.045 0-2.221-.129-3.528-.387s-2.352-.645-3.266-1.161l1.045-3.096c.784.387 1.698.774 2.613 1.032 1.045.258 1.96.387 3.005.387 1.829 0 3.136-.516 3.92-1.548.784-1.032 1.307-2.451 1.307-4.257v-2.064c-.784.903-1.568 1.548-2.613 2.064s-2.221.645-3.528.645c-2.744 0-4.834-1.032-6.402-2.967-1.568-1.935-2.352-4.515-2.352-7.611v-.516h.131zm3.92.387c0 2.193.522 3.999 1.437 5.289.914 1.29 2.352 2.064 4.312 2.064 1.176 0 2.222-.258 3.005-.774.784-.516 1.437-1.29 2.09-2.322v-10.062c-.522-.903-1.176-1.677-2.09-2.193-.784-.516-1.829-.774-3.005-.774-1.96 0-3.397.774-4.312 2.451-.915 1.548-1.437 3.612-1.437 6.192v.129zm-359.098-4.729v-34.101l18.004 28h-5.001l9.002 16h-6.001l9.002 14h-52.013l9.002-14h-6.001l10.002-16h-6.001l18.004-28v34.099c-2.285.461-4.006 2.48-4.006 4.901 0 2.761 2.239 5 5.001 5 2.762 0 5.001-2.239 5.001-5 0-2.417-1.716-4.434-3.996-4.899z" sketch:type="MSShapeGroup" fill="#6D6E70"/></svg>