<svg width="127" height="150" viewBox="0 0 127 150" xmlns="http://www.w3.org/2000/svg" xmlns:sketch="http://www.bohemiancoding.com/sketch/ns"><title>logo</title><desc>Created with Sketch.</desc><path d="M126.773 52.152l-1.004 8.019c-.045.446-.201.735-.469.869-.268.134-.492.201-.669.201h-8.099c-.09 0-.212.033-.368.1-.157.067-.257.234-.301.501l-1.874 14.902c-.133 1.336.044 2.25.536 2.74.223.312.469.491.736.535l.469.067v.535l-.402.066c-.224.045-.492.179-.803.401-.313.223-.602.557-.87 1.002-.268.446-.446 1.092-.535 1.939l-1.874 14.903c-.09.446-.257.735-.502.869-.246.134-.48.2-.703.2h-8.099l-.301-.033c-.157-.023-.301-.123-.435-.301-.179-.177-.246-.445-.201-.802l1.875-14.903c.134-1.203-.045-2.115-.536-2.74-.268-.267-.536-.445-.803-.535-.179-.043-.313-.066-.401-.066v-.535c.49-.089.881-.244 1.171-.468.29-.222.58-.558.87-1.003.29-.445.479-1.091.569-1.937l1.874-14.903c0-.223-.023-.356-.067-.401-.09-.089-.224-.133-.402-.133h-8.032l-.335-.034c-.179-.022-.335-.122-.468-.3-.179-.178-.245-.445-.201-.802l1.004-8.02c.089-.445.256-.735.502-.869.245-.134.479-.2.702-.2h27.51c.089 0 .178.023.268.067l.234.1c.067.023.145.079.235.167.177.178.245.446.2.802zm-37.75 24.592c-.224 1.293-.045 2.205.535 2.74.089.179.211.301.368.368l.368.167c.134.045.268.067.402.067v.535c-.492.09-.882.245-1.172.468-.291.223-.581.557-.87 1.002-.291.446-.48 1.092-.569 1.939l-1.875 14.903c-.045.446-.201.735-.468.869-.268.134-.491.2-.669.2h-8.099l-.335-.033c-.179-.023-.335-.123-.468-.301-.179-.177-.246-.445-.201-.802l1.941-15.17c.044-1.113-.157-1.938-.602-2.473-.312-.267-.558-.445-.736-.535-.134-.043-.268-.066-.401-.066v-.535c.445-.089.814-.234 1.104-.435.29-.201.569-.511.837-.935.268-.423.469-1.036.602-1.838l3.146-24.793c.044-.401.201-.679.469-.835.268-.155.49-.234.67-.234h8.099l.335.033c.178.023.335.124.469.301.133.134.2.401.2.802l-3.079 24.592zm-27.51-14.167c.089-.401.022-.712-.201-.936-.134-.134-.335-.244-.602-.334-.134-.044-.246-.067-.335-.067h-7.229c-.09 0-.213.033-.368.1-.157.067-.257.234-.301.501l-1.606 12.898c-.045.134-.023.245.067.334.044.09.156.134.335.134h7.296c.044 0 .29-.056.736-.167.446-.111.713-.501.803-1.169l1.406-11.294zm7.296 23.657l-.301 2.439c-.112.913-.235 1.838-.368 2.774l-.937 7.485c-.045.4-.201.679-.469.835-.268.156-.492.233-.669.233h-7.965c-.358 0-.647-.11-.87-.334-.178-.177-.268-.334-.268-.468-.045-.089-.045-.177 0-.267l1.54-12.23c.044-.356-.023-.668-.201-.935-.179-.178-.424-.268-.736-.268h-7.497l-.301.067c-.157.045-.257.201-.301.468l-1.673 12.899c0 .223-.089.457-.267.702-.179.245-.514.367-1.004.367h-8.032c-.224 0-.391-.033-.502-.1-.112-.067-.212-.144-.301-.234-.09-.177-.133-.344-.133-.501 0-.155.022-.256.067-.3l1.807-14.903c.178-1.203.022-2.115-.469-2.74-.268-.267-.536-.445-.803-.535-.179-.043-.313-.066-.401-.066v-.535c.49-.089.88-.244 1.171-.468.29-.222.579-.558.87-1.003.29-.445.479-1.091.569-1.937l3.079-24.593c.089-.401.256-.679.502-.835.245-.155.457-.234.636-.234h18.675l.803.067c.49.045 1.081.157 1.774.334.691.179 1.439.479 2.242.903.803.424 1.539.992 2.209 1.704 1.517 1.782 2.075 4.1 1.673 6.95l-1.789 14.534c-.542 4.34-5.185 4.874-9.481 4.825 4.296.049 8.643 1.583 8.124 5.901zm-36.011-33.012c1.339 1.701 1.851 3.983 1.54 6.846l-.535 4.027c-.045.402-.201.671-.469.805-.268.134-.491.224-.669.268h-8.099c-.179-.044-.368-.11-.569-.201-.201-.089-.346-.291-.435-.605v-.335l.335-2.416c.044-.358-.023-.671-.2-.94-.134-.134-.335-.246-.602-.335-.134-.044-.246-.067-.335-.067h-6.493c-.045 0-.291.067-.736.201-.447.134-.714.537-.803 1.208l-3.28 26.711c-.09.403-.023.716.2.94.089.134.29.246.602.336.134.046.245.068.335.068h6.493c.268.045.491 0 .669-.135.445-.178.736-.581.87-1.208l.335-2.953h-3.748c-.401-.089-.669-.256-.803-.503-.134-.246-.201-.48-.201-.705l1.004-8.121c.044-.224.144-.458.301-.705.156-.245.457-.324.904-.234l12.985-.068c.178 0 .378.057.602.168.223.112.335.347.335.705.044.045.044.134 0 .268-.09.493-.191 1.198-.301 2.114-.112.918-.234 1.958-.368 3.121-.134 1.164-.28 2.406-.435 3.725-.157 1.32-.325 2.628-.503 3.926-.401 3.043-.803 6.332-1.205 9.865-.09.403-.257.671-.502.806-.245.134-.48.201-.703.201h-19.21c-.358-.044-.803-.122-1.339-.234-.536-.111-1.105-.279-1.707-.503-.602-.223-1.217-.537-1.841-.94-.626-.403-1.183-.916-1.673-1.544-1.384-1.655-1.897-3.915-1.54-6.779l.67-6.108c.178-1.163.022-2.08-.469-2.752-.268-.268-.536-.447-.803-.537-.179-.044-.313-.067-.401-.067v-.537c.445-.089.814-.224 1.104-.403.29-.178.569-.47.837-.873.267-.403.469-.962.602-1.677l.201-1.544c.357-2.997.691-5.705 1.004-8.121.133-1.029.256-2.036.368-3.02.111-.984.223-1.867.335-2.651l.268-1.913c.067-.492.1-.76.1-.805.357-1.879 1.004-3.389 1.941-4.53.937-1.141 1.941-2.035 3.012-2.684 1.071-.648 2.109-1.084 3.113-1.309 1.004-.224 1.751-.357 2.242-.402h.067l.234-.034.235-.034h10.108l.234.034.234.034c.312 0 .736.056 1.272.168.535.112 1.115.28 1.74.503.624.224 1.248.537 1.874.939.624.403 1.182.918 1.673 1.544z" sketch:type="MSShapeGroup" fill="#fff"/></svg>