<svg width="155" height="215" viewBox="0 0 155 215" xmlns="http://www.w3.org/2000/svg"><g fill="none" fill-rule="evenodd"><path d="M25.037 155.372c-2.12-1.263-4.605-2.03-7.132-2.03-4.875 0-8.034 3.296-8.034 8.62 0 5.372 2.978 8.759 8.079 8.759 2.754 0 5.328-.904 7.448-2.303l1.49 6.365c-2.211 1.218-5.958 2.03-9.252 2.03-9.027 0-14.987-5.189-14.987-14.669 0-9.117 5.914-14.894 15.211-14.894 3.431 0 6.772.858 9.345 2.12l-2.167 6.002zm15.436 20.764h-7.176v-28.21h11.328c7.492 0 11.421 3.475 11.421 8.938 0 3.79-1.987 6.679-5.779 8.123l7.221 11.149h-8.079l-5.642-9.48-3.294.272v9.208zm3.475-14.624l-3.61.091v-7.988h3.024c3.609 0 5.326 1.218 5.326 3.699 0 2.71-1.669 3.975-4.74 4.198zm19.002 14.624v-28.21h20.627v5.777h-13.586v5.418h10.922v5.731h-10.922v5.507h13.586v5.777h-20.627zm37.416 0h-10.11v-28.21h10.607c9.929 0 15.571 5.507 15.571 13.902 0 8.666-5.731 14.308-16.068 14.308zm.046-22.477c5.868 0 8.799 2.62 8.799 8.441 0 5.642-3.248 8.304-8.439 8.304h-3.34v-16.745h2.98zm35.926 23.154c-8.348 0-14.713-5.189-14.713-14.713 0-8.938 6.409-14.85 14.804-14.85 8.396 0 14.759 5.145 14.759 14.669 0 8.936-6.454 14.894-14.85 14.894zm-58.339-122.812v-40h-1v40h-63.824v1h63.824v44h1v-44h62.824v-1h-62.824zm58.339 99.026c4.784 0 7.629 3.657 7.629 9.073 0 5.282-2.754 8.936-7.492 8.936-4.83 0-7.629-3.701-7.629-9.117 0-5.28 2.71-8.892 7.492-8.892z" fill="#42240F"/><path d="M103.103 3.901c4.488 0 8.801.649 12.878 1.889 4.433-3.84 8.448-5.79 11.815-5.79 3.662 0 5.967 2.246 5.967 5.612 0 3.546-2.599 7.504-7.679 10.87v.473c0 5.494-4.076 9.746-11.874 12.17l-.296-.177-.177-.532.235-.294c7.089-2.481 10.694-6.204 10.694-10.752-4.488 2.363-9.452 3.78-14.71 4.488-.651 2.185-1.004 4.727-1.004 7.385 0 7.62 4.429 12.051 11.461 12.051 6.969 0 12.757-5.317 19.729-15.832.118.353.177.649.177.826 0 1.3-1.655 3.662-4.782 7.383-5.084 6.027-9.988 9.038-16.309 9.038-8.742 0-14.826-5.966-14.826-14.53 0-1.832.237-3.901.828-6.202-11.755-.414-17.723-3.723-17.723-9.336 0-5.021 5.611-8.742 15.595-8.742zm11.816 2.834c-3.252-1.061-6.796-1.534-10.692-1.534-8.33 0-13.234 3.485-13.234 7.916 0 4.668 5.021 7.502 14.591 7.561 1.83-5.139 4.964-9.864 9.336-13.942m9.746 8.332c-.767-3.368-3.132-5.79-7.088-7.504-2.838 3.721-5.2 8.034-7.091 12.937 5.437-.767 10.219-2.599 14.179-5.433m1.065-1.124c-1.065-3.426-3.662-5.672-7.385-7.383 3.13-3.546 6.32-5.259 8.86-5.259 2.244 0 3.721 1.479 3.721 3.782s-1.714 5.672-5.196 8.86zm-96.264 24.104c-5.08-4.37-6.32-10.101-6.32-14.887 0-3.366 1.24-9.214 5.849-13.704 3.13-3.013 7.857-5.378 15.832-5.378 2.069 0 5.021.177 7.561.592 1.95.355 3.603.71 5.317.767.532 0 .651.238.651.532 0 .414-.118 1.004-.237 2.836-.059 1.655-.059 4.431-.118 5.141-.059.767-.296 1.061-.59 1.061-.355 0-.414-.353-.414-1.061 0-1.95-.828-3.96-2.187-5.023-1.83-1.536-5.611-2.777-10.219-2.777-6.675 0-9.864 1.773-11.696 3.485-3.84 3.546-4.666 8.036-4.666 13.114 0 9.63 7.62 18.196 18.727 18.196 3.899 0 6.498-.296 8.565-2.363 1.124-1.122 1.832-3.25 2.008-4.195.12-.531.177-.708.532-.708.237 0 .473.355.473.708 0 .355-.71 4.725-1.24 6.439-.296.945-.414 1.122-1.301 1.477-2.126.826-6.025 1.124-9.391 1.124-7.798 0-13.055-1.834-17.133-5.378zm12.057 26.851c13.685 0 23.563 10.46 23.563 23.57 0 13.061-9.877 23.568-23.563 23.568-13.689 0-23.526-10.508-23.526-23.568 0-13.11 9.837-23.57 23.526-23.57zm0 43.042c11.225 0 19.226-8.774 19.226-19.472 0-10.698-8.001-19.424-19.226-19.424-11.234 0-19.187 8.726-19.187 19.424 0 10.698 7.953 19.472 19.187 19.472m6.838-14.606l.582 3.76c-1.69 1.011-3.76 1.638-6.073 1.638-6.076 0-10.025-4.287-10.025-10.506 0-6.363 4.097-10.652 9.973-10.652 2.507 0 4.243.531 5.738 1.494l-.577 3.999c-1.399-1.009-2.845-1.684-4.773-1.684-3.424 0-5.59 2.555-5.59 6.796 0 4.243 2.314 6.746 5.783 6.746 1.736 0 3.326-.623 4.962-1.59zm55.511 6.344c0 1.954-1.294 2.934-3.877 2.934-1.342 0-2.327-.139-2.963-.42-1.152-.538-1.728-1.377-1.728-2.514 0-1.017.403-1.736 1.2-2.154l.884-.54c.092-.079.14-.139.14-.179 0-.1-.259-.29-.778-.569-.963-.497-1.446-1.287-1.446-2.364 0-1.137.649-1.995 1.941-2.573.19-.179.283-.29.283-.331l-.07-.177-1.022-.599c-.754-.481-1.131-1.198-1.131-2.155 0-1.017.403-1.754 1.2-2.215l.884-.479c.092-.079.14-.159.14-.238-.024-.102-.072-.181-.146-.24l-.983-.51c-.728-.458-1.094-1.176-1.094-2.154 0-1.118.414-1.886 1.24-2.305.654-.338.983-.547.983-.629l-.07-.118-1.094-.66c-.704-.458-1.059-1.178-1.059-2.155 0-.858.377-1.56 1.128-2.109.754-.549 1.717-.823 2.895-.823 1.268 0 2.207.139 2.819.418 1.15.54 1.727 1.359 1.727 2.455 0 1.098-.409 1.876-1.231 2.335l-.775.42c-.092.079-.14.159-.14.238.024.12.096.2.211.24l.634.388c.869.481 1.301 1.227 1.301 2.246 0 1.057-.409 1.814-1.231 2.274l-.845.508c-.094.079-.14.14-.14.181.024.098.07.159.14.177l.775.42c.869.479 1.301 1.257 1.301 2.335 0 1.098-.409 1.856-1.231 2.276l-.845.418c-.046.041-.07.102-.07.179 0 .081.048.161.14.24l.704.449c.869.518 1.301 1.276 1.301 2.274 0 .978-.351 1.686-1.054 2.126l-1.093.688-.07.12c0 .1.303.299.915.599.869.438 1.301 1.196 1.301 2.274zm20.679-29.258c0 1.192-.577 2.048-1.728 2.564-.54.259-1.527.388-2.962.388h-13.02c-1.386 0-2.353-.129-2.893-.388-1.152-.516-1.728-1.351-1.728-2.503 0-1.948 1.375-2.923 4.13-2.923h14.959c.821 0 1.568.294 2.239.88.669.586 1.004 1.246 1.004 1.982m0 35.089c0 1.96-1.305 2.939-3.915 2.939h-11.748c-2.542 0-4.012-.059-4.411-.181-1.503-.458-2.257-1.359-2.257-2.699 0-1.179.601-2.019 1.801-2.52.494-.2 1.362-.299 2.61-.299h14.075c2.564 0 3.845.919 3.845 2.76m6.881-29.219c0 1.985-1.375 2.976-4.126 2.976-1.272 0-2.165-.122-2.682-.364-1.152-.568-1.728-1.418-1.728-2.553 0-1.984 1.351-2.976 4.058-2.976h.564c2.61.061 3.915 1.033 3.915 2.917m0 23.45c0 1.416-.823 2.335-2.47 2.753-.235.081-1.011.12-2.329.12-1.08 0-1.974-.259-2.679-.778-.708-.519-1.059-1.196-1.059-2.035 0-1.956 1.398-2.932 4.198-2.932 2.893 0 4.339.956 4.339 2.873zm-119.52 98.724l-.963 2.836h.165c.826-1.514 1.762-3.085 2.451-3.939.882-1.1 1.625-1.762 2.451-1.762.882 0 1.268.771 1.268 1.544 0 .852-.634 2.202-1.488 2.202-.331 0-.44-.303-.551-.799-.109-.551-.275-.826-.551-.826-.331 0-.965.606-1.873 2.12-1.019 1.653-2.176 4.324-3.305 6.942-.137.329-.495.44-.935.44-.553 0-1.516-.166-1.266-.937.605-1.789 1.982-5.618 2.753-8.125.139-.44.109-.715-.165-.715-.606 0-1.488.771-2.15 1.542-.274 0-.494-.22-.438-.551.714-1.239 2.091-2.836 3.799-2.836 1.488 0 1.24 1.597.799 2.865zm10.334 5.755c0-2.067 1.294-5.15 3.912-7.132 1.514-1.13 2.808-1.488 3.854-1.488 1.324 0 2.205.991 2.205 1.899 0 2.481-3.747 3.829-6.805 4.655-.137.386-.248 1.02-.248 1.791 0 1.019.44 1.569 1.213 1.569.991 0 1.982-.579 3.25-1.734.275 0 .495.275.44.549-1.486 2.065-3.416 2.893-5.233 2.893-1.815 0-2.588-1.488-2.588-3.002zm5.37-6.528c.688-.771 1.268-1.102 1.653-1.102.359 0 .523.331.523.69 0 .44-.329 1.377-1.019 2.065-.882.908-1.734 1.377-3.139 1.873.301-.993.963-2.451 1.982-3.525zm16.444-.495c-.939 2.753-2.205 7.766-3.058 10.465-.69 2.148-1.433 3.801-2.122 4.681-.577.745-2.037 1.902-3.743 1.902-1.324 0-2.314-.884-2.314-1.847 0-.743.495-1.294 1.046-1.294.385 0 .634.192.854.551.523.826 1.128 1.377 1.597 1.377.412 0 .799-.44 1.349-2.34.935-3.305 2.259-8.648 3.636-13.495h-2.453c-.274-.386-.054-1.046.331-1.213h2.451c.634-2.12 1.24-4.021 2.368-5.646 1.377-2.009 3.113-3.194 5.261-3.194 1.708 0 2.754.993 2.754 2.12 0 1.157-.882 1.873-1.488 1.873-.385 0-.551-.165-.606-.551-.22-1.871-1.017-2.449-1.569-2.449-.606 0-1.266.688-1.845 1.843-.91 1.819-1.516 3.912-2.12 6.004h3.278c.22.333.109.993-.331 1.213h-3.276zm7.709 7.023c0-2.067 1.294-5.15 3.912-7.132 1.514-1.13 2.808-1.488 3.854-1.488 1.322 0 2.204.991 2.204 1.899 0 2.481-3.745 3.829-6.801 4.655-.139.386-.25 1.02-.25 1.791 0 1.019.442 1.569 1.213 1.569.991 0 1.984-.579 3.25-1.734.275 0 .495.275.44.549-1.486 2.065-3.414 2.893-5.232 2.893-1.819 0-2.59-1.488-2.59-3.002zm5.372-6.528c.688-.771 1.266-1.102 1.651-1.102.359 0 .523.331.523.69 0 .44-.331 1.377-1.019 2.065-.88.908-1.736 1.377-3.141 1.873.303-.993.965-2.451 1.985-3.525zm15.752.773l-.963 2.836h.165c.826-1.514 1.762-3.085 2.451-3.939.882-1.1 1.625-1.762 2.451-1.762.88 0 1.266.771 1.266 1.544 0 .852-.634 2.202-1.486 2.202-.331 0-.44-.303-.553-.799-.109-.551-.275-.826-.549-.826-.331 0-.965.606-1.875 2.12-1.019 1.653-2.174 4.324-3.303 6.942-.139.329-.497.44-.935.44-.553 0-1.516-.166-1.268-.937.606-1.789 1.984-5.618 2.754-8.125.137-.44.109-.715-.165-.715-.606 0-1.488.771-2.15 1.542-.274 0-.495-.22-.44-.551.715-1.239 2.093-2.836 3.801-2.836 1.488 0 1.239 1.597.799 2.865zm10.334 5.755c0-2.067 1.294-5.15 3.91-7.132 1.516-1.13 2.81-1.488 3.856-1.488 1.322 0 2.204.991 2.204 1.899 0 2.481-3.745 3.829-6.803 4.655-.137.386-.246 1.02-.246 1.791 0 1.019.44 1.569 1.209 1.569.993 0 1.985-.579 3.252-1.734.274 0 .495.275.44.549-1.488 2.065-3.414 2.893-5.233 2.893-1.817 0-2.588-1.488-2.588-3.002zm5.37-6.528c.69-.771 1.266-1.102 1.653-1.102.359 0 .523.331.523.69 0 .44-.329 1.377-1.017 2.065-.884.908-1.736 1.377-3.143 1.873.303-.993.965-2.451 1.984-3.525zm23.326-.549c0 .521-.22 1.459-.494 2.174-.499 1.349-1.821 4.352-2.261 5.453-.135.329-.165.551.055.551.44 0 1.762-.993 2.534-1.873.331-.055.494.165.494.495-.934 1.542-3.137 3.278-5.285 3.278-.497 0-.937-.495-.937-.882 0-.329.111-.717.495-1.625.717-1.653 1.651-3.939 2.314-5.563.22-.551.44-1.213.44-1.655 0-.248-.055-.466-.386-.466-.468 0-1.651.852-2.917 2.449-1.488 1.928-2.839 4.463-4.187 7.3-.165.329-.497.44-.937.44-.494 0-1.457-.166-1.211-.937.109-.357 2.644-7.187 2.919-7.958.165-.442.218-.828-.111-.828-.551 0-1.597.717-2.366 1.435-.277 0-.442-.222-.442-.442.88-1.403 2.864-2.891 4.738-2.891.989 0 1.074.826.824 1.433l-1.679 4.268h.109c1.734-2.451 4.268-5.701 6.637-5.701 1.213 0 1.653.771 1.653 1.544zm7.491 7.049c0-1.817 1.13-4.544 3.111-6.5 1.46-1.431 2.921-2.093 4.381-2.093 1.431 0 2.394.771 2.368 1.873 0 1.074-1.02 1.514-1.655 1.514-.466 0-.797-.275-.824-.771-.055-.606.028-1.516-.688-1.516-.553 0-1.266.551-2.039 1.765-.854 1.348-1.734 3.387-1.734 5.398 0 1.237.466 1.651 1.13 1.651.823 0 1.815-.523 2.945-1.68.331 0 .551.222.497.551-1.019 1.349-3.03 2.838-5.069 2.838-1.486 0-2.424-1.048-2.424-3.03zm15.697.028c0-2.067 1.296-5.15 3.912-7.132 1.516-1.13 2.808-1.488 3.856-1.488 1.322 0 2.204.991 2.204 1.899 0 2.481-3.747 3.829-6.805 4.655-.135.386-.246 1.02-.246 1.791 0 1.019.44 1.569 1.209 1.569.993 0 1.985-.579 3.254-1.734.274 0 .494.275.438.549-1.486 2.065-3.413 2.893-5.233 2.893-1.815 0-2.588-1.488-2.588-3.002zm5.372-6.528c-1.019 1.074-1.68 2.533-1.985 3.525 1.407-.495 2.261-.965 3.141-1.873.69-.688 1.019-1.625 1.019-2.065 0-.359-.163-.69-.521-.69-.386 0-.965.331-1.653 1.102" fill="#7482BF"/></g></svg>
