<svg width="222" height="107" viewBox="0 0 222 107" xmlns="http://www.w3.org/2000/svg"><g fill="none"><path d="M13.275 68.267c-2.504 0-3.506 0-3.506 1.566v1.127c0 1.501.501 1.69 1.565 1.877l9.58 1.753c6.7 1.253 10.456 1.816 10.456 9.203v2.566c0 8.138-4.32 10.955-12.46 10.893-10.018 0-18.909-1.001-18.909-1.001l.063-6.823h17.156c3.757 0 5.322-.689 5.322-3.13v-1.253c0-1.189-.376-1.816-3.193-2.379l-12.335-2.253c-4.321-.877-6.575-2.128-6.575-7.763v-2.63c0-8.138 4.07-9.452 12.21-9.39 9.956 0 16.342.564 16.342.564v7.073h-15.716zm53.658 27.92s-8.14 1.002-18.033 1.002c-8.14.063-12.21-2.128-12.21-10.955v-13.96c0-6.699 4.571-11.456 12.711-11.456h7.889c8.14 0 12.21 4.757 12.21 11.456v10.205c0 .626-.063.813-.626.813h-22.792v2.191c0 4.007.751 4.257 4.32 4.257h16.655l-.125 6.447zm-6.512-22.661c0-4.883-1.503-5.446-4.884-5.446h-4.07c-3.444 0-5.385.376-5.385 5.446v3.068l14.339-.189v-2.88zm15.449-12.546h9.392v2.566c2.755-1.377 6.386-2.941 9.455-2.941h1.753c7.889 0 11.897 2.003 11.897 10.704v25.666h-9.392v-24.728c0-3.067-1.252-3.943-4.32-3.943h-1.441c-2.379 0-5.134 1.126-7.951 1.814v26.856h-9.392v-35.995zm58.915-.313c8.14-.062 12.21 1.878 12.21 10.705v25.603h-9.392v-2.692c-2.755 1.378-6.386 3.005-9.455 3.005h-2.067c-7.951-.061-11.959.126-11.959-10.705v-3.38c0-8.89 4.008-9.579 11.959-9.579h3.444c3.882 0 5.198.501 8.077 1.253v-2.442c-.063-3.694-1.377-4.695-5.134-4.695l-14.652.063v-6.26s7.013-.877 16.968-.877zm-4.195 19.218h-2.942c-3.381 0-4.384.314-4.384 4.007v2.441c0 3.067 1.315 3.945 4.384 3.945h2.004c2.379 0 5.134-1.127 7.951-1.816v-8.013c-2.818-.313-4.633-.564-7.013-.564zm26.859 19.532h5.761c2.88 0 3.444-.313 4.133-2.879.125-.438.5-1.816.5-1.816h-5.26c-1.878 0-2.817-2.255-2.817-2.379-.062-.126-9.283-31.363-9.283-31.363h9.154l7.205 24.163h3.506l7.226-24.163h9.191s-10.156 34.556-10.344 34.993c-2.379 8.389-3.569 10.517-11.896 10.517-3.506 0-7.076-1.127-7.076-1.127v-5.947zm50.974-38.906c8.14-.063 12.21 1.878 12.21 10.705v25.603h-9.392v-2.691c-2.755 1.377-6.387 3.004-9.455 3.004h-2.067c-7.952-.063-11.959.126-11.959-10.704v-3.38c0-8.89 4.007-9.579 11.959-9.579h3.444c3.881 0 5.197.501 8.077 1.253v-2.441c-.063-3.694-1.378-4.696-5.134-4.696l-14.652.063v-6.26s7.013-.877 16.968-.877zm-4.195 19.218h-2.943c-3.381 0-4.383.313-4.383 4.007v2.442c0 3.067 1.314 3.943 4.383 3.943h2.004c2.379 0 5.134-1.125 7.952-1.814v-8.013c-2.818-.314-4.633-.565-7.013-.565z" fill="#242B3A"/><path d="M200 25c.108-.95-.175-1.483-1-2l-7-2c-.949-.112-1.487.179-2 1l-2 7c-.116.949.175 1.483 1 2l7 2c.943.112 1.486-.178 2-1l2-7zm7-25l-2 7h9v41h-22l-2 7h27c2.717 0 5-2.214 5-5v-45c0-2.785-2.283-5-5-5h-10zm-37 55h10l2-7h-9v-41h22l2-7h-27c-2.717 0-5 2.215-5 5v45c0 2.785 2.283 5 5 5z" fill="#EF0000"/></g></svg>
