<svg width="270px" height="150px" viewBox="0 0 270 150" xmlns="http://www.w3.org/2000/svg">
<g stroke="none" fill="none" fill-rule="evenodd">
<g fill="#FFFFFF">
<g transform="translate(0.000000, 55.000000)">
<path d="M75.5331081,31.5852863 L75.5331081,31.5017435 C75.5331081,23.2333906 81.8841892,16.4604543 90.9887838,16.4604543 C96.5772973,16.4604543 99.9231081,18.2888487 102.675405,20.9478975 L98.5256757,25.6430044 C96.2391892,23.6069463 93.9101351,22.3609648 90.9462162,22.3609648 C85.95,22.3609648 82.35,26.4330808 82.35,31.4193941 L82.35,31.5017435 C82.35,36.4892502 85.8648649,40.6437156 90.9462162,40.6437156 C94.3333784,40.6437156 96.4082432,39.3141912 98.7372973,37.2363618 L102.887027,41.3502492 C99.837973,44.5499395 96.4508108,46.5442261 90.7345946,46.5442261 C82.0118919,46.5442261 75.5331081,39.937182 75.5331081,31.5852863 Z M113.108108,16.9592049 L119.629459,16.9592049 L119.629459,28.465415 L131.654189,28.465415 L131.654189,16.9592049 L138.175541,16.9592049 L138.175541,46.036128 L131.654189,46.036128 L131.654189,34.3640777 L119.629459,34.3640777 L119.629459,46.036128 L113.108108,46.036128 L113.108108,16.9592049 Z M149.122338,31.5852863 L149.122338,31.5017435 C149.122338,23.2333906 155.770176,16.4604543 164.917338,16.4604543 C174.063284,16.4604543 180.625986,23.1498477 180.625986,31.4193941 L180.625986,31.5017435 C180.625986,39.7712898 173.978149,46.5442261 164.832203,46.5442261 C155.686257,46.5442261 149.122338,39.8548326 149.122338,31.5852863 Z M173.809095,31.5852863 L173.809095,31.5017435 C173.809095,26.5166236 170.082608,22.3609648 164.832203,22.3609648 C159.581797,22.3609648 155.940446,26.4330808 155.940446,31.4193941 L155.940446,31.5017435 C155.940446,36.4892502 159.665716,40.6437156 164.917338,40.6437156 C170.167743,40.6437156 173.809095,36.5715996 173.809095,31.5852863 Z M191.724324,46.0362474 L191.724324,16.9593243 L198.244459,16.9593243 L198.244459,46.0362474 L191.724324,46.0362474 Z M209.502,31.5852863 L209.502,31.5017435 C209.502,23.2333906 215.854297,16.4604543 224.957676,16.4604543 C230.547405,16.4604543 233.892,18.2888487 236.644297,20.9478975 L232.494568,25.6430044 C230.208081,23.6069463 227.879027,22.3609648 224.915108,22.3609648 C219.918892,22.3609648 216.318892,26.4330808 216.318892,31.4193941 L216.318892,31.5017435 C216.318892,36.4892502 219.833757,40.6437156 224.915108,40.6437156 C228.30227,40.6437156 230.378351,39.3141912 232.707405,37.2363618 L236.855919,41.3502492 C233.808081,44.5499395 230.419703,46.5442261 224.703486,46.5442261 C215.980784,46.5442261 209.502,39.937182 209.502,31.5852863 Z M246.891892,16.9592049 L269.248378,16.9592049 L269.248378,22.650269 L253.369459,22.650269 L253.369459,28.5489317 L267.343784,28.5489317 L267.343784,34.2388027 L253.369459,34.2388027 L253.369459,40.3450639 L269.461216,40.3450639 L269.461216,46.036128 L246.891892,46.036128 L246.891892,16.9592049 Z" id="text"></path>
<path d="M16.9710693,0 L16.9710693,16.9615385 L0,16.9615385 L0,63 L46,63 L46,46.0384615 L63.0279541,46.0384615 L63.0279541,0 L16.9710693,0 Z M23.1068919,6.05769231 L52.6208108,6.05769231 L41.6724324,16.9615385 L23.1068919,16.9615385 L23.1068919,6.05769231 Z M46,21.4914808 L56.9456568,10.5900577 L56.9456568,39.9807692 L46,39.9807692 L46,21.4914808 Z M23.1068919,39.9807692 L40,39.9807692 L40,23.0192308 L23.1068919,23.0192308 L23.1068919,39.9807692 Z M6.08108108,23.0192308 L16.9710693,23.0192308 L16.9710693,41.5085192 L6.08108108,52.4111538 L6.08108108,23.0192308 Z M21.5695946,46.0384615 L40,46.0384615 L40,56.9423077 L10.6212162,56.9423077 L21.5695946,46.0384615 Z" id="mark"></path>
</g>
</g>
</g>
</svg>
