<svg width="100" height="150" viewBox="0 0 100 150" xmlns="http://www.w3.org/2000/svg" xmlns:sketch="http://www.bohemiancoding.com/sketch/ns"><title>logo-color</title><desc>Created with Sketch.</desc><path d="M27.654 23.851l-5.648-1.532v-.334s1.753-1.975 5.648-1.975c3.884 0 5.64 1.975 5.64 1.975v1.867h-5.64zm72.701 21.205l-.355 53.944h-57l-6.096-59.77c-1.412-.933-4.4-2.396-9.303-2.396-4.69 0-7.619 1.327-9.1 2.26l-6.501 59.907h-12v-75h21.328v2.874c.196-.09.4-.177.624-.263v-2.611h5.648l5.64 1.635v.976c.222.082.428.163.624.248v-1.045l66.49 19.242zm-72.701-14.207c-9.3 0-11.296 3.58-11.296 3.58v5.126s3.437-3.581 11.296-3.581c7.847 0 11.285 3.581 11.285 3.581v-5.126s-1.993-3.58-11.285-3.58zm8.254-1.417s-3.187-2.486-8.338-2.486-7.945 2.486-7.945 2.486l-.135 1.259c1.877-.691 4.509-1.223 8.163-1.223 3.804 0 6.497.579 8.388 1.313l-.134-1.349zm-35.908-29.431v16.346l21.328 5.794v-1.298l5.322-3.55c-.222-.232-.356-.54-.356-.881 0-.715.581-1.294 1.306-1.294.719 0 1.3.579 1.3 1.294 0 .342-.138.649-.36.881l5.332 3.55v3.002h66.483v-23.844h-100.355zm2.116 125.043v-17.948h2.849c1.655 0 2.856.108 3.627.32 1.082.284 1.945.813 2.584 1.583.646.773.965 1.684.965 2.733 0 .683-.145 1.302-.443 1.86-.286.557-.762 1.079-1.419 1.568 1.1.511 1.906 1.151 2.414 1.921.507.77.766 1.676.766 2.727 0 1.008-.265 1.929-.788 2.756-.53.831-1.205 1.45-2.04 1.864-.828.41-1.967.614-3.433.614h-5.082zm3.455-14.689v3.781h.748c.842 0 1.466-.177 1.873-.526.41-.349.61-.823.61-1.427 0-.562-.196-1.008-.573-1.335-.392-.331-.98-.493-1.771-.493h-.886zm0 6.832v4.597h.857c1.434 0 2.396-.178 2.897-.536.497-.359.747-.878.747-1.561 0-.774-.294-1.381-.878-1.831-.581-.447-1.554-.67-2.911-.67h-.712zm10.106-10.091h9.879v3.346h-6.461v3.244h6.461v3.282h-6.461v4.72h6.461v3.356h-9.879v-17.948zm18.583 0h3.499l6.962 17.948h-3.582l-1.416-3.698h-7.386l-1.477 3.698h-3.575l6.976-17.948zm1.772 4.76l-2.429 6.163h4.838l-2.409-6.163zm25.927-1.604l-2.414 2.278c-1.636-1.72-3.485-2.576-5.532-2.576-1.727 0-3.183.586-4.37 1.759-1.183 1.169-1.775 2.616-1.775 4.331 0 1.198.261 2.263.784 3.191.526.928 1.267 1.655 2.225 2.184.959.529 2.026.795 3.198.795 1.002 0 1.916-.187 2.744-.557.828-.367 1.739-1.043 2.725-2.019l2.345 2.418c-1.343 1.292-2.606 2.191-3.797 2.687-1.187.504-2.548.752-4.073.752-2.816 0-5.118-.885-6.911-2.651-1.793-1.77-2.686-4.037-2.686-6.803 0-1.788.406-3.378 1.223-4.771.81-1.388 1.982-2.511 3.507-3.352 1.521-.849 3.161-1.27 4.918-1.27 1.488 0 2.925.313 4.312.935 1.38.626 2.574 1.519 3.576 2.67zm10.326-3.605c2.566 0 4.766.917 6.614 2.756 1.836 1.838 2.765 4.08 2.765 6.724 0 2.616-.911 4.835-2.729 6.648-1.818 1.812-4.029 2.72-6.621 2.72-2.715 0-4.977-.932-6.773-2.791-1.801-1.864-2.701-4.076-2.701-6.638 0-1.716.421-3.295 1.256-4.734.842-1.439 1.989-2.58 3.456-3.421 1.466-.842 3.049-1.263 4.732-1.263zm-.029 3.342c-1.677 0-3.089.579-4.233 1.734-1.139 1.154-1.709 2.622-1.709 4.403 0 1.982.718 3.554 2.156 4.709 1.114.903 2.396 1.353 3.844 1.353 1.633 0 3.026-.587 4.174-1.755 1.15-1.173 1.727-2.616 1.727-4.332 0-1.708-.581-3.154-1.735-4.338-1.162-1.181-2.57-1.774-4.225-1.774zm11.586-2.893h3.303l7.745 11.81v-11.81h3.448v17.948h-3.317l-7.735-11.775v11.775h-3.445v-17.948z" sketch:type="MSShapeGroup" fill="#0065A4"/></svg>