<svg width="381" height="66" viewBox="0 0 381 66" xmlns="http://www.w3.org/2000/svg"><g fill="none" fill-rule="evenodd"><path fill="#E8423D" d="M51 13h4v40h-4z"/><path fill="#EB633E" d="M38 6h9v54h-9z"/><path fill="#EF8C41" d="M21 0h13v67h-13z"/><path fill="#F5B746" d="M8 6h9v54h-9z"/><path fill="#FEE34B" d="M0 13h4v40h-4z"/><path d="M69 41.903c0-.373.134-.735.403-1.085.268-.35.565-.525.892-.525.209 0 .478.146.805.438.326.292.665.618 1.015.979.35.362.898.688 1.645.98.746.292 1.586.437 2.519.437 1.516 0 2.706-.367 3.569-1.102.862-.735 1.294-1.814 1.294-3.237 0-1.282-.397-2.326-1.189-3.131-.793-.805-1.75-1.417-2.87-1.837-1.119-.42-2.244-.869-3.376-1.347-1.132-.478-2.095-1.213-2.887-2.205-.793-.991-1.189-2.268-1.189-3.832 0-1.225.232-2.292.7-3.2.465-.908 1.09-1.591 1.871-2.051.782-.46 1.593-.796 2.432-1.008.84-.213 1.737-.318 2.694-.318 1.447 0 2.828.21 4.147.629 1.317.419 1.977 1.001 1.977 1.743 0 .328-.117.679-.35 1.054-.234.375-.538.563-.91.563-.094 0-.631-.222-1.609-.665-.98-.443-2.065-.665-3.255-.665-1.422 0-2.571.292-3.446.874-.875.584-1.312 1.505-1.312 2.764 0 1.074.396 1.942 1.189 2.607.793.665 1.755 1.196 2.887 1.592 1.131.397 2.257.851 3.376 1.365 1.12.513 2.075 1.335 2.87 2.467.793 1.132 1.189 2.572 1.189 4.321 0 2.403-.7 4.217-2.099 5.442-1.399 1.225-3.253 1.836-5.563 1.836-2.077 0-3.832-.435-5.266-1.306-1.435-.87-2.152-1.73-2.152-2.577zm17.925-20.108c0-.341.093-.642.28-.903.186-.262.443-.392.77-.392h14.241c.326 0 .583.131.771.392.186.261.28.563.28.903 0 .364-.093.682-.28.955-.188.272-.444.408-.771.408h-5.632v21.865c0 .328-.147.586-.438.773-.292.187-.636.28-1.032.28-.397 0-.741-.093-1.033-.28-.293-.187-.437-.444-.437-.773v-21.865h-5.669c-.326 0-.583-.131-.77-.392-.187-.261-.28-.585-.28-.972zm19.846 23.233v-23.514c0-.28.099-.513.298-.7.198-.186.449-.291.752-.315h6.403c2.332 0 4.21.542 5.634 1.627 1.423 1.084 2.134 2.875 2.134 5.371 0 3.849-1.738 6.123-5.214 6.824l5.178 9.832c.093.163.14.327.14.49 0 .373-.187.717-.56 1.032-.373.315-.769.472-1.189.472-.49 0-.933-.385-1.33-1.155l-5.283-10.253h-4.024v10.288c0 .327-.145.583-.437.77-.293.187-.636.28-1.033.28-.396 0-.74-.093-1.031-.28-.293-.186-.438-.442-.438-.77zm2.939-12.736v-9.133h4.514c3.219 0 4.829 1.517 4.829 4.549 0 3.056-1.61 4.584-4.829 4.584h-4.514zm16.266 12.131l.07-.28 7.162-23.262c.205-.681.8-1.021 1.784-1.021.983 0 1.578.343 1.784 1.029l7.186 23.346.017.131.017.099c0 .307-.192.581-.577.821-.385.241-.8.361-1.242.361-.56 0-.91-.22-1.05-.661l-1.54-5.182h-9.259l-1.535 5.164c-.137.453-.492.679-1.065.679-.412 0-.807-.117-1.185-.35-.379-.233-.568-.525-.568-.875zm5.082-7.068l3.915-13.181 3.892 13.181h-7.807zm12.203-15.56c0-.341.093-.642.28-.903.186-.262.442-.392.77-.392h14.241c.326 0 .583.131.77.392.186.261.28.563.28.903 0 .364-.094.682-.28.955-.188.272-.444.408-.77.408h-5.633v21.865c0 .328-.146.586-.437.773-.292.187-.636.28-1.033.28-.397 0-.741-.093-1.032-.28-.293-.187-.437-.444-.437-.773v-21.865h-5.669c-.327 0-.583-.131-.77-.392-.187-.261-.28-.585-.28-.972zm19.846 23.233v-23.479c0-.326.134-.583.403-.77.268-.186.577-.28.926-.28h12.457c.326 0 .577.129.752.385.175.257.262.56.262.91 0 .374-.093.695-.279.963-.187.268-.432.402-.735.402h-10.847v8.888h5.458c.303 0 .548.122.736.367.186.245.28.542.28.892 0 .303-.087.577-.262.822-.175.245-.426.367-.753.367h-5.458v8.923h10.847c.303 0 .548.134.735.402.186.269.279.589.279.962 0 .35-.087.653-.262.91-.175.257-.426.385-.752.385h-12.457c-.349 0-.659-.093-.926-.28-.269-.186-.403-.442-.403-.77zm17.925-6.369v-10.532c0-2.636.682-4.566 2.047-5.79 1.365-1.225 3.167-1.837 5.406-1.837 2.285 0 4.129.577 5.529 1.732 1.399 1.155 2.1 2.665 2.1 4.531 0 .536-.123.91-.367 1.12-.245.21-.613.315-1.102.315-.957 0-1.447-.338-1.47-1.015-.303-2.682-1.843-4.024-4.619-4.024-3.056 0-4.584 1.657-4.584 4.968v10.532c0 3.313 1.528 4.968 4.584 4.968 1.47 0 2.607-.414 3.412-1.242.805-.828 1.207-2.07 1.207-3.727v-3.569h-4.164c-.327 0-.577-.122-.753-.367-.175-.245-.262-.53-.262-.857 0-.326.093-.612.28-.857.186-.245.431-.367.735-.367h6.088c.326 0 .577.105.753.315.175.21.262.467.262.77v4.933c0 2.636-.689 4.566-2.065 5.791-1.376 1.225-3.209 1.837-5.494 1.837-2.286 0-4.111-.613-5.476-1.837-1.364-1.225-2.047-3.155-2.047-5.791zm20.486 6.369v-23.514c0-.326.145-.577.437-.752.291-.175.636-.262 1.033-.262.396 0 .74.088 1.032.262.291.175.437.426.437.752v23.514c0 .327-.146.583-.437.77-.292.187-.636.28-1.032.28-.397 0-.741-.093-1.033-.28-.292-.186-.437-.442-.437-.77zm8.963-6.369v-10.532c0-2.612.694-4.536 2.082-5.773 1.388-1.236 3.202-1.855 5.442-1.855 2.285 0 4.117.577 5.493 1.732 1.376 1.155 2.065 2.607 2.065 4.356 0 .63-.117 1.056-.35 1.277-.234.222-.608.332-1.12.332-.933 0-1.423-.338-1.469-1.015-.14-2.682-1.657-4.024-4.549-4.024-3.102 0-4.653 1.657-4.653 4.968v10.532c0 3.313 1.586 4.968 4.758 4.968.91 0 1.668-.127 2.275-.385.606-.256 1.056-.63 1.347-1.12.291-.49.484-.91.577-1.26.093-.35.175-.816.245-1.399.07-.676.56-1.015 1.469-1.015.513 0 .886.117 1.12.35.232.234.35.665.35 1.294 0 1.773-.695 3.248-2.082 4.426-1.389 1.179-3.225 1.768-5.511 1.768-2.217 0-4.018-.618-5.406-1.855s-2.082-3.161-2.082-5.774zm28.808 6.369v-23.094c0-.956.49-1.435 1.469-1.435.933 0 1.714.618 2.344 1.855l5.494 10.532 5.527-10.532c.677-1.236 1.458-1.855 2.345-1.855.98 0 1.47.478 1.47 1.435v23.094c0 .327-.146.583-.437.77-.293.187-.636.28-1.033.28-.397 0-.741-.093-1.032-.28-.293-.186-.437-.442-.437-.77v-18.37l-5.284 9.937c-.28.537-.665.805-1.154.805-.444 0-.805-.268-1.085-.805l-5.249-10.077v18.51c0 .327-.145.583-.437.77-.293.187-.636.28-1.033.28-.397 0-.741-.093-1.032-.28-.293-.186-.437-.442-.437-.77zm23.687 0v-23.479c0-.326.134-.583.403-.77.268-.186.577-.28.926-.28h12.457c.326 0 .577.129.752.385.174.257.262.56.262.91 0 .374-.093.695-.279.963-.187.268-.432.402-.735.402h-10.847v8.888h5.458c.303 0 .548.122.736.367.186.245.28.542.28.892 0 .303-.088.577-.262.822-.175.245-.426.367-.753.367h-5.458v8.923h10.847c.303 0 .548.134.735.402.186.269.279.589.279.962 0 .35-.088.653-.262.91-.175.257-.426.385-.752.385h-12.457c-.35 0-.659-.093-.926-.28-.269-.186-.403-.442-.403-.77zm19.846.035v-23.549c0-.28.123-.519.367-.717.245-.198.565-.298.962-.298h6.194c2.286 0 4.117.613 5.493 1.837 1.377 1.225 2.065 3.155 2.065 5.79v10.322c0 2.636-.688 4.566-2.065 5.791-1.376 1.225-3.207 1.837-5.493 1.837h-6.194c-.396 0-.717-.099-.962-.297-.245-.198-.367-.437-.367-.717zm2.939-1.645v-20.26h4.584c1.47 0 2.606.415 3.412 1.243.805.828 1.207 2.07 1.207 3.726v10.322c0 1.657-.402 2.899-1.207 3.727-.805.828-1.942 1.243-3.412 1.243h-4.584zm16.907 1.609v-23.514c0-.326.145-.577.437-.752.291-.175.635-.262 1.031-.262.397 0 .741.088 1.033.262.291.175.437.426.437.752v23.514c0 .327-.145.583-.437.77-.293.187-.636.28-1.033.28-.396 0-.74-.093-1.031-.28-.293-.186-.437-.442-.437-.77zm7.682-.606l.07-.28 7.161-23.262c.205-.681.8-1.021 1.784-1.021.983 0 1.578.343 1.784 1.029l7.186 23.346.017.131.018.099c0 .307-.193.581-.577.821-.385.241-.8.361-1.242.361-.56 0-.91-.22-1.05-.661l-1.54-5.182h-9.259l-1.534 5.164c-.138.453-.493.679-1.065.679-.412 0-.808-.117-1.186-.35-.379-.233-.568-.525-.568-.875zm5.082-7.068l3.915-13.181 3.892 13.181h-7.807zm25.647 7.888v-18.811c0-.261.117-.462.35-.602.234-.14.509-.21.826-.21.317 0 .592.07.825.21.234.14.35.341.35.602v17.523h7.642c.243 0 .429.108.56.322.131.215.196.462.196.742 0 .28-.065.528-.196.742-.131.214-.317.321-.56.321h-8.93c-.28 0-.528-.074-.741-.223-.215-.15-.322-.355-.322-.616zm14.084 0v-18.811c0-.261.116-.462.35-.602.233-.14.508-.21.826-.21.318 0 .592.07.826.21.232.14.349.341.349.602v17.523h7.642c.243 0 .43.108.56.322.13.215.197.462.197.742 0 .28-.067.528-.197.742-.131.214-.318.321-.56.321h-8.929c-.28 0-.528-.074-.742-.223-.214-.15-.322-.355-.322-.616zm12.163-5.095v-8.425c0-2.09.555-3.629 1.666-4.619 1.11-.988 2.561-1.483 4.352-1.483 1.83 0 3.294.462 4.396 1.386 1.101.924 1.652 2.085 1.652 3.485 0 .504-.094.845-.28 1.022-.186.178-.485.266-.895.266-.746 0-1.139-.271-1.176-.812-.112-2.146-1.325-3.219-3.639-3.219-2.482 0-3.723 1.325-3.723 3.975v8.425c0 2.65 1.269 3.975 3.807 3.975.729 0 1.334-.102 1.82-.308.485-.205.844-.503 1.078-.895.233-.392.387-.728.462-1.008.074-.28.14-.653.196-1.12.056-.541.448-.812 1.176-.812.41 0 .709.094.895.28.186.186.28.531.28 1.035 0 1.419-.555 2.599-1.666 3.541-1.11.942-2.58 1.414-4.408 1.414-1.773 0-3.215-.494-4.325-1.484-1.111-.988-1.666-2.528-1.666-4.619z" fill="#292929"/></g></svg>
